<svg width="32" height="32" viewBox="0 0 32 32" fill="none" xmlns="http://www.w3.org/2000/svg">
<path d="M21.7499 27C21.7499 27.1989 21.6708 27.3897 21.5302 27.5303C21.3895 27.671 21.1988 27.75 20.9999 27.75H2.99986C2.80095 27.75 2.61018 27.671 2.46953 27.5303C2.32888 27.3897 2.24986 27.1989 2.24986 27C2.24986 26.8011 2.32888 26.6103 2.46953 26.4697C2.61018 26.329 2.80095 26.25 2.99986 26.25H20.9999C21.1988 26.25 21.3895 26.329 21.5302 26.4697C21.6708 26.6103 21.7499 26.8011 21.7499 27ZM30.7374 11.5975C30.717 11.7009 30.6751 11.7989 30.6144 11.8851C30.5537 11.9712 30.4755 12.0436 30.3849 12.0975L11.9586 23.0975C11.2293 23.5241 10.3998 23.7497 9.55486 23.7512C8.34971 23.7498 7.19067 23.2878 6.31486 22.46L6.30236 22.4487L1.79611 18.045C1.58605 17.8465 1.42842 17.599 1.3373 17.3248C1.24618 17.0505 1.22441 16.7579 1.27393 16.4732C1.32345 16.1885 1.44272 15.9204 1.62108 15.693C1.79945 15.4656 2.03136 15.2859 2.29611 15.17L2.67111 14.9837C2.84889 14.8969 3.05376 14.8839 3.24111 14.9475L6.88486 16.1762L9.78111 14.4262L6.81861 11.5512C6.60349 11.3531 6.44144 11.1043 6.34727 10.8274C6.2531 10.5506 6.22982 10.2545 6.27955 9.96632C6.32928 9.67814 6.45043 9.40702 6.63194 9.17772C6.81346 8.94843 7.04953 8.76828 7.31861 8.65374L7.34861 8.64123L8.24236 8.30248C8.41127 8.23955 8.5972 8.23955 8.76611 8.30248L15.6211 10.825L22.1686 6.91624C23.1437 6.33728 24.2944 6.12821 25.4108 6.32717C26.5272 6.52612 27.5348 7.11984 28.2499 7.99999L28.2611 8.01374L30.5911 11C30.6563 11.0836 30.7031 11.1801 30.7283 11.2831C30.7535 11.386 30.7566 11.4932 30.7374 11.5975ZM28.8861 11.25L27.0836 8.94124C26.594 8.34051 25.9048 7.9357 25.1417 7.80056C24.3785 7.66542 23.5923 7.80894 22.9261 8.20499L16.0749 12.295C15.9788 12.3524 15.8712 12.3875 15.7598 12.3979C15.6484 12.4083 15.5361 12.3936 15.4311 12.355L8.49986 9.80623L7.88736 10.0375C7.85085 10.0541 7.81911 10.0796 7.79508 10.1118C7.77105 10.1439 7.7555 10.1815 7.74986 10.2212C7.74278 10.2627 7.74628 10.3053 7.76005 10.3451C7.77381 10.3849 7.7974 10.4205 7.82861 10.4487L7.84986 10.4675L11.5186 14.0287C11.6009 14.1086 11.6639 14.2063 11.7025 14.3142C11.7412 14.4222 11.7546 14.5376 11.7417 14.6516C11.7288 14.7656 11.6899 14.8751 11.628 14.9716C11.5662 15.0682 11.483 15.1493 11.3849 15.2087L7.36111 17.645C7.26812 17.701 7.16407 17.7361 7.05616 17.748C6.94825 17.7599 6.83906 17.7482 6.73611 17.7137L3.05486 16.4712L2.93861 16.5287L2.90361 16.545C2.86561 16.5614 2.83228 16.587 2.80661 16.6195C2.78095 16.652 2.76375 16.6903 2.75656 16.7311C2.74937 16.7718 2.75242 16.8138 2.76543 16.8531C2.77845 16.8924 2.80101 16.9278 2.83111 16.9562L2.84361 16.9675L7.34361 21.3775C7.85224 21.8567 8.50255 22.1579 9.19695 22.2362C9.89135 22.3144 10.5924 22.1653 11.1949 21.8112L28.8861 11.25Z" fill="#112D1F"/>
</svg>
