<svg width="32" height="32" viewBox="0 0 32 32" fill="none" xmlns="http://www.w3.org/2000/svg">
<path d="M22.8748 14.2062L26.6373 10.6662L26.6536 10.65C27.3569 9.94667 27.752 8.99277 27.752 7.99812C27.752 7.00347 27.3569 6.04957 26.6536 5.34625C25.9503 4.64292 24.9963 4.2478 24.0017 4.2478C23.0071 4.2478 22.0531 4.64292 21.3498 5.34625L21.3336 5.3625L17.7936 9.125L7.25607 5.29375C7.12206 5.24495 6.97691 5.23538 6.83766 5.26616C6.6984 5.29693 6.5708 5.36677 6.46982 5.4675L3.46982 8.46749C3.39076 8.54593 3.33016 8.641 3.29242 8.74578C3.25468 8.85056 3.24075 8.96244 3.25164 9.07328C3.26253 9.18411 3.29798 9.29114 3.35539 9.38657C3.41281 9.482 3.49075 9.56345 3.58357 9.625L11.8236 15.1175L9.68982 17.25H6.99982C6.80098 17.2502 6.61034 17.3293 6.46982 17.47L3.46982 20.47C3.38184 20.5576 3.31698 20.6657 3.28108 20.7846C3.24519 20.9035 3.23937 21.0294 3.26415 21.1511C3.28893 21.2728 3.34354 21.3864 3.42307 21.4818C3.50261 21.5771 3.60457 21.6513 3.71982 21.6975L8.42232 23.5725L10.2973 28.2675V28.2825C10.3729 28.4659 10.5181 28.6118 10.7011 28.6884C10.884 28.765 11.0899 28.7661 11.2736 28.6912C11.3714 28.6516 11.4596 28.5915 11.5323 28.515L14.5211 25.5262C14.6641 25.3881 14.7463 25.1988 14.7498 25V22.31L16.8836 20.1762L22.3748 28.4162C22.4364 28.5084 22.5177 28.5858 22.6128 28.6428C22.7079 28.6998 22.8145 28.735 22.9248 28.7459C23.0351 28.7568 23.1465 28.7431 23.2509 28.7057C23.3553 28.6684 23.4502 28.6084 23.5286 28.53L26.5286 25.53C26.6293 25.429 26.6991 25.3014 26.7299 25.1622C26.7607 25.0229 26.7511 24.8778 26.7023 24.7437L22.8748 14.2062ZM23.1173 26.8225L17.6248 18.5825C17.5633 18.4902 17.482 18.4128 17.3869 18.3557C17.2918 18.2987 17.1852 18.2634 17.0748 18.2525H17.0011C16.8022 18.2527 16.6116 18.3318 16.4711 18.4725L13.4711 21.4725C13.3305 21.6122 13.251 21.8018 13.2498 22V24.69L11.2748 26.665L9.69607 22.7212C9.65849 22.6268 9.60211 22.541 9.53034 22.469C9.45857 22.397 9.37291 22.3404 9.27858 22.3025L5.33482 20.725L7.31108 18.75H9.99983C10.0985 18.7501 10.1962 18.7307 10.2874 18.6929C10.3785 18.6552 10.4613 18.5998 10.5311 18.53L13.5311 15.53C13.6094 15.4515 13.6693 15.3566 13.7066 15.2521C13.7438 15.1477 13.7574 15.0363 13.7464 14.9259C13.7354 14.8156 13.7001 14.709 13.643 14.614C13.5858 14.519 13.5083 14.4377 13.4161 14.3762L5.17732 8.88249L7.19232 6.86625L17.7498 10.7037C17.8876 10.7538 18.0371 10.7624 18.1797 10.7284C18.3224 10.6944 18.4519 10.6193 18.5523 10.5125L22.4273 6.4C22.8563 6.01549 23.4164 5.81018 23.9923 5.82636C24.5681 5.84255 25.1159 6.079 25.5226 6.48699C25.9293 6.89498 26.164 7.44344 26.1784 8.01934C26.1927 8.59524 25.9857 9.15472 25.5998 9.5825L21.4873 13.4575C21.3805 13.5579 21.3054 13.6875 21.2715 13.8301C21.2375 13.9727 21.246 14.1222 21.2961 14.26L25.1336 24.8112L23.1173 26.8225Z" fill="#112D1F"/>
</svg>
