<svg width="32" height="32" viewBox="0 0 32 32" fill="none" xmlns="http://www.w3.org/2000/svg">
<path d="M28.4339 8C28.2729 7.76882 28.0585 7.57992 27.8089 7.44934C27.5593 7.31877 27.2819 7.25038 27.0002 7.25H16.7502V2.75H19.0002C19.1991 2.75 19.3898 2.67098 19.5305 2.53033C19.6711 2.38968 19.7502 2.19891 19.7502 2C19.7502 1.80109 19.6711 1.61032 19.5305 1.46967C19.3898 1.32902 19.1991 1.25 19.0002 1.25H13.0002C12.8012 1.25 12.6105 1.32902 12.4698 1.46967C12.3292 1.61032 12.2502 1.80109 12.2502 2C12.2502 2.19891 12.3292 2.38968 12.4698 2.53033C12.6105 2.67098 12.8012 2.75 13.0002 2.75H15.2502V7.25H5.00016C4.71891 7.24997 4.44179 7.31774 4.19229 7.44755C3.94279 7.57736 3.72825 7.76539 3.56685 7.99572C3.40544 8.22605 3.30193 8.49189 3.26509 8.77072C3.22824 9.04955 3.25913 9.33315 3.35516 9.5975L6.62891 18.5975C6.75153 18.9351 6.97504 19.2267 7.26909 19.4329C7.56315 19.6391 7.91353 19.7498 8.27266 19.75H12.2502V28C12.2502 28.1989 12.3292 28.3897 12.4698 28.5303C12.6105 28.671 12.8012 28.75 13.0002 28.75C13.1991 28.75 13.3898 28.671 13.5305 28.5303C13.6711 28.3897 13.7502 28.1989 13.7502 28V19.75H18.2502V28C18.2502 28.1989 18.3292 28.3897 18.4698 28.5303C18.6105 28.671 18.8012 28.75 19.0002 28.75C19.1991 28.75 19.3898 28.671 19.5305 28.5303C19.6711 28.3897 19.7502 28.1989 19.7502 28V19.75H23.7277C24.0874 19.7505 24.4386 19.6402 24.7334 19.434C25.0282 19.2277 25.2523 18.9357 25.3752 18.5975L28.6489 9.5975C28.7437 9.33349 28.7737 9.05054 28.7363 8.77252C28.6989 8.4945 28.5952 8.22955 28.4339 8ZM13.6252 18.25L11.8989 8.75H20.1014L18.3752 18.25H13.6252ZM8.03766 18.085L4.76516 9.085C4.75142 9.04727 4.74697 9.00677 4.7522 8.96696C4.75742 8.92714 4.77216 8.88917 4.79516 8.85625C4.81781 8.82289 4.84841 8.79571 4.8842 8.77716C4.92 8.75861 4.95985 8.74927 5.00016 8.75H10.3752L12.1027 18.25H8.27266C8.22128 18.25 8.17116 18.2341 8.12911 18.2046C8.08706 18.1751 8.05513 18.1333 8.03766 18.085ZM27.2352 9.085L23.9627 18.085C23.9452 18.1333 23.9133 18.1751 23.8712 18.2046C23.8292 18.2341 23.779 18.25 23.7277 18.25H19.8989L21.6252 8.75H27.0002C27.0405 8.74927 27.0803 8.75861 27.1161 8.77716C27.1519 8.79571 27.1825 8.82289 27.2052 8.85625C27.2282 8.88917 27.2429 8.92714 27.2481 8.96696C27.2533 9.00677 27.2489 9.04727 27.2352 9.085Z" fill="#112D1F"/>
</svg>
