<svg width="32" height="32" viewBox="0 0 32 32" fill="none" xmlns="http://www.w3.org/2000/svg">
<path d="M15.9998 4.24997C13.6759 4.24997 11.4042 4.93909 9.4719 6.2302C7.53962 7.52131 6.03359 9.35641 5.14426 11.5034C4.25493 13.6505 4.02224 16.013 4.47562 18.2923C4.929 20.5716 6.04807 22.6652 7.69134 24.3085C9.33461 25.9517 11.4283 27.0708 13.7075 27.5242C15.9868 27.9776 18.3493 27.7449 20.4964 26.8556C22.6434 25.9662 24.4785 24.4602 25.7696 22.5279C27.0607 20.5956 27.7498 18.3239 27.7498 16C27.7462 12.8848 26.5071 9.89825 24.3043 7.69548C22.1016 5.49272 19.115 4.25361 15.9998 4.24997ZM15.9998 26.25C13.9726 26.25 11.9909 25.6488 10.3053 24.5225C8.61965 23.3962 7.30588 21.7954 6.53008 19.9225C5.75428 18.0495 5.5513 15.9886 5.9468 14.0003C6.3423 12.012 7.31851 10.1856 8.752 8.75212C10.1855 7.31864 12.0119 6.34242 14.0002 5.94692C15.9885 5.55142 18.0494 5.75441 19.9224 6.5302C21.7953 7.306 23.3961 8.61977 24.5224 10.3054C25.6487 11.991 26.2498 13.9727 26.2498 16C26.2465 18.7174 25.1656 21.3226 23.244 23.2442C21.3225 25.1657 18.7173 26.2467 15.9998 26.25ZM7.52985 3.52997L3.52985 7.52997C3.38767 7.66245 3.19963 7.73457 3.00532 7.73114C2.81102 7.72772 2.62564 7.649 2.48822 7.51159C2.35081 7.37418 2.2721 7.18879 2.26867 6.99449C2.26524 6.80019 2.33737 6.61214 2.46985 6.46997L6.46985 2.46997C6.61202 2.33749 6.80007 2.26537 6.99437 2.26879C7.18867 2.27222 7.37406 2.35093 7.51147 2.48835C7.64888 2.62576 7.72759 2.81114 7.73102 3.00545C7.73445 3.19975 7.66233 3.38779 7.52985 3.52997ZM29.5298 7.52997C29.3892 7.67042 29.1986 7.74931 28.9998 7.74931C28.8011 7.74931 28.6105 7.67042 28.4698 7.52997L24.4698 3.52997C24.3374 3.38779 24.2652 3.19975 24.2687 3.00545C24.2721 2.81114 24.3508 2.62576 24.4882 2.48835C24.6256 2.35093 24.811 2.27222 25.0053 2.26879C25.1996 2.26537 25.3877 2.33749 25.5298 2.46997L29.5298 6.46997C29.6703 6.61059 29.7492 6.80122 29.7492 6.99997C29.7492 7.19872 29.6703 7.38934 29.5298 7.52997ZM22.9998 15.25C23.1988 15.25 23.3895 15.329 23.5302 15.4696C23.6708 15.6103 23.7498 15.8011 23.7498 16C23.7498 16.1989 23.6708 16.3896 23.5302 16.5303C23.3895 16.671 23.1988 16.75 22.9998 16.75H15.9998C15.8009 16.75 15.6102 16.671 15.4695 16.5303C15.3289 16.3896 15.2498 16.1989 15.2498 16V8.99997C15.2498 8.80106 15.3289 8.61029 15.4695 8.46964C15.6102 8.32899 15.8009 8.24997 15.9998 8.24997C16.1988 8.24997 16.3895 8.32899 16.5302 8.46964C16.6708 8.61029 16.7498 8.80106 16.7498 8.99997V15.25H22.9998Z" fill="#112D1F"/>
</svg>
