<svg width="32" height="32" viewBox="0 0 32 32" fill="none" xmlns="http://www.w3.org/2000/svg">
<path d="M27 17.25C26.8011 17.25 26.6103 17.329 26.4697 17.4697C26.329 17.6103 26.25 17.8011 26.25 18C26.25 19.3924 25.6969 20.7277 24.7123 21.7123C23.7277 22.6969 22.3924 23.25 21 23.25C20.1992 23.2499 19.4073 23.4176 18.6753 23.7423C17.9433 24.067 17.2875 24.5414 16.75 25.135V15.75H21C21.1989 15.75 21.3897 15.671 21.5303 15.5303C21.671 15.3897 21.75 15.1989 21.75 15C21.75 14.8011 21.671 14.6103 21.5303 14.4697C21.3897 14.329 21.1989 14.25 21 14.25H16.75V10.675C17.6605 10.4891 18.4696 9.97181 19.0204 9.22331C19.5712 8.4748 19.8244 7.54846 19.731 6.62385C19.6376 5.69925 19.2042 4.84227 18.5149 4.21905C17.8255 3.59582 16.9293 3.25076 16 3.25076C15.0707 3.25076 14.1745 3.59582 13.4851 4.21905C12.7958 4.84227 12.3624 5.69925 12.269 6.62385C12.1756 7.54846 12.4288 8.4748 12.9796 9.22331C13.5304 9.97181 14.3395 10.4891 15.25 10.675V14.25H11C10.8011 14.25 10.6103 14.329 10.4697 14.4697C10.329 14.6103 10.25 14.8011 10.25 15C10.25 15.1989 10.329 15.3897 10.4697 15.5303C10.6103 15.671 10.8011 15.75 11 15.75H15.25V25.135C14.7125 24.5414 14.0567 24.067 13.3247 23.7423C12.5927 23.4176 11.8008 23.2499 11 23.25C9.60761 23.25 8.27225 22.6969 7.28769 21.7123C6.30312 20.7277 5.75 19.3924 5.75 18C5.75 17.8011 5.67098 17.6103 5.53033 17.4697C5.38968 17.329 5.19891 17.25 5 17.25C4.80109 17.25 4.61032 17.329 4.46967 17.4697C4.32902 17.6103 4.25 17.8011 4.25 18C4.25199 19.7896 4.96378 21.5053 6.22922 22.7708C7.49466 24.0362 9.2104 24.748 11 24.75C12.1272 24.75 13.2082 25.1978 14.0052 25.9948C14.8022 26.7918 15.25 27.8728 15.25 29C15.25 29.1989 15.329 29.3897 15.4697 29.5303C15.6103 29.671 15.8011 29.75 16 29.75C16.1989 29.75 16.3897 29.671 16.5303 29.5303C16.671 29.3897 16.75 29.1989 16.75 29C16.75 27.8728 17.1978 26.7918 17.9948 25.9948C18.7918 25.1978 19.8728 24.75 21 24.75C22.7896 24.748 24.5053 24.0362 25.7708 22.7708C27.0362 21.5053 27.748 19.7896 27.75 18C27.75 17.8011 27.671 17.6103 27.5303 17.4697C27.3897 17.329 27.1989 17.25 27 17.25ZM13.75 7C13.75 6.55499 13.882 6.11998 14.1292 5.74996C14.3764 5.37995 14.7278 5.09157 15.139 4.92127C15.5501 4.75097 16.0025 4.70641 16.439 4.79323C16.8754 4.88005 17.2763 5.09434 17.591 5.40901C17.9057 5.72368 18.1199 6.12459 18.2068 6.56104C18.2936 6.9975 18.249 7.4499 18.0787 7.86104C17.9084 8.27217 17.62 8.62357 17.25 8.8708C16.88 9.11804 16.445 9.25 16 9.25C15.4033 9.25 14.831 9.01294 14.409 8.59099C13.9871 8.16903 13.75 7.59673 13.75 7Z" fill="#112D1F"/>
</svg>
