<svg width="32" height="32" viewBox="0 0 32 32" fill="none" xmlns="http://www.w3.org/2000/svg">
<path d="M28 14.25H25C24.8011 14.25 24.6103 14.329 24.4697 14.4697C24.329 14.6103 24.25 14.8011 24.25 15C24.25 15.1989 24.329 15.3897 24.4697 15.5303C24.6103 15.671 24.8011 15.75 25 15.75H27.225C27.0394 18.4668 25.8762 21.0244 23.9504 22.9496C22.0247 24.8749 19.4668 26.0376 16.75 26.2225V11.675C17.6605 11.4891 18.4696 10.9718 19.0204 10.2233C19.5712 9.4748 19.8244 8.54846 19.731 7.62385C19.6376 6.69925 19.2042 5.84227 18.5149 5.21905C17.8255 4.59582 16.9293 4.25076 16 4.25076C15.0707 4.25076 14.1745 4.59582 13.4851 5.21905C12.7958 5.84227 12.3624 6.69925 12.269 7.62385C12.1756 8.54846 12.4288 9.4748 12.9796 10.2233C13.5304 10.9718 14.3395 11.4891 15.25 11.675V26.2225C12.5332 26.0376 9.97531 24.8749 8.04957 22.9496C6.12383 21.0244 4.96057 18.4668 4.775 15.75H7C7.19891 15.75 7.38968 15.671 7.53033 15.5303C7.67098 15.3897 7.75 15.1989 7.75 15C7.75 14.8011 7.67098 14.6103 7.53033 14.4697C7.38968 14.329 7.19891 14.25 7 14.25H4C3.80109 14.25 3.61032 14.329 3.46967 14.4697C3.32902 14.6103 3.25 14.8011 3.25 15C3.25 18.3815 4.5933 21.6245 6.98439 24.0156C9.37548 26.4067 12.6185 27.75 16 27.75C19.3815 27.75 22.6245 26.4067 25.0156 24.0156C27.4067 21.6245 28.75 18.3815 28.75 15C28.75 14.8011 28.671 14.6103 28.5303 14.4697C28.3897 14.329 28.1989 14.25 28 14.25ZM13.75 8C13.75 7.55499 13.882 7.11998 14.1292 6.74996C14.3764 6.37995 14.7278 6.09157 15.139 5.92127C15.5501 5.75097 16.0025 5.70641 16.439 5.79323C16.8754 5.88005 17.2763 6.09434 17.591 6.40901C17.9057 6.72368 18.1199 7.12459 18.2068 7.56104C18.2936 7.9975 18.249 8.4499 18.0787 8.86103C17.9084 9.27217 17.62 9.62357 17.25 9.8708C16.88 10.118 16.445 10.25 16 10.25C15.4033 10.25 14.831 10.0129 14.409 9.59099C13.9871 9.16903 13.75 8.59673 13.75 8Z" fill="#112D1F"/>
</svg>
