<svg width="32" height="32" viewBox="0 0 32 32" fill="none" xmlns="http://www.w3.org/2000/svg">
<path d="M21.75 19.5C21.75 19.7472 21.6767 19.9889 21.5393 20.1944C21.402 20.4 21.2068 20.5602 20.9784 20.6548C20.75 20.7494 20.4986 20.7742 20.2561 20.726C20.0137 20.6777 19.7909 20.5587 19.6161 20.3839C19.4413 20.209 19.3223 19.9863 19.274 19.7438C19.2258 19.5014 19.2505 19.25 19.3452 19.0216C19.4398 18.7932 19.6 18.598 19.8055 18.4606C20.0111 18.3233 20.2528 18.25 20.5 18.25C20.8315 18.25 21.1495 18.3817 21.3839 18.6161C21.6183 18.8505 21.75 19.1684 21.75 19.5ZM11.5 18.25C11.2528 18.25 11.0111 18.3233 10.8055 18.4606C10.6 18.598 10.4398 18.7932 10.3452 19.0216C10.2505 19.25 10.2258 19.5014 10.274 19.7438C10.3223 19.9863 10.4413 20.209 10.6161 20.3839C10.7909 20.5587 11.0137 20.6777 11.2561 20.726C11.4986 20.7742 11.75 20.7494 11.9784 20.6548C12.2068 20.5602 12.402 20.4 12.5393 20.1944C12.6767 19.9889 12.75 19.7472 12.75 19.5C12.75 19.1684 12.6183 18.8505 12.3839 18.6161C12.1495 18.3817 11.8315 18.25 11.5 18.25ZM29.75 21V24C29.75 24.4641 29.5656 24.9092 29.2374 25.2374C28.9093 25.5656 28.4641 25.75 28 25.75H4C3.53588 25.75 3.09076 25.5656 2.76257 25.2374C2.43438 24.9092 2.25 24.4641 2.25 24V21.1412C2.24842 19.204 2.65092 17.2878 3.43178 15.5149C4.21265 13.742 5.35471 12.1515 6.785 10.845L3.47 7.52997C3.39632 7.46131 3.33722 7.37851 3.29622 7.28651C3.25523 7.19451 3.23319 7.0952 3.23141 6.99449C3.22964 6.89379 3.24816 6.79376 3.28588 6.70037C3.3236 6.60698 3.37975 6.52215 3.45097 6.45093C3.52218 6.37971 3.60702 6.32357 3.70041 6.28585C3.7938 6.24813 3.89382 6.2296 3.99453 6.23138C4.09523 6.23316 4.19454 6.2552 4.28654 6.29619C4.37854 6.33718 4.46134 6.39628 4.53 6.46997L7.95125 9.88997C10.2704 8.18379 13.0721 7.25924 15.9513 7.24997H16C18.9005 7.24199 21.7281 8.1584 24.0725 9.86622L27.47 6.46997C27.6122 6.33749 27.8002 6.26537 27.9945 6.2688C28.1888 6.27222 28.3742 6.35094 28.5116 6.48835C28.649 6.62576 28.7278 6.81115 28.7312 7.00545C28.7346 7.19975 28.6625 7.3878 28.53 7.52997L25.2413 10.8187C25.3988 10.9625 25.5538 11.1087 25.7063 11.26C26.9921 12.5345 28.0117 14.052 28.7059 15.724C29.4001 17.3961 29.755 19.1895 29.75 21ZM28.25 21C28.25 17.7511 26.9594 14.6352 24.6621 12.3379C22.3647 10.0406 19.2489 8.74997 16 8.74997H15.9563C9.22625 8.77372 3.75 14.3325 3.75 21.1412V24C3.75 24.0663 3.77634 24.1299 3.82323 24.1767C3.87011 24.2236 3.9337 24.25 4 24.25H28C28.0663 24.25 28.1299 24.2236 28.1768 24.1767C28.2237 24.1299 28.25 24.0663 28.25 24V21Z" fill="#112D1F"/>
</svg>
