<svg width="32" height="32" viewBox="0 0 32 32" fill="none" xmlns="http://www.w3.org/2000/svg">
<path d="M20.5301 24.47C20.6705 24.6106 20.7494 24.8012 20.7494 25C20.7494 25.1987 20.6705 25.3894 20.5301 25.53L16.5301 29.53C16.3895 29.6704 16.1988 29.7493 16.0001 29.7493C15.8013 29.7493 15.6107 29.6704 15.4701 29.53L11.4701 25.53C11.3376 25.3878 11.2655 25.1998 11.2689 25.0055C11.2723 24.8112 11.3511 24.6258 11.4885 24.4884C11.6259 24.351 11.8113 24.2722 12.0056 24.2688C12.1999 24.2654 12.3879 24.3375 12.5301 24.47L15.2501 27.1887V4.81375L12.5301 7.53C12.3879 7.66248 12.1999 7.7346 12.0056 7.73117C11.8113 7.72774 11.6259 7.64903 11.4885 7.51162C11.3511 7.37421 11.2723 7.18882 11.2689 6.99452C11.2655 6.80022 11.3376 6.61217 11.4701 6.47L15.4701 2.47C15.6107 2.32955 15.8013 2.25066 16.0001 2.25066C16.1988 2.25066 16.3895 2.32955 16.5301 2.47L20.5301 6.47C20.6038 6.53866 20.6629 6.62146 20.7039 6.71346C20.7449 6.80546 20.7669 6.90477 20.7687 7.00547C20.7705 7.10618 20.7519 7.20621 20.7142 7.29959C20.6765 7.39298 20.6203 7.47782 20.5491 7.54903C20.4779 7.62025 20.3931 7.6764 20.2997 7.71412C20.2063 7.75184 20.1063 7.77036 20.0056 7.76859C19.9049 7.76681 19.8056 7.74477 19.7136 7.70378C19.6216 7.66279 19.5388 7.60368 19.4701 7.53L16.7501 4.81125V27.1862L19.4701 24.4675C19.611 24.3274 19.8019 24.2489 20.0006 24.2494C20.1994 24.2499 20.3898 24.3292 20.5301 24.47Z" fill="#112D1F"/>
</svg>
