<svg width="32" height="32" viewBox="0 0 32 32" fill="none" xmlns="http://www.w3.org/2000/svg">
<path d="M28.7501 18C28.7478 20.0547 27.9305 22.0246 26.4776 23.4775C25.0247 24.9304 23.0548 25.7477 21.0001 25.75H10.0001C9.80116 25.75 9.61039 25.671 9.46974 25.5303C9.32909 25.3897 9.25007 25.1989 9.25007 25C9.25007 24.8011 9.32909 24.6103 9.46974 24.4697C9.61039 24.329 9.80116 24.25 10.0001 24.25H21.0001C22.6577 24.25 24.2474 23.5915 25.4195 22.4194C26.5916 21.2473 27.2501 19.6576 27.2501 18C27.2501 16.3424 26.5916 14.7527 25.4195 13.5806C24.2474 12.4085 22.6577 11.75 21.0001 11.75H5.81132L10.5301 16.47C10.6038 16.5387 10.6629 16.6215 10.7039 16.7135C10.7448 16.8055 10.7669 16.9048 10.7687 17.0055C10.7704 17.1062 10.7519 17.2062 10.7142 17.2996C10.6765 17.393 10.6203 17.4778 10.5491 17.549C10.4779 17.6203 10.3931 17.6764 10.2997 17.7141C10.2063 17.7518 10.1063 17.7704 10.0056 17.7686C9.90485 17.7668 9.80553 17.7448 9.71353 17.7038C9.62153 17.6628 9.53873 17.6037 9.47007 17.53L3.47007 11.53C3.32962 11.3894 3.25073 11.1987 3.25073 11C3.25073 10.8012 3.32962 10.6106 3.47007 10.47L9.47007 4.47C9.61225 4.33752 9.80029 4.2654 9.99459 4.26882C10.1889 4.27225 10.3743 4.35096 10.5117 4.48838C10.6491 4.62579 10.7278 4.81118 10.7312 5.00548C10.7347 5.19978 10.6626 5.38782 10.5301 5.53L5.81132 10.25H21.0001C23.0548 10.2523 25.0247 11.0696 26.4776 12.5225C27.9305 13.9754 28.7478 15.9453 28.7501 18Z" fill="#112D1F"/>
</svg>
