<svg width="32" height="32" viewBox="0 0 32 32" fill="none" xmlns="http://www.w3.org/2000/svg">
<path d="M28.5301 14.47L16.5301 2.47C16.3894 2.32955 16.1988 2.25066 16.0001 2.25066C15.8013 2.25066 15.6107 2.32955 15.4701 2.47L3.47007 14.47C3.36532 14.5749 3.29399 14.7085 3.26511 14.8539C3.23622 14.9993 3.25107 15.15 3.30779 15.2869C3.3645 15.4239 3.46053 15.541 3.58374 15.6234C3.70696 15.7058 3.85183 15.7499 4.00007 15.75H9.25007V23C9.25007 23.1989 9.32909 23.3897 9.46974 23.5303C9.6104 23.671 9.80116 23.75 10.0001 23.75H22.0001C22.199 23.75 22.3898 23.671 22.5304 23.5303C22.6711 23.3897 22.7501 23.1989 22.7501 23V15.75H28.0001C28.1483 15.7499 28.2932 15.7058 28.4164 15.6234C28.5396 15.541 28.6356 15.4239 28.6924 15.2869C28.7491 15.15 28.7639 14.9993 28.735 14.8539C28.7062 14.7085 28.6348 14.5749 28.5301 14.47ZM22.0001 14.25C21.8012 14.25 21.6104 14.329 21.4697 14.4697C21.3291 14.6103 21.2501 14.8011 21.2501 15V22.25H10.7501V15C10.7501 14.8011 10.6711 14.6103 10.5304 14.4697C10.3898 14.329 10.199 14.25 10.0001 14.25H5.81132L16.0001 4.06125L26.1888 14.25H22.0001ZM22.7501 27C22.7501 27.1989 22.6711 27.3897 22.5304 27.5303C22.3898 27.671 22.199 27.75 22.0001 27.75H10.0001C9.80116 27.75 9.6104 27.671 9.46974 27.5303C9.32909 27.3897 9.25007 27.1989 9.25007 27C9.25007 26.8011 9.32909 26.6103 9.46974 26.4697C9.6104 26.329 9.80116 26.25 10.0001 26.25H22.0001C22.199 26.25 22.3898 26.329 22.5304 26.4697C22.6711 26.6103 22.7501 26.8011 22.7501 27Z" fill="#112D1F"/>
</svg>
