<svg width="32" height="32" viewBox="0 0 32 32" fill="none" xmlns="http://www.w3.org/2000/svg">
<path d="M25.7501 10V21C25.7501 23.0554 24.9336 25.0267 23.4802 26.4801C22.0268 27.9335 20.0555 28.75 18.0001 28.75C15.9447 28.75 13.9734 27.9335 12.52 26.4801C11.0666 25.0267 10.2501 23.0554 10.2501 21V5.81125L5.53009 10.53C5.38792 10.6625 5.19987 10.7346 5.00557 10.7312C4.81127 10.7277 4.62588 10.649 4.48847 10.5116C4.35106 10.3742 4.27234 10.1888 4.26892 9.99452C4.26549 9.80022 4.33761 9.61217 4.47009 9.47L10.4701 3.47C10.6107 3.32955 10.8013 3.25066 11.0001 3.25066C11.1988 3.25066 11.3895 3.32955 11.5301 3.47L17.5301 9.47C17.6038 9.53866 17.6629 9.62146 17.7039 9.71346C17.7449 9.80546 17.7669 9.90478 17.7687 10.0055C17.7705 10.1062 17.7519 10.2062 17.7142 10.2996C17.6765 10.393 17.6203 10.4778 17.5491 10.549C17.4779 10.6203 17.3931 10.6764 17.2997 10.7141C17.2063 10.7518 17.1063 10.7704 17.0056 10.7686C16.9049 10.7668 16.8056 10.7448 16.7136 10.7038C16.6216 10.6628 16.5388 10.6037 16.4701 10.53L11.7501 5.81125V21C11.7501 22.6576 12.4086 24.2473 13.5807 25.4194C14.7528 26.5915 16.3425 27.25 18.0001 27.25C19.6577 27.25 21.2474 26.5915 22.4195 25.4194C23.5916 24.2473 24.2501 22.6576 24.2501 21V10C24.2501 9.80109 24.3291 9.61032 24.4698 9.46967C24.6104 9.32902 24.8012 9.25 25.0001 9.25C25.199 9.25 25.3898 9.32902 25.5304 9.46967C25.6711 9.61032 25.7501 9.80109 25.7501 10Z" fill="#112D1F"/>
</svg>
