<svg width="32" height="32" viewBox="0 0 32 32" fill="none" xmlns="http://www.w3.org/2000/svg">
<path d="M19.0001 9.25H15.7501V4C15.7499 3.85176 15.7059 3.70688 15.6235 3.58366C15.541 3.46045 15.424 3.36442 15.287 3.30771C15.15 3.251 14.9993 3.23615 14.8539 3.26503C14.7085 3.29392 14.575 3.36524 14.4701 3.47L2.47007 15.47C2.32962 15.6106 2.25073 15.8012 2.25073 16C2.25073 16.1987 2.32962 16.3894 2.47007 16.53L14.4701 28.53C14.575 28.6348 14.7085 28.7061 14.8539 28.735C14.9993 28.7638 15.15 28.749 15.287 28.6923C15.424 28.6356 15.541 28.5395 15.6235 28.4163C15.7059 28.2931 15.7499 28.1482 15.7501 28V22.75H19.0001C19.199 22.75 19.3898 22.671 19.5304 22.5303C19.6711 22.3897 19.7501 22.1989 19.7501 22V10C19.7501 9.80108 19.6711 9.61032 19.5304 9.46967C19.3898 9.32901 19.199 9.25 19.0001 9.25ZM18.2501 21.25H15.0001C14.8012 21.25 14.6104 21.329 14.4697 21.4697C14.3291 21.6103 14.2501 21.8011 14.2501 22V26.1887L4.06132 16L14.2501 5.81125V10C14.2501 10.1989 14.3291 10.3897 14.4697 10.5303C14.6104 10.671 14.8012 10.75 15.0001 10.75H18.2501V21.25ZM27.7501 10V22C27.7501 22.1989 27.6711 22.3897 27.5304 22.5303C27.3898 22.671 27.199 22.75 27.0001 22.75C26.8012 22.75 26.6104 22.671 26.4697 22.5303C26.3291 22.3897 26.2501 22.1989 26.2501 22V10C26.2501 9.80108 26.3291 9.61032 26.4697 9.46967C26.6104 9.32901 26.8012 9.25 27.0001 9.25C27.199 9.25 27.3898 9.32901 27.5304 9.46967C27.6711 9.61032 27.7501 9.80108 27.7501 10ZM23.7501 10V22C23.7501 22.1989 23.6711 22.3897 23.5304 22.5303C23.3898 22.671 23.199 22.75 23.0001 22.75C22.8012 22.75 22.6104 22.671 22.4697 22.5303C22.3291 22.3897 22.2501 22.1989 22.2501 22V10C22.2501 9.80108 22.3291 9.61032 22.4697 9.46967C22.6104 9.32901 22.8012 9.25 23.0001 9.25C23.199 9.25 23.3898 9.32901 23.5304 9.46967C23.6711 9.61032 23.7501 9.80108 23.7501 10Z" fill="#112D1F"/>
</svg>
