<svg width="32" height="32" viewBox="0 0 32 32" fill="none" xmlns="http://www.w3.org/2000/svg">
<path d="M29.53 16.53L25.53 20.53C25.3878 20.6625 25.1998 20.7346 25.0055 20.7312C24.8112 20.7277 24.6258 20.649 24.4884 20.5116C24.351 20.3742 24.2723 20.1888 24.2688 19.9945C24.2654 19.8002 24.3375 19.6122 24.47 19.47L27.1888 16.75H4.81376L7.53251 19.47C7.6062 19.5387 7.6653 19.6215 7.7063 19.7135C7.74729 19.8055 7.76933 19.9048 7.77111 20.0055C7.77288 20.1062 7.75436 20.2062 7.71664 20.2996C7.67892 20.393 7.62277 20.4778 7.55155 20.549C7.48033 20.6203 7.3955 20.6764 7.30211 20.7141C7.20872 20.7518 7.10869 20.7704 7.00799 20.7686C6.90729 20.7668 6.80798 20.7448 6.71598 20.7038C6.62398 20.6628 6.54118 20.6037 6.47251 20.53L2.47251 16.53C2.33206 16.3894 2.25317 16.1988 2.25317 16C2.25317 15.8012 2.33206 15.6106 2.47251 15.47L6.47251 11.47C6.61469 11.3375 6.80274 11.2654 6.99704 11.2688C7.19134 11.2723 7.37672 11.351 7.51414 11.4884C7.65155 11.6258 7.73026 11.8112 7.73369 12.0055C7.73712 12.1998 7.66499 12.3878 7.53251 12.53L4.81126 15.25H27.1863L24.4675 12.53C24.335 12.3878 24.2629 12.1998 24.2663 12.0055C24.2698 11.8112 24.3485 11.6258 24.4859 11.4884C24.6233 11.351 24.8087 11.2723 25.003 11.2688C25.1973 11.2654 25.3853 11.3375 25.5275 11.47L29.5275 15.47C29.6683 15.6103 29.7476 15.8007 29.7481 15.9995C29.7486 16.1982 29.6701 16.389 29.53 16.53Z" fill="#112D1F"/>
</svg>
