<svg width="32" height="32" viewBox="0 0 32 32" fill="none" xmlns="http://www.w3.org/2000/svg">
<path d="M25.5301 14.53C25.3895 14.6704 25.1988 14.7493 25.0001 14.7493C24.8013 14.7493 24.6107 14.6704 24.4701 14.53L16.7501 6.81125V27C16.7501 27.1989 16.6711 27.3897 16.5304 27.5303C16.3898 27.671 16.199 27.75 16.0001 27.75C15.8012 27.75 15.6104 27.671 15.4698 27.5303C15.3291 27.3897 15.2501 27.1989 15.2501 27V6.81125L7.53009 14.53C7.38792 14.6625 7.19987 14.7346 7.00557 14.7312C6.81127 14.7277 6.62588 14.649 6.48847 14.5116C6.35106 14.3742 6.27234 14.1888 6.26892 13.9945C6.26549 13.8002 6.33761 13.6122 6.47009 13.47L15.4701 4.47C15.6107 4.32955 15.8013 4.25066 16.0001 4.25066C16.1988 4.25066 16.3895 4.32955 16.5301 4.47L25.5301 13.47C25.6705 13.6106 25.7494 13.8012 25.7494 14C25.7494 14.1987 25.6705 14.3894 25.5301 14.53Z" fill="#112D1F"/>
</svg>
