<svg width="32" height="32" viewBox="0 0 32 32" fill="none" xmlns="http://www.w3.org/2000/svg">
<path d="M11.4701 7.53C11.3296 7.38937 11.2507 7.19875 11.2507 7C11.2507 6.80125 11.3296 6.61062 11.4701 6.47L15.4701 2.47C15.6107 2.32955 15.8013 2.25066 16.0001 2.25066C16.1988 2.25066 16.3894 2.32955 16.5301 2.47L20.5301 6.47C20.6038 6.53866 20.6629 6.62146 20.7039 6.71346C20.7448 6.80546 20.7669 6.90477 20.7687 7.00547C20.7704 7.10618 20.7519 7.20621 20.7142 7.29959C20.6765 7.39298 20.6203 7.47782 20.5491 7.54903C20.4779 7.62025 20.3931 7.6764 20.2997 7.71412C20.2063 7.75184 20.1063 7.77036 20.0056 7.76859C19.9048 7.76681 19.8055 7.74477 19.7135 7.70378C19.6215 7.66279 19.5387 7.60368 19.4701 7.53L16.7501 4.81125V12C16.7501 12.1989 16.6711 12.3897 16.5304 12.5303C16.3898 12.671 16.199 12.75 16.0001 12.75C15.8012 12.75 15.6104 12.671 15.4697 12.5303C15.3291 12.3897 15.2501 12.1989 15.2501 12V4.81125L12.5301 7.53C12.3894 7.67045 12.1988 7.74934 12.0001 7.74934C11.8013 7.74934 11.6107 7.67045 11.4701 7.53ZM19.4701 24.47L16.7501 27.1887V20C16.7501 19.8011 16.6711 19.6103 16.5304 19.4697C16.3898 19.329 16.199 19.25 16.0001 19.25C15.8012 19.25 15.6104 19.329 15.4697 19.4697C15.3291 19.6103 15.2501 19.8011 15.2501 20V27.1887L12.5301 24.47C12.3879 24.3375 12.1999 24.2654 12.0056 24.2688C11.8112 24.2722 11.6259 24.351 11.4885 24.4884C11.351 24.6258 11.2723 24.8112 11.2689 25.0055C11.2655 25.1998 11.3376 25.3878 11.4701 25.53L15.4701 29.53C15.6107 29.6704 15.8013 29.7493 16.0001 29.7493C16.1988 29.7493 16.3894 29.6704 16.5301 29.53L20.5301 25.53C20.6626 25.3878 20.7347 25.1998 20.7312 25.0055C20.7278 24.8112 20.6491 24.6258 20.5117 24.4884C20.3743 24.351 20.1889 24.2722 19.9946 24.2688C19.8003 24.2654 19.6122 24.3375 19.4701 24.47ZM29.5301 15.47L25.5301 11.47C25.3879 11.3375 25.1999 11.2654 25.0056 11.2688C24.8112 11.2722 24.6259 11.351 24.4885 11.4884C24.351 11.6258 24.2723 11.8112 24.2689 12.0055C24.2655 12.1998 24.3376 12.3878 24.4701 12.53L27.1888 15.25H20.0001C19.8012 15.25 19.6104 15.329 19.4697 15.4697C19.3291 15.6103 19.2501 15.8011 19.2501 16C19.2501 16.1989 19.3291 16.3897 19.4697 16.5303C19.6104 16.671 19.8012 16.75 20.0001 16.75H27.1888L24.4701 19.47C24.3964 19.5387 24.3373 19.6215 24.2963 19.7135C24.2553 19.8055 24.2333 19.9048 24.2315 20.0055C24.2297 20.1062 24.2482 20.2062 24.2859 20.2996C24.3237 20.393 24.3798 20.4778 24.451 20.549C24.5223 20.6203 24.6071 20.6764 24.7005 20.7141C24.7939 20.7518 24.8939 20.7704 24.9946 20.7686C25.0953 20.7668 25.1946 20.7448 25.2866 20.7038C25.3786 20.6628 25.4614 20.6037 25.5301 20.53L29.5301 16.53C29.6705 16.3894 29.7494 16.1987 29.7494 16C29.7494 15.8012 29.6705 15.6106 29.5301 15.47ZM4.81132 16.75H12.0001C12.199 16.75 12.3897 16.671 12.5304 16.5303C12.6711 16.3897 12.7501 16.1989 12.7501 16C12.7501 15.8011 12.6711 15.6103 12.5304 15.4697C12.3897 15.329 12.199 15.25 12.0001 15.25H4.81132L7.53007 12.53C7.66255 12.3878 7.73468 12.1998 7.73125 12.0055C7.72782 11.8112 7.64911 11.6258 7.51169 11.4884C7.37428 11.351 7.1889 11.2722 6.9946 11.2688C6.80029 11.2654 6.61225 11.3375 6.47007 11.47L2.47007 15.47C2.32962 15.6106 2.25073 15.8012 2.25073 16C2.25073 16.1987 2.32962 16.3894 2.47007 16.53L6.47007 20.53C6.61225 20.6625 6.80029 20.7346 6.9946 20.7312C7.1889 20.7277 7.37428 20.649 7.51169 20.5116C7.64911 20.3742 7.72782 20.1888 7.73125 19.9945C7.73468 19.8002 7.66255 19.6122 7.53007 19.47L4.81132 16.75Z" fill="#112D1F"/>
</svg>
