<svg width="32" height="32" viewBox="0 0 32 32" fill="none" xmlns="http://www.w3.org/2000/svg">
<path d="M24.7501 10V28C24.7501 28.1989 24.6711 28.3897 24.5304 28.5303C24.3898 28.671 24.199 28.75 24.0001 28.75C23.8012 28.75 23.6104 28.671 23.4697 28.5303C23.3291 28.3897 23.2501 28.1989 23.2501 28V10.75H7.81132L12.5301 15.47C12.6038 15.5387 12.6629 15.6215 12.7039 15.7135C12.7448 15.8055 12.7669 15.9048 12.7687 16.0055C12.7704 16.1062 12.7519 16.2062 12.7142 16.2996C12.6765 16.393 12.6203 16.4778 12.5491 16.549C12.4779 16.6203 12.3931 16.6764 12.2997 16.7141C12.2063 16.7518 12.1063 16.7704 12.0056 16.7686C11.9048 16.7668 11.8055 16.7448 11.7135 16.7038C11.6215 16.6628 11.5387 16.6037 11.4701 16.53L5.47007 10.53C5.32962 10.3894 5.25073 10.1988 5.25073 10C5.25073 9.80125 5.32962 9.61063 5.47007 9.47L11.4701 3.47C11.5387 3.39631 11.6215 3.33721 11.7135 3.29622C11.8055 3.25523 11.9048 3.23319 12.0056 3.23141C12.1063 3.22963 12.2063 3.24816 12.2997 3.28588C12.3931 3.3236 12.4779 3.37974 12.5491 3.45096C12.6203 3.52218 12.6765 3.60702 12.7142 3.7004C12.7519 3.79379 12.7704 3.89382 12.7687 3.99452C12.7669 4.09523 12.7448 4.19454 12.7039 4.28654C12.6629 4.37854 12.6038 4.46134 12.5301 4.53L7.81132 9.25H24.0001C24.199 9.25 24.3898 9.32902 24.5304 9.46967C24.6711 9.61032 24.7501 9.80109 24.7501 10Z" fill="#112D1F"/>
</svg>
