<svg width="32" height="32" viewBox="0 0 32 32" fill="none" xmlns="http://www.w3.org/2000/svg">
<path d="M27.53 10.53C27.3894 10.6704 27.1988 10.7493 27 10.7493C26.8012 10.7493 26.6106 10.6704 26.47 10.53L21.75 5.81125V21C21.75 23.0554 20.9335 25.0267 19.4801 26.4801C18.0267 27.9335 16.0554 28.75 14 28.75C11.9446 28.75 9.97333 27.9335 8.51992 26.4801C7.06652 25.0267 6.25 23.0554 6.25 21V10C6.25 9.80108 6.32902 9.61032 6.46967 9.46967C6.61032 9.32901 6.80109 9.25 7 9.25C7.19891 9.25 7.38968 9.32901 7.53033 9.46967C7.67098 9.61032 7.75 9.80108 7.75 10V21C7.75 22.6576 8.40848 24.2473 9.58058 25.4194C10.7527 26.5915 12.3424 27.25 14 27.25C15.6576 27.25 17.2473 26.5915 18.4194 25.4194C19.5915 24.2473 20.25 22.6576 20.25 21V5.81125L15.53 10.53C15.3878 10.6625 15.1998 10.7346 15.0055 10.7312C14.8112 10.7277 14.6258 10.649 14.4884 10.5116C14.351 10.3742 14.2723 10.1888 14.2688 9.99452C14.2654 9.80022 14.3375 9.61217 14.47 9.47L20.47 3.47C20.6106 3.32955 20.8012 3.25066 21 3.25066C21.1988 3.25066 21.3894 3.32955 21.53 3.47L27.53 9.47C27.6705 9.61062 27.7493 9.80125 27.7493 10C27.7493 10.1987 27.6705 10.3894 27.53 10.53Z" fill="#112D1F"/>
</svg>
