<svg width="32" height="32" viewBox="0 0 32 32" fill="none" xmlns="http://www.w3.org/2000/svg">
<path d="M24.7501 11V24C24.7501 24.1989 24.6711 24.3897 24.5304 24.5303C24.3898 24.671 24.199 24.75 24.0001 24.75H11.0001C10.8012 24.75 10.6104 24.671 10.4698 24.5303C10.3291 24.3897 10.2501 24.1989 10.2501 24C10.2501 23.8011 10.3291 23.6103 10.4698 23.4697C10.6104 23.329 10.8012 23.25 11.0001 23.25H22.1901L7.47009 8.53C7.33761 8.38782 7.26549 8.19978 7.26892 8.00548C7.27234 7.81118 7.35106 7.62579 7.48847 7.48838C7.62588 7.35096 7.81127 7.27225 8.00557 7.26882C8.19987 7.2654 8.38792 7.33752 8.53009 7.47L23.2501 22.19V11C23.2501 10.8011 23.3291 10.6103 23.4698 10.4697C23.6104 10.329 23.8012 10.25 24.0001 10.25C24.199 10.25 24.3898 10.329 24.5304 10.4697C24.6711 10.6103 24.7501 10.8011 24.7501 11Z" fill="#112D1F"/>
</svg>
