<svg width="32" height="32" viewBox="0 0 32 32" fill="none" xmlns="http://www.w3.org/2000/svg">
<path d="M18.2499 13V8C18.2499 7.80109 18.3289 7.61032 18.4696 7.46967C18.6102 7.32902 18.801 7.25 18.9999 7.25C19.1988 7.25 19.3896 7.32902 19.5302 7.46967C19.6709 7.61032 19.7499 7.80109 19.7499 8V11.1887L25.4699 5.47C25.6121 5.33752 25.8001 5.2654 25.9944 5.26882C26.1887 5.27225 26.3741 5.35096 26.5115 5.48838C26.6489 5.62579 26.7277 5.81118 26.7311 6.00548C26.7345 6.19978 26.6624 6.38782 26.5299 6.53L20.8099 12.25H23.9999C24.1988 12.25 24.3896 12.329 24.5302 12.4697C24.6709 12.6103 24.7499 12.8011 24.7499 13C24.7499 13.1989 24.6709 13.3897 24.5302 13.5303C24.3896 13.671 24.1988 13.75 23.9999 13.75H18.9999C18.801 13.75 18.6102 13.671 18.4696 13.5303C18.3289 13.3897 18.2499 13.1989 18.2499 13ZM12.9999 18.25H7.99991C7.801 18.25 7.61023 18.329 7.46958 18.4697C7.32893 18.6103 7.24991 18.8011 7.24991 19C7.24991 19.1989 7.32893 19.3897 7.46958 19.5303C7.61023 19.671 7.801 19.75 7.99991 19.75H11.1899L5.46991 25.47C5.39622 25.5387 5.33712 25.6215 5.29613 25.7135C5.25514 25.8055 5.23309 25.9048 5.23132 26.0055C5.22954 26.1062 5.24807 26.2062 5.28579 26.2996C5.32351 26.393 5.37965 26.4778 5.45087 26.549C5.52209 26.6203 5.60692 26.6764 5.70031 26.7141C5.7937 26.7518 5.89373 26.7704 5.99443 26.7686C6.09513 26.7668 6.19445 26.7448 6.28645 26.7038C6.37845 26.6628 6.46125 26.6037 6.52991 26.53L12.2499 20.81V24C12.2499 24.1989 12.3289 24.3897 12.4696 24.5303C12.6102 24.671 12.801 24.75 12.9999 24.75C13.1988 24.75 13.3896 24.671 13.5302 24.5303C13.6709 24.3897 13.7499 24.1989 13.7499 24V19C13.7499 18.8011 13.6709 18.6103 13.5302 18.4697C13.3896 18.329 13.1988 18.25 12.9999 18.25ZM20.8099 19.75H23.9999C24.1988 19.75 24.3896 19.671 24.5302 19.5303C24.6709 19.3897 24.7499 19.1989 24.7499 19C24.7499 18.8011 24.6709 18.6103 24.5302 18.4697C24.3896 18.329 24.1988 18.25 23.9999 18.25H18.9999C18.801 18.25 18.6102 18.329 18.4696 18.4697C18.3289 18.6103 18.2499 18.8011 18.2499 19V24C18.2499 24.1989 18.3289 24.3897 18.4696 24.5303C18.6102 24.671 18.801 24.75 18.9999 24.75C19.1988 24.75 19.3896 24.671 19.5302 24.5303C19.6709 24.3897 19.7499 24.1989 19.7499 24V20.81L25.4699 26.53C25.6121 26.6625 25.8001 26.7346 25.9944 26.7312C26.1887 26.7277 26.3741 26.649 26.5115 26.5116C26.6489 26.3742 26.7277 26.1888 26.7311 25.9945C26.7345 25.8002 26.6624 25.6122 26.5299 25.47L20.8099 19.75ZM12.9999 7.25C12.801 7.25 12.6102 7.32902 12.4696 7.46967C12.3289 7.61032 12.2499 7.80109 12.2499 8V11.1887L6.52991 5.47C6.38773 5.33752 6.19969 5.2654 6.00539 5.26882C5.81109 5.27225 5.6257 5.35096 5.48829 5.48838C5.35087 5.62579 5.27216 5.81118 5.26873 6.00548C5.26531 6.19978 5.33743 6.38782 5.46991 6.53L11.1899 12.25H7.99991C7.801 12.25 7.61023 12.329 7.46958 12.4697C7.32893 12.6103 7.24991 12.8011 7.24991 13C7.24991 13.1989 7.32893 13.3897 7.46958 13.5303C7.61023 13.671 7.801 13.75 7.99991 13.75H12.9999C13.1988 13.75 13.3896 13.671 13.5302 13.5303C13.6709 13.3897 13.7499 13.1989 13.7499 13V8C13.7499 7.80109 13.6709 7.61032 13.5302 7.46967C13.3896 7.32902 13.1988 7.25 12.9999 7.25Z" fill="#112D1F"/>
</svg>
