<svg width="32" height="32" viewBox="0 0 32 32" fill="none" xmlns="http://www.w3.org/2000/svg">
<path d="M28.7501 24C28.7501 24.1989 28.6711 24.3897 28.5304 24.5303C28.3898 24.671 28.199 24.75 28.0001 24.75H10.0001C9.80118 24.75 9.61041 24.671 9.46976 24.5303C9.32911 24.3897 9.25009 24.1989 9.25009 24V7.81126L4.53009 12.53C4.38792 12.6625 4.19987 12.7346 4.00557 12.7312C3.81127 12.7278 3.62588 12.649 3.48847 12.5116C3.35106 12.3742 3.27234 12.1888 3.26892 11.9945C3.26549 11.8002 3.33761 11.6122 3.47009 11.47L9.47009 5.47001C9.61072 5.32956 9.80134 5.25067 10.0001 5.25067C10.1988 5.25067 10.3895 5.32956 10.5301 5.47001L16.5301 11.47C16.6038 11.5387 16.6629 11.6215 16.7039 11.7135C16.7449 11.8055 16.7669 11.9048 16.7687 12.0055C16.7705 12.1062 16.7519 12.2062 16.7142 12.2996C16.6765 12.393 16.6203 12.4778 16.5491 12.549C16.4779 12.6203 16.3931 12.6764 16.2997 12.7141C16.2063 12.7519 16.1063 12.7704 16.0056 12.7686C15.9049 12.7668 15.8056 12.7448 15.7136 12.7038C15.6216 12.6628 15.5388 12.6037 15.4701 12.53L10.7501 7.81126V23.25H28.0001C28.199 23.25 28.3898 23.329 28.5304 23.4697C28.6711 23.6103 28.7501 23.8011 28.7501 24Z" fill="#112D1F"/>
</svg>
