<svg width="32" height="32" viewBox="0 0 32 32" fill="none" xmlns="http://www.w3.org/2000/svg">
<path d="M27.7501 16C27.7501 16.1989 27.6711 16.3897 27.5304 16.5303C27.3898 16.671 27.199 16.75 27.0001 16.75H6.81132L14.5301 24.47C14.6038 24.5387 14.6629 24.6215 14.7039 24.7135C14.7448 24.8055 14.7669 24.9048 14.7687 25.0055C14.7704 25.1062 14.7519 25.2062 14.7142 25.2996C14.6765 25.393 14.6203 25.4778 14.5491 25.549C14.4779 25.6203 14.3931 25.6764 14.2997 25.7141C14.2063 25.7518 14.1063 25.7704 14.0056 25.7686C13.9048 25.7668 13.8055 25.7448 13.7135 25.7038C13.6215 25.6628 13.5387 25.6037 13.4701 25.53L4.47007 16.53C4.32962 16.3894 4.25073 16.1987 4.25073 16C4.25073 15.8012 4.32962 15.6106 4.47007 15.47L13.4701 6.47C13.6122 6.33752 13.8003 6.2654 13.9946 6.26882C14.1889 6.27225 14.3743 6.35096 14.5117 6.48838C14.6491 6.62579 14.7278 6.81118 14.7312 7.00548C14.7347 7.19978 14.6626 7.38782 14.5301 7.53L6.81132 15.25H27.0001C27.199 15.25 27.3898 15.329 27.5304 15.4697C27.6711 15.6103 27.7501 15.8011 27.7501 16Z" fill="#112D1F"/>
</svg>
