<svg width="32" height="32" viewBox="0 0 32 32" fill="none" xmlns="http://www.w3.org/2000/svg">
<path d="M26.53 10.53L20.53 16.53C20.3878 16.6625 20.1998 16.7346 20.0055 16.7312C19.8112 16.7277 19.6258 16.649 19.4884 16.5116C19.351 16.3742 19.2723 16.1888 19.2688 15.9945C19.2654 15.8002 19.3375 15.6122 19.47 15.47L24.1887 10.75H8.75V28C8.75 28.1989 8.67098 28.3897 8.53033 28.5303C8.38968 28.671 8.19891 28.75 8 28.75C7.80109 28.75 7.61032 28.671 7.46967 28.5303C7.32902 28.3897 7.25 28.1989 7.25 28V10C7.25 9.80109 7.32902 9.61032 7.46967 9.46967C7.61032 9.32902 7.80109 9.25 8 9.25H24.1887L19.47 4.53C19.3375 4.38782 19.2654 4.19978 19.2688 4.00548C19.2723 3.81118 19.351 3.62579 19.4884 3.48838C19.6258 3.35096 19.8112 3.27225 20.0055 3.26882C20.1998 3.2654 20.3878 3.33752 20.53 3.47L26.53 9.47C26.6705 9.61062 26.7493 9.80125 26.7493 10C26.7493 10.1987 26.6705 10.3894 26.53 10.53Z" fill="#112D1F"/>
</svg>
