<svg width="32" height="32" viewBox="0 0 32 32" fill="none" xmlns="http://www.w3.org/2000/svg">
<path d="M26.53 21.47C26.6705 21.6106 26.7493 21.8012 26.7493 22C26.7493 22.1988 26.6705 22.3894 26.53 22.53L22.53 26.53C22.3878 26.6625 22.1998 26.7346 22.0055 26.7312C21.8112 26.7277 21.6258 26.649 21.4884 26.5116C21.351 26.3742 21.2723 26.1888 21.2688 25.9945C21.2654 25.8002 21.3375 25.6122 21.47 25.47L24.1887 22.75H6C5.80109 22.75 5.61032 22.671 5.46967 22.5303C5.32902 22.3897 5.25 22.1989 5.25 22C5.25 21.8011 5.32902 21.6103 5.46967 21.4697C5.61032 21.329 5.80109 21.25 6 21.25H24.1887L21.47 18.53C21.3375 18.3878 21.2654 18.1998 21.2688 18.0055C21.2723 17.8112 21.351 17.6258 21.4884 17.4884C21.6258 17.351 21.8112 17.2723 22.0055 17.2688C22.1998 17.2654 22.3878 17.3375 22.53 17.47L26.53 21.47ZM9.47 14.53C9.61217 14.6625 9.80022 14.7346 9.99452 14.7312C10.1888 14.7277 10.3742 14.649 10.5116 14.5116C10.649 14.3742 10.7277 14.1888 10.7312 13.9945C10.7346 13.8002 10.6625 13.6122 10.53 13.47L7.81125 10.75H26C26.1989 10.75 26.3897 10.671 26.5303 10.5303C26.671 10.3897 26.75 10.1989 26.75 10C26.75 9.80109 26.671 9.61032 26.5303 9.46967C26.3897 9.32902 26.1989 9.25 26 9.25H7.81125L10.53 6.53C10.6625 6.38782 10.7346 6.19978 10.7312 6.00548C10.7277 5.81118 10.649 5.62579 10.5116 5.48838C10.3742 5.35096 10.1888 5.27225 9.99452 5.26882C9.80022 5.2654 9.61217 5.33752 9.47 5.47L5.47 9.47C5.32955 9.61062 5.25066 9.80125 5.25066 10C5.25066 10.1987 5.32955 10.3894 5.47 10.53L9.47 14.53Z" fill="#112D1F"/>
</svg>
