<svg width="32" height="32" viewBox="0 0 32 32" fill="none" xmlns="http://www.w3.org/2000/svg">
<path d="M29.53 15.47L17.53 3.47C17.4251 3.36524 17.2915 3.29392 17.1461 3.26503C17.0007 3.23615 16.85 3.251 16.7131 3.30771C16.5761 3.36442 16.459 3.46045 16.3766 3.58366C16.2942 3.70688 16.2501 3.85176 16.25 4V9.25H6C5.53587 9.25 5.09075 9.43437 4.76256 9.76256C4.43437 10.0907 4.25 10.5359 4.25 11V21C4.25 21.4641 4.43437 21.9092 4.76256 22.2374C5.09075 22.5656 5.53587 22.75 6 22.75H16.25V28C16.2501 28.1482 16.2942 28.2931 16.3766 28.4163C16.459 28.5395 16.5761 28.6356 16.7131 28.6923C16.85 28.749 17.0007 28.7638 17.1461 28.735C17.2915 28.7061 17.4251 28.6348 17.53 28.53L29.53 16.53C29.6705 16.3894 29.7493 16.1987 29.7493 16C29.7493 15.8012 29.6705 15.6106 29.53 15.47ZM17.75 26.1887V22C17.75 21.8011 17.671 21.6103 17.5303 21.4697C17.3897 21.329 17.1989 21.25 17 21.25H6C5.9337 21.25 5.87011 21.2237 5.82322 21.1768C5.77634 21.1299 5.75 21.0663 5.75 21V11C5.75 10.9337 5.77634 10.8701 5.82322 10.8232C5.87011 10.7763 5.9337 10.75 6 10.75H17C17.1989 10.75 17.3897 10.671 17.5303 10.5303C17.671 10.3897 17.75 10.1989 17.75 10V5.81125L27.9387 16L17.75 26.1887Z" fill="#112D1F"/>
</svg>
