<svg width="32" height="32" viewBox="0 0 32 32" fill="none" xmlns="http://www.w3.org/2000/svg">
<path d="M10.5301 18.47C10.6038 18.5387 10.6629 18.6215 10.7039 18.7135C10.7448 18.8055 10.7669 18.9048 10.7687 19.0055C10.7704 19.1062 10.7519 19.2062 10.7142 19.2996C10.6765 19.393 10.6203 19.4778 10.5491 19.549C10.4779 19.6203 10.3931 19.6764 10.2997 19.7141C10.2063 19.7518 10.1063 19.7704 10.0056 19.7686C9.90485 19.7668 9.80553 19.7448 9.71353 19.7038C9.62153 19.6628 9.53873 19.6037 9.47007 19.53L3.47007 13.53C3.32962 13.3894 3.25073 13.1987 3.25073 13C3.25073 12.8012 3.32962 12.6106 3.47007 12.47L9.47007 6.47C9.61225 6.33752 9.80029 6.2654 9.99459 6.26882C10.1889 6.27225 10.3743 6.35096 10.5117 6.48838C10.6491 6.62579 10.7278 6.81118 10.7312 7.00548C10.7347 7.19978 10.6626 7.38782 10.5301 7.53L5.06132 13L10.5301 18.47ZM16.0001 12.25H11.8113L16.5301 7.53C16.6626 7.38782 16.7347 7.19978 16.7312 7.00548C16.7278 6.81118 16.6491 6.62579 16.5117 6.48838C16.3743 6.35096 16.1889 6.27225 15.9946 6.26882C15.8003 6.2654 15.6122 6.33752 15.4701 6.47L9.47007 12.47C9.32962 12.6106 9.25073 12.8012 9.25073 13C9.25073 13.1987 9.32962 13.3894 9.47007 13.53L15.4701 19.53C15.6122 19.6625 15.8003 19.7346 15.9946 19.7312C16.1889 19.7277 16.3743 19.649 16.5117 19.5116C16.6491 19.3742 16.7278 19.1888 16.7312 18.9945C16.7347 18.8002 16.6626 18.6122 16.5301 18.47L11.8113 13.75H16.0001C18.9827 13.7533 21.8423 14.9396 23.9514 17.0487C26.0604 19.1578 27.2468 22.0173 27.2501 25C27.2501 25.1989 27.3291 25.3897 27.4697 25.5303C27.6104 25.671 27.8012 25.75 28.0001 25.75C28.199 25.75 28.3898 25.671 28.5304 25.5303C28.6711 25.3897 28.7501 25.1989 28.7501 25C28.7461 21.6197 27.4015 18.379 25.0113 15.9888C22.6211 13.5985 19.3804 12.254 16.0001 12.25Z" fill="#112D1F"/>
</svg>
