<svg width="32" height="32" viewBox="0 0 32 32" fill="none" xmlns="http://www.w3.org/2000/svg">
<path d="M29.7499 7V13C29.7499 13.1989 29.6709 13.3897 29.5303 13.5303C29.3896 13.671 29.1988 13.75 28.9999 13.75H22.9999C22.801 13.75 22.6103 13.671 22.4696 13.5303C22.3289 13.3897 22.2499 13.1989 22.2499 13C22.2499 12.8011 22.3289 12.6103 22.4696 12.4697C22.6103 12.329 22.801 12.25 22.9999 12.25H27.0687L23.2712 8.775C23.2637 8.7675 23.2562 8.75875 23.2474 8.75125C21.8226 7.32727 20.0098 6.35469 18.0355 5.955C16.0611 5.55531 14.0128 5.74623 12.1463 6.50392C10.2799 7.2616 8.67803 8.55245 7.54093 10.2152C6.40383 11.878 5.78188 13.8389 5.75277 15.8531C5.72367 17.8673 6.2887 19.8454 7.37728 21.5403C8.46586 23.2353 10.0297 24.5718 11.8735 25.3831C13.7173 26.1944 15.7593 26.4445 17.7444 26.102C19.7294 25.7595 21.5696 24.8397 23.0349 23.4575C23.1796 23.3209 23.3727 23.2474 23.5716 23.2531C23.7705 23.2589 23.959 23.3434 24.0956 23.4881C24.2321 23.6328 24.3056 23.8259 24.2999 24.0248C24.2942 24.2237 24.2096 24.4122 24.0649 24.5487C21.8873 26.6117 18.9995 27.7579 15.9999 27.75H15.8399C13.9159 27.7229 12.0279 27.2237 10.342 26.2962C8.65598 25.3687 7.22359 24.0414 6.17063 22.4308C5.11768 20.8202 4.47639 18.9757 4.30311 17.0592C4.12983 15.1428 4.42987 13.2132 5.17686 11.4398C5.92384 9.6665 7.09492 8.10375 8.58719 6.88891C10.0795 5.67407 11.8473 4.84431 13.7352 4.47254C15.6232 4.10077 17.5736 4.19837 19.4151 4.75676C21.2565 5.31516 22.9326 6.31725 24.2962 7.675L28.2499 11.2937V7C28.2499 6.80108 28.3289 6.61032 28.4696 6.46967C28.6103 6.32901 28.801 6.25 28.9999 6.25C29.1988 6.25 29.3896 6.32901 29.5303 6.46967C29.6709 6.61032 29.7499 6.80108 29.7499 7Z" fill="#112D1F"/>
</svg>
