<svg width="32" height="32" viewBox="0 0 32 32" fill="none" xmlns="http://www.w3.org/2000/svg">
<path d="M27.75 16C27.75 16.1989 27.671 16.3897 27.5303 16.5303C27.3897 16.671 27.1989 16.75 27 16.75H5C4.80109 16.75 4.61032 16.671 4.46967 16.5303C4.32902 16.3897 4.25 16.1989 4.25 16C4.25 15.8011 4.32902 15.6103 4.46967 15.4697C4.61032 15.329 4.80109 15.25 5 15.25H27C27.1989 15.25 27.3897 15.329 27.5303 15.4697C27.671 15.6103 27.75 15.8011 27.75 16ZM12.53 6.53L15.25 3.81125V12C15.25 12.1989 15.329 12.3897 15.4697 12.5303C15.6103 12.671 15.8011 12.75 16 12.75C16.1989 12.75 16.3897 12.671 16.5303 12.5303C16.671 12.3897 16.75 12.1989 16.75 12V3.81125L19.47 6.53C19.6122 6.66248 19.8002 6.7346 19.9945 6.73117C20.1888 6.72774 20.3742 6.64903 20.5116 6.51162C20.649 6.37421 20.7277 6.18882 20.7312 5.99452C20.7346 5.80022 20.6625 5.61217 20.53 5.47L16.53 1.47C16.3894 1.32955 16.1988 1.25066 16 1.25066C15.8012 1.25066 15.6106 1.32955 15.47 1.47L11.47 5.47C11.3375 5.61217 11.2654 5.80022 11.2688 5.99452C11.2723 6.18882 11.351 6.37421 11.4884 6.51162C11.6258 6.64903 11.8112 6.72774 12.0055 6.73117C12.1998 6.7346 12.3878 6.66248 12.53 6.53ZM19.47 25.47L16.75 28.1887V20C16.75 19.8011 16.671 19.6103 16.5303 19.4697C16.3897 19.329 16.1989 19.25 16 19.25C15.8011 19.25 15.6103 19.329 15.4697 19.4697C15.329 19.6103 15.25 19.8011 15.25 20V28.1887L12.53 25.47C12.3878 25.3375 12.1998 25.2654 12.0055 25.2688C11.8112 25.2722 11.6258 25.351 11.4884 25.4884C11.351 25.6258 11.2723 25.8112 11.2688 26.0055C11.2654 26.1998 11.3375 26.3878 11.47 26.53L15.47 30.53C15.6106 30.6704 15.8012 30.7493 16 30.7493C16.1988 30.7493 16.3894 30.6704 16.53 30.53L20.53 26.53C20.6625 26.3878 20.7346 26.1998 20.7312 26.0055C20.7277 25.8112 20.649 25.6258 20.5116 25.4884C20.3742 25.351 20.1888 25.2722 19.9945 25.2688C19.8002 25.2654 19.6122 25.3375 19.47 25.47Z" fill="#112D1F"/>
</svg>
