<svg width="32" height="32" viewBox="0 0 32 32" fill="none" xmlns="http://www.w3.org/2000/svg">
<path d="M26.0001 9.25H15.7501V4C15.7499 3.85176 15.7059 3.70688 15.6235 3.58366C15.541 3.46045 15.424 3.36442 15.287 3.30771C15.15 3.251 14.9993 3.23615 14.8539 3.26503C14.7085 3.29392 14.575 3.36524 14.4701 3.47L2.47007 15.47C2.32962 15.6106 2.25073 15.8012 2.25073 16C2.25073 16.1987 2.32962 16.3894 2.47007 16.53L14.4701 28.53C14.575 28.6348 14.7085 28.7061 14.8539 28.735C14.9993 28.7638 15.15 28.749 15.287 28.6923C15.424 28.6356 15.541 28.5395 15.6235 28.4163C15.7059 28.2931 15.7499 28.1482 15.7501 28V22.75H26.0001C26.4642 22.75 26.9093 22.5656 27.2375 22.2374C27.5657 21.9092 27.7501 21.4641 27.7501 21V11C27.7501 10.5359 27.5657 10.0907 27.2375 9.76256C26.9093 9.43437 26.4642 9.25 26.0001 9.25ZM26.2501 21C26.2501 21.0663 26.2237 21.1299 26.1768 21.1768C26.13 21.2237 26.0664 21.25 26.0001 21.25H15.0001C14.8012 21.25 14.6104 21.329 14.4697 21.4697C14.3291 21.6103 14.2501 21.8011 14.2501 22V26.1887L4.06132 16L14.2501 5.81125V10C14.2501 10.1989 14.3291 10.3897 14.4697 10.5303C14.6104 10.671 14.8012 10.75 15.0001 10.75H26.0001C26.0664 10.75 26.13 10.7763 26.1768 10.8232C26.2237 10.8701 26.2501 10.9337 26.2501 11V21Z" fill="#112D1F"/>
</svg>
