<svg width="32" height="32" viewBox="0 0 32 32" fill="none" xmlns="http://www.w3.org/2000/svg">
<path d="M28.53 12.53C28.3894 12.6704 28.1988 12.7493 28 12.7493C27.8012 12.7493 27.6106 12.6704 27.47 12.53L22.75 7.81125V24C22.75 24.1989 22.671 24.3897 22.5303 24.5303C22.3897 24.671 22.1989 24.75 22 24.75H4C3.80109 24.75 3.61032 24.671 3.46967 24.5303C3.32902 24.3897 3.25 24.1989 3.25 24C3.25 23.8011 3.32902 23.6103 3.46967 23.4697C3.61032 23.329 3.80109 23.25 4 23.25H21.25V7.81125L16.53 12.53C16.4613 12.6037 16.3785 12.6628 16.2865 12.7038C16.1945 12.7448 16.0952 12.7668 15.9945 12.7686C15.8938 12.7704 15.7938 12.7518 15.7004 12.7141C15.607 12.6764 15.5222 12.6203 15.451 12.549C15.3797 12.4778 15.3236 12.393 15.2859 12.2996C15.2482 12.2062 15.2296 12.1062 15.2314 12.0055C15.2332 11.9048 15.2552 11.8055 15.2962 11.7135C15.3372 11.6215 15.3963 11.5387 15.47 11.47L21.47 5.47C21.6106 5.32955 21.8012 5.25066 22 5.25066C22.1988 5.25066 22.3894 5.32955 22.53 5.47L28.53 11.47C28.6705 11.6106 28.7493 11.8012 28.7493 12C28.7493 12.1987 28.6705 12.3894 28.53 12.53Z" fill="#112D1F"/>
</svg>
