<svg width="32" height="32" viewBox="0 0 32 32" fill="none" xmlns="http://www.w3.org/2000/svg">
<path d="M26.5299 6.53L19.8099 13.25H23.9999C24.1988 13.25 24.3896 13.329 24.5302 13.4697C24.6709 13.6103 24.7499 13.8011 24.7499 14C24.7499 14.1989 24.6709 14.3897 24.5302 14.5303C24.3896 14.671 24.1988 14.75 23.9999 14.75H17.9999C17.801 14.75 17.6102 14.671 17.4696 14.5303C17.3289 14.3897 17.2499 14.1989 17.2499 14V8C17.2499 7.80109 17.3289 7.61032 17.4696 7.46967C17.6102 7.32902 17.801 7.25 17.9999 7.25C18.1988 7.25 18.3896 7.32902 18.5302 7.46967C18.6709 7.61032 18.7499 7.80109 18.7499 8V12.19L25.4699 5.47C25.6121 5.33752 25.8001 5.2654 25.9944 5.26882C26.1887 5.27225 26.3741 5.35096 26.5115 5.48838C26.6489 5.62579 26.7277 5.81118 26.7311 6.00548C26.7345 6.19978 26.6624 6.38782 26.5299 6.53ZM13.9999 17.25H7.99991C7.801 17.25 7.61023 17.329 7.46958 17.4697C7.32893 17.6103 7.24991 17.8011 7.24991 18C7.24991 18.1989 7.32893 18.3897 7.46958 18.5303C7.61023 18.671 7.801 18.75 7.99991 18.75H12.1899L5.46991 25.47C5.39622 25.5387 5.33712 25.6215 5.29613 25.7135C5.25514 25.8055 5.23309 25.9048 5.23132 26.0055C5.22954 26.1062 5.24807 26.2062 5.28579 26.2996C5.32351 26.393 5.37965 26.4778 5.45087 26.549C5.52209 26.6203 5.60692 26.6764 5.70031 26.7141C5.7937 26.7518 5.89373 26.7704 5.99443 26.7686C6.09513 26.7668 6.19445 26.7448 6.28645 26.7038C6.37845 26.6628 6.46125 26.6037 6.52991 26.53L13.2499 19.81V24C13.2499 24.1989 13.3289 24.3897 13.4696 24.5303C13.6102 24.671 13.801 24.75 13.9999 24.75C14.1988 24.75 14.3896 24.671 14.5302 24.5303C14.6709 24.3897 14.7499 24.1989 14.7499 24V18C14.7499 17.8011 14.6709 17.6103 14.5302 17.4697C14.3896 17.329 14.1988 17.25 13.9999 17.25Z" fill="#112D1F"/>
</svg>
