<svg width="32" height="32" viewBox="0 0 32 32" fill="none" xmlns="http://www.w3.org/2000/svg">
<path d="M28.5301 14.47L16.5301 2.47C16.3894 2.32955 16.1988 2.25066 16.0001 2.25066C15.8013 2.25066 15.6107 2.32955 15.4701 2.47L3.47007 14.47C3.36532 14.5749 3.29399 14.7085 3.26511 14.8539C3.23622 14.9993 3.25107 15.15 3.30779 15.2869C3.3645 15.4239 3.46053 15.541 3.58374 15.6234C3.70696 15.7058 3.85183 15.7499 4.00007 15.75H9.25007V26C9.25007 26.4641 9.43445 26.9092 9.76264 27.2374C10.0908 27.5656 10.5359 27.75 11.0001 27.75H21.0001C21.4642 27.75 21.9093 27.5656 22.2375 27.2374C22.5657 26.9092 22.7501 26.4641 22.7501 26V15.75H28.0001C28.1483 15.7499 28.2932 15.7058 28.4164 15.6234C28.5396 15.541 28.6356 15.4239 28.6924 15.2869C28.7491 15.15 28.7639 14.9993 28.735 14.8539C28.7062 14.7085 28.6348 14.5749 28.5301 14.47ZM22.0001 14.25C21.8012 14.25 21.6104 14.329 21.4697 14.4697C21.3291 14.6103 21.2501 14.8011 21.2501 15V26C21.2501 26.0663 21.2237 26.1299 21.1768 26.1768C21.13 26.2237 21.0664 26.25 21.0001 26.25H11.0001C10.9338 26.25 10.8702 26.2237 10.8233 26.1768C10.7764 26.1299 10.7501 26.0663 10.7501 26V15C10.7501 14.8011 10.6711 14.6103 10.5304 14.4697C10.3898 14.329 10.199 14.25 10.0001 14.25H5.81132L16.0001 4.06125L26.1888 14.25H22.0001Z" fill="#112D1F"/>
</svg>
