<svg width="32" height="32" viewBox="0 0 32 32" fill="none" xmlns="http://www.w3.org/2000/svg">
<path d="M26.2788 12.6962L17.2038 16.3213L23.5926 24.535C23.7146 24.6921 23.7692 24.8913 23.7443 25.0887C23.7195 25.2861 23.6172 25.4655 23.4601 25.5875C23.3029 25.7095 23.1038 25.7641 22.9064 25.7392C22.709 25.7144 22.5296 25.6121 22.4076 25.455L16.0001 17.2213L9.59257 25.46C9.53216 25.5378 9.45702 25.603 9.37144 25.6517C9.28585 25.7005 9.1915 25.7319 9.09376 25.7442C8.99603 25.7565 8.89683 25.7495 8.80183 25.7234C8.70682 25.6974 8.61788 25.6529 8.54007 25.5925C8.46226 25.5321 8.39712 25.457 8.34835 25.3714C8.29958 25.2858 8.26815 25.1914 8.25584 25.0937C8.24354 24.996 8.25061 24.8968 8.27664 24.8018C8.30267 24.7068 8.34716 24.6178 8.40757 24.54L14.7963 16.3263L5.72132 12.7013C5.62914 12.6652 5.54502 12.6112 5.47379 12.5425C5.40257 12.4737 5.34566 12.3916 5.30634 12.3007C5.26702 12.2099 5.24607 12.1122 5.2447 12.0132C5.24333 11.9142 5.26157 11.816 5.29836 11.7241C5.33515 11.6322 5.38977 11.5485 5.45906 11.4778C5.52835 11.4071 5.61095 11.3508 5.7021 11.3122C5.79324 11.2736 5.89113 11.2534 5.99011 11.2528C6.0891 11.2522 6.18722 11.2712 6.27882 11.3088L15.2501 14.8925V5C15.2501 4.80109 15.3291 4.61032 15.4697 4.46967C15.6104 4.32902 15.8012 4.25 16.0001 4.25C16.199 4.25 16.3897 4.32902 16.5304 4.46967C16.6711 4.61032 16.7501 4.80109 16.7501 5V14.8925L25.7213 11.3038C25.8129 11.2662 25.911 11.2472 26.01 11.2478C26.109 11.2484 26.2069 11.2686 26.298 11.3072C26.3892 11.3458 26.4718 11.4021 26.5411 11.4728C26.6104 11.5435 26.665 11.6272 26.7018 11.7191C26.7386 11.811 26.7568 11.9092 26.7554 12.0082C26.7541 12.1072 26.7331 12.2049 26.6938 12.2957C26.6545 12.3866 26.5976 12.4687 26.5264 12.5375C26.4551 12.6062 26.371 12.6602 26.2788 12.6962Z" fill="#112D1F"/>
</svg>
