<svg width="32" height="32" viewBox="0 0 32 32" fill="none" xmlns="http://www.w3.org/2000/svg">
<path d="M29 12.25H25.75V12C25.75 11.8011 25.671 11.6104 25.5303 11.4697C25.3897 11.3291 25.1989 11.25 25 11.25H17C16.8011 11.25 16.6103 11.3291 16.4697 11.4697C16.329 11.6104 16.25 11.8011 16.25 12V12.25H7.75V6.50005C7.75 6.03592 7.93437 5.5908 8.26256 5.26261C8.59075 4.93442 9.03587 4.75005 9.5 4.75005C9.90901 4.7493 10.3062 4.88719 10.6267 5.14122C10.9473 5.39526 11.1723 5.75044 11.265 6.1488C11.2832 6.24665 11.3206 6.3399 11.3752 6.42313C11.4297 6.50636 11.5003 6.57791 11.5828 6.63359C11.6652 6.68927 11.758 6.72799 11.8556 6.74747C11.9532 6.76696 12.0536 6.76683 12.1512 6.74709C12.2487 6.72735 12.3414 6.68839 12.4237 6.63249C12.506 6.57659 12.5764 6.50487 12.6308 6.4215C12.6851 6.33812 12.7223 6.24477 12.7402 6.14688C12.7581 6.04898 12.7563 5.9485 12.735 5.8513C12.5767 5.11203 12.1687 4.44982 11.5795 3.97607C10.9904 3.50232 10.256 3.24594 9.5 3.25005C8.63805 3.25005 7.8114 3.59246 7.2019 4.20195C6.59241 4.81144 6.25 5.63809 6.25 6.50005V12.25H3C2.53587 12.25 2.09075 12.4344 1.76256 12.7626C1.43437 13.0908 1.25 13.5359 1.25 14V18C1.25199 19.7896 1.96378 21.5054 3.22922 22.7708C4.49466 24.0363 6.2104 24.7481 8 24.75H8.25V27C8.25 27.199 8.32902 27.3897 8.46967 27.5304C8.61032 27.671 8.80109 27.75 9 27.75C9.19891 27.75 9.38968 27.671 9.53033 27.5304C9.67098 27.3897 9.75 27.199 9.75 27V24.75H22.25V27C22.25 27.199 22.329 27.3897 22.4697 27.5304C22.6103 27.671 22.8011 27.75 23 27.75C23.1989 27.75 23.3897 27.671 23.5303 27.5304C23.671 27.3897 23.75 27.199 23.75 27V24.75H24C25.7896 24.7481 27.5053 24.0363 28.7708 22.7708C30.0362 21.5054 30.748 19.7896 30.75 18V14C30.75 13.5359 30.5656 13.0908 30.2374 12.7626C29.9092 12.4344 29.4641 12.25 29 12.25ZM17.75 12.75H24.25V17.25H17.75V12.75ZM29.25 18C29.25 19.3924 28.6969 20.7278 27.7123 21.7124C26.7277 22.6969 25.3924 23.25 24 23.25H8C6.60761 23.25 5.27225 22.6969 4.28769 21.7124C3.30312 20.7278 2.75 19.3924 2.75 18V14C2.75 13.9337 2.77634 13.8702 2.82322 13.8233C2.87011 13.7764 2.9337 13.75 3 13.75H16.25V18C16.25 18.199 16.329 18.3897 16.4697 18.5304C16.6103 18.671 16.8011 18.75 17 18.75H25C25.1989 18.75 25.3897 18.671 25.5303 18.5304C25.671 18.3897 25.75 18.199 25.75 18V13.75H29C29.0663 13.75 29.1299 13.7764 29.1768 13.8233C29.2237 13.8702 29.25 13.9337 29.25 14V18Z" fill="#112D1F"/>
</svg>
