<svg width="32" height="32" viewBox="0 0 32 32" fill="none" xmlns="http://www.w3.org/2000/svg">
<path d="M27.4302 18.275C27.0485 16.6975 26.3464 15.2155 25.3675 13.9209C24.3887 12.6264 23.154 11.547 21.7402 10.75H30.0002C30.1991 10.75 30.3898 10.671 30.5305 10.5303C30.6711 10.3897 30.7502 10.1989 30.7502 10C30.7502 9.80109 30.6711 9.61033 30.5305 9.46968C30.3898 9.32902 30.1991 9.25001 30.0002 9.25001H19.6752C19.503 8.40229 19.0431 7.64015 18.3734 7.09272C17.7036 6.5453 16.8652 6.24625 16.0002 6.24625C15.1351 6.24625 14.2967 6.5453 13.627 7.09272C12.9572 7.64015 12.4973 8.40229 12.3252 9.25001H2.00016C1.80125 9.25001 1.61048 9.32902 1.46983 9.46968C1.32918 9.61033 1.25016 9.80109 1.25016 10C1.25016 10.1989 1.32918 10.3897 1.46983 10.5303C1.61048 10.671 1.80125 10.75 2.00016 10.75H10.2602C8.84636 11.547 7.61164 12.6264 6.63277 13.9209C5.6539 15.2155 4.95181 16.6975 4.57016 18.275C3.6477 18.3812 2.79745 18.8259 2.18399 19.5229C1.57052 20.2199 1.23748 21.1198 1.24933 22.0483C1.26118 22.9767 1.61707 23.8678 2.24812 24.5489C2.87918 25.2301 3.7405 25.6529 4.66536 25.7355C5.59023 25.8181 6.51286 25.5547 7.25465 24.9962C7.99644 24.4377 8.50464 23.6238 8.68087 22.7121C8.8571 21.8004 8.68882 20.8558 8.20862 20.0611C7.72842 19.2663 6.97044 18.678 6.08141 18.41C6.50603 16.8048 7.31185 15.3257 8.43042 14.0986C9.54899 12.8714 10.9473 11.9324 12.5064 11.3613C12.7807 12.0647 13.261 12.6689 13.8843 13.0949C14.5077 13.5209 15.2451 13.7488 16.0002 13.7488C16.7552 13.7488 17.4926 13.5209 18.116 13.0949C18.7393 12.6689 19.2196 12.0647 19.4939 11.3613C21.0531 11.9324 22.4513 12.8714 23.5699 14.0986C24.6885 15.3257 25.4943 16.8048 25.9189 18.41C25.0299 18.678 24.2719 19.2663 23.7917 20.0611C23.3115 20.8558 23.1432 21.8004 23.3195 22.7121C23.4957 23.6238 24.0039 24.4377 24.7457 24.9962C25.4875 25.5547 26.4101 25.8181 27.335 25.7355C28.2598 25.6529 29.1211 25.2301 29.7522 24.5489C30.3832 23.8678 30.7391 22.9767 30.751 22.0483C30.7628 21.1198 30.4298 20.2199 29.8163 19.5229C29.2029 18.8259 28.3526 18.3812 27.4302 18.275ZM7.25016 22C7.25016 22.445 7.1182 22.88 6.87097 23.25C6.62373 23.62 6.27233 23.9084 5.8612 24.0787C5.45006 24.249 4.99766 24.2936 4.56121 24.2068C4.12475 24.12 3.72384 23.9057 3.40917 23.591C3.0945 23.2763 2.88021 22.8754 2.79339 22.439C2.70658 22.0025 2.75113 21.5501 2.92143 21.139C3.09173 20.7278 3.38011 20.3764 3.75013 20.1292C4.12014 19.882 4.55515 19.75 5.00016 19.75C5.5969 19.75 6.16919 19.9871 6.59115 20.409C7.01311 20.831 7.25016 21.4033 7.25016 22ZM16.0002 12.25C15.5552 12.25 15.1201 12.118 14.7501 11.8708C14.3801 11.6236 14.0917 11.2722 13.9214 10.861C13.7511 10.4499 13.7066 9.99751 13.7934 9.56105C13.8802 9.1246 14.0945 8.72368 14.4092 8.40902C14.7238 8.09435 15.1247 7.88006 15.5612 7.79324C15.9977 7.70642 16.4501 7.75098 16.8612 7.92128C17.2723 8.09157 17.6237 8.37996 17.871 8.74997C18.1182 9.11998 18.2502 9.555 18.2502 10C18.2502 10.5967 18.0131 11.169 17.5911 11.591C17.1692 12.013 16.5969 12.25 16.0002 12.25ZM27.0002 24.25C26.5552 24.25 26.1201 24.118 25.7501 23.8708C25.3801 23.6236 25.0917 23.2722 24.9214 22.861C24.7511 22.4499 24.7066 21.9975 24.7934 21.5611C24.8802 21.1246 25.0945 20.7237 25.4092 20.409C25.7238 20.0943 26.1247 19.8801 26.5612 19.7932C26.9977 19.7064 27.4501 19.751 27.8612 19.9213C28.2723 20.0916 28.6237 20.38 28.871 20.75C29.1182 21.12 29.2502 21.555 29.2502 22C29.2502 22.5967 29.0131 23.169 28.5911 23.591C28.1692 24.013 27.5969 24.25 27.0002 24.25Z" fill="#112D1F"/>
</svg>
