<svg width="32" height="32" viewBox="0 0 32 32" fill="none" xmlns="http://www.w3.org/2000/svg">
<path d="M29.125 18.405L23.9287 6.57505C23.8913 6.48976 23.8383 6.41218 23.7725 6.3463C23.0693 5.64328 22.1156 5.24835 21.1212 5.24835C20.1269 5.24835 19.1732 5.64328 18.47 6.3463C18.3296 6.48651 18.2505 6.67664 18.25 6.87505V10.25H13.75V6.87505C13.7501 6.77638 13.7307 6.67866 13.6929 6.5875C13.6552 6.49634 13.5998 6.41352 13.53 6.3438C12.8268 5.64078 11.8731 5.24585 10.8787 5.24585C9.88437 5.24585 8.93072 5.64078 8.22749 6.3438C8.16165 6.40968 8.10866 6.48726 8.07124 6.57255L2.87499 18.405C2.4807 19.1801 2.26736 20.0346 2.25102 20.904C2.23467 21.7735 2.41576 22.6354 2.78064 23.4247C3.14552 24.2141 3.68469 24.9104 4.35757 25.4613C5.03046 26.0122 5.81953 26.4032 6.6654 26.6051C7.51127 26.8069 8.39191 26.8143 9.24103 26.6266C10.0902 26.4389 10.8856 26.061 11.5676 25.5215C12.2496 24.9819 12.8003 24.2947 13.1784 23.5115C13.5564 22.7284 13.7518 21.8697 13.75 21V11.75H18.25V21C18.2482 21.8697 18.4436 22.7284 18.8216 23.5115C19.1996 24.2947 19.7504 24.9819 20.4323 25.5215C21.1143 26.061 21.9098 26.4389 22.7589 26.6266C23.6081 26.8143 24.4887 26.8069 25.3346 26.6051C26.1804 26.4032 26.9695 26.0122 27.6424 25.4613C28.3153 24.9104 28.8545 24.2141 29.2193 23.4247C29.5842 22.6354 29.7653 21.7735 29.749 20.904C29.7326 20.0346 29.5193 19.1801 29.125 18.405ZM7.99999 25.25C7.15942 25.25 6.33772 25.0008 5.63881 24.5338C4.93991 24.0668 4.39517 23.403 4.0735 22.6265C3.75183 21.8499 3.66766 20.9953 3.83165 20.1709C3.99564 19.3465 4.40041 18.5892 4.99478 17.9948C5.58916 17.4005 6.34643 16.9957 7.17085 16.8317C7.99527 16.6677 8.84981 16.7519 9.62639 17.0736C10.403 17.3952 11.0667 17.94 11.5337 18.6389C12.0007 19.3378 12.25 20.1595 12.25 21C12.25 22.1272 11.8022 23.2082 11.0052 24.0053C10.2082 24.8023 9.12716 25.25 7.99999 25.25ZM7.99999 15.25C7.20134 15.2498 6.41148 15.4167 5.68124 15.74L9.38249 7.31755C9.77365 6.96918 10.2741 6.76821 10.7976 6.74927C11.321 6.73033 11.8347 6.89461 12.25 7.2138V17.125C11.7115 16.5334 11.0552 16.061 10.3233 15.7381C9.59135 15.4152 8.79998 15.2489 7.99999 15.25ZM19.75 7.21505C20.1653 6.89586 20.679 6.73158 21.2024 6.75052C21.7259 6.76945 22.2263 6.97043 22.6175 7.3188L26.3187 15.74C25.2171 15.2519 23.9897 15.123 22.8107 15.3716C21.6316 15.6202 20.5608 16.2337 19.75 17.125V7.21505ZM24 25.25C23.1594 25.25 22.3377 25.0008 21.6388 24.5338C20.9399 24.0668 20.3952 23.403 20.0735 22.6265C19.7518 21.8499 19.6677 20.9953 19.8316 20.1709C19.9956 19.3465 20.4004 18.5892 20.9948 17.9948C21.5892 17.4005 22.3464 16.9957 23.1709 16.8317C23.9953 16.6677 24.8498 16.7519 25.6264 17.0736C26.403 17.3952 27.0667 17.94 27.5337 18.6389C28.0007 19.3378 28.25 20.1595 28.25 21C28.25 22.1272 27.8022 23.2082 27.0052 24.0053C26.2082 24.8023 25.1272 25.25 24 25.25Z" fill="#112D1F"/>
</svg>
