<svg width="32" height="32" viewBox="0 0 32 32" fill="none" xmlns="http://www.w3.org/2000/svg">
<path d="M21.7498 8.49997C21.7498 8.74719 21.6765 8.98887 21.5391 9.19443C21.4018 9.39999 21.2066 9.56021 20.9782 9.65482C20.7498 9.74943 20.4984 9.77418 20.2559 9.72595C20.0135 9.67772 19.7907 9.55867 19.6159 9.38385C19.4411 9.20904 19.3221 8.98631 19.2738 8.74383C19.2256 8.50135 19.2503 8.25002 19.345 8.02161C19.4396 7.79321 19.5998 7.59798 19.8053 7.46063C20.0109 7.32328 20.2526 7.24997 20.4998 7.24997C20.8313 7.24997 21.1493 7.38166 21.3837 7.61608C21.6181 7.8505 21.7498 8.16845 21.7498 8.49997ZM15.4798 16.4237C15.327 16.2964 15.1298 16.235 14.9317 16.2531C14.7337 16.2711 14.5509 16.3671 14.4236 16.52L9.42356 22.52C9.35959 22.5955 9.31122 22.683 9.28122 22.7773C9.25123 22.8717 9.24021 22.971 9.2488 23.0696C9.25739 23.1683 9.28542 23.2642 9.33127 23.352C9.37712 23.4397 9.43989 23.5175 9.51595 23.5808C9.59202 23.6442 9.67987 23.6919 9.77445 23.7211C9.86903 23.7504 9.96846 23.7606 10.067 23.7512C10.1656 23.7418 10.2613 23.713 10.3487 23.6665C10.436 23.6199 10.5133 23.5565 10.5761 23.48L15.5761 17.48C15.7034 17.3271 15.7647 17.13 15.7467 16.9319C15.7286 16.7338 15.6326 16.551 15.4798 16.4237ZM29.7498 9.99997C29.75 10.1236 29.7196 10.2453 29.6614 10.3544C29.6032 10.4634 29.5189 10.5564 29.4161 10.625L26.7498 12.4012V15C26.7458 18.3803 25.4013 21.621 23.011 24.0112C20.6208 26.4014 17.3801 27.746 13.9998 27.75H0.999806C0.858439 27.7501 0.71991 27.7103 0.600189 27.6351C0.480469 27.56 0.384432 27.4525 0.323152 27.3251C0.261872 27.1977 0.237845 27.0556 0.25384 26.9151C0.269835 26.7746 0.325202 26.6416 0.413556 26.5312L12.2498 11.7375V9.49997C12.2481 7.76057 12.8717 6.07853 14.007 4.76071C15.1423 3.4429 16.7135 2.57716 18.434 2.32146C20.1545 2.06576 21.9096 2.43713 23.379 3.36783C24.8485 4.29852 25.9344 5.7265 26.4386 7.39122L29.4161 9.37497C29.5189 9.44357 29.6032 9.53653 29.6614 9.64557C29.7196 9.75461 29.75 9.87635 29.7498 9.99997ZM27.6473 9.99997L25.3748 8.48497C25.2221 8.3827 25.1122 8.2279 25.0661 8.04997C24.715 6.69489 23.8817 5.51441 22.7224 4.72988C21.5631 3.94536 20.1575 3.61067 18.769 3.78857C17.3806 3.96648 16.1047 4.64477 15.1806 5.69625C14.2566 6.74772 13.7479 8.10016 13.7498 9.49997V12C13.75 12.1703 13.6923 12.3356 13.5861 12.4687L2.55981 26.25H13.9998C16.9825 26.2467 19.842 25.0603 21.9511 22.9513C24.0602 20.8422 25.2465 17.9826 25.2498 15V12C25.2496 11.8764 25.28 11.7546 25.3382 11.6456C25.3965 11.5365 25.4807 11.4436 25.5836 11.375L27.6473 9.99997Z" fill="#112D1F"/>
</svg>
