<svg width="32" height="32" viewBox="0 0 32 32" fill="none" xmlns="http://www.w3.org/2000/svg">
<path d="M26.5551 26.5L6.55515 4.5C6.41785 4.37256 6.23782 4.30111 6.0505 4.29972C5.86317 4.29833 5.6821 4.36709 5.54292 4.49248C5.40374 4.61787 5.31653 4.7908 5.29843 4.97726C5.28034 5.16371 5.33267 5.35019 5.44515 5.5L14.4851 15.4438L6.55015 21.4C6.39102 21.5193 6.28582 21.697 6.25769 21.8939C6.22956 22.0908 6.2808 22.2909 6.40015 22.45C6.5195 22.6091 6.69717 22.7143 6.89408 22.7425C7.091 22.7706 7.29102 22.7193 7.45015 22.6L14.2501 17.5V28C14.2501 28.1393 14.2889 28.2758 14.3622 28.3943C14.4354 28.5128 14.5402 28.6085 14.6647 28.6708C14.7893 28.7331 14.9288 28.7595 15.0675 28.747C15.2062 28.7345 15.3387 28.6836 15.4501 28.6L21.9851 23.6987L25.4451 27.5C25.5791 27.6472 25.766 27.7352 25.9648 27.7445C26.1636 27.7539 26.358 27.6839 26.5051 27.55C26.6523 27.4161 26.7403 27.2291 26.7497 27.0304C26.7591 26.8316 26.6891 26.6372 26.5551 26.49V26.5ZM15.7501 26.5V17.5L17.6364 18.9137L20.9714 22.5837L15.7501 26.5ZM14.2501 8.95375V4C14.2501 3.86072 14.2889 3.72418 14.3622 3.6057C14.4354 3.48722 14.5402 3.39147 14.6647 3.32918C14.7893 3.26689 14.9288 3.24052 15.0675 3.25303C15.2062 3.26554 15.3387 3.31643 15.4501 3.4L23.4501 9.4C23.5433 9.46986 23.6189 9.56045 23.671 9.66459C23.723 9.76873 23.7501 9.88357 23.7501 10C23.7501 10.1164 23.723 10.2313 23.671 10.3354C23.6189 10.4396 23.5433 10.5301 23.4501 10.6L19.2589 13.75C19.0998 13.8693 18.8997 13.9206 18.7028 13.8925C18.5059 13.8643 18.3282 13.7591 18.2089 13.6C18.0896 13.4409 18.0383 13.2408 18.0664 13.0439C18.0946 12.847 18.1998 12.6693 18.3589 12.55L21.7501 10L15.7501 5.5V8.95375C15.7501 9.15266 15.6711 9.34343 15.5305 9.48408C15.3898 9.62473 15.1991 9.70375 15.0001 9.70375C14.8012 9.70375 14.6105 9.62473 14.4698 9.48408C14.3292 9.34343 14.2501 9.15266 14.2501 8.95375Z" fill="#112D1F"/>
</svg>
