<svg width="32" height="32" viewBox="0 0 32 32" fill="none" xmlns="http://www.w3.org/2000/svg">
<path d="M30.7499 15.5C30.7482 14.196 30.3698 12.9203 29.6602 11.8264C28.9505 10.7324 27.9399 9.86684 26.7499 9.33374V8.99999C26.7487 7.7312 26.3278 6.49846 25.5528 5.49381C24.7779 4.48916 23.6925 3.76904 22.4656 3.44563C21.2387 3.12222 19.9393 3.21368 18.7698 3.70577C17.6003 4.19786 16.6265 5.06295 15.9999 6.16624C15.3734 5.06295 14.3995 4.19786 13.23 3.70577C12.0605 3.21368 10.7611 3.12222 9.53425 3.44563C8.30737 3.76904 7.22191 4.48916 6.44698 5.49381C5.67205 6.49846 5.25117 7.7312 5.24991 8.99999V9.33374C4.05898 9.86505 3.04744 10.73 2.3376 11.8239C1.62776 12.9179 1.25 14.194 1.25 15.4981C1.25 16.8022 1.62776 18.0784 2.3376 19.1723C3.04744 20.2663 4.05898 21.1312 5.24991 21.6625V22C5.25117 23.2688 5.67205 24.5015 6.44698 25.5062C7.22191 26.5108 8.30737 27.2309 9.53425 27.5544C10.7611 27.8778 12.0605 27.7863 13.23 27.2942C14.3995 26.8021 15.3734 25.937 15.9999 24.8337C16.6265 25.937 17.6003 26.8021 18.7698 27.2942C19.9393 27.7863 21.2387 27.8778 22.4656 27.5544C23.6925 27.2309 24.7779 26.5108 25.5528 25.5062C26.3278 24.5015 26.7487 23.2688 26.7499 22V21.6625C27.9399 21.1304 28.9507 20.2656 29.6604 19.1722C30.3701 18.0788 30.7484 16.8035 30.7499 15.5ZM10.9999 26.25C9.89533 26.2505 8.83393 25.821 8.0406 25.0524C7.24727 24.2838 6.78435 23.2365 6.74991 22.1325C7.16199 22.2106 7.58049 22.25 7.99991 22.25H8.99991C9.19882 22.25 9.38959 22.171 9.53024 22.0303C9.67089 21.8897 9.74991 21.6989 9.74991 21.5C9.74991 21.3011 9.67089 21.1103 9.53024 20.9697C9.38959 20.829 9.19882 20.75 8.99991 20.75H7.99991C6.76071 20.751 5.56109 20.3136 4.61333 19.5153C3.66557 18.7169 3.03076 17.609 2.82124 16.3877C2.61172 15.1663 2.84098 13.9102 3.46847 12.8416C4.09596 11.773 5.08122 10.9608 6.24991 10.5487C6.3962 10.497 6.52285 10.4012 6.6124 10.2745C6.70195 10.1478 6.74999 9.99641 6.74991 9.84125V8.99999C6.74991 7.87282 7.19768 6.79182 7.99471 5.99479C8.79174 5.19776 9.87274 4.74999 10.9999 4.74999C12.1271 4.74999 13.2081 5.19776 14.0051 5.99479C14.8021 6.79182 15.2499 7.87282 15.2499 8.99999V18.1312C14.712 17.5385 14.0559 17.0649 13.324 16.7409C12.592 16.4169 11.8004 16.2497 10.9999 16.25C10.801 16.25 10.6102 16.329 10.4696 16.4697C10.3289 16.6103 10.2499 16.8011 10.2499 17C10.2499 17.1989 10.3289 17.3897 10.4696 17.5303C10.6102 17.671 10.801 17.75 10.9999 17.75C12.1271 17.75 13.2081 18.1978 14.0051 18.9948C14.8021 19.7918 15.2499 20.8728 15.2499 22C15.2499 23.1272 14.8021 24.2082 14.0051 25.0052C13.2081 25.8022 12.1271 26.25 10.9999 26.25ZM23.9999 20.75H22.9999C22.801 20.75 22.6102 20.829 22.4696 20.9697C22.3289 21.1103 22.2499 21.3011 22.2499 21.5C22.2499 21.6989 22.3289 21.8897 22.4696 22.0303C22.6102 22.171 22.801 22.25 22.9999 22.25H23.9999C24.4193 22.25 24.8378 22.2106 25.2499 22.1325C25.2239 22.9669 24.9527 23.7752 24.4701 24.4565C23.9876 25.1377 23.3151 25.6618 22.5366 25.9633C21.7581 26.2647 20.908 26.3302 20.0925 26.1515C19.277 25.9729 18.5322 25.558 17.951 24.9587C17.3698 24.3594 16.978 23.6022 16.8245 22.7816C16.6709 21.961 16.7625 21.1134 17.0877 20.3445C17.4129 19.5756 17.9573 18.9195 18.6531 18.4581C19.3488 17.9967 20.1651 17.7504 20.9999 17.75C21.1988 17.75 21.3896 17.671 21.5302 17.5303C21.6709 17.3897 21.7499 17.1989 21.7499 17C21.7499 16.8011 21.6709 16.6103 21.5302 16.4697C21.3896 16.329 21.1988 16.25 20.9999 16.25C20.1995 16.2497 19.4078 16.4169 18.6758 16.7409C17.9439 17.0649 17.2879 17.5385 16.7499 18.1312V8.99999C16.7499 7.87282 17.1977 6.79182 17.9947 5.99479C18.7917 5.19776 19.8727 4.74999 20.9999 4.74999C22.1271 4.74999 23.2081 5.19776 24.0051 5.99479C24.8021 6.79182 25.2499 7.87282 25.2499 8.99999V9.84125C25.2498 9.99641 25.2979 10.1478 25.3874 10.2745C25.477 10.4012 25.6036 10.497 25.7499 10.5487C26.9186 10.9608 27.9039 11.773 28.5314 12.8416C29.1588 13.9102 29.3881 15.1663 29.1786 16.3877C28.9691 17.609 28.3343 18.7169 27.3865 19.5153C26.4387 20.3136 25.2391 20.751 23.9999 20.75ZM25.7499 14C25.7499 14.1989 25.6709 14.3897 25.5302 14.5303C25.3896 14.671 25.1988 14.75 24.9999 14.75H24.4999C23.3727 14.75 22.2917 14.3022 21.4947 13.5052C20.6977 12.7082 20.2499 11.6272 20.2499 10.5V9.99999C20.2499 9.80108 20.3289 9.61032 20.4696 9.46967C20.6102 9.32901 20.801 9.24999 20.9999 9.24999C21.1988 9.24999 21.3896 9.32901 21.5302 9.46967C21.6709 9.61032 21.7499 9.80108 21.7499 9.99999V10.5C21.7499 11.2293 22.0396 11.9288 22.5554 12.4445C23.0711 12.9603 23.7706 13.25 24.4999 13.25H24.9999C25.1988 13.25 25.3896 13.329 25.5302 13.4697C25.6709 13.6103 25.7499 13.8011 25.7499 14ZM7.49991 14.75H6.99991C6.801 14.75 6.61023 14.671 6.46958 14.5303C6.32893 14.3897 6.24991 14.1989 6.24991 14C6.24991 13.8011 6.32893 13.6103 6.46958 13.4697C6.61023 13.329 6.801 13.25 6.99991 13.25H7.49991C8.22926 13.25 8.92873 12.9603 9.44446 12.4445C9.96018 11.9288 10.2499 11.2293 10.2499 10.5V9.99999C10.2499 9.80108 10.3289 9.61032 10.4696 9.46967C10.6102 9.32901 10.801 9.24999 10.9999 9.24999C11.1988 9.24999 11.3896 9.32901 11.5302 9.46967C11.6709 9.61032 11.7499 9.80108 11.7499 9.99999V10.5C11.7499 11.6272 11.3021 12.7082 10.5051 13.5052C9.70809 14.3022 8.62708 14.75 7.49991 14.75Z" fill="#112D1F"/>
</svg>
