<svg width="32" height="32" viewBox="0 0 32 32" fill="none" xmlns="http://www.w3.org/2000/svg">
<path d="M15.9998 11.25C15.0603 11.25 14.142 11.5286 13.3608 12.0505C12.5797 12.5724 11.9709 13.3143 11.6114 14.1822C11.2519 15.0502 11.1578 16.0053 11.3411 16.9267C11.5244 17.8481 11.9767 18.6944 12.641 19.3587C13.3053 20.023 14.1517 20.4754 15.0731 20.6587C15.9945 20.842 16.9496 20.7479 17.8176 20.3884C18.6855 20.0289 19.4273 19.4201 19.9493 18.6389C20.4712 17.8578 20.7498 16.9394 20.7498 16C20.7498 14.7402 20.2494 13.532 19.3586 12.6412C18.4678 11.7504 17.2596 11.25 15.9998 11.25ZM15.9998 19.25C15.357 19.25 14.7287 19.0594 14.1942 18.7023C13.6597 18.3451 13.2432 17.8376 12.9972 17.2437C12.7512 16.6498 12.6868 15.9964 12.8123 15.3659C12.9377 14.7355 13.2472 14.1564 13.7017 13.7019C14.1562 13.2474 14.7353 12.9378 15.3658 12.8124C15.9962 12.687 16.6497 12.7514 17.2435 12.9974C17.8374 13.2434 18.345 13.6599 18.7021 14.1944C19.0592 14.7288 19.2498 15.3572 19.2498 16C19.2498 16.8619 18.9074 17.6886 18.2979 18.2981C17.6884 18.9076 16.8618 19.25 15.9998 19.25ZM25.7498 16C25.7529 18.3988 24.8687 20.714 23.2673 22.5C23.1333 22.6429 22.9487 22.7278 22.753 22.7364C22.5573 22.745 22.3659 22.6767 22.2199 22.546C22.0739 22.4154 21.9849 22.2328 21.9718 22.0373C21.9586 21.8418 22.0226 21.649 22.1498 21.5C23.5045 19.9883 24.2536 18.0298 24.2536 16C24.2536 13.9701 23.5045 12.0117 22.1498 10.5C22.0815 10.4271 22.0284 10.3412 21.9937 10.2475C21.959 10.1538 21.9434 10.054 21.9478 9.95419C21.9521 9.85434 21.9764 9.75637 22.0192 9.66605C22.062 9.57572 22.1224 9.49486 22.1969 9.42821C22.2714 9.36157 22.3584 9.31048 22.4529 9.27795C22.5474 9.24542 22.6475 9.23211 22.7472 9.23879C22.8469 9.24548 22.9443 9.27203 23.0336 9.31688C23.1229 9.36174 23.2024 9.42399 23.2673 9.49999C24.8687 11.286 25.7529 13.6012 25.7498 16ZM8.3973 12.7887C7.78796 14.229 7.60097 15.8128 7.85817 17.3553C8.11537 18.8979 8.80614 20.3354 9.8498 21.5C9.98236 21.6482 10.0506 21.843 10.0396 22.0415C10.0286 22.2401 9.9392 22.4261 9.79105 22.5587C9.64284 22.6913 9.44805 22.7596 9.24951 22.7486C9.05098 22.7375 8.86494 22.6481 8.7323 22.5C7.13165 20.7133 6.24653 18.3988 6.24653 16C6.24653 13.6012 7.13165 11.2867 8.7323 9.49999C8.79722 9.42399 8.87667 9.36174 8.96598 9.31688C9.0553 9.27203 9.15268 9.24548 9.2524 9.23879C9.35212 9.23211 9.45217 9.24542 9.54667 9.27795C9.64118 9.31048 9.72823 9.36157 9.8027 9.42821C9.87718 9.49486 9.93759 9.57572 9.98038 9.66605C10.0232 9.75637 10.0475 9.85434 10.0518 9.95419C10.0562 10.054 10.0406 10.1538 10.0059 10.2475C9.97123 10.3412 9.91815 10.4271 9.8498 10.5C9.24314 11.1779 8.75239 11.9512 8.3973 12.7887ZM30.7498 16C30.7537 19.8604 29.2404 23.5677 26.5361 26.3225C26.3968 26.4647 26.2068 26.5458 26.0078 26.5479C25.8087 26.55 25.617 26.473 25.4748 26.3337C25.3326 26.1945 25.2515 26.0045 25.2494 25.8054C25.2473 25.6064 25.3243 25.4147 25.4636 25.2725C27.8934 22.7978 29.2547 19.4682 29.2547 16C29.2547 12.5318 27.8934 9.2022 25.4636 6.72749C25.3946 6.65706 25.3402 6.57375 25.3035 6.48231C25.2667 6.39086 25.2483 6.29308 25.2494 6.19453C25.2515 5.99551 25.3326 5.80547 25.4748 5.66624C25.617 5.527 25.8087 5.44996 26.0078 5.45207C26.1063 5.45311 26.2037 5.47356 26.2943 5.51223C26.385 5.55091 26.4671 5.60706 26.5361 5.67749C29.2404 8.43232 30.7537 12.1396 30.7498 16ZM6.53605 25.2725C6.605 25.3429 6.65939 25.4262 6.69614 25.5177C6.73289 25.6091 6.75126 25.7069 6.75022 25.8054C6.74918 25.904 6.72873 26.0014 6.69005 26.092C6.65138 26.1827 6.59522 26.2648 6.5248 26.3337C6.45438 26.4027 6.37107 26.4571 6.27963 26.4938C6.18818 26.5306 6.09039 26.5489 5.99185 26.5479C5.8933 26.5469 5.79593 26.5264 5.70528 26.4877C5.61464 26.4491 5.5325 26.3929 5.46355 26.3225C2.76008 23.5668 1.24561 19.8604 1.24561 16C1.24561 12.1396 2.76008 8.43322 5.46355 5.67749C5.60279 5.53526 5.79282 5.45418 5.99185 5.45207C6.19087 5.44996 6.38258 5.527 6.5248 5.66624C6.66703 5.80547 6.74811 5.99551 6.75022 6.19453C6.75233 6.39355 6.67529 6.58526 6.53605 6.72749C4.10623 9.2022 2.74489 12.5318 2.74489 16C2.74489 19.4682 4.10623 22.7978 6.53605 25.2725Z" fill="#112D1F"/>
</svg>
