<svg width="32" height="32" viewBox="0 0 32 32" fill="none" xmlns="http://www.w3.org/2000/svg">
<path d="M25.75 17.75H28C28.1989 17.75 28.3897 17.671 28.5303 17.5303C28.671 17.3896 28.75 17.1989 28.75 17C28.75 16.8011 28.671 16.6103 28.5303 16.4696C28.3897 16.329 28.1989 16.25 28 16.25H25.75V13.75H28C28.1989 13.75 28.3897 13.671 28.5303 13.5303C28.671 13.3896 28.75 13.1989 28.75 13C28.75 12.8011 28.671 12.6103 28.5303 12.4696C28.3897 12.329 28.1989 12.25 28 12.25H25.7188C25.5418 9.94562 24.5501 7.77958 22.9212 6.13997L25.53 3.52997C25.6625 3.38779 25.7346 3.19975 25.7312 3.00545C25.7277 2.81114 25.649 2.62576 25.5116 2.48835C25.3742 2.35093 25.1888 2.27222 24.9945 2.26879C24.8002 2.26537 24.6122 2.33749 24.47 2.46997L21.7838 5.15622C20.1098 3.91808 18.0827 3.24986 16.0006 3.24986C13.9185 3.24986 11.8914 3.91808 10.2175 5.15622L7.53 2.46997C7.38783 2.33749 7.19978 2.26537 7.00548 2.26879C6.81118 2.27222 6.62579 2.35093 6.48838 2.48835C6.35097 2.62576 6.27225 2.81114 6.26883 3.00545C6.2654 3.19975 6.33752 3.38779 6.47 3.52997L9.08 6.13997C7.45028 7.77908 6.45801 9.94531 6.28125 12.25H4C3.80109 12.25 3.61032 12.329 3.46967 12.4696C3.32902 12.6103 3.25 12.8011 3.25 13C3.25 13.1989 3.32902 13.3896 3.46967 13.5303C3.61032 13.671 3.80109 13.75 4 13.75H6.25V16.25H4C3.80109 16.25 3.61032 16.329 3.46967 16.4696C3.32902 16.6103 3.25 16.8011 3.25 17C3.25 17.1989 3.32902 17.3896 3.46967 17.5303C3.61032 17.671 3.80109 17.75 4 17.75H6.25V19C6.25088 19.418 6.27844 19.8355 6.3325 20.25H4C3.80109 20.25 3.61032 20.329 3.46967 20.4696C3.32902 20.6103 3.25 20.8011 3.25 21C3.25 21.1989 3.32902 21.3896 3.46967 21.5303C3.61032 21.671 3.80109 21.75 4 21.75H6.6475C7.24244 23.7692 8.4749 25.5416 10.1607 26.8024C11.8464 28.0631 13.895 28.7444 16 28.7444C18.105 28.7444 20.1536 28.0631 21.8393 26.8024C23.5251 25.5416 24.7576 23.7692 25.3525 21.75H28C28.1989 21.75 28.3897 21.671 28.5303 21.5303C28.671 21.3896 28.75 21.1989 28.75 21C28.75 20.8011 28.671 20.6103 28.5303 20.4696C28.3897 20.329 28.1989 20.25 28 20.25H25.6675C25.7216 19.8355 25.7491 19.418 25.75 19V17.75ZM16 4.74997C18.0573 4.75248 20.0395 5.52272 21.5587 6.90993C23.078 8.29713 24.0247 10.2014 24.2138 12.25H7.78625C7.97525 10.2014 8.92204 8.29713 10.4413 6.90993C11.9605 5.52272 13.9427 4.75248 16 4.74997ZM16.75 27.2137V17C16.75 16.8011 16.671 16.6103 16.5303 16.4696C16.3897 16.329 16.1989 16.25 16 16.25C15.8011 16.25 15.6103 16.329 15.4697 16.4696C15.329 16.6103 15.25 16.8011 15.25 17V27.2137C13.2014 27.0247 11.2972 26.0779 9.90996 24.5587C8.52276 23.0395 7.75251 21.0572 7.75 19V13.75H24.25V19C24.2475 21.0572 23.4772 23.0395 22.09 24.5587C20.7028 26.0779 18.7986 27.0247 16.75 27.2137Z" fill="#112D1F"/>
</svg>
