<svg width="32" height="32" viewBox="0 0 32 32" fill="none" xmlns="http://www.w3.org/2000/svg">
<path d="M27.7148 28.2275C27.685 28.3214 27.6369 28.4086 27.5734 28.4839C27.5099 28.5592 27.4321 28.6213 27.3446 28.6666C27.2571 28.7119 27.1615 28.7394 27.0633 28.7478C26.9651 28.7561 26.8662 28.7449 26.7723 28.715L15.9998 25.2875L5.22733 28.715C5.13344 28.7449 5.03458 28.756 4.9364 28.7477C4.83822 28.7393 4.74264 28.7117 4.65512 28.6665C4.5676 28.6212 4.48985 28.5591 4.42632 28.4838C4.36279 28.4085 4.31471 28.3214 4.28483 28.2275C4.25496 28.1336 4.24387 28.0348 4.2522 27.9366C4.26053 27.8384 4.28812 27.7428 4.33338 27.6553C4.37865 27.5678 4.44072 27.49 4.51603 27.4265C4.59135 27.363 4.67844 27.3149 4.77233 27.285L13.5223 24.5L4.77233 21.715C4.67844 21.6851 4.59135 21.6371 4.51603 21.5735C4.44072 21.51 4.37865 21.4323 4.33338 21.3447C4.28812 21.2572 4.26053 21.1616 4.2522 21.0635C4.24387 20.9653 4.25496 20.8664 4.28483 20.7725C4.31471 20.6786 4.36279 20.5915 4.42632 20.5162C4.48985 20.4409 4.5676 20.3788 4.65512 20.3336C4.74264 20.2883 4.83822 20.2607 4.9364 20.2524C5.03458 20.2441 5.13344 20.2551 5.22733 20.285L15.9998 23.7125L26.7723 20.285C26.962 20.2247 27.1678 20.2421 27.3445 20.3336C27.5213 20.425 27.6545 20.5829 27.7148 20.7725C27.7752 20.9622 27.7577 21.168 27.6663 21.3447C27.5749 21.5215 27.417 21.6547 27.2273 21.715L18.4773 24.5L27.2273 27.285C27.3213 27.3149 27.4084 27.3629 27.4837 27.4264C27.559 27.49 27.6211 27.5677 27.6664 27.6552C27.7117 27.7428 27.7393 27.8384 27.7476 27.9366C27.7559 28.0348 27.7448 28.1336 27.7148 28.2275ZM8.74983 13.5C8.74983 7.64877 15.3273 3.53377 15.6073 3.36127C15.7254 3.28875 15.8613 3.25037 15.9998 3.25037C16.1384 3.25037 16.2743 3.28875 16.3923 3.36127C16.6723 3.53377 23.2498 7.64877 23.2498 13.5C23.2498 15.4228 22.486 17.2669 21.1264 18.6265C19.7667 19.9862 17.9227 20.75 15.9998 20.75C14.077 20.75 12.2329 19.9862 10.8733 18.6265C9.51367 17.2669 8.74983 15.4228 8.74983 13.5ZM15.9998 19.25C16.5966 19.25 17.1689 19.013 17.5908 18.591C18.0128 18.1691 18.2498 17.5968 18.2498 17C18.2498 15.065 16.7498 13.5713 15.9998 12.945C15.2498 13.57 13.7498 15.07 13.7498 17C13.7498 17.5968 13.9869 18.1691 14.4088 18.591C14.8308 19.013 15.4031 19.25 15.9998 19.25ZM10.2498 13.5C10.2499 14.3545 10.4407 15.1982 10.8083 15.9696C11.176 16.741 11.7111 17.4205 12.3748 17.9588C12.2918 17.646 12.2498 17.3237 12.2498 17C12.2498 13.6375 15.4473 11.4663 15.5836 11.375C15.7068 11.2928 15.8517 11.2489 15.9998 11.2489C16.148 11.2489 16.2928 11.2928 16.4161 11.375C16.5523 11.465 19.7498 13.6363 19.7498 17C19.7499 17.3237 19.7079 17.646 19.6248 17.9588C20.2885 17.4205 20.8237 16.741 21.1913 15.9696C21.559 15.1982 21.7498 14.3545 21.7498 13.5C21.7498 9.24252 17.3561 5.84752 15.9998 4.90252C14.6436 5.84752 10.2498 9.24127 10.2498 13.5Z" fill="#112D1F"/>
</svg>
