<svg width="32" height="32" viewBox="0 0 32 32" fill="none" xmlns="http://www.w3.org/2000/svg">
<path d="M17.5301 16.53L7.53009 26.53C7.38792 26.6625 7.19987 26.7346 7.00557 26.7312C6.81127 26.7277 6.62588 26.649 6.48847 26.5116C6.35106 26.3742 6.27234 26.1888 6.26892 25.9945C6.26549 25.8002 6.33761 25.6122 6.47009 25.47L15.9388 16L6.47009 6.53C6.33761 6.38782 6.26549 6.19978 6.26892 6.00548C6.27234 5.81118 6.35106 5.62579 6.48847 5.48838C6.62588 5.35096 6.81127 5.27225 7.00557 5.26882C7.19987 5.2654 7.38792 5.33752 7.53009 5.47L17.5301 15.47C17.6705 15.6106 17.7494 15.8012 17.7494 16C17.7494 16.1987 17.6705 16.3894 17.5301 16.53ZM27.5301 15.47L17.5301 5.47C17.3879 5.33752 17.1999 5.2654 17.0056 5.26882C16.8113 5.27225 16.6259 5.35096 16.4885 5.48838C16.3511 5.62579 16.2723 5.81118 16.2689 6.00548C16.2655 6.19978 16.3376 6.38782 16.4701 6.53L25.9388 16L16.4701 25.47C16.3964 25.5387 16.3373 25.6215 16.2963 25.7135C16.2553 25.8055 16.2333 25.9048 16.2315 26.0055C16.2297 26.1062 16.2482 26.2062 16.286 26.2996C16.3237 26.393 16.3798 26.4778 16.4511 26.549C16.5223 26.6203 16.6071 26.6764 16.7005 26.7141C16.7939 26.7518 16.8939 26.7704 16.9946 26.7686C17.0953 26.7668 17.1946 26.7448 17.2866 26.7038C17.3786 26.6628 17.4614 26.6037 17.5301 26.53L27.5301 16.53C27.6705 16.3894 27.7494 16.1987 27.7494 16C27.7494 15.8012 27.6705 15.6106 27.5301 15.47Z" fill="#112D1F"/>
</svg>
