<svg width="32" height="32" viewBox="0 0 32 32" fill="none" xmlns="http://www.w3.org/2000/svg">
<path d="M26.5301 12.53L16.5301 22.53C16.3895 22.6705 16.1988 22.7493 16.0001 22.7493C15.8013 22.7493 15.6107 22.6705 15.4701 22.53L5.47009 12.53C5.33761 12.3878 5.26549 12.1998 5.26892 12.0055C5.27234 11.8112 5.35106 11.6258 5.48847 11.4884C5.62588 11.351 5.81127 11.2723 6.00557 11.2688C6.19987 11.2654 6.38792 11.3375 6.53009 11.47L16.0001 20.9387L25.4701 11.47C25.6123 11.3375 25.8003 11.2654 25.9946 11.2688C26.1889 11.2723 26.3743 11.351 26.5117 11.4884C26.6491 11.6258 26.7278 11.8112 26.7313 12.0055C26.7347 12.1998 26.6626 12.3878 26.5301 12.53Z" fill="#112D1F"/>
</svg>
