<svg width="32" height="32" viewBox="0 0 32 32" fill="none" xmlns="http://www.w3.org/2000/svg">
<path d="M25.0149 6.98375C23.831 5.7998 22.4254 4.86065 20.8785 4.2199C19.3316 3.57915 17.6736 3.24936 15.9993 3.24936C12.6178 3.24936 9.37475 4.59266 6.98366 6.98375C4.59257 9.37485 3.24927 12.6179 3.24927 15.9994C3.24927 19.3809 4.59257 22.6239 6.98366 25.015C9.37475 27.4061 12.6178 28.7494 15.9993 28.7494C19.3808 28.7494 22.6238 27.4061 25.0149 25.015C27.406 22.6239 28.7493 19.3809 28.7493 15.9994C28.7493 12.6179 27.406 9.37485 25.0149 6.98375ZM23.9549 23.955C22.3816 25.5283 20.377 26.5998 18.1947 27.0338C16.0124 27.4679 13.7504 27.2451 11.6948 26.3936C9.63913 25.5421 7.88213 24.1002 6.64597 22.2502C5.40981 20.4001 4.75001 18.225 4.75001 16C4.75001 13.775 5.40981 11.5999 6.64597 9.74985C7.88213 7.8998 9.63913 6.45786 11.6948 5.60637C13.7504 4.75488 16.0124 4.53209 18.1947 4.96616C20.377 5.40023 22.3816 6.47168 23.9549 8.045C26.0617 10.1564 27.2448 13.0173 27.2448 16C27.2448 18.9827 26.0617 21.8436 23.9549 23.955ZM15.5299 15.47C15.6704 15.6106 15.7493 15.8013 15.7493 16C15.7493 16.1988 15.6704 16.3894 15.5299 16.53L11.5299 20.53C11.3877 20.6625 11.1997 20.7346 11.0054 20.7312C10.8111 20.7278 10.6257 20.649 10.4883 20.5116C10.3509 20.3742 10.2722 20.1888 10.2687 19.9945C10.2653 19.8002 10.3374 19.6122 10.4699 19.47L13.9387 16L10.4699 12.53C10.3374 12.3878 10.2653 12.1998 10.2687 12.0055C10.2722 11.8112 10.3509 11.6258 10.4883 11.4884C10.6257 11.351 10.8111 11.2723 11.0054 11.2688C11.1997 11.2654 11.3877 11.3375 11.5299 11.47L15.5299 15.47ZM22.5299 15.47C22.6704 15.6106 22.7493 15.8013 22.7493 16C22.7493 16.1988 22.6704 16.3894 22.5299 16.53L18.5299 20.53C18.3877 20.6625 18.1997 20.7346 18.0054 20.7312C17.8111 20.7278 17.6257 20.649 17.4883 20.5116C17.3509 20.3742 17.2722 20.1888 17.2687 19.9945C17.2653 19.8002 17.3374 19.6122 17.4699 19.47L20.9387 16L17.4699 12.53C17.3374 12.3878 17.2653 12.1998 17.2687 12.0055C17.2722 11.8112 17.3509 11.6258 17.4883 11.4884C17.6257 11.351 17.8111 11.2723 18.0054 11.2688C18.1997 11.2654 18.3877 11.3375 18.5299 11.47L22.5299 15.47Z" fill="#112D1F"/>
</svg>
