<svg width="32" height="32" viewBox="0 0 32 32" fill="none" xmlns="http://www.w3.org/2000/svg">
<path d="M25.0149 6.98375C23.831 5.7998 22.4254 4.86065 20.8785 4.2199C19.3316 3.57915 17.6736 3.24936 15.9993 3.24936C12.6178 3.24936 9.37475 4.59266 6.98366 6.98375C4.59257 9.37485 3.24927 12.6179 3.24927 15.9994C3.24927 19.3809 4.59257 22.6239 6.98366 25.015C9.37475 27.4061 12.6178 28.7494 15.9993 28.7494C19.3808 28.7494 22.6238 27.4061 25.0149 25.015C27.406 22.6239 28.7493 19.3809 28.7493 15.9994C28.7493 12.6179 27.406 9.37485 25.0149 6.98375ZM23.9549 23.955C22.3816 25.5283 20.377 26.5998 18.1947 27.0338C16.0124 27.4679 13.7504 27.2451 11.6948 26.3936C9.63913 25.5421 7.88213 24.1002 6.64597 22.2502C5.40981 20.4001 4.75001 18.225 4.75001 16C4.75001 13.775 5.40981 11.5999 6.64597 9.74985C7.88213 7.8998 9.63913 6.45786 11.6948 5.60637C13.7504 4.75488 16.0124 4.53209 18.1947 4.96616C20.377 5.40023 22.3816 6.47168 23.9549 8.045C26.0617 10.1564 27.2448 13.0173 27.2448 16C27.2448 18.9827 26.0617 21.8436 23.9549 23.955ZM20.5299 20.47C20.6036 20.5387 20.6627 20.6215 20.7037 20.7135C20.7447 20.8055 20.7667 20.9048 20.7685 21.0055C20.7703 21.1062 20.7518 21.2062 20.714 21.2996C20.6763 21.393 20.6202 21.4778 20.549 21.549C20.4777 21.6203 20.3929 21.6764 20.2995 21.7141C20.2061 21.7518 20.1061 21.7704 20.0054 21.7686C19.9047 21.7668 19.8054 21.7448 19.7134 21.7038C19.6214 21.6628 19.5386 21.6037 19.4699 21.53L15.9999 18.0613L12.5299 21.53C12.3877 21.6625 12.1997 21.7346 12.0054 21.7312C11.8111 21.7278 11.6257 21.649 11.4883 21.5116C11.3509 21.3742 11.2722 21.1888 11.2687 20.9945C11.2653 20.8002 11.3374 20.6122 11.4699 20.47L15.4699 16.47C15.6105 16.3296 15.8012 16.2507 15.9999 16.2507C16.1987 16.2507 16.3893 16.3296 16.5299 16.47L20.5299 20.47ZM20.5299 13.47C20.6036 13.5387 20.6627 13.6215 20.7037 13.7135C20.7447 13.8055 20.7667 13.9048 20.7685 14.0055C20.7703 14.1062 20.7518 14.2062 20.714 14.2996C20.6763 14.393 20.6202 14.4778 20.549 14.549C20.4777 14.6203 20.3929 14.6764 20.2995 14.7141C20.2061 14.7518 20.1061 14.7704 20.0054 14.7686C19.9047 14.7668 19.8054 14.7448 19.7134 14.7038C19.6214 14.6628 19.5386 14.6037 19.4699 14.53L15.9999 11.0613L12.5299 14.53C12.3877 14.6625 12.1997 14.7346 12.0054 14.7312C11.8111 14.7277 11.6257 14.649 11.4883 14.5116C11.3509 14.3742 11.2722 14.1888 11.2687 13.9945C11.2653 13.8002 11.3374 13.6122 11.4699 13.47L15.4699 9.47C15.6105 9.32955 15.8012 9.25066 15.9999 9.25066C16.1987 9.25066 16.3893 9.32955 16.5299 9.47L20.5299 13.47Z" fill="#112D1F"/>
</svg>
