<svg width="32" height="32" viewBox="0 0 32 32" fill="none" xmlns="http://www.w3.org/2000/svg">
<path d="M22.5301 21.47C22.6705 21.6106 22.7494 21.8013 22.7494 22C22.7494 22.1988 22.6705 22.3894 22.5301 22.53L16.5301 28.53C16.3895 28.6705 16.1988 28.7494 16.0001 28.7494C15.8013 28.7494 15.6107 28.6705 15.4701 28.53L9.47009 22.53C9.33761 22.3878 9.26549 22.1998 9.26892 22.0055C9.27234 21.8112 9.35106 21.6258 9.48847 21.4884C9.62588 21.351 9.81127 21.2723 10.0056 21.2688C10.1999 21.2654 10.3879 21.3375 10.5301 21.47L16.0001 26.9388L21.4701 21.47C21.6107 21.3296 21.8013 21.2507 22.0001 21.2507C22.1988 21.2507 22.3895 21.3296 22.5301 21.47ZM10.5301 10.53L16.0001 5.06126L21.4701 10.53C21.6123 10.6625 21.8003 10.7346 21.9946 10.7312C22.1889 10.7278 22.3743 10.649 22.5117 10.5116C22.6491 10.3742 22.7278 10.1888 22.7313 9.99453C22.7347 9.80023 22.6626 9.61219 22.5301 9.47001L16.5301 3.47001C16.3895 3.32956 16.1988 3.25067 16.0001 3.25067C15.8013 3.25067 15.6107 3.32956 15.4701 3.47001L9.47009 9.47001C9.33761 9.61219 9.26549 9.80023 9.26892 9.99453C9.27234 10.1888 9.35106 10.3742 9.48847 10.5116C9.62588 10.649 9.81127 10.7278 10.0056 10.7312C10.1999 10.7346 10.3879 10.6625 10.5301 10.53Z" fill="#112D1F"/>
</svg>
