<svg width="32" height="32" viewBox="0 0 32 32" fill="none" xmlns="http://www.w3.org/2000/svg">
<path d="M25.5301 25.47C25.6038 25.5387 25.6629 25.6215 25.7039 25.7135C25.7448 25.8055 25.7669 25.9048 25.7687 26.0055C25.7704 26.1062 25.7519 26.2062 25.7142 26.2996C25.6765 26.393 25.6203 26.4778 25.5491 26.549C25.4779 26.6203 25.3931 26.6764 25.2997 26.7141C25.2063 26.7518 25.1063 26.7704 25.0056 26.7686C24.9048 26.7668 24.8055 26.7448 24.7135 26.7038C24.6215 26.6628 24.5387 26.6037 24.4701 26.53L14.4701 16.53C14.3296 16.3894 14.2507 16.1987 14.2507 16C14.2507 15.8012 14.3296 15.6106 14.4701 15.47L24.4701 5.47C24.6122 5.33752 24.8003 5.2654 24.9946 5.26882C25.1889 5.27225 25.3743 5.35096 25.5117 5.48838C25.6491 5.62579 25.7278 5.81118 25.7312 6.00548C25.7347 6.19978 25.6626 6.38782 25.5301 6.53L16.0613 16L25.5301 25.47ZM6.06132 16L15.5301 6.53C15.6626 6.38782 15.7347 6.19978 15.7312 6.00548C15.7278 5.81118 15.6491 5.62579 15.5117 5.48838C15.3743 5.35096 15.1889 5.27225 14.9946 5.26882C14.8003 5.2654 14.6122 5.33752 14.4701 5.47L4.47007 15.47C4.32962 15.6106 4.25073 15.8012 4.25073 16C4.25073 16.1987 4.32962 16.3894 4.47007 16.53L14.4701 26.53C14.5387 26.6037 14.6215 26.6628 14.7135 26.7038C14.8055 26.7448 14.9048 26.7668 15.0056 26.7686C15.1063 26.7704 15.2063 26.7518 15.2997 26.7141C15.3931 26.6764 15.4779 26.6203 15.5491 26.549C15.6203 26.4778 15.6765 26.393 15.7142 26.2996C15.7519 26.2062 15.7704 26.1062 15.7687 26.0055C15.7669 25.9048 15.7448 25.8055 15.7039 25.7135C15.6629 25.6215 15.6038 25.5387 15.5301 25.47L6.06132 16Z" fill="#112D1F"/>
</svg>
