<svg width="32" height="32" viewBox="0 0 32 32" fill="none" xmlns="http://www.w3.org/2000/svg">
<path d="M20.5301 25.47C20.6038 25.5387 20.6629 25.6215 20.7039 25.7135C20.7448 25.8055 20.7669 25.9048 20.7687 26.0055C20.7704 26.1062 20.7519 26.2062 20.7142 26.2996C20.6765 26.393 20.6203 26.4778 20.5491 26.549C20.4779 26.6203 20.3931 26.6764 20.2997 26.7141C20.2063 26.7518 20.1063 26.7704 20.0056 26.7686C19.9048 26.7668 19.8055 26.7448 19.7135 26.7038C19.6215 26.6628 19.5387 26.6037 19.4701 26.53L9.47007 16.53C9.32962 16.3894 9.25073 16.1987 9.25073 16C9.25073 15.8012 9.32962 15.6106 9.47007 15.47L19.4701 5.47C19.6122 5.33752 19.8003 5.2654 19.9946 5.26882C20.1889 5.27225 20.3743 5.35096 20.5117 5.48838C20.6491 5.62579 20.7278 5.81118 20.7312 6.00548C20.7347 6.19978 20.6626 6.38782 20.5301 6.53L11.0613 16L20.5301 25.47Z" fill="#112D1F"/>
</svg>
