<svg width="32" height="32" viewBox="0 0 32 32" fill="none" xmlns="http://www.w3.org/2000/svg">
<path d="M26.5299 15.47C26.6704 15.6106 26.7492 15.8012 26.7492 16C26.7492 16.1987 26.6704 16.3894 26.5299 16.53L16.5299 26.53C16.3893 26.6705 16.1987 26.7493 15.9999 26.7493C15.8012 26.7493 15.6105 26.6705 15.4699 26.53L5.46991 16.53C5.39622 16.4613 5.33712 16.3785 5.29613 16.2865C5.25514 16.1945 5.23309 16.0952 5.23132 15.9945C5.22954 15.8938 5.24807 15.7938 5.28579 15.7004C5.32351 15.607 5.37965 15.5222 5.45087 15.451C5.52209 15.3797 5.60692 15.3236 5.70031 15.2859C5.7937 15.2482 5.89373 15.2296 5.99443 15.2314C6.09513 15.2332 6.19445 15.2552 6.28645 15.2962C6.37845 15.3372 6.46125 15.3963 6.52991 15.47L15.9999 24.9387L25.4699 15.47C25.6105 15.3295 25.8012 15.2507 25.9999 15.2507C26.1987 15.2507 26.3893 15.3295 26.5299 15.47ZM15.4699 16.53C15.6105 16.6705 15.8012 16.7493 15.9999 16.7493C16.1987 16.7493 16.3893 16.6705 16.5299 16.53L26.5299 6.53C26.6624 6.38782 26.7345 6.19978 26.7311 6.00548C26.7277 5.81118 26.6489 5.62579 26.5115 5.48838C26.3741 5.35096 26.1887 5.27225 25.9944 5.26882C25.8001 5.2654 25.6121 5.33752 25.4699 5.47L15.9999 14.9387L6.52991 5.47C6.38773 5.33752 6.19969 5.2654 6.00539 5.26882C5.81109 5.27225 5.6257 5.35096 5.48829 5.48838C5.35087 5.62579 5.27216 5.81118 5.26873 6.00548C5.26531 6.19978 5.33743 6.38782 5.46991 6.53L15.4699 16.53Z" fill="#112D1F"/>
</svg>
