<svg width="32" height="32" viewBox="0 0 32 32" fill="none" xmlns="http://www.w3.org/2000/svg">
<path d="M22.5301 16.53L12.5301 26.53C12.3879 26.6625 12.1999 26.7346 12.0056 26.7312C11.8113 26.7277 11.6259 26.649 11.4885 26.5116C11.3511 26.3742 11.2723 26.1888 11.2689 25.9945C11.2655 25.8002 11.3376 25.6122 11.4701 25.47L20.9388 16L11.4701 6.53C11.3376 6.38782 11.2655 6.19978 11.2689 6.00548C11.2723 5.81118 11.3511 5.62579 11.4885 5.48838C11.6259 5.35096 11.8113 5.27225 12.0056 5.26882C12.1999 5.2654 12.3879 5.33752 12.5301 5.47L22.5301 15.47C22.6705 15.6106 22.7494 15.8012 22.7494 16C22.7494 16.1987 22.6705 16.3894 22.5301 16.53Z" fill="#112D1F"/>
</svg>
