<svg width="32" height="32" viewBox="0 0 32 32" fill="none" xmlns="http://www.w3.org/2000/svg">
<path d="M26.5301 20.53C26.3895 20.6705 26.1988 20.7494 26.0001 20.7494C25.8013 20.7494 25.6107 20.6705 25.4701 20.53L16.0001 11.0613L6.53009 20.53C6.38792 20.6625 6.19987 20.7346 6.00557 20.7312C5.81127 20.7278 5.62588 20.649 5.48847 20.5116C5.35106 20.3742 5.27234 20.1888 5.26892 19.9945C5.26549 19.8002 5.33761 19.6122 5.47009 19.47L15.4701 9.47001C15.6107 9.32956 15.8013 9.25067 16.0001 9.25067C16.1988 9.25067 16.3895 9.32956 16.5301 9.47001L26.5301 19.47C26.6705 19.6106 26.7494 19.8013 26.7494 20C26.7494 20.1988 26.6705 20.3894 26.5301 20.53Z" fill="#112D1F"/>
</svg>
