<svg width="32" height="32" viewBox="0 0 32 32" fill="none" xmlns="http://www.w3.org/2000/svg">
<path d="M25.0149 6.98375C23.831 5.7998 22.4254 4.86065 20.8785 4.2199C19.3316 3.57915 17.6736 3.24936 15.9993 3.24936C12.6178 3.24936 9.37475 4.59266 6.98366 6.98375C4.59257 9.37485 3.24927 12.6179 3.24927 15.9994C3.24927 19.3809 4.59257 22.6239 6.98366 25.015C9.37475 27.4061 12.6178 28.7494 15.9993 28.7494C19.3808 28.7494 22.6238 27.4061 25.0149 25.015C27.406 22.6239 28.7493 19.3809 28.7493 15.9994C28.7493 12.6179 27.406 9.37485 25.0149 6.98375ZM23.9549 23.955C22.3816 25.5283 20.377 26.5998 18.1947 27.0338C16.0124 27.4679 13.7504 27.2451 11.6948 26.3936C9.63913 25.5421 7.88213 24.1002 6.64597 22.2502C5.40981 20.4001 4.75001 18.225 4.75001 16C4.75001 13.775 5.40981 11.5999 6.64597 9.74985C7.88213 7.8998 9.63913 6.45786 11.6948 5.60637C13.7504 4.75488 16.0124 4.53209 18.1947 4.96616C20.377 5.40023 22.3816 6.47168 23.9549 8.045C26.0617 10.1564 27.2448 13.0173 27.2448 16C27.2448 18.9827 26.0617 21.8436 23.9549 23.955ZM20.5299 10.47C20.6704 10.6106 20.7493 10.8013 20.7493 11C20.7493 11.1988 20.6704 11.3894 20.5299 11.53L16.5299 15.53C16.3893 15.6705 16.1987 15.7493 15.9999 15.7493C15.8012 15.7493 15.6105 15.6705 15.4699 15.53L11.4699 11.53C11.3374 11.3878 11.2653 11.1998 11.2687 11.0055C11.2722 10.8112 11.3509 10.6258 11.4883 10.4884C11.6257 10.351 11.8111 10.2723 12.0054 10.2688C12.1997 10.2654 12.3877 10.3375 12.5299 10.47L15.9999 13.9388L19.4699 10.47C19.6105 10.3296 19.8012 10.2507 19.9999 10.2507C20.1987 10.2507 20.3893 10.3296 20.5299 10.47ZM20.5299 17.47C20.6704 17.6106 20.7493 17.8013 20.7493 18C20.7493 18.1988 20.6704 18.3894 20.5299 18.53L16.5299 22.53C16.3893 22.6705 16.1987 22.7493 15.9999 22.7493C15.8012 22.7493 15.6105 22.6705 15.4699 22.53L11.4699 18.53C11.3374 18.3878 11.2653 18.1998 11.2687 18.0055C11.2722 17.8112 11.3509 17.6258 11.4883 17.4884C11.6257 17.351 11.8111 17.2723 12.0054 17.2688C12.1997 17.2654 12.3877 17.3375 12.5299 17.47L15.9999 20.9388L19.4699 17.47C19.6105 17.3296 19.8012 17.2507 19.9999 17.2507C20.1987 17.2507 20.3893 17.3296 20.5299 17.47Z" fill="#112D1F"/>
</svg>
