<svg width="32" height="32" viewBox="0 0 32 32" fill="none" xmlns="http://www.w3.org/2000/svg">
<path d="M25.0149 6.98375C23.831 5.7998 22.4254 4.86065 20.8785 4.2199C19.3316 3.57915 17.6736 3.24936 15.9993 3.24936C12.6178 3.24936 9.37475 4.59266 6.98366 6.98375C4.59257 9.37485 3.24927 12.6179 3.24927 15.9994C3.24927 19.3809 4.59257 22.6239 6.98366 25.015C9.37475 27.4061 12.6178 28.7494 15.9993 28.7494C19.3808 28.7494 22.6238 27.4061 25.0149 25.015C27.406 22.6239 28.7493 19.3809 28.7493 15.9994C28.7493 12.6179 27.406 9.37485 25.0149 6.98375ZM23.9549 23.955C22.3816 25.5283 20.377 26.5998 18.1947 27.0338C16.0124 27.4679 13.7504 27.2451 11.6948 26.3936C9.63913 25.5421 7.88213 24.1002 6.64597 22.2502C5.40981 20.4001 4.75001 18.225 4.75001 16C4.75001 13.775 5.40981 11.5999 6.64597 9.74985C7.88213 7.8998 9.63913 6.45786 11.6948 5.60637C13.7504 4.75488 16.0124 4.53209 18.1947 4.96616C20.377 5.40023 22.3816 6.47168 23.9549 8.045C26.0617 10.1564 27.2448 13.0173 27.2448 16C27.2448 18.9827 26.0617 21.8436 23.9549 23.955ZM21.5299 12.53L18.0612 16L21.5299 19.47C21.6036 19.5387 21.6627 19.6215 21.7037 19.7135C21.7447 19.8055 21.7667 19.9048 21.7685 20.0055C21.7703 20.1062 21.7518 20.2062 21.714 20.2996C21.6763 20.393 21.6202 20.4778 21.549 20.549C21.4777 20.6203 21.3929 20.6764 21.2995 20.7141C21.2061 20.7518 21.1061 20.7704 21.0054 20.7686C20.9047 20.7668 20.8054 20.7448 20.7134 20.7038C20.6214 20.6628 20.5386 20.6037 20.4699 20.53L16.4699 16.53C16.3295 16.3894 16.2506 16.1988 16.2506 16C16.2506 15.8013 16.3295 15.6106 16.4699 15.47L20.4699 11.47C20.6121 11.3375 20.8001 11.2654 20.9944 11.2688C21.1887 11.2723 21.3741 11.351 21.5115 11.4884C21.6489 11.6258 21.7277 11.8112 21.7311 12.0055C21.7345 12.1998 21.6624 12.3878 21.5299 12.53ZM14.5299 12.53L11.0612 16L14.5299 19.47C14.6036 19.5387 14.6627 19.6215 14.7037 19.7135C14.7447 19.8055 14.7667 19.9048 14.7685 20.0055C14.7703 20.1062 14.7518 20.2062 14.714 20.2996C14.6763 20.393 14.6202 20.4778 14.549 20.549C14.4777 20.6203 14.3929 20.6764 14.2995 20.7141C14.2061 20.7518 14.1061 20.7704 14.0054 20.7686C13.9047 20.7668 13.8054 20.7448 13.7134 20.7038C13.6214 20.6628 13.5386 20.6037 13.4699 20.53L9.46991 16.53C9.32946 16.3894 9.25057 16.1988 9.25057 16C9.25057 15.8013 9.32946 15.6106 9.46991 15.47L13.4699 11.47C13.6121 11.3375 13.8001 11.2654 13.9944 11.2688C14.1887 11.2723 14.3741 11.351 14.5115 11.4884C14.6489 11.6258 14.7277 11.8112 14.7311 12.0055C14.7345 12.1998 14.6624 12.3878 14.5299 12.53Z" fill="#112D1F"/>
</svg>
