<svg width="32" height="32" viewBox="0 0 32 32" fill="none" xmlns="http://www.w3.org/2000/svg">
<path d="M26.5301 25.47C26.6038 25.5387 26.6629 25.6215 26.7039 25.7135C26.7449 25.8055 26.7669 25.9048 26.7687 26.0055C26.7705 26.1062 26.7519 26.2062 26.7142 26.2996C26.6765 26.393 26.6203 26.4778 26.5491 26.549C26.4779 26.6203 26.3931 26.6764 26.2997 26.7141C26.2063 26.7519 26.1063 26.7704 26.0056 26.7686C25.9049 26.7668 25.8056 26.7448 25.7136 26.7038C25.6216 26.6628 25.5388 26.6037 25.4701 26.53L16.0001 17.0613L6.53009 26.53C6.38792 26.6625 6.19987 26.7346 6.00557 26.7312C5.81127 26.7278 5.62588 26.649 5.48847 26.5116C5.35106 26.3742 5.27234 26.1888 5.26892 25.9945C5.26549 25.8002 5.33761 25.6122 5.47009 25.47L15.4701 15.47C15.6107 15.3296 15.8013 15.2507 16.0001 15.2507C16.1988 15.2507 16.3895 15.3296 16.5301 15.47L26.5301 25.47ZM6.53009 16.53L16.0001 7.06126L25.4701 16.53C25.6123 16.6625 25.8003 16.7346 25.9946 16.7312C26.1889 16.7278 26.3743 16.649 26.5117 16.5116C26.6491 16.3742 26.7278 16.1888 26.7313 15.9945C26.7347 15.8002 26.6626 15.6122 26.5301 15.47L16.5301 5.47001C16.3895 5.32956 16.1988 5.25067 16.0001 5.25067C15.8013 5.25067 15.6107 5.32956 15.4701 5.47001L5.47009 15.47C5.33761 15.6122 5.26549 15.8002 5.26892 15.9945C5.27234 16.1888 5.35106 16.3742 5.48847 16.5116C5.62588 16.649 5.81127 16.7278 6.00557 16.7312C6.19987 16.7346 6.38792 16.6625 6.53009 16.53Z" fill="#112D1F"/>
</svg>
