<svg width="32" height="32" viewBox="0 0 32 32" fill="none" xmlns="http://www.w3.org/2000/svg">
<path d="M17.1515 3.2563C16.9098 3.23534 16.6664 3.26485 16.4367 3.34296C16.207 3.42107 15.9961 3.54608 15.8173 3.71005C15.6386 3.87402 15.4958 4.07337 15.3982 4.29545C15.3006 4.51752 15.2502 4.75747 15.2502 5.00005V10.0838C15.247 10.4962 15.391 10.8963 15.6563 11.212C15.9216 11.5277 16.2909 11.7385 16.6977 11.8063C17.4881 11.9377 18.2252 12.2899 18.8241 12.8223C19.423 13.3546 19.8592 14.0453 20.0823 14.8149C20.3055 15.5844 20.3066 16.4014 20.0855 17.1715C19.8644 17.9417 19.4301 18.6336 18.8327 19.1676C18.2353 19.7015 17.4991 20.0557 16.7091 20.1893C15.919 20.3228 15.1073 20.2304 14.3676 19.9225C13.6278 19.6146 12.9902 19.1039 12.5282 18.4493C12.0662 17.7946 11.7987 17.0227 11.7565 16.2226C11.7015 15.1376 11.9277 14.2326 12.429 13.5313C12.6685 13.1966 12.7812 12.7876 12.7469 12.3775C12.7125 11.9673 12.5334 11.5827 12.2415 11.2926L8.7852 7.76255C8.61267 7.59034 8.40607 7.45608 8.17863 7.36836C7.95118 7.28065 7.70793 7.24142 7.46444 7.25319C7.22096 7.26495 6.98261 7.32746 6.76469 7.4367C6.54677 7.54594 6.35407 7.69951 6.19896 7.88755C4.15541 10.3369 3.10821 13.4654 3.26546 16.6514C3.42271 19.8374 4.7729 22.8476 7.04771 25.0838C9.42895 27.4427 12.6484 28.7612 16.0002 28.7501H16.1827C19.4983 28.6932 22.6621 27.3507 25.0068 25.0057C27.3515 22.6608 28.6936 19.4969 28.7502 16.1813C28.8415 9.52505 23.7502 3.84755 17.1515 3.2563ZM7.35146 8.84255C7.37422 8.81518 7.40242 8.79283 7.43426 8.77691C7.4661 8.76099 7.5009 8.75185 7.53646 8.75005H7.54771C7.57931 8.74927 7.61076 8.75484 7.64017 8.76644C7.66959 8.77803 7.69638 8.79542 7.71896 8.81755L11.1752 12.3476C11.2154 12.3878 11.2407 12.4406 11.2468 12.4972C11.253 12.5538 11.2396 12.6108 11.209 12.6588C10.673 13.424 10.3519 14.3187 10.279 15.2501H4.77895C4.93019 12.8943 5.8317 10.6489 7.35146 8.84255ZM4.77771 16.7501H10.3002C10.4652 18.0051 11.0398 19.1707 11.9348 20.0659C12.8298 20.9611 13.9952 21.536 15.2502 21.7013V27.2226C12.532 27.0422 9.97181 25.881 8.04554 23.9547C6.11927 22.0285 4.95803 19.4682 4.77771 16.7501ZM23.9452 23.9451C22.026 25.8775 19.4677 27.0433 16.7502 27.2238V21.7026C17.9384 21.5487 19.0478 21.0238 19.9202 20.2026C20.7048 19.4701 21.2687 18.5328 21.5481 17.4965C21.8276 16.4602 21.8114 15.3664 21.5015 14.3388C21.1915 13.3112 20.6001 12.3909 19.7942 11.682C18.9884 10.9731 18.0002 10.5039 16.9415 10.3276C16.886 10.3158 16.8365 10.285 16.8015 10.2404C16.7666 10.1959 16.7484 10.1404 16.7502 10.0838V5.00005C16.7499 4.96475 16.7571 4.92978 16.7714 4.89747C16.7856 4.86515 16.8065 4.83621 16.8327 4.81255C16.8574 4.78969 16.8866 4.7723 16.9185 4.76153C16.9504 4.75075 16.9842 4.74685 17.0177 4.75005C22.8365 5.2713 27.3315 10.2826 27.249 16.1588C27.2099 19.0867 26.0236 21.8824 23.9452 23.9451Z" fill="#112D1F"/>
</svg>
