<svg width="32" height="32" viewBox="0 0 32 32" fill="none" xmlns="http://www.w3.org/2000/svg">
<path d="M28.7077 23.3912C29.4189 21.9818 29.7771 20.4207 29.7517 18.8422C29.7263 17.2637 29.3179 15.715 28.5617 14.3292C27.8056 12.9434 26.7242 11.7619 25.4106 10.8863C24.0969 10.0107 22.5903 9.46721 21.0202 9.30249C20.5218 8.08905 19.7836 6.98867 18.8499 6.06724C17.9161 5.14581 16.8061 4.42229 15.5861 3.93999C14.3662 3.45768 13.0614 3.22653 11.75 3.26035C10.4387 3.29418 9.14758 3.5923 7.95412 4.13685C6.76066 4.68141 5.68936 5.4612 4.80438 6.42954C3.91939 7.39788 3.23891 8.53486 2.80369 9.77239C2.36847 11.0099 2.18746 12.3225 2.27149 13.6317C2.35552 14.9408 2.70287 16.2195 3.29274 17.3912L2.30899 20.8375C2.2357 21.0946 2.23245 21.3666 2.29959 21.6254C2.36673 21.8842 2.50182 22.1203 2.69086 22.3094C2.87991 22.4984 3.11604 22.6335 3.37483 22.7006C3.63361 22.7678 3.90563 22.7645 4.16274 22.6912L7.60899 21.7075C8.66278 22.237 9.80364 22.5715 10.9765 22.695C11.4867 23.9392 12.2485 25.0646 13.2143 26.0004C14.1801 26.9362 15.3289 27.6622 16.5886 28.1329C17.8483 28.6036 19.1917 28.8087 20.5345 28.7355C21.8773 28.6623 23.1904 28.3123 24.3915 27.7075L27.8377 28.6912C28.0948 28.7645 28.3669 28.7678 28.6257 28.7006C28.8844 28.6335 29.1206 28.4984 29.3096 28.3094C29.4987 28.1203 29.6337 27.8842 29.7009 27.6254C29.768 27.3666 29.7648 27.0946 29.6915 26.8375L28.7077 23.3912ZM7.69149 20.1537C7.62172 20.1534 7.55226 20.1631 7.48524 20.1825L3.75024 21.25L4.81649 17.5162C4.87094 17.3266 4.84849 17.1232 4.75399 16.95C3.8057 15.2074 3.51709 13.1815 3.94105 11.2435C4.36501 9.30542 5.47314 7.58505 7.06238 6.39759C8.65163 5.21012 10.6156 4.63511 12.5943 4.7779C14.573 4.9207 16.434 5.77174 17.8363 7.17509C19.2386 8.57843 20.0882 10.4401 20.2295 12.4189C20.3708 14.3978 19.7943 16.3613 18.6056 17.9496C17.417 19.5379 15.6958 20.6448 13.7574 21.0673C11.819 21.4897 9.79333 21.1996 8.05149 20.25C7.9413 20.1886 7.8176 20.1556 7.69149 20.1537ZM27.1827 23.515L28.2502 27.25L24.5165 26.1837C24.3269 26.1293 24.1234 26.1517 23.9502 26.2462C22.9803 26.775 21.9141 27.1036 20.8148 27.2125C19.7154 27.3214 18.6055 27.2084 17.5506 26.8802C16.4958 26.552 15.5176 26.0153 14.6741 25.302C13.8307 24.5887 13.139 23.7132 12.6402 22.7275C14.0427 22.6362 15.4087 22.2426 16.6446 21.5735C17.8805 20.9045 18.957 19.9759 19.8002 18.8515C20.6433 17.7272 21.2332 16.4337 21.5292 15.0598C21.8253 13.686 21.8205 12.2643 21.5152 10.8925C22.7955 11.1309 24.0011 11.6689 25.0334 12.4627C26.0658 13.2564 26.8956 14.2832 27.455 15.4592C28.0144 16.6351 28.2875 17.9268 28.2519 19.2285C28.2163 20.5303 27.873 21.8051 27.2502 22.9487C27.1541 23.1212 27.1298 23.3247 27.1827 23.515Z" fill="#112D1F"/>
</svg>
