<svg width="32" height="32" viewBox="0 0 32 32" fill="none" xmlns="http://www.w3.org/2000/svg">
<path d="M28.5298 9.53L12.5298 25.53C12.3892 25.6705 12.1986 25.7493 11.9998 25.7493C11.8011 25.7493 11.6105 25.6705 11.4698 25.53L4.46985 18.53C4.33737 18.3878 4.26524 18.1998 4.26867 18.0055C4.2721 17.8112 4.35081 17.6258 4.48822 17.4884C4.62564 17.351 4.81102 17.2723 5.00532 17.2688C5.19963 17.2654 5.38767 17.3375 5.52985 17.47L11.9998 23.9387L27.4698 8.47C27.612 8.33752 27.8001 8.2654 27.9944 8.26882C28.1887 8.27225 28.3741 8.35097 28.5115 8.48838C28.6489 8.62579 28.7276 8.81118 28.731 9.00548C28.7344 9.19978 28.6623 9.38782 28.5298 9.53Z" fill="#112D1F"/>
</svg>
