<svg width="32" height="32" viewBox="0 0 32 32" fill="none" xmlns="http://www.w3.org/2000/svg">
<path d="M25.0149 6.98501C23.8345 5.78527 22.4282 4.83112 20.8772 4.1776C19.3261 3.52408 17.6611 3.18411 15.978 3.17732C14.2949 3.17052 12.6271 3.49703 11.0709 4.13801C9.51462 4.77899 8.10067 5.72175 6.91059 6.91192C5.72051 8.10208 4.77784 9.5161 4.13697 11.0724C3.4961 12.6287 3.16971 14.2965 3.17662 15.9796C3.18353 17.6627 3.52361 19.3277 4.17724 20.8787C4.83087 22.4297 5.78512 23.8359 6.98494 25.0163C8.16537 26.216 9.57166 27.1701 11.1227 27.8237C12.6737 28.4772 14.3388 28.8172 16.0219 28.8239C17.705 28.8307 19.3727 28.5042 20.929 27.8633C22.4852 27.2223 23.8992 26.2795 25.0893 25.0893C26.2794 23.8992 27.222 22.4852 27.8629 20.9289C28.5038 19.3726 28.8302 17.7048 28.8232 16.0217C28.8163 14.3386 28.4763 12.6736 27.8226 11.1226C27.169 9.57159 26.2148 8.16536 25.0149 6.98501ZM11.2499 26.2025C10.2875 25.7525 9.39395 25.1679 8.59619 24.4663L11.2499 21.8113V26.2025ZM15.2499 27.2225C14.4024 27.1682 13.5637 27.0181 12.7499 26.775V20.3113L15.2499 17.8113V27.2225ZM19.2499 26.775C18.4362 27.0183 17.5975 27.1684 16.7499 27.2225V16.3113L19.2499 13.8113V26.775ZM23.2499 24.6C22.4916 25.2434 21.6509 25.7827 20.7499 26.2038V12.3113L23.2499 9.81126V24.6ZM7.53369 23.405C5.65313 21.2572 4.65944 18.4747 4.75399 15.6216C4.84854 12.7684 6.02425 10.0578 8.04287 8.03919C10.0615 6.02057 12.772 4.84486 15.6252 4.75031C18.4784 4.65577 21.2609 5.64945 23.4087 7.53001L7.53369 23.405ZM24.7499 23.0713V8.92876C26.3676 10.9305 27.2501 13.4263 27.2501 16C27.2501 18.5737 26.3676 21.0695 24.7499 23.0713Z" fill="#112D1F"/>
</svg>
