<svg width="32" height="32" viewBox="0 0 32 32" fill="none" xmlns="http://www.w3.org/2000/svg">
<path d="M19.5002 9.24997C18.6036 9.25 17.7118 9.3801 16.8527 9.63622C16.4844 8.99695 16.014 8.42227 15.4601 7.93497L16.7751 6.05997C16.8317 5.97929 16.8718 5.88826 16.8932 5.79208C16.9145 5.69589 16.9168 5.59645 16.8997 5.49941C16.8826 5.40237 16.8466 5.30965 16.7937 5.22653C16.7408 5.1434 16.6721 5.07152 16.5914 5.01497C16.5107 4.95842 16.4197 4.91831 16.3235 4.89694C16.2273 4.87557 16.1279 4.87335 16.0308 4.89041C15.9338 4.90748 15.8411 4.94349 15.758 4.99638C15.6748 5.04928 15.603 5.11804 15.5464 5.19872L14.2314 7.07372C13.2404 6.53272 12.1292 6.24946 11.0001 6.24997C10.8564 6.24997 10.7151 6.24997 10.5739 6.26497L10.1751 4.00622C10.1609 3.90666 10.1268 3.811 10.0748 3.7249C10.0228 3.63881 9.95403 3.56405 9.87258 3.50507C9.79112 3.44609 9.69863 3.40409 9.60062 3.38158C9.5026 3.35907 9.40106 3.3565 9.30203 3.37402C9.203 3.39155 9.10851 3.42881 9.02417 3.48359C8.93983 3.53838 8.86738 3.60956 8.81111 3.69292C8.75484 3.77627 8.71591 3.87009 8.69663 3.96879C8.67736 4.06749 8.67813 4.16907 8.6989 4.26747L9.0964 6.52497C7.87534 6.88553 6.78114 7.58408 5.94015 8.53997L4.0589 7.22247C3.89596 7.10826 3.69432 7.06345 3.49834 7.09791C3.30237 7.13237 3.12811 7.24327 3.0139 7.40622C2.89969 7.56916 2.85489 7.7708 2.88935 7.96677C2.92381 8.16275 3.03471 8.33701 3.19765 8.45122L5.07265 9.76622C4.53067 10.7577 4.24777 11.87 4.25015 13C4.25015 13.1412 4.25015 13.2825 4.26515 13.4237L2.0064 13.8212C1.82191 13.8535 1.65618 13.9537 1.54181 14.102C1.42743 14.2503 1.3727 14.4361 1.38837 14.6227C1.40404 14.8094 1.48898 14.9834 1.62649 15.1106C1.76399 15.2378 1.9441 15.3089 2.1314 15.31C2.17539 15.3098 2.21928 15.3061 2.26265 15.2987L4.52515 14.9C4.7209 15.5672 5.01949 16.1998 5.41015 16.775C4.4468 17.6091 3.76142 18.7177 3.44587 19.9523C3.13033 21.1869 3.1997 22.4884 3.64468 23.6825C4.08966 24.8766 4.889 25.9061 5.93555 26.633C6.98211 27.36 8.22587 27.7497 9.50015 27.75H19.5002C21.9534 27.75 24.3062 26.7754 26.0409 25.0407C27.7756 23.306 28.7502 20.9532 28.7502 18.5C28.7502 16.0467 27.7756 13.6939 26.0409 11.9592C24.3062 10.2245 21.9534 9.24997 19.5002 9.24997ZM5.75015 13C5.74977 11.8626 6.11878 10.7558 6.80165 9.84621C7.48453 8.93661 8.44433 8.27339 9.53665 7.95632C10.629 7.63926 11.7947 7.6855 12.8585 8.08811C13.9222 8.49071 14.8265 9.22788 15.4352 10.1887C13.2672 11.2466 11.5959 13.1066 10.7751 15.375C10.3555 15.29 9.9283 15.2482 9.50015 15.25C8.5091 15.2492 7.53227 15.4858 6.6514 15.94C6.06428 15.0719 5.7504 14.048 5.75015 13ZM19.5002 26.25H9.50015C8.8392 26.2495 8.18563 26.111 7.58123 25.8435C6.97684 25.576 6.43492 25.1853 5.99014 24.6964C5.54536 24.2075 5.20752 23.6312 4.9982 23.0042C4.78888 22.3773 4.71271 21.7136 4.77455 21.0555C4.83639 20.3975 5.03488 19.7596 5.35733 19.1826C5.67978 18.6057 6.11909 18.1024 6.64717 17.7049C7.17524 17.3074 7.78046 17.0245 8.42411 16.8743C9.06776 16.7241 9.73568 16.7098 10.3851 16.8325C10.3182 17.2045 10.2735 17.5801 10.2514 17.9575C10.2398 18.1564 10.3077 18.3518 10.4401 18.5006C10.5726 18.6495 10.7587 18.7396 10.9577 18.7512C11.1566 18.7628 11.3519 18.6949 11.5008 18.5625C11.6497 18.43 11.7398 18.2439 11.7514 18.045C11.783 17.5278 11.8668 17.0152 12.0014 16.515C12.0014 16.4962 12.0114 16.4787 12.0152 16.4612C12.394 15.0647 13.1559 13.8021 14.2147 12.8159C15.2735 11.8297 16.5871 11.1593 18.0069 10.8804C19.4267 10.6015 20.8963 10.7253 22.2494 11.2378C23.6026 11.7502 24.7855 12.6309 25.6644 13.7804C26.5433 14.9298 27.0832 16.3021 27.2231 17.7423C27.3631 19.1825 27.0974 20.6331 26.4562 21.9302C25.815 23.2273 24.8237 24.3193 23.5945 25.0826C22.3653 25.846 20.9471 26.2503 19.5002 26.25Z" fill="#112D1F"/>
</svg>
