<svg width="32" height="32" viewBox="0 0 32 32" fill="none" xmlns="http://www.w3.org/2000/svg">
<path d="M20.4998 9.24994C19.9053 9.24987 19.3122 9.3068 18.7285 9.41994C18.6045 7.54424 17.8797 5.75835 16.6615 4.32671C15.4433 2.89507 13.7965 1.89381 11.9648 1.47119C11.8404 1.44244 11.7108 1.44588 11.5882 1.48121C11.4656 1.51653 11.354 1.58256 11.264 1.67305C11.174 1.76354 11.1086 1.87549 11.074 1.99831C11.0393 2.12113 11.0366 2.25077 11.066 2.37494C11.3395 3.57224 11.3046 4.81936 10.9647 5.99952C10.6248 7.17968 9.99097 8.25428 9.12255 9.1227C8.25412 9.99113 7.17952 10.625 5.99936 10.9649C4.8192 11.3048 3.57209 11.3396 2.37478 11.0662C2.25095 11.0378 2.12193 11.0413 1.99983 11.0764C1.87772 11.1115 1.76654 11.177 1.6767 11.2669C1.58686 11.3567 1.52132 11.4679 1.48622 11.59C1.45112 11.7121 1.44762 11.8411 1.47603 11.9649C1.74782 13.1367 2.25756 14.2402 2.97361 15.2067C3.68966 16.1733 4.59673 16.9823 5.63853 17.5837C4.90054 18.5016 4.43692 19.6093 4.3011 20.7792C4.16529 21.9491 4.3628 23.1336 4.87088 24.1961C5.37896 25.2587 6.17693 26.156 7.17283 26.7848C8.16873 27.4136 9.32201 27.7481 10.4998 27.7499H20.4998C22.953 27.7499 25.3058 26.7754 27.0405 25.0407C28.7752 23.306 29.7498 20.9532 29.7498 18.4999C29.7498 16.0467 28.7752 13.6939 27.0405 11.9592C25.3058 10.2245 22.953 9.24994 20.4998 9.24994ZM3.27728 12.7199C3.51728 12.7399 3.75812 12.7499 3.99978 12.7499C6.31961 12.7473 8.54367 11.8246 10.184 10.1842C11.8244 8.54383 12.7471 6.31977 12.7498 3.99994C12.7498 3.75744 12.7398 3.51494 12.7198 3.27494C14.0372 3.80146 15.1699 4.70522 15.9758 5.87289C16.7816 7.04055 17.2248 8.42015 17.2498 9.83869C15.991 10.3104 14.8495 11.0497 13.9043 12.0055C12.959 12.9614 12.2325 14.111 11.7748 15.3749C11.3551 15.29 10.9279 15.2481 10.4998 15.2499C9.15422 15.2485 7.84449 15.6836 6.76728 16.4899C5.18446 15.6991 3.94382 14.359 3.27728 12.7199ZM20.4998 26.2499H10.4998C9.83883 26.2494 9.18526 26.111 8.58087 25.8435C7.97647 25.576 7.43455 25.1853 6.98978 24.6964C6.545 24.2075 6.20715 23.6311 5.99783 23.0042C5.78852 22.3773 5.71234 21.7136 5.77418 21.0555C5.83602 20.3975 6.03451 19.7596 6.35696 19.1826C6.67941 18.6057 7.11872 18.1023 7.6468 17.7049C8.17487 17.3074 8.78009 17.0245 9.42374 16.8743C10.0674 16.724 10.7353 16.7098 11.3848 16.8324C11.3178 17.2044 11.2731 17.5801 11.251 17.9574C11.2394 18.1564 11.3073 18.3517 11.4398 18.5006C11.5722 18.6494 11.7584 18.7396 11.9573 18.7512C12.1562 18.7628 12.3516 18.6949 12.5004 18.5625C12.6493 18.43 12.7394 18.2439 12.751 18.0449C12.7826 17.5278 12.8664 17.0152 13.001 16.5149C13.001 16.4962 13.011 16.4787 13.0148 16.4612C13.3937 15.0647 14.1556 13.802 15.2144 12.8158C16.2732 11.8297 17.5867 11.1592 19.0065 10.8804C20.4264 10.6015 21.8959 10.7253 23.2491 11.2378C24.6022 11.7502 25.7851 12.6309 26.664 13.7803C27.5429 14.9298 28.0828 16.3021 28.2228 17.7423C28.3627 19.1825 28.097 20.6331 27.4558 21.9302C26.8146 23.2273 25.8234 24.3192 24.5942 25.0826C23.3649 25.8459 21.9467 26.2503 20.4998 26.2499Z" fill="#112D1F"/>
</svg>
