<svg width="32" height="32" viewBox="0 0 32 32" fill="none" xmlns="http://www.w3.org/2000/svg">
<path d="M30.7498 16C30.7564 18.3271 30.0014 20.5924 28.5998 22.45C28.5407 22.5288 28.4667 22.5952 28.3819 22.6454C28.2972 22.6955 28.2034 22.7285 28.1059 22.7425C28.0084 22.7564 27.9091 22.751 27.8137 22.7265C27.7183 22.7021 27.6286 22.6591 27.5498 22.6C27.471 22.5409 27.4046 22.4669 27.3544 22.3821C27.3043 22.2974 27.2713 22.2036 27.2573 22.1061C27.2434 22.0086 27.2488 21.9093 27.2733 21.8139C27.2977 21.7185 27.3407 21.6288 27.3998 21.55C28.2792 20.3775 28.8674 19.0127 29.1159 17.5683C29.3644 16.1238 29.2661 14.641 28.8291 13.242C28.392 11.8429 27.6288 10.5678 26.6023 9.52163C25.5758 8.47545 24.3154 7.68817 22.9249 7.22468C21.5344 6.7612 20.0537 6.63476 18.6048 6.8558C17.1559 7.07683 15.7803 7.63902 14.5912 8.49602C13.4022 9.35301 12.4339 10.4803 11.766 11.785C11.0981 13.0896 10.7498 14.5343 10.7498 16C10.7498 16.1989 10.6708 16.3897 10.5301 16.5303C10.3895 16.671 10.1987 16.75 9.9998 16.75C9.80089 16.75 9.61013 16.671 9.46947 16.5303C9.32882 16.3897 9.2498 16.1989 9.2498 16C9.24887 14.913 9.41368 13.8323 9.73855 12.795C9.49339 12.7656 9.24672 12.7506 8.9998 12.75C7.3422 12.75 5.75249 13.4085 4.58039 14.5806C3.40828 15.7527 2.7498 17.3424 2.7498 19C2.7498 20.6576 3.40828 22.2473 4.58039 23.4194C5.75249 24.5915 7.3422 25.25 8.9998 25.25H11.9998C12.1987 25.25 12.3895 25.329 12.5301 25.4697C12.6708 25.6103 12.7498 25.8011 12.7498 26C12.7498 26.1989 12.6708 26.3897 12.5301 26.5303C12.3895 26.671 12.1987 26.75 11.9998 26.75H8.9998C7.92714 26.7496 6.86624 26.5266 5.88423 26.095C4.90222 25.6634 4.0205 25.0327 3.29487 24.2427C2.56923 23.4527 2.01549 22.5207 1.66868 21.5057C1.32187 20.4906 1.18956 19.4146 1.2801 18.3458C1.37065 17.277 1.68208 16.2386 2.1947 15.2963C2.70732 14.3541 3.40995 13.5285 4.25814 12.8719C5.10632 12.2152 6.08158 11.7418 7.1222 11.4815C8.16281 11.2213 9.24612 11.1799 10.3036 11.36C11.356 9.16159 13.1242 7.38606 15.3183 6.32462C17.5123 5.26318 20.002 4.97885 22.3789 5.51825C24.7558 6.05765 26.8788 7.38878 28.3998 9.2933C29.9208 11.1978 30.7494 13.5627 30.7498 16ZM19.5298 15.47C19.3892 15.3296 19.1986 15.2507 18.9998 15.2507C18.8011 15.2507 18.6104 15.3296 18.4698 15.47L14.4698 19.47C14.3373 19.6122 14.2652 19.8002 14.2686 19.9945C14.2721 20.1888 14.3508 20.3742 14.4882 20.5116C14.6256 20.649 14.811 20.7278 15.0053 20.7312C15.1996 20.7346 15.3876 20.6625 15.5298 20.53L18.2498 17.8113V26C18.2498 26.1989 18.3288 26.3897 18.4695 26.5303C18.6101 26.671 18.8009 26.75 18.9998 26.75C19.1987 26.75 19.3895 26.671 19.5301 26.5303C19.6708 26.3897 19.7498 26.1989 19.7498 26V17.8113L22.4698 20.53C22.612 20.6625 22.8 20.7346 22.9943 20.7312C23.1886 20.7278 23.374 20.649 23.5114 20.5116C23.6488 20.3742 23.7276 20.1888 23.731 19.9945C23.7344 19.8002 23.6623 19.6122 23.5298 19.47L19.5298 15.47Z" fill="#112D1F"/>
</svg>
