<svg width="32" height="32" viewBox="0 0 32 32" fill="none" xmlns="http://www.w3.org/2000/svg">
<path d="M6.55477 4.50001C6.41747 4.37257 6.23745 4.30113 6.05012 4.29973C5.86279 4.29834 5.68173 4.3671 5.54255 4.49249C5.40337 4.61788 5.31615 4.79081 5.29806 4.97727C5.27996 5.16373 5.3323 5.3502 5.44477 5.50001L10.4673 11.025C10.411 11.1338 10.3548 11.2438 10.3023 11.355C9.2466 11.1795 8.16602 11.2245 7.12861 11.4873C6.0912 11.75 5.11944 12.2247 4.27456 12.8815C3.42968 13.5384 2.72999 14.3631 2.21957 15.3037C1.70915 16.2443 1.39906 17.2804 1.30884 18.3467C1.21862 19.4131 1.35023 20.4866 1.69536 21.4995C2.0405 22.5125 2.59169 23.443 3.31421 24.2325C4.03673 25.0219 4.91491 25.6532 5.89344 26.0864C6.87196 26.5197 7.92962 26.7457 8.99977 26.75H19.9998C21.3861 26.7531 22.7597 26.4856 24.0435 25.9625L25.4448 27.5C25.5787 27.6472 25.7656 27.7352 25.9644 27.7445C26.1632 27.7539 26.3576 27.6839 26.5048 27.55C26.652 27.4161 26.7399 27.2292 26.7493 27.0304C26.7587 26.8316 26.6887 26.6372 26.5548 26.49L6.55477 4.50001ZM19.9998 25.25H8.99977C8.14697 25.2515 7.30287 25.0785 6.51944 24.7416C5.73601 24.4046 5.02983 23.9109 4.44435 23.2909C3.85886 22.6708 3.40648 21.9375 3.11502 21.136C2.82357 20.3345 2.69922 19.4819 2.74963 18.6306C2.80004 17.7793 3.02414 16.9473 3.40814 16.1858C3.79214 15.4243 4.32791 14.7495 4.98247 14.2029C5.63704 13.6562 6.39656 13.2493 7.21427 13.0072C8.03199 12.7651 8.8906 12.6929 9.73727 12.795C9.41416 13.8327 9.2498 14.9132 9.24977 16C9.24977 16.1989 9.32879 16.3897 9.46944 16.5303C9.6101 16.671 9.80086 16.75 9.99977 16.75C10.1987 16.75 10.3895 16.671 10.5301 16.5303C10.6708 16.3897 10.7498 16.1989 10.7498 16C10.7494 14.699 11.0237 13.4126 11.5548 12.225L22.9573 24.7675C22.0044 25.0888 21.0053 25.2518 19.9998 25.25ZM30.7498 16C30.7513 18.6411 29.7788 21.1899 28.0185 23.1588C27.9482 23.2374 27.8621 23.3003 27.7658 23.3434C27.6695 23.3864 27.5653 23.4087 27.4598 23.4088C27.315 23.4087 27.1734 23.3668 27.0519 23.288C26.9305 23.2092 26.8344 23.097 26.7753 22.9648C26.7163 22.8327 26.6967 22.6862 26.719 22.5432C26.7413 22.4002 26.8045 22.2667 26.901 22.1588C28.4225 20.4529 29.2585 18.2441 29.2478 15.9583C29.237 13.6725 28.3803 11.4716 26.8429 9.78014C25.3054 8.08864 23.1961 7.0263 20.9217 6.79799C18.6474 6.56969 16.369 7.19159 14.526 8.54376C14.4467 8.60212 14.3566 8.64427 14.2609 8.66781C14.1653 8.69135 14.0659 8.69582 13.9685 8.68097C13.8711 8.66611 13.7776 8.63222 13.6933 8.58122C13.609 8.53023 13.5356 8.46313 13.4773 8.38376C13.4189 8.30439 13.3768 8.21431 13.3532 8.11865C13.3297 8.02299 13.3252 7.92364 13.3401 7.82625C13.3701 7.62957 13.477 7.45287 13.6373 7.33501C15.239 6.1589 17.1354 5.44976 19.1158 5.28635C21.0962 5.12295 23.0832 5.51167 24.856 6.40936C26.6289 7.30704 28.1182 8.67855 29.1586 10.3716C30.199 12.0646 30.7498 14.0129 30.7498 16Z" fill="#112D1F"/>
</svg>
