<svg width="32" height="32" viewBox="0 0 32 32" fill="none" xmlns="http://www.w3.org/2000/svg">
<path d="M23.0001 11.25C22.7843 11.25 22.5693 11.26 22.3551 11.28C22.7196 10.2612 22.8337 9.16981 22.688 8.0977C22.5424 7.02558 22.1411 6.00419 21.518 5.11961C20.895 4.23503 20.0684 3.51319 19.108 3.01492C18.1476 2.51666 17.0815 2.25656 15.9995 2.25656C14.9175 2.25656 13.8514 2.51666 12.891 3.01492C11.9306 3.51319 11.104 4.23503 10.481 5.11961C9.85794 6.00419 9.45666 7.02558 9.31098 8.0977C9.1653 9.16981 9.27947 10.2612 9.64389 11.28C9.43139 11.26 9.21639 11.25 9.00014 11.25C7.95986 11.2505 6.93378 11.4914 6.00201 11.954C5.07023 12.4166 4.25798 13.0882 3.62866 13.9166C2.99934 14.7449 2.56999 15.7075 2.37413 16.7291C2.17828 17.7508 2.22121 18.8039 2.49958 19.8063C2.77795 20.8086 3.28423 21.733 3.97888 22.5074C4.67354 23.2817 5.53777 23.8851 6.50411 24.2702C7.47044 24.6554 8.51273 24.812 9.54959 24.7279C10.5865 24.6437 11.5898 24.321 12.4814 23.785L11.2814 27.785C11.2479 27.897 11.241 28.0153 11.2613 28.1304C11.2816 28.2455 11.3286 28.3543 11.3984 28.448C11.4682 28.5418 11.559 28.6179 11.6635 28.6703C11.768 28.7227 11.8832 28.75 12.0001 28.75H20.0001C20.117 28.75 20.2323 28.7227 20.3368 28.6703C20.4413 28.6179 20.532 28.5418 20.6019 28.448C20.6717 28.3543 20.7186 28.2455 20.7389 28.1304C20.7593 28.0153 20.7524 27.897 20.7189 27.785L19.5189 23.785C20.4104 24.321 21.4138 24.6437 22.4507 24.7279C23.4875 24.812 24.5298 24.6554 25.4962 24.2702C26.4625 23.8851 27.3267 23.2817 28.0214 22.5074C28.716 21.733 29.2223 20.8086 29.5007 19.8063C29.7791 18.8039 29.822 17.7508 29.6261 16.7291C29.4303 15.7075 29.0009 14.7449 28.3716 13.9166C27.7423 13.0882 26.93 12.4166 25.9983 11.954C25.0665 11.4914 24.0404 11.2505 23.0001 11.25ZM23.0001 23.25C22.1314 23.251 21.276 23.0359 20.511 22.6241C19.746 22.2124 19.0953 21.6169 18.6176 20.8913C18.5185 20.7416 18.369 20.6325 18.1963 20.5837C18.0236 20.535 17.8391 20.5497 17.6764 20.6253C17.5136 20.701 17.3834 20.8325 17.3093 20.9959C17.2352 21.1594 17.2222 21.344 17.2726 21.5163L18.9926 27.25H13.0076L14.7276 21.52C14.7781 21.3478 14.7651 21.1631 14.691 20.9997C14.6169 20.8362 14.4867 20.7047 14.3239 20.6291C14.1612 20.5535 13.9767 20.5387 13.804 20.5875C13.6313 20.6363 13.4818 20.7454 13.3826 20.895C12.8401 21.7168 12.0773 22.3694 11.1815 22.7783C10.2857 23.1872 9.29299 23.3359 8.31669 23.2075C7.34038 23.079 6.41989 22.6786 5.66032 22.0519C4.90076 21.4252 4.33276 20.5976 4.02118 19.6635C3.70961 18.7293 3.66703 17.7264 3.89831 16.7692C4.12959 15.8121 4.6254 14.9392 5.32911 14.2504C6.03283 13.5616 6.91607 13.0846 7.87798 12.8739C8.83988 12.6632 9.84165 12.7272 10.7689 13.0588C10.9176 13.112 11.0794 13.117 11.2312 13.0729C11.3829 13.0288 11.5168 12.9379 11.6138 12.8131C11.7108 12.6884 11.766 12.5362 11.7714 12.3783C11.7768 12.2204 11.7321 12.0648 11.6439 11.9338C11.113 11.1437 10.8068 10.2241 10.7582 9.27348C10.7096 8.32283 10.9204 7.37686 11.368 6.53677C11.8156 5.69669 12.4832 4.99411 13.2994 4.5042C14.1155 4.01429 15.0495 3.75549 16.0014 3.75549C16.9533 3.75549 17.8873 4.01429 18.7034 4.5042C19.5195 4.99411 20.1871 5.69669 20.6347 6.53677C21.0823 7.37686 21.2931 8.32283 21.2445 9.27348C21.196 10.2241 20.8898 11.1437 20.3589 11.9338C20.2706 12.0648 20.226 12.2204 20.2314 12.3783C20.2368 12.5362 20.292 12.6884 20.389 12.8131C20.486 12.9379 20.6199 13.0288 20.7716 13.0729C20.9234 13.117 21.0851 13.112 21.2339 13.0588C21.9548 12.8 22.7236 12.702 23.4864 12.7719C24.2492 12.8417 24.9874 13.0776 25.6494 13.463C26.3113 13.8484 26.8809 14.374 27.3182 15.0029C27.7554 15.6318 28.0498 16.3488 28.1806 17.1035C28.3114 17.8582 28.2755 18.6324 28.0753 19.3718C27.8752 20.1111 27.5157 20.7977 27.0221 21.3834C26.5284 21.9691 25.9126 22.4397 25.2178 22.7621C24.523 23.0846 23.7661 23.2511 23.0001 23.25Z" fill="#112D1F"/>
</svg>
