<svg width="32" height="32" viewBox="0 0 32 32" fill="none" xmlns="http://www.w3.org/2000/svg">
<path d="M7.47007 12.53L3.47007 8.53003C3.32962 8.38941 3.25073 8.19878 3.25073 8.00003C3.25073 7.80128 3.32962 7.61066 3.47007 7.47003L7.47007 3.47003C7.53873 3.39634 7.62153 3.33724 7.71353 3.29625C7.80553 3.25526 7.90485 3.23322 8.00555 3.23144C8.10625 3.22966 8.20628 3.24819 8.29967 3.28591C8.39306 3.32363 8.47789 3.37977 8.54911 3.45099C8.62033 3.52221 8.67647 3.60705 8.7142 3.70043C8.75192 3.79382 8.77044 3.89385 8.76866 3.99455C8.76689 4.09526 8.74485 4.19457 8.70385 4.28657C8.66286 4.37857 8.60376 4.46137 8.53007 4.53003L5.06132 8.00003L8.53007 11.47C8.60376 11.5387 8.66286 11.6215 8.70385 11.7135C8.74485 11.8055 8.76689 11.9048 8.76866 12.0055C8.77044 12.1062 8.75192 12.2062 8.7142 12.2996C8.67647 12.393 8.62033 12.4779 8.54911 12.5491C8.47789 12.6203 8.39306 12.6764 8.29967 12.7142C8.20628 12.7519 8.10625 12.7704 8.00555 12.7686C7.90485 12.7668 7.80553 12.7448 7.71353 12.7038C7.62153 12.6628 7.53873 12.6037 7.47007 12.53ZM12.4701 12.53C12.6107 12.6705 12.8013 12.7494 13.0001 12.7494C13.1988 12.7494 13.3894 12.6705 13.5301 12.53L17.5301 8.53003C17.6705 8.38941 17.7494 8.19878 17.7494 8.00003C17.7494 7.80128 17.6705 7.61066 17.5301 7.47003L13.5301 3.47003C13.4614 3.39634 13.3786 3.33724 13.2866 3.29625C13.1946 3.25526 13.0953 3.23322 12.9946 3.23144C12.8939 3.22966 12.7939 3.24819 12.7005 3.28591C12.6071 3.32363 12.5223 3.37977 12.451 3.45099C12.3798 3.52221 12.3237 3.60705 12.2859 3.70043C12.2482 3.79382 12.2297 3.89385 12.2315 3.99455C12.2333 4.09526 12.2553 4.19457 12.2963 4.28657C12.3373 4.37857 12.3964 4.46137 12.4701 4.53003L15.9388 8.00003L12.4701 11.47C12.3296 11.6107 12.2507 11.8013 12.2507 12C12.2507 12.1988 12.3296 12.3894 12.4701 12.53ZM25.0001 5.25003H22.0001C21.8012 5.25003 21.6104 5.32905 21.4697 5.4697C21.3291 5.61035 21.2501 5.80112 21.2501 6.00003C21.2501 6.19894 21.3291 6.38971 21.4697 6.53036C21.6104 6.67101 21.8012 6.75003 22.0001 6.75003H25.0001C25.0664 6.75003 25.13 6.77637 25.1768 6.82325C25.2237 6.87014 25.2501 6.93373 25.2501 7.00003V25C25.2501 25.0663 25.2237 25.1299 25.1768 25.1768C25.13 25.2237 25.0664 25.25 25.0001 25.25H7.00007C6.93377 25.25 6.87018 25.2237 6.8233 25.1768C6.77641 25.1299 6.75007 25.0663 6.75007 25V17C6.75007 16.8011 6.67105 16.6104 6.5304 16.4697C6.38975 16.329 6.19898 16.25 6.00007 16.25C5.80116 16.25 5.61039 16.329 5.46974 16.4697C5.32909 16.6104 5.25007 16.8011 5.25007 17V25C5.25007 25.4642 5.43445 25.9093 5.76264 26.2375C6.09082 26.5657 6.53594 26.75 7.00007 26.75H25.0001C25.4642 26.75 25.9093 26.5657 26.2375 26.2375C26.5657 25.9093 26.7501 25.4642 26.7501 25V7.00003C26.7501 6.5359 26.5657 6.09078 26.2375 5.76259C25.9093 5.43441 25.4642 5.25003 25.0001 5.25003Z" fill="#112D1F"/>
</svg>
