<svg width="32" height="32" viewBox="0 0 32 32" fill="none" xmlns="http://www.w3.org/2000/svg">
<path d="M30.3149 9.71248C30.1269 9.54847 29.8944 9.44403 29.6469 9.41243C29.3994 9.38083 29.1481 9.42348 28.9249 9.53499L22.4412 12.7675L17.0824 3.86124C16.97 3.67463 16.8113 3.52025 16.6216 3.41309C16.4319 3.30592 16.2178 3.2496 15.9999 3.2496C15.7821 3.2496 15.5679 3.30592 15.3783 3.41309C15.1886 3.52025 15.0298 3.67463 14.9174 3.86124L9.55867 12.7675L3.07742 9.53624C2.85428 9.42483 2.60314 9.38201 2.35568 9.41318C2.10823 9.44435 1.87556 9.54812 1.68701 9.71139C1.49847 9.87466 1.36251 10.0901 1.29629 10.3306C1.23007 10.571 1.23655 10.8257 1.31492 11.0625L5.93992 25.2325C5.97475 25.3394 6.03319 25.4372 6.11092 25.5185C6.18864 25.5998 6.28365 25.6626 6.38892 25.7022C6.49419 25.7418 6.60702 25.7572 6.71906 25.7473C6.8311 25.7374 6.93948 25.7024 7.03617 25.645C7.04492 25.645 7.85617 25.165 9.36117 24.6975C10.7499 24.265 13.0262 23.75 15.9999 23.75C18.9737 23.75 21.2499 24.265 22.6399 24.6975C24.1399 25.165 24.9562 25.64 24.9624 25.6437C25.0591 25.7014 25.1675 25.7367 25.2796 25.7468C25.3917 25.7569 25.5047 25.7416 25.6101 25.7021C25.7155 25.6626 25.8107 25.5999 25.8886 25.5186C25.9664 25.4373 26.025 25.3395 26.0599 25.2325L30.6849 11.065C30.7655 10.8284 30.7734 10.5731 30.7074 10.332C30.6415 10.0909 30.5048 9.87509 30.3149 9.71248ZM24.9037 23.9412C23.5287 23.3262 20.4787 22.25 15.9999 22.25C11.5212 22.25 8.47117 23.3262 7.09617 23.9412L2.91492 11.1312L9.08367 14.2062C9.36847 14.3466 9.69547 14.3753 10.0004 14.2867C10.3052 14.1981 10.5659 13.9986 10.7312 13.7275L15.9999 4.97749L21.2687 13.7337C21.4339 14.0045 21.6943 14.2038 21.9989 14.2924C22.3035 14.381 22.6303 14.3525 22.9149 14.2125L29.0849 11.1362L24.9037 23.9412Z" fill="#112D1F"/>
</svg>
