<svg width="32" height="32" viewBox="0 0 32 32" fill="none" xmlns="http://www.w3.org/2000/svg">
<path d="M14.6986 13.2113C15.0442 13.5555 15.5121 13.7488 15.9999 13.7488C16.4876 13.7488 16.9555 13.5555 17.3011 13.2113L21.2111 9.30126C21.5557 8.95565 21.7493 8.48747 21.7493 7.99939C21.7493 7.5113 21.5557 7.04313 21.2111 6.69751L17.3011 2.78751C16.9557 2.44295 16.4877 2.24945 15.9999 2.24945C15.512 2.24945 15.044 2.44295 14.6986 2.78751L10.7886 6.69751C10.444 7.04313 10.2504 7.5113 10.2504 7.99939C10.2504 8.48747 10.444 8.95565 10.7886 9.30126L14.6986 13.2113ZM11.8499 7.75876L15.7586 3.84876C15.8228 3.7851 15.9095 3.74938 15.9999 3.74938C16.0902 3.74938 16.177 3.7851 16.2411 3.84876L20.1499 7.75876C20.1816 7.79026 20.2069 7.82774 20.2241 7.86904C20.2413 7.91034 20.2502 7.95464 20.2502 7.99939C20.2502 8.04413 20.2413 8.08844 20.2241 8.12974C20.2069 8.17104 20.1816 8.20852 20.1499 8.24001L16.2411 12.15C16.177 12.2137 16.0902 12.2494 15.9999 12.2494C15.9095 12.2494 15.8228 12.2137 15.7586 12.15L11.8499 8.24001C11.8181 8.20852 11.7928 8.17104 11.7756 8.12974C11.7584 8.08844 11.7495 8.04413 11.7495 7.99939C11.7495 7.95464 11.7584 7.91034 11.7756 7.86904C11.7928 7.82774 11.8181 7.79026 11.8499 7.75876ZM29.2111 14.6988L25.3011 10.7888C24.9557 10.4442 24.4877 10.2507 23.9999 10.2507C23.512 10.2507 23.044 10.4442 22.6986 10.7888L18.7886 14.6988C18.444 15.0442 18.2505 15.5121 18.2505 16C18.2505 16.4879 18.444 16.9559 18.7886 17.3013L22.6986 21.2113C23.0441 21.5562 23.5123 21.75 24.0005 21.75C24.4887 21.75 24.9569 21.5562 25.3024 21.2113L29.2111 17.3013C29.382 17.1304 29.5176 16.9275 29.6101 16.7043C29.7026 16.481 29.7502 16.2417 29.7502 16C29.7502 15.7583 29.7026 15.519 29.6101 15.2958C29.5176 15.0725 29.382 14.8696 29.2111 14.6988ZM28.1511 16.2413L24.2411 20.15C24.2096 20.1818 24.1721 20.207 24.1308 20.2242C24.0895 20.2415 24.0452 20.2503 24.0005 20.2503C23.9557 20.2503 23.9114 20.2415 23.8701 20.2242C23.8288 20.207 23.7914 20.1818 23.7599 20.15L19.8499 16.2413C19.7862 16.1771 19.7505 16.0904 19.7505 16C19.7505 15.9096 19.7862 15.8229 19.8499 15.7588L23.7599 11.85C23.7914 11.8184 23.8289 11.7933 23.8702 11.7762C23.9115 11.759 23.9558 11.7502 24.0005 11.7502C24.0452 11.7502 24.0894 11.759 24.1307 11.7762C24.172 11.7933 24.2095 11.8184 24.2411 11.85L28.1511 15.76C28.2144 15.8241 28.2499 15.9106 28.2499 16.0006C28.2499 16.0907 28.2144 16.1772 28.1511 16.2413ZM13.2111 14.6988L9.30111 10.7888C8.95549 10.4441 8.48732 10.2506 7.99923 10.2506C7.51115 10.2506 7.04298 10.4441 6.69736 10.7888L2.78861 14.6988C2.6177 14.8696 2.48212 15.0725 2.38962 15.2958C2.29712 15.519 2.24951 15.7583 2.24951 16C2.24951 16.2417 2.29712 16.481 2.38962 16.7043C2.48212 16.9275 2.6177 17.1304 2.78861 17.3013L6.69736 21.2113C7.0426 21.5561 7.51063 21.7498 7.99861 21.7498C8.48659 21.7498 8.95462 21.5561 9.29986 21.2113L13.2099 17.3013C13.5546 16.956 13.7483 16.4882 13.7485 16.0003C13.7488 15.5124 13.5555 15.0443 13.2111 14.6988ZM12.1499 16.2413L8.23986 20.15C8.20836 20.1818 8.17088 20.207 8.12958 20.2242C8.08828 20.2415 8.04398 20.2503 7.99923 20.2503C7.95449 20.2503 7.91019 20.2415 7.86888 20.2242C7.82758 20.207 7.7901 20.1818 7.75861 20.15L3.84861 16.2413C3.78495 16.1771 3.74922 16.0904 3.74922 16C3.74922 15.9096 3.78495 15.8229 3.84861 15.7588L7.75861 11.85C7.79019 11.8184 7.8277 11.7933 7.86899 11.7762C7.91027 11.759 7.95453 11.7502 7.99923 11.7502C8.04393 11.7502 8.08819 11.759 8.12948 11.7762C8.17077 11.7933 8.20828 11.8184 8.23986 11.85L12.1499 15.7588C12.2135 15.8229 12.2492 15.9096 12.2492 16C12.2492 16.0904 12.2135 16.1771 12.1499 16.2413ZM17.3011 18.7888C16.9557 18.4442 16.4877 18.2507 15.9999 18.2507C15.512 18.2507 15.044 18.4442 14.6986 18.7888L10.7886 22.6988C10.444 23.0442 10.2505 23.5121 10.2505 24C10.2505 24.4879 10.444 24.9559 10.7886 25.3013L14.6986 29.2113C15.044 29.5558 15.512 29.7493 15.9999 29.7493C16.4877 29.7493 16.9557 29.5558 17.3011 29.2113L21.2111 25.3013C21.5557 24.9559 21.7492 24.4879 21.7492 24C21.7492 23.5121 21.5557 23.0442 21.2111 22.6988L17.3011 18.7888ZM20.1499 24.2413L16.2411 28.1513C16.177 28.2149 16.0902 28.2506 15.9999 28.2506C15.9095 28.2506 15.8228 28.2149 15.7586 28.1513L11.8499 24.2413C11.8181 24.2098 11.7928 24.1723 11.7756 24.131C11.7584 24.0897 11.7495 24.0454 11.7495 24.0006C11.7495 23.9559 11.7584 23.9116 11.7756 23.8703C11.7928 23.829 11.8181 23.7915 11.8499 23.76L15.7586 19.85C15.8228 19.7864 15.9095 19.7506 15.9999 19.7506C16.0902 19.7506 16.177 19.7864 16.2411 19.85L20.1499 23.76C20.1816 23.7915 20.2069 23.829 20.2241 23.8703C20.2413 23.9116 20.2502 23.9559 20.2502 24.0006C20.2502 24.0454 20.2413 24.0897 20.2241 24.131C20.2069 24.1723 20.1816 24.2098 20.1499 24.2413Z" fill="#112D1F"/>
</svg>
