<svg width="32" height="32" viewBox="0 0 32 32" fill="none" xmlns="http://www.w3.org/2000/svg">
<path d="M26.0001 20.25H6.00006C5.53593 20.25 5.09081 20.4344 4.76262 20.7626C4.43444 21.0908 4.25006 21.5359 4.25006 22V25C4.25006 25.4641 4.43444 25.9093 4.76262 26.2374C5.09081 26.5656 5.53593 26.75 6.00006 26.75H26.0001C26.4642 26.75 26.9093 26.5656 27.2375 26.2374C27.5657 25.9093 27.7501 25.4641 27.7501 25V22C27.7501 21.5359 27.5657 21.0908 27.2375 20.7626C26.9093 20.4344 26.4642 20.25 26.0001 20.25ZM26.2501 25C26.2501 25.0663 26.2237 25.1299 26.1768 25.1768C26.13 25.2237 26.0664 25.25 26.0001 25.25H6.00006C5.93376 25.25 5.87017 25.2237 5.82328 25.1768C5.7764 25.1299 5.75006 25.0663 5.75006 25V22C5.75006 21.9337 5.7764 21.8701 5.82328 21.8232C5.87017 21.7763 5.93376 21.75 6.00006 21.75H26.0001C26.0664 21.75 26.13 21.7763 26.1768 21.8232C26.2237 21.8701 26.2501 21.9337 26.2501 22V25ZM6.03006 17.75H25.9701C26.3177 17.7519 26.6583 17.6517 26.9494 17.4617C27.2405 17.2716 27.4694 17.0003 27.6076 16.6813C27.7431 16.3713 27.7832 16.0279 27.7226 15.695C27.6621 15.3621 27.5036 15.0549 27.2676 14.8125L18.0513 5.12501C17.7858 4.84878 17.4673 4.62902 17.1148 4.4789C16.7623 4.32878 16.3832 4.2514 16.0001 4.2514C15.6169 4.2514 15.2378 4.32878 14.8853 4.4789C14.5328 4.62902 14.2143 4.84878 13.9488 5.12501L4.73256 14.8125C4.49649 15.0549 4.33804 15.3621 4.27748 15.695C4.21691 16.0279 4.25698 16.3713 4.39256 16.6813C4.53073 17.0003 4.75961 17.2716 5.05074 17.4617C5.34187 17.6517 5.68242 17.7519 6.03006 17.75ZM5.81881 15.8463L15.0351 6.15751C15.1605 6.02854 15.3105 5.92603 15.4763 5.85603C15.642 5.78603 15.8201 5.74996 16.0001 5.74996C16.18 5.74996 16.3581 5.78603 16.5238 5.85603C16.6896 5.92603 16.8396 6.02854 16.9651 6.15751L26.1813 15.8463C26.2157 15.8769 26.239 15.918 26.2476 15.9632C26.2561 16.0084 26.2496 16.0552 26.2288 16.0963C26.2073 16.1462 26.1709 16.1882 26.1246 16.2166C26.0783 16.245 26.0243 16.2584 25.9701 16.255H6.03006C5.97583 16.2584 5.92187 16.245 5.87556 16.2166C5.82924 16.1882 5.79284 16.1462 5.77131 16.0963C5.75056 16.0552 5.74397 16.0084 5.75256 15.9632C5.76115 15.918 5.78444 15.8769 5.81881 15.8463Z" fill="#112D1F"/>
</svg>
