<svg width="32" height="32" viewBox="0 0 32 32" fill="none" xmlns="http://www.w3.org/2000/svg">
<path d="M28.7498 26C28.7498 26.1989 28.6708 26.3897 28.5301 26.5303C28.3895 26.671 28.1987 26.75 27.9998 26.75H3.99979C3.80087 26.75 3.61011 26.671 3.46946 26.5303C3.3288 26.3897 3.24979 26.1989 3.24979 26C3.24979 25.8011 3.3288 25.6103 3.46946 25.4697C3.61011 25.329 3.80087 25.25 3.99979 25.25H27.9998C28.1987 25.25 28.3895 25.329 28.5301 25.4697C28.6708 25.6103 28.7498 25.8011 28.7498 26ZM3.42354 19.75C3.27729 19.449 3.2204 19.1124 3.25962 18.7801C3.29883 18.4478 3.4325 18.1337 3.64479 17.875L13.8523 5.275C14.1113 4.95496 14.4385 4.69685 14.81 4.51954C15.1816 4.34223 15.5881 4.25021 15.9998 4.25021C16.4115 4.25021 16.818 4.34223 17.1895 4.51954C17.5611 4.69685 17.8883 4.95496 18.1473 5.275L28.3548 17.875C28.5656 18.1333 28.6988 18.4461 28.7389 18.7771C28.779 19.108 28.7243 19.4436 28.5812 19.7447C28.4381 20.0458 28.2124 20.3002 27.9305 20.4781C27.6486 20.6561 27.3219 20.7504 26.9885 20.75H5.01104C4.67879 20.7512 4.35307 20.6578 4.07195 20.4807C3.79083 20.3036 3.56592 20.0502 3.42354 19.75ZM4.77729 19.105C4.7978 19.1494 4.83088 19.1868 4.87243 19.2125C4.91397 19.2383 4.96216 19.2513 5.01104 19.25H26.9885C27.0377 19.2511 27.0861 19.2377 27.1276 19.2115C27.1692 19.1853 27.2021 19.1473 27.2223 19.1025C27.2455 19.0579 27.2547 19.0072 27.2487 18.9573C27.2426 18.9073 27.2217 18.8604 27.1885 18.8225L16.9823 6.22C16.8639 6.07336 16.7143 5.95506 16.5443 5.87379C16.3743 5.79252 16.1882 5.75034 15.9998 5.75034C15.8113 5.75034 15.6253 5.79252 15.4553 5.87379C15.2853 5.95506 15.1356 6.07336 15.0173 6.22L4.81104 18.8225C4.77789 18.8604 4.75693 18.9073 4.75091 18.9573C4.74489 19.0072 4.75408 19.0579 4.77729 19.1025V19.105Z" fill="#112D1F"/>
</svg>
