<svg width="32" height="32" viewBox="0 0 32 32" fill="none" xmlns="http://www.w3.org/2000/svg">
<path d="M27.9463 10.2262L22.7738 5.05375C22.5184 4.79825 22.2152 4.59557 21.8815 4.45729C21.5478 4.31901 21.1901 4.24783 20.8288 4.24783C20.4676 4.24783 20.1099 4.31901 19.7761 4.45729C19.4424 4.59557 19.1392 4.79825 18.8838 5.05375L4.05382 19.8837C3.5382 20.3995 3.24854 21.0989 3.24854 21.8281C3.24854 22.5574 3.5382 23.2568 4.05382 23.7725L7.81257 27.53C7.95309 27.6707 8.14373 27.7498 8.34257 27.75H27.0001C27.199 27.75 27.3898 27.671 27.5304 27.5303C27.6711 27.3897 27.7501 27.1989 27.7501 27C27.7501 26.8011 27.6711 26.6103 27.5304 26.4697C27.3898 26.329 27.199 26.25 27.0001 26.25H15.8113L27.9463 14.115C28.4619 13.5993 28.7516 12.8999 28.7516 12.1706C28.7516 11.4414 28.4619 10.742 27.9463 10.2262ZM13.6888 26.25H8.65257L5.11507 22.7125C4.99885 22.5964 4.90665 22.4585 4.84375 22.3068C4.78084 22.1551 4.74846 21.9924 4.74846 21.8281C4.74846 21.6639 4.78084 21.5012 4.84375 21.3494C4.90665 21.1977 4.99885 21.0598 5.11507 20.9437L12.0001 14.06L18.9401 21L13.6888 26.25ZM26.8851 13.055L20.0001 19.9387L13.0601 13L19.9451 6.11625C20.1795 5.88191 20.4974 5.75026 20.8288 5.75026C21.1603 5.75026 21.4782 5.88191 21.7126 6.11625L26.8851 11.2875C27.1194 11.5219 27.2511 11.8398 27.2511 12.1712C27.2511 12.5027 27.1194 12.8206 26.8851 13.055Z" fill="#112D1F"/>
</svg>
