<svg width="32" height="32" viewBox="0 0 32 32" fill="none" xmlns="http://www.w3.org/2000/svg">
<path d="M21.6137 10.3862C21.3177 8.62019 20.5411 6.96976 19.369 5.61598C18.1969 4.26219 16.6746 3.25734 14.9691 2.71163C13.2636 2.16593 11.4407 2.10046 9.70044 2.52239C7.96017 2.94432 6.36972 3.83737 5.10351 5.10357C3.83731 6.36978 2.94426 7.96024 2.52233 9.7005C2.10039 11.4408 2.16587 13.2636 2.71157 14.9691C3.25728 16.6746 4.26213 18.1969 5.61591 19.369C6.9697 20.5411 8.62013 21.3178 10.3862 21.6137C10.6822 23.3798 11.4588 25.0302 12.6309 26.384C13.803 27.7378 15.3253 28.7427 17.0308 29.2884C18.7363 29.8341 20.5592 29.8995 22.2994 29.4776C24.0397 29.0557 25.6302 28.1626 26.8964 26.8964C28.1626 25.6302 29.0556 24.0398 29.4775 22.2995C29.8995 20.5592 29.834 18.7364 29.2883 17.0309C28.7426 15.3254 27.7377 13.8031 26.384 12.631C25.0302 11.4589 23.3797 10.6822 21.6137 10.3862ZM28.2499 20C28.2495 20.3722 28.2236 20.7439 28.1724 21.1125L21.4524 14.3912C21.6503 13.6096 21.7502 12.8063 21.7499 12C21.7499 11.9787 21.7499 11.9587 21.7499 11.9387C23.5899 12.3405 25.2374 13.3587 26.4195 14.8248C27.6016 16.2908 28.2474 18.1167 28.2499 20ZM5.66369 6.72375L12.6012 13.6612C11.989 14.3762 11.4837 15.1762 11.1012 16.0362L4.24994 9.185C4.57546 8.28907 5.05378 7.45633 5.66369 6.72375ZM9.18494 4.25L16.0349 11.1012C15.1749 11.4838 14.3749 11.989 13.6599 12.6012L6.72243 5.66375C7.45539 5.05372 8.28856 4.57539 9.18494 4.25ZM11.7499 20C11.7526 17.8128 12.6226 15.7159 14.1692 14.1693C15.7158 12.6227 17.8127 11.7526 19.9999 11.75C20.0812 11.75 20.1624 11.75 20.2437 11.75C20.2437 11.8312 20.2499 11.9125 20.2499 12C20.2473 14.1872 19.3772 16.2841 17.8306 17.8307C16.284 19.3773 14.1872 20.2474 11.9999 20.25C11.9187 20.25 11.8374 20.25 11.7499 20.2437C11.7499 20.1625 11.7499 20.0812 11.7499 20ZM18.3387 19.3987L25.2762 26.3362C24.5436 26.9461 23.7109 27.4245 22.8149 27.75L15.9649 20.8987C16.8245 20.5161 17.6241 20.0109 18.3387 19.3987ZM19.3987 18.3387C20.0109 17.6238 20.5162 16.8238 20.8987 15.9637L27.7499 22.815C27.4229 23.7113 26.9429 24.544 26.3312 25.2762L19.3987 18.3387ZM20.0612 10.2512H19.9999C19.1936 10.2509 18.3904 10.3509 17.6087 10.5487L10.8874 3.8275C11.2561 3.77634 11.6278 3.75044 11.9999 3.75C13.8832 3.75252 15.7091 4.39834 17.1752 5.58046C18.6412 6.76258 19.6595 8.41006 20.0612 10.25V10.2512ZM3.74994 12C3.75038 11.6278 3.77627 11.2561 3.82744 10.8875L10.5474 17.6087C10.3496 18.3904 10.2496 19.1937 10.2499 20C10.2499 20.0212 10.2499 20.0412 10.2499 20.0612C8.41 19.6595 6.76252 18.6413 5.5804 17.1752C4.39828 15.7092 3.75246 13.8833 3.74994 12ZM11.9387 21.75H11.9999C12.8063 21.7503 13.6095 21.6504 14.3912 21.4525L21.1124 28.1725C20.7438 28.2237 20.3721 28.2496 19.9999 28.25C18.1167 28.2475 16.2908 27.6017 14.8247 26.4195C13.3586 25.2374 12.3404 23.5899 11.9387 21.75Z" fill="#112D1F"/>
</svg>
