<svg width="32" height="32" viewBox="0 0 32 32" fill="none" xmlns="http://www.w3.org/2000/svg">
<path d="M26.75 14V26C26.75 26.4641 26.5656 26.9093 26.2374 27.2374C25.9092 27.5656 25.4641 27.75 25 27.75H7C6.53587 27.75 6.09075 27.5656 5.76256 27.2374C5.43437 26.9093 5.25 26.4641 5.25 26V14C5.25 13.5359 5.43437 13.0908 5.76256 12.7626C6.09075 12.4344 6.53587 12.25 7 12.25H10C10.1989 12.25 10.3897 12.329 10.5303 12.4697C10.671 12.6103 10.75 12.8011 10.75 13C10.75 13.1989 10.671 13.3897 10.5303 13.5303C10.3897 13.671 10.1989 13.75 10 13.75H7C6.9337 13.75 6.87011 13.7764 6.82322 13.8232C6.77634 13.8701 6.75 13.9337 6.75 14V26C6.75 26.0663 6.77634 26.1299 6.82322 26.1768C6.87011 26.2237 6.9337 26.25 7 26.25H25C25.0663 26.25 25.1299 26.2237 25.1768 26.1768C25.2237 26.1299 25.25 26.0663 25.25 26V14C25.25 13.9337 25.2237 13.8701 25.1768 13.8232C25.1299 13.7764 25.0663 13.75 25 13.75H22C21.8011 13.75 21.6103 13.671 21.4697 13.5303C21.329 13.3897 21.25 13.1989 21.25 13C21.25 12.8011 21.329 12.6103 21.4697 12.4697C21.6103 12.329 21.8011 12.25 22 12.25H25C25.4641 12.25 25.9092 12.4344 26.2374 12.7626C26.5656 13.0908 26.75 13.5359 26.75 14ZM11.53 8.53001L15.25 4.81126V17C15.25 17.1989 15.329 17.3897 15.4697 17.5303C15.6103 17.671 15.8011 17.75 16 17.75C16.1989 17.75 16.3897 17.671 16.5303 17.5303C16.671 17.3897 16.75 17.1989 16.75 17V4.81126L20.47 8.53001C20.5387 8.6037 20.6215 8.6628 20.7135 8.70379C20.8055 8.74478 20.9048 8.76683 21.0055 8.7686C21.1062 8.77038 21.2062 8.75186 21.2996 8.71413C21.393 8.67641 21.4778 8.62027 21.549 8.54905C21.6203 8.47783 21.6764 8.393 21.7141 8.29961C21.7518 8.20622 21.7704 8.10619 21.7686 8.00549C21.7668 7.90479 21.7448 7.80547 21.7038 7.71347C21.6628 7.62147 21.6037 7.53867 21.53 7.47001L16.53 2.47001C16.3894 2.32956 16.1988 2.25067 16 2.25067C15.8012 2.25067 15.6106 2.32956 15.47 2.47001L10.47 7.47001C10.3963 7.53867 10.3372 7.62147 10.2962 7.71347C10.2552 7.80547 10.2332 7.90479 10.2314 8.00549C10.2296 8.10619 10.2482 8.20622 10.2859 8.29961C10.3236 8.393 10.3797 8.47783 10.451 8.54905C10.5222 8.62027 10.607 8.67641 10.7004 8.71413C10.7938 8.75186 10.8938 8.77038 10.9945 8.7686C11.0952 8.76683 11.1945 8.74478 11.2865 8.70379C11.3785 8.6628 11.4613 8.6037 11.53 8.53001Z" fill="#112D1F"/>
</svg>
