<svg width="32" height="32" viewBox="0 0 32 32" fill="none" xmlns="http://www.w3.org/2000/svg">
<path d="M27.7502 8.41749C27.7439 7.84873 27.6229 7.28709 27.3944 6.76623C27.1658 6.24537 26.8345 5.776 26.4202 5.38624C24.7652 3.81999 22.0852 3.87499 20.4427 5.52249L17.8527 8.12499L17.774 8.04624C17.2583 7.53062 16.5589 7.24095 15.8296 7.24095C15.1003 7.24095 14.4009 7.53062 13.8852 8.04624L12.7602 9.17124C12.5975 9.33377 12.4684 9.52677 12.3804 9.73922C12.2923 9.95166 12.247 10.1794 12.247 10.4094C12.247 10.6393 12.2923 10.8671 12.3804 11.0795C12.4684 11.292 12.5975 11.485 12.7602 11.6475L13.194 12.0812L6.64273 18.6375C6.05046 19.2259 5.62463 19.9608 5.40857 20.7672C5.19252 21.5737 5.19396 22.423 5.41273 23.2287L4.37398 25.6037C4.25491 25.8739 4.22056 26.1739 4.27546 26.464C4.33036 26.7541 4.47193 27.0207 4.68148 27.2287C4.84246 27.3929 5.03439 27.5234 5.24616 27.6129C5.45793 27.7024 5.68534 27.749 5.91523 27.75C6.15955 27.7504 6.40129 27.7002 6.62523 27.6025L8.87523 26.615C9.66719 26.8081 10.4956 26.7937 11.2803 26.5732C12.0651 26.3527 12.7798 25.9336 13.3552 25.3562L19.9102 18.7987L20.344 19.2337C20.5065 19.3963 20.6994 19.5252 20.9117 19.6131C21.1241 19.7011 21.3517 19.7464 21.5815 19.7464C21.8113 19.7464 22.0389 19.7011 22.2512 19.6131C22.4636 19.5252 22.6565 19.3963 22.819 19.2337L23.944 18.1087C24.4585 17.592 24.7474 16.8924 24.7474 16.1631C24.7474 15.4338 24.4585 14.7343 23.944 14.2175L23.8615 14.1362L26.5002 11.4812C26.9043 11.0811 27.2232 10.6035 27.438 10.077C27.6528 9.5505 27.759 8.98604 27.7502 8.41749ZM12.299 24.2925C11.8817 24.7096 11.3587 25.0053 10.7862 25.1477C10.2136 25.2902 9.61309 25.2741 9.04898 25.1012C8.87725 25.0485 8.69228 25.0591 8.52773 25.1312L6.02773 26.225C5.98491 26.2436 5.93775 26.2498 5.89157 26.2429C5.8454 26.2361 5.80207 26.2164 5.76648 26.1862L6.90648 23.5737C6.98164 23.4035 6.99012 23.2112 6.93023 23.035C6.67504 22.2901 6.69993 21.4778 7.00023 20.75H15.8477L12.299 24.2925ZM17.3477 19.25H8.15523L14.259 13.145L18.854 17.7425L17.3477 19.25ZM25.444 10.4262L22.2715 13.6125C22.1314 13.7531 22.0528 13.9434 22.0528 14.1419C22.0528 14.3403 22.1314 14.5307 22.2715 14.6712L22.8815 15.2825C22.9977 15.3986 23.0899 15.5364 23.1528 15.6882C23.2157 15.8399 23.2481 16.0026 23.2481 16.1669C23.2481 16.3311 23.2157 16.4938 23.1528 16.6455C23.0899 16.7973 22.9977 16.9351 22.8815 17.0512L21.7565 18.1762C21.7096 18.2228 21.6463 18.2489 21.5802 18.2489C21.5142 18.2489 21.4508 18.2228 21.404 18.1762L13.8177 10.5887C13.7945 10.5655 13.7761 10.5379 13.7635 10.5076C13.7509 10.4772 13.7444 10.4447 13.7444 10.4119C13.7444 10.379 13.7509 10.3465 13.7635 10.3161C13.7761 10.2858 13.7945 10.2582 13.8177 10.235L14.9427 9.10999C15.1771 8.87565 15.495 8.744 15.8265 8.744C16.1579 8.744 16.4758 8.87565 16.7102 9.10999L17.3215 9.72124C17.4622 9.86147 17.6528 9.94014 17.8515 9.93999C17.9502 9.9399 18.048 9.92031 18.1392 9.88234C18.2303 9.84437 18.3131 9.78878 18.3827 9.71874L21.5002 6.58249C22.5715 5.50999 24.314 5.45749 25.384 6.47624C25.6516 6.72886 25.8658 7.03264 26.0139 7.36957C26.162 7.7065 26.2409 8.06973 26.2461 8.43773C26.2512 8.80573 26.1824 9.17102 26.0438 9.51194C25.9051 9.85287 25.6995 10.1625 25.439 10.4225L25.444 10.4262Z" fill="#112D1F"/>
</svg>
