<svg width="32" height="32" viewBox="0 0 32 32" fill="none" xmlns="http://www.w3.org/2000/svg">
<path d="M6.55482 4.50001C6.41752 4.37257 6.23749 4.30113 6.05016 4.29973C5.86284 4.29834 5.68177 4.3671 5.54259 4.49249C5.40341 4.61788 5.31619 4.79081 5.2981 4.97727C5.28 5.16373 5.33234 5.3502 5.44482 5.50001L8.05482 8.37501C3.39482 11.1125 1.40107 15.5 1.31482 15.6963C1.27208 15.7923 1.25 15.8962 1.25 16.0013C1.25 16.1063 1.27208 16.2103 1.31482 16.3063C1.35732 16.4025 2.39732 18.7088 4.71982 21.0313C6.87482 23.1838 10.5773 25.75 15.9998 25.75C18.2663 25.7638 20.5087 25.2839 22.5711 24.3438L25.4461 27.505C25.58 27.6522 25.7669 27.7402 25.9657 27.7495C26.1645 27.7589 26.3589 27.6889 26.5061 27.555C26.6533 27.4211 26.7412 27.2342 26.7506 27.0354C26.76 26.8366 26.69 26.6422 26.5561 26.495L6.55482 4.50001ZM12.6323 13.415L18.2573 19.605C17.4128 20.1327 16.4098 20.3471 15.4233 20.2108C14.4369 20.0744 13.5296 19.596 12.8599 18.859C12.1901 18.122 11.8005 17.1732 11.7589 16.1783C11.7173 15.1833 12.0264 14.2053 12.6323 13.415ZM15.9998 24.25C12.0773 24.25 8.65232 22.8225 5.81857 20.0088C4.63038 18.8284 3.62513 17.4773 2.83607 16C3.37232 14.975 5.34857 11.6025 9.08607 9.51126L11.6111 12.2875C10.7121 13.3528 10.2307 14.7083 10.2564 16.102C10.2821 17.4957 10.8132 18.8326 11.7509 19.8639C12.6886 20.8953 13.969 21.5509 15.3539 21.7089C16.7389 21.8668 18.134 21.5163 19.2798 20.7225L21.5061 23.1725C19.7607 23.8947 17.8887 24.2611 15.9998 24.25ZM16.7998 11.825C16.6044 11.7877 16.4318 11.6743 16.32 11.5097C16.2081 11.3452 16.1663 11.1429 16.2036 10.9475C16.2409 10.7521 16.3543 10.5795 16.5188 10.4677C16.6834 10.3558 16.8856 10.314 17.0811 10.3513C18.3023 10.5885 19.4143 11.2141 20.2511 12.1347C21.0879 13.0553 21.6048 14.2217 21.7248 15.46C21.7339 15.5581 21.7236 15.657 21.6945 15.7511C21.6654 15.8452 21.6181 15.9327 21.5551 16.0085C21.4922 16.0843 21.415 16.1469 21.3279 16.1929C21.2407 16.2388 21.1454 16.2672 21.0473 16.2763H20.9773C20.7898 16.2771 20.6087 16.2075 20.4699 16.0814C20.3311 15.9553 20.2445 15.7818 20.2273 15.595C20.1382 14.6813 19.7564 13.8208 19.1389 13.1415C18.5213 12.4623 17.7009 12.0005 16.7998 11.825ZM30.6848 16.3063C30.6336 16.4213 29.3886 19.1813 26.5773 21.6963C26.5044 21.7646 26.4185 21.8177 26.3248 21.8524C26.2311 21.8871 26.1314 21.9027 26.0315 21.8983C25.9317 21.8939 25.8337 21.8696 25.7434 21.8268C25.6531 21.7841 25.5722 21.7236 25.5055 21.6492C25.4389 21.5747 25.3878 21.4876 25.3553 21.3931C25.3227 21.2986 25.3094 21.1986 25.3161 21.0989C25.3228 20.9991 25.3494 20.9018 25.3942 20.8124C25.4391 20.7231 25.5013 20.6437 25.5773 20.5788C27.0305 19.2732 28.2441 17.7236 29.1636 16C28.3743 14.5228 27.3691 13.1717 26.1811 11.9913C23.3473 9.17751 19.9223 7.75001 15.9998 7.75001C15.1753 7.74903 14.3521 7.81592 13.5386 7.95001C13.4406 7.96848 13.34 7.96723 13.2425 7.94634C13.145 7.92546 13.0527 7.88535 12.9709 7.82837C12.8891 7.77139 12.8195 7.69868 12.7662 7.61448C12.7128 7.53029 12.6767 7.4363 12.6601 7.33801C12.6435 7.23973 12.6467 7.13912 12.6694 7.04206C12.6921 6.945 12.7339 6.85345 12.7924 6.77275C12.851 6.69205 12.925 6.62382 13.0102 6.57206C13.0953 6.52029 13.19 6.48602 13.2886 6.47126C14.1846 6.32251 15.0915 6.24851 15.9998 6.25001C21.4223 6.25001 25.1248 8.81751 27.2798 10.97C29.6023 13.2925 30.6423 15.595 30.6848 15.6963C30.7276 15.7923 30.7496 15.8962 30.7496 16.0013C30.7496 16.1063 30.7276 16.2103 30.6848 16.3063Z" fill="#112D1F"/>
</svg>
