<svg width="32" height="32" viewBox="0 0 32 32" fill="none" xmlns="http://www.w3.org/2000/svg">
<path d="M29.9487 14.5438L18.9263 7.5225C18.6621 7.35495 18.358 7.26124 18.0453 7.25113C17.7327 7.24102 17.4231 7.31487 17.1488 7.465C16.8769 7.61379 16.6501 7.83292 16.4919 8.09945C16.3338 8.36597 16.2503 8.6701 16.25 8.98V14.105L5.92625 7.5225C5.66214 7.35495 5.35796 7.26124 5.04535 7.25113C4.73274 7.24102 4.42313 7.31487 4.14875 7.465C3.8769 7.61379 3.65005 7.83292 3.49194 8.09945C3.33383 8.36597 3.25026 8.6701 3.25 8.98V23.02C3.25026 23.3299 3.33383 23.634 3.49194 23.9006C3.65005 24.1671 3.8769 24.3862 4.14875 24.535C4.42313 24.6851 4.73274 24.759 5.04535 24.7489C5.35796 24.7388 5.66214 24.6451 5.92625 24.4775L16.25 17.9013V23.02C16.2503 23.3299 16.3338 23.634 16.4919 23.9006C16.6501 24.1671 16.8769 24.3862 17.1488 24.535C17.4231 24.6851 17.7327 24.759 18.0453 24.7489C18.358 24.7388 18.6621 24.6451 18.9263 24.4775L29.9487 17.4563C30.1943 17.3008 30.3965 17.0857 30.5366 16.8311C30.6767 16.5765 30.7502 16.2906 30.7502 16C30.7502 15.7094 30.6767 15.4235 30.5366 15.1689C30.3965 14.9143 30.1943 14.6992 29.9487 14.5438ZM16.1437 16.1913L5.125 23.2113C5.08815 23.2356 5.04523 23.2493 5.00107 23.2506C4.9569 23.2519 4.91324 23.2409 4.875 23.2188C4.83724 23.2012 4.80535 23.1731 4.78318 23.1378C4.761 23.1026 4.74948 23.0617 4.75 23.02V8.98C4.74948 8.93836 4.761 8.89745 4.78318 8.86219C4.80535 8.82693 4.83724 8.79883 4.875 8.78125C4.9131 8.75966 4.95621 8.74845 5 8.74875C5.04463 8.74988 5.08801 8.76376 5.125 8.78875L16.1488 15.8088C16.1813 15.8289 16.2082 15.8571 16.2268 15.8906C16.2454 15.924 16.2552 15.9617 16.2552 16C16.2552 16.0383 16.2454 16.076 16.2268 16.1094C16.2082 16.1429 16.1813 16.1711 16.1488 16.1913H16.1437ZM29.1437 16.1913L18.125 23.2113C18.0882 23.2356 18.0452 23.2493 18.0011 23.2506C17.9569 23.2519 17.9132 23.2409 17.875 23.2188C17.8372 23.2012 17.8054 23.1731 17.7832 23.1378C17.761 23.1026 17.7495 23.0617 17.75 23.02V8.98C17.7495 8.93836 17.761 8.89745 17.7832 8.86219C17.8054 8.82693 17.8372 8.79883 17.875 8.78125C17.9131 8.75966 17.9562 8.74845 18 8.74875C18.0446 8.74988 18.088 8.76376 18.125 8.78875L29.1488 15.8088C29.1813 15.8289 29.2082 15.8571 29.2268 15.8906C29.2454 15.924 29.2552 15.9617 29.2552 16C29.2552 16.0383 29.2454 16.076 29.2268 16.1094C29.2082 16.1429 29.1813 16.1711 29.1488 16.1913H29.1437Z" fill="#112D1F"/>
</svg>
