<svg width="32" height="32" viewBox="0 0 32 32" fill="none" xmlns="http://www.w3.org/2000/svg">
<path d="M26.5302 10.4688L19.5302 3.46875C19.3895 3.32852 19.1989 3.24984 19.0002 3.25H7.0002C6.53607 3.25 6.09095 3.43437 5.76276 3.76256C5.43457 4.09075 5.2502 4.53587 5.2502 5V14C5.2502 14.1989 5.32922 14.3897 5.46987 14.5303C5.61052 14.671 5.80129 14.75 6.0002 14.75C6.19911 14.75 6.38988 14.671 6.53053 14.5303C6.67118 14.3897 6.7502 14.1989 6.7502 14V5C6.7502 4.9337 6.77654 4.87011 6.82342 4.82322C6.87031 4.77634 6.93389 4.75 7.0002 4.75H18.2502V11C18.2502 11.1989 18.3292 11.3897 18.4699 11.5303C18.6105 11.671 18.8013 11.75 19.0002 11.75H25.2502V14C25.2502 14.1989 25.3292 14.3897 25.4699 14.5303C25.6105 14.671 25.8013 14.75 26.0002 14.75C26.1991 14.75 26.3899 14.671 26.5305 14.5303C26.6712 14.3897 26.7502 14.1989 26.7502 14V11C26.7503 10.9013 26.7309 10.8036 26.6931 10.7125C26.6554 10.6213 26.6 10.5385 26.5302 10.4688ZM19.7502 5.81L24.1902 10.25H19.7502V5.81ZM10.7289 24.5063C10.6943 24.8528 10.5833 25.1873 10.4039 25.4858C10.2245 25.7843 9.9812 26.0393 9.69145 26.2325C9.08895 26.6313 8.3327 26.75 7.6452 26.75C7.02591 26.7435 6.40987 26.6595 5.81145 26.5C5.61983 26.4465 5.45733 26.319 5.35969 26.1456C5.26205 25.9723 5.23728 25.7672 5.29082 25.5756C5.34436 25.384 5.47183 25.2215 5.64519 25.1239C5.81854 25.0262 6.02358 25.0015 6.2152 25.055C6.67895 25.18 8.1627 25.4438 8.86395 24.9775C8.97396 24.903 9.06512 24.8039 9.13021 24.688C9.1953 24.5721 9.23252 24.4427 9.23895 24.31C9.3102 23.7563 8.97895 23.5275 7.46395 23.09C6.3002 22.7537 4.5427 22.2463 4.7677 20.4725C4.80189 20.1337 4.91007 19.8064 5.08459 19.514C5.25911 19.2215 5.49572 18.971 5.7777 18.78C7.16645 17.8438 9.4252 18.405 9.6777 18.47C9.86039 18.5282 10.0139 18.6541 10.1066 18.822C10.1993 18.9898 10.2242 19.1868 10.1762 19.3724C10.1282 19.558 10.0109 19.7182 9.84843 19.8201C9.68598 19.9219 9.4907 19.9577 9.3027 19.92C8.82895 19.795 7.32145 19.5513 6.62145 20.025C6.51668 20.0961 6.42971 20.1903 6.36727 20.3004C6.30484 20.4106 6.26863 20.5336 6.26145 20.66C6.2102 21.0625 6.52895 21.2575 7.88645 21.6488C9.11645 22.01 10.9814 22.5487 10.7289 24.5063ZM18.7064 19.2563L16.2064 26.2563C16.1544 26.4019 16.0586 26.5279 15.9322 26.6169C15.8057 26.706 15.6549 26.7538 15.5002 26.7538C15.3455 26.7538 15.1947 26.706 15.0682 26.6169C14.9418 26.5279 14.846 26.4019 14.7939 26.2563L12.2939 19.2563C12.2557 19.1623 12.2369 19.0616 12.2387 18.9602C12.2405 18.8588 12.2628 18.7588 12.3044 18.6663C12.3459 18.5738 12.4058 18.4906 12.4804 18.4219C12.555 18.3532 12.6427 18.3003 12.7383 18.2664C12.8339 18.2326 12.9354 18.2185 13.0366 18.225C13.1378 18.2315 13.2367 18.2584 13.3272 18.3042C13.4177 18.35 13.4979 18.4137 13.5631 18.4914C13.6283 18.5691 13.6771 18.6592 13.7064 18.7563L15.5002 23.7687L17.2939 18.75C17.3667 18.5714 17.5054 18.4276 17.6814 18.3486C17.8574 18.2696 18.057 18.2614 18.2389 18.3258C18.4207 18.3902 18.5707 18.5221 18.6578 18.6942C18.7449 18.8663 18.7623 19.0654 18.7064 19.25V19.2563ZM26.7502 23V25.1087C26.7501 25.3021 26.6753 25.488 26.5414 25.6275C26.2166 25.9778 25.8237 26.2581 25.3867 26.4511C24.9497 26.6441 24.4779 26.7458 24.0002 26.75C21.9327 26.75 20.2502 24.8438 20.2502 22.5C20.2502 20.1562 21.9327 18.25 24.0002 18.25C24.6854 18.2524 25.3542 18.4601 25.9202 18.8463C26.086 18.9576 26.2007 19.1303 26.2391 19.3263C26.2776 19.5223 26.2366 19.7255 26.1252 19.8913C26.0138 20.057 25.8411 20.1717 25.6452 20.2102C25.4492 20.2486 25.246 20.2076 25.0802 20.0963C24.7637 19.8739 24.387 19.7532 24.0002 19.75C22.7602 19.75 21.7502 20.9837 21.7502 22.5C21.7502 24.0163 22.7602 25.25 24.0002 25.25C24.4587 25.245 24.9009 25.0796 25.2502 24.7825V23.75H25.0002C24.8013 23.75 24.6105 23.671 24.4699 23.5303C24.3292 23.3897 24.2502 23.1989 24.2502 23C24.2502 22.8011 24.3292 22.6103 24.4699 22.4697C24.6105 22.329 24.8013 22.25 25.0002 22.25H26.0002C26.1991 22.25 26.3899 22.329 26.5305 22.4697C26.6712 22.6103 26.7502 22.8011 26.7502 23Z" fill="#112D1F"/>
</svg>
