<svg width="32" height="32" viewBox="0 0 32 32" fill="none" xmlns="http://www.w3.org/2000/svg">
<path d="M6.0002 14.75C6.19911 14.75 6.38988 14.671 6.53053 14.5303C6.67118 14.3897 6.7502 14.1989 6.7502 14V5C6.7502 4.9337 6.77654 4.87011 6.82342 4.82322C6.8703 4.77634 6.93389 4.75 7.0002 4.75H18.2502V11C18.2502 11.1989 18.3292 11.3897 18.4699 11.5303C18.6105 11.671 18.8013 11.75 19.0002 11.75H25.2502V14C25.2502 14.1989 25.3292 14.3897 25.4699 14.5303C25.6105 14.671 25.8013 14.75 26.0002 14.75C26.1991 14.75 26.3899 14.671 26.5305 14.5303C26.6712 14.3897 26.7502 14.1989 26.7502 14V11C26.7503 10.9013 26.7309 10.8036 26.6931 10.7125C26.6554 10.6213 26.6 10.5385 26.5302 10.4688L19.5302 3.46875C19.3895 3.32852 19.1989 3.24984 19.0002 3.25H7.0002C6.53607 3.25 6.09095 3.43437 5.76276 3.76256C5.43457 4.09075 5.2502 4.53587 5.2502 5V14C5.2502 14.1989 5.32922 14.3897 5.46987 14.5303C5.61052 14.671 5.80129 14.75 6.0002 14.75ZM19.7502 5.81L24.1902 10.25H19.7502V5.81ZM28.2502 26C28.2502 26.1989 28.1712 26.3897 28.0305 26.5303C27.8899 26.671 27.6991 26.75 27.5002 26.75H24.0002C23.8013 26.75 23.6105 26.671 23.4699 26.5303C23.3292 26.3897 23.2502 26.1989 23.2502 26V19C23.2502 18.8011 23.3292 18.6103 23.4699 18.4697C23.6105 18.329 23.8013 18.25 24.0002 18.25C24.1991 18.25 24.3899 18.329 24.5305 18.4697C24.6712 18.6103 24.7502 18.8011 24.7502 19V25.25H27.5002C27.6991 25.25 27.8899 25.329 28.0305 25.4697C28.1712 25.6103 28.2502 25.8011 28.2502 26ZM11.2289 24.5C11.1945 24.8467 11.0836 25.1815 10.9042 25.4803C10.7248 25.779 10.4814 26.0342 10.1914 26.2275C9.58895 26.6313 8.8327 26.75 8.1452 26.75C7.52586 26.7442 6.90974 26.6602 6.31145 26.5C6.11983 26.4465 5.95733 26.319 5.85969 26.1456C5.76205 25.9723 5.73728 25.7672 5.79082 25.5756C5.84436 25.384 5.97183 25.2215 6.14519 25.1239C6.31854 25.0262 6.52358 25.0015 6.7152 25.055C7.17895 25.18 8.6627 25.4438 9.36395 24.9775C9.47396 24.903 9.56512 24.8039 9.63021 24.688C9.6953 24.5721 9.73252 24.4427 9.73895 24.31C9.8102 23.7563 9.47895 23.5275 7.96395 23.09C6.8002 22.7537 5.0427 22.2463 5.2677 20.4725C5.30189 20.1337 5.41007 19.8064 5.58459 19.514C5.75911 19.2215 5.99572 18.971 6.2777 18.78C7.66645 17.8438 9.9252 18.405 10.1777 18.47C10.2749 18.4933 10.3665 18.5357 10.447 18.5949C10.5276 18.654 10.5955 18.7287 10.6468 18.8144C10.6981 18.9002 10.7318 18.9954 10.7458 19.0943C10.7598 19.1933 10.7538 19.2941 10.7283 19.3907C10.7029 19.4873 10.6583 19.5779 10.5973 19.6571C10.5363 19.7363 10.4601 19.8025 10.3732 19.8518C10.2862 19.9011 10.1903 19.9325 10.0911 19.9442C9.99182 19.956 9.89122 19.9477 9.7952 19.92C9.32145 19.795 7.81395 19.5513 7.1152 20.025C7.01043 20.0961 6.92346 20.1903 6.86102 20.3004C6.79859 20.4106 6.76238 20.5336 6.7552 20.66C6.70395 21.0625 7.0227 21.2575 8.3802 21.6488C9.61645 22.01 11.4814 22.5487 11.2289 24.5ZM17.0002 18.25C14.9327 18.25 13.2502 20.1562 13.2502 22.5C13.2502 24.8438 14.9314 26.75 17.0002 26.75C17.7274 26.7469 18.4347 26.5117 19.0189 26.0788L19.4702 26.53C19.5396 26.6006 19.6223 26.6568 19.7135 26.6953C19.8047 26.7338 19.9026 26.7538 20.0016 26.7543C20.1006 26.7548 20.1988 26.7356 20.2903 26.698C20.3819 26.6603 20.4651 26.6049 20.5351 26.535C20.6052 26.465 20.6607 26.3818 20.6984 26.2903C20.7362 26.1988 20.7555 26.1007 20.7551 26.0017C20.7548 25.9027 20.7348 25.8047 20.6964 25.7135C20.6581 25.6222 20.602 25.5395 20.5314 25.47L20.0427 24.9813C20.5095 24.2382 20.7549 23.3775 20.7502 22.5C20.7502 20.155 19.0689 18.25 17.0002 18.25ZM17.0002 25.25C15.7602 25.25 14.7502 24.0163 14.7502 22.5C14.7502 20.9837 15.7589 19.75 17.0002 19.75C18.2414 19.75 19.2502 20.9837 19.2502 22.5C19.2527 22.9779 19.1481 23.4503 18.9439 23.8825L18.5314 23.47C18.3905 23.3312 18.2004 23.2536 18.0025 23.2543C17.8047 23.255 17.6151 23.3338 17.4751 23.4737C17.3351 23.6135 17.2561 23.803 17.2551 24.0008C17.2542 24.1987 17.3315 24.3889 17.4702 24.53L17.9389 24.9988C17.6528 25.1618 17.3295 25.2484 17.0002 25.25Z" fill="#112D1F"/>
</svg>
