<svg width="32" height="32" viewBox="0 0 32 32" fill="none" xmlns="http://www.w3.org/2000/svg">
<path d="M27 13.25H10.835L26.1912 9.19624C26.287 9.171 26.3768 9.12706 26.4555 9.06693C26.5342 9.00681 26.6002 8.9317 26.6497 8.84593C26.6992 8.76017 26.7312 8.66545 26.7439 8.56724C26.7566 8.46903 26.7498 8.36928 26.7237 8.27374L25.7037 4.52374C25.5804 4.08253 25.2882 3.70766 24.8905 3.48027C24.4928 3.25287 24.0215 3.19125 23.5787 3.30874L4.53997 8.33374C4.31838 8.39127 4.1105 8.49244 3.92849 8.63131C3.74647 8.77018 3.59399 8.94396 3.47997 9.14249C3.36647 9.33739 3.29297 9.55297 3.26378 9.77661C3.23459 10.0003 3.25029 10.2275 3.30997 10.445L4.24997 13.9175C4.24997 13.945 4.24997 13.9725 4.24997 14V25C4.24997 25.4641 4.43435 25.9092 4.76254 26.2374C5.09073 26.5656 5.53584 26.75 5.99997 26.75H26C26.4641 26.75 26.9092 26.5656 27.2374 26.2374C27.5656 25.9092 27.75 25.4641 27.75 25V14C27.75 13.8011 27.671 13.6103 27.5303 13.4697C27.3897 13.329 27.1989 13.25 27 13.25ZM15.7187 6.93499L19.8437 9.31874L14.54 10.7187L10.415 8.33499L15.7187 6.93499ZM23.9687 4.75874C24.0284 4.7422 24.0921 4.74935 24.1466 4.7787C24.2011 4.80805 24.2422 4.85733 24.2612 4.91624L25.0825 7.93874L21.9075 8.77499L17.7825 6.39124L23.9687 4.75874ZM4.77872 9.89249C4.79418 9.86566 4.81487 9.84221 4.83957 9.82353C4.86426 9.80485 4.89245 9.79132 4.92247 9.78374L8.35747 8.87499L12.4825 11.26L5.58247 13.085L4.75747 10.0512C4.75011 10.0247 4.74819 9.99697 4.75185 9.96969C4.7555 9.9424 4.76464 9.91614 4.77872 9.89249ZM26.25 25C26.25 25.0663 26.2236 25.1299 26.1768 25.1768C26.1299 25.2236 26.0663 25.25 26 25.25H5.99997C5.93367 25.25 5.87008 25.2236 5.8232 25.1768C5.77631 25.1299 5.74997 25.0663 5.74997 25V14.75H26.25V25Z" fill="#112D1F"/>
</svg>
