<svg width="32" height="32" viewBox="0 0 32 32" fill="none" xmlns="http://www.w3.org/2000/svg">
<path d="M30.25 12.2912L7.25 4.29125C7.13675 4.2512 7.01553 4.23895 6.89656 4.25552C6.77758 4.27209 6.66432 4.31699 6.56632 4.38645C6.46831 4.45592 6.38843 4.5479 6.33338 4.65467C6.27833 4.76144 6.24974 4.87987 6.25 5V27C6.25 27.1989 6.32902 27.3897 6.46967 27.5303C6.61032 27.671 6.80109 27.75 7 27.75C7.19891 27.75 7.38968 27.671 7.53033 27.5303C7.67098 27.3897 7.75 27.1989 7.75 27V21.5337L30.25 13.7087C30.3974 13.6577 30.5252 13.5621 30.6156 13.435C30.7061 13.308 30.7547 13.1559 30.7547 13C30.7547 12.8441 30.7061 12.692 30.6156 12.565C30.5252 12.4379 30.3974 12.3423 30.25 12.2912ZM7.75 19.945V6.055L27.7175 13L7.75 19.945Z" fill="#112D1F"/>
</svg>
