<svg width="32" height="32" viewBox="0 0 32 32" fill="none" xmlns="http://www.w3.org/2000/svg">
<path d="M28.6339 6.6C28.5664 6.49292 28.4729 6.40467 28.3621 6.34347C28.2513 6.28227 28.1268 6.25011 28.0002 6.25H4.00018C3.84973 6.25144 3.70319 6.29809 3.5796 6.3839C3.456 6.46971 3.36108 6.59072 3.30716 6.73118C3.25324 6.87165 3.24281 7.02509 3.27723 7.17156C3.31166 7.31803 3.38934 7.45076 3.50018 7.5525L8.94518 12.5437L3.44893 18.4912C3.35003 18.5984 3.2845 18.732 3.26035 18.8758C3.23621 19.0196 3.2545 19.1673 3.31299 19.3009C3.37148 19.4344 3.46763 19.548 3.58968 19.6278C3.71173 19.7076 3.85438 19.75 4.00018 19.75H21.0977L17.3227 27.6775C17.2803 27.7665 17.2559 27.8629 17.2508 27.9613C17.2458 28.0597 17.2601 28.1582 17.2931 28.251C17.326 28.3439 17.377 28.4293 17.443 28.5025C17.509 28.5757 17.5887 28.6351 17.6777 28.6775C17.7667 28.7199 17.8631 28.7443 17.9615 28.7493C18.0599 28.7544 18.1583 28.7401 18.2512 28.7071C18.3441 28.6741 18.4295 28.6232 18.5027 28.5572C18.5759 28.4912 18.6353 28.4115 18.6777 28.3225L28.6777 7.3225C28.7319 7.20816 28.7564 7.08195 28.7487 6.95562C28.7411 6.82929 28.7016 6.70696 28.6339 6.6ZM21.8127 18.25H5.71268L10.5514 13.0087C10.6183 12.9362 10.6702 12.8511 10.7041 12.7585C10.738 12.6658 10.7534 12.5674 10.7492 12.4688C10.745 12.3702 10.7214 12.2734 10.6798 12.184C10.6381 12.0945 10.5792 12.0141 10.5064 11.9475L5.92893 7.75H26.8127L21.8127 18.25Z" fill="#112D1F"/>
</svg>
