<svg width="32" height="32" viewBox="0 0 32 32" fill="none" xmlns="http://www.w3.org/2000/svg">
<path d="M30.5298 9.47L26.5298 5.47C26.3876 5.33752 26.1996 5.2654 26.0053 5.26882C25.811 5.27225 25.6256 5.35096 25.4882 5.48838C25.3508 5.62579 25.2721 5.81118 25.2686 6.00548C25.2652 6.19978 25.3373 6.38782 25.4698 6.53L28.1886 9.25H23.9998C22.8107 9.29292 21.6419 9.5712 20.5611 10.0687C18.9136 10.8287 16.8311 12.4537 16.2598 15.8762C15.5298 20.2512 12.1348 21.0725 10.6848 21.22C10.4883 20.0416 9.85501 18.9805 8.91111 18.2483C7.9672 17.516 6.78201 17.1663 5.59176 17.2688C4.40152 17.3714 3.29362 17.9186 2.48888 18.8016C1.68414 19.6845 1.24165 20.8383 1.24962 22.0329C1.25758 23.2276 1.71541 24.3753 2.53185 25.2475C3.34829 26.1196 4.46339 26.6521 5.6549 26.7388C6.84641 26.8254 8.02682 26.4599 8.96088 25.7151C9.89495 24.9703 10.5141 23.9009 10.6948 22.72C11.6332 22.6367 12.5518 22.4015 13.4148 22.0238C15.0611 21.2913 17.1473 19.6737 17.7398 16.1225C18.6148 10.84 23.7823 10.7475 23.9998 10.7475H28.1886L25.4698 13.4675C25.3961 13.5362 25.337 13.619 25.296 13.711C25.255 13.803 25.233 13.9023 25.2312 14.003C25.2295 14.1037 25.248 14.2037 25.2857 14.2971C25.3234 14.3905 25.3796 14.4753 25.4508 14.5465C25.522 14.6178 25.6068 14.6739 25.7002 14.7116C25.7936 14.7493 25.8936 14.7679 25.9943 14.7661C26.095 14.7643 26.1944 14.7423 26.2864 14.7013C26.3784 14.6603 26.4612 14.6012 26.5298 14.5275L30.5298 10.5275C30.6695 10.387 30.7479 10.1969 30.7479 9.99875C30.7479 9.80061 30.6695 9.61052 30.5298 9.47ZM5.99982 25.25C5.35703 25.25 4.72868 25.0594 4.19422 24.7023C3.65976 24.3452 3.2432 23.8376 2.99721 23.2437C2.75123 22.6499 2.68687 21.9964 2.81227 21.366C2.93767 20.7355 3.2472 20.1564 3.70172 19.7019C4.15624 19.2474 4.73534 18.9378 5.36578 18.8124C5.99622 18.687 6.64968 18.7514 7.24354 18.9974C7.8374 19.2434 8.34498 19.6599 8.7021 20.1944C9.05921 20.7289 9.24982 21.3572 9.24982 22C9.24982 22.862 8.90741 23.6886 8.29792 24.2981C7.68842 24.9076 6.86177 25.25 5.99982 25.25Z" fill="#112D1F"/>
</svg>
