<svg width="32" height="32" viewBox="0 0 32 32" fill="none" xmlns="http://www.w3.org/2000/svg">
<path d="M22.7113 26.7625C22.7447 26.8565 22.7591 26.9561 22.7535 27.0557C22.748 27.1553 22.7226 27.2528 22.6789 27.3424C22.6352 27.4321 22.5741 27.5121 22.4991 27.5779C22.4242 27.6436 22.3368 27.6938 22.2422 27.7254C22.1476 27.7569 22.0477 27.7694 21.9482 27.7618C21.8488 27.7543 21.7518 27.7271 21.663 27.6816C21.5743 27.6362 21.4954 27.5735 21.4312 27.4973C21.3669 27.421 21.3185 27.3327 21.2887 27.2375L20.2887 24.2375C20.2553 24.1435 20.2409 24.0438 20.2465 23.9443C20.252 23.8447 20.2774 23.7472 20.3211 23.6576C20.3648 23.5679 20.4259 23.4879 20.5009 23.4221C20.5758 23.3564 20.6632 23.3062 20.7578 23.2746C20.8524 23.243 20.9523 23.2306 21.0518 23.2381C21.1512 23.2456 21.2482 23.2729 21.337 23.3183C21.4257 23.3638 21.5046 23.4265 21.5688 23.5027C21.6331 23.579 21.6815 23.6673 21.7113 23.7625L22.7113 26.7625ZM16 23.25C15.8011 23.25 15.6103 23.329 15.4697 23.4697C15.329 23.6103 15.25 23.8011 15.25 24V28C15.25 28.1989 15.329 28.3897 15.4697 28.5303C15.6103 28.671 15.8011 28.75 16 28.75C16.1989 28.75 16.3897 28.671 16.5303 28.5303C16.671 28.3897 16.75 28.1989 16.75 28V24C16.75 23.8011 16.671 23.6103 16.5303 23.4697C16.3897 23.329 16.1989 23.25 16 23.25ZM11.2375 23.2887C11.0489 23.2258 10.8429 23.2403 10.665 23.3292C10.4871 23.418 10.3518 23.5739 10.2887 23.7625L9.28875 26.7625C9.25531 26.8565 9.24094 26.9561 9.24649 27.0557C9.25204 27.1553 9.2774 27.2528 9.32108 27.3424C9.36475 27.4321 9.42587 27.5121 9.50086 27.5779C9.57584 27.6436 9.66319 27.6938 9.75779 27.7254C9.85238 27.7569 9.95233 27.7694 10.0518 27.7618C10.1512 27.7543 10.2482 27.7271 10.337 27.6816C10.4257 27.6362 10.5046 27.5735 10.5688 27.4973C10.6331 27.421 10.6815 27.3327 10.7113 27.2375L11.7113 24.2375C11.7742 24.0489 11.7597 23.8429 11.6708 23.665C11.582 23.4871 11.4261 23.3518 11.2375 23.2887ZM30.75 14C30.75 15.9212 29.1325 17.6737 26.195 18.9325C23.4587 20.105 19.8387 20.75 16 20.75C12.1613 20.75 8.54125 20.105 5.805 18.9325C2.8675 17.6737 1.25 15.9212 1.25 14C1.25 11.355 4.3825 9.04374 9.44875 7.92874C10.1424 6.80791 11.1112 5.88304 12.263 5.24202C13.4147 4.60099 14.7113 4.26508 16.0294 4.26621C17.3475 4.26733 18.6435 4.60546 19.7941 5.24846C20.9448 5.89145 21.912 6.81797 22.6038 7.93999C27.6375 9.05999 30.75 11.3662 30.75 14ZM9.75 12.105V12.48C9.74927 12.7611 9.84396 13.0341 10.0186 13.2543C10.1932 13.4746 10.4374 13.6291 10.7113 13.6925C12.4478 14.0754 14.2218 14.2624 16 14.25C17.7776 14.2639 19.5512 14.0786 21.2875 13.6975C21.5613 13.6341 21.8056 13.4796 21.9802 13.2593C22.1548 13.0391 22.2495 12.7661 22.2488 12.485V12C22.2488 10.3424 21.5903 8.75268 20.4182 7.58058C19.2461 6.40847 17.6564 5.74999 15.9987 5.74999H15.915C12.5162 5.79499 9.75 8.64499 9.75 12.105ZM29.25 14C29.25 12.3337 26.9525 10.6737 23.4 9.68499C23.6328 10.4346 23.7508 11.2151 23.75 12V12.49C23.7511 13.1099 23.5413 13.7118 23.1551 14.1967C22.769 14.6817 22.2294 15.0209 21.625 15.1587C19.7781 15.5659 17.8912 15.7642 16 15.75C14.1088 15.7643 12.2219 15.566 10.375 15.1587C9.7706 15.0209 9.23102 14.6817 8.84487 14.1967C8.45872 13.7118 8.24895 13.1099 8.25 12.49V12.1062C8.2501 11.2807 8.38002 10.4602 8.635 9.67499C5.06125 10.6625 2.75 12.3275 2.75 14C2.75 15.265 4.07875 16.56 6.39625 17.5537C8.94875 18.6475 12.36 19.25 16 19.25C19.64 19.25 23.0513 18.6475 25.6038 17.5537C27.9212 16.56 29.25 15.265 29.25 14Z" fill="#112D1F"/>
</svg>
