<svg width="32" height="32" viewBox="0 0 32 32" fill="none" xmlns="http://www.w3.org/2000/svg">
<path d="M28.3865 6.77749C28.2523 5.98717 27.8758 5.25811 27.3089 4.69128C26.7421 4.12444 26.013 3.74788 25.2227 3.61374C21.2227 2.93624 13.6877 2.62499 8.15646 8.15624C2.62521 13.6875 2.93646 21.2225 3.61396 25.2225C3.7481 26.0128 4.12466 26.7419 4.69149 27.3087C5.25833 27.8755 5.98738 28.2521 6.77771 28.3862C8.1818 28.6254 9.60339 28.7471 11.0277 28.75C14.989 28.75 19.9177 27.765 23.839 23.8437C29.3752 18.3125 29.064 10.7775 28.3865 6.77749ZM20.9302 4.73749C22.2848 4.74233 23.6366 4.86066 24.9715 5.09124C25.4555 5.17329 25.902 5.40387 26.2492 5.75102C26.5963 6.09817 26.8269 6.5447 26.909 7.02874C27.2071 8.72856 27.3161 10.4562 27.234 12.18L19.8202 4.76749C20.1815 4.74999 20.5502 4.73749 20.9302 4.73749ZM7.02896 26.9087C6.54492 26.8267 6.09838 26.5961 5.75123 26.249C5.40408 25.9018 5.17351 25.4553 5.09146 24.9712C4.7933 23.2714 4.6843 21.5438 4.76646 19.82L12.1802 27.2337C10.4564 27.3159 8.72878 27.2069 7.02896 26.9087ZM22.779 22.7837C21.289 24.2725 18.499 26.3512 14.0965 27.0337L4.96521 17.8987C5.64896 13.4962 7.72771 10.7062 9.21521 9.21624C10.7027 7.72624 13.5002 5.64999 17.9002 4.96624L27.0352 14.1012C26.3515 18.5 24.2727 21.2937 22.784 22.7837H22.779ZM20.5277 11.4725C20.6682 11.6131 20.747 11.8037 20.747 12.0025C20.747 12.2012 20.6682 12.3919 20.5277 12.5325L18.5602 14.5L19.529 15.4687C19.6026 15.5374 19.6617 15.6202 19.7027 15.7122C19.7437 15.8042 19.7658 15.9035 19.7675 16.0042C19.7693 16.1049 19.7508 16.205 19.7131 16.2983C19.6754 16.3917 19.6192 16.4766 19.548 16.5478C19.4768 16.619 19.3919 16.6751 19.2986 16.7129C19.2052 16.7506 19.1051 16.7691 19.0044 16.7673C18.9037 16.7656 18.8044 16.7435 18.7124 16.7025C18.6204 16.6615 18.5376 16.6024 18.469 16.5287L17.5002 15.5612L15.5615 17.5L16.5302 18.47C16.6039 18.5387 16.663 18.6215 16.704 18.7135C16.745 18.8055 16.767 18.9048 16.7688 19.0055C16.7706 19.1062 16.752 19.2062 16.7143 19.2996C16.6766 19.393 16.6205 19.4778 16.5492 19.549C16.478 19.6202 16.3932 19.6764 16.2998 19.7141C16.2064 19.7518 16.1064 19.7704 16.0057 19.7686C15.905 19.7668 15.8057 19.7448 15.7137 19.7038C15.6217 19.6628 15.5389 19.6037 15.4702 19.53L14.5002 18.56L12.5315 20.5275C12.4628 20.6012 12.38 20.6603 12.288 20.7013C12.196 20.7423 12.0967 20.7643 11.996 20.7661C11.8953 20.7679 11.7952 20.7493 11.7019 20.7116C11.6085 20.6739 11.5236 20.6178 11.4524 20.5465C11.3812 20.4753 11.3251 20.3905 11.2873 20.2971C11.2496 20.2037 11.2311 20.1037 11.2329 20.003C11.2346 19.9023 11.2567 19.803 11.2977 19.711C11.3387 19.619 11.3978 19.5362 11.4715 19.4675L13.4402 17.5L12.4715 16.5312C12.3978 16.4626 12.3387 16.3798 12.2977 16.2878C12.2567 16.1958 12.2346 16.0965 12.2329 15.9958C12.2311 15.8951 12.2496 15.795 12.2873 15.7016C12.3251 15.6083 12.3812 15.5234 12.4524 15.4522C12.5236 15.381 12.6085 15.3248 12.7019 15.2871C12.7952 15.2494 12.8953 15.2309 12.996 15.2327C13.0967 15.2344 13.196 15.2565 13.288 15.2975C13.38 15.3385 13.4628 15.3976 13.5315 15.4712L14.5015 16.44L16.439 14.5025L15.4702 13.5325C15.3965 13.4638 15.3374 13.381 15.2964 13.289C15.2554 13.197 15.2334 13.0977 15.2316 12.997C15.2298 12.8963 15.2484 12.7963 15.2861 12.7029C15.3238 12.6095 15.3799 12.5247 15.4512 12.4535C15.5224 12.3822 15.6072 12.3261 15.7006 12.2884C15.794 12.2506 15.894 12.2321 15.9947 12.2339C16.0954 12.2357 16.1947 12.2577 16.2867 12.2987C16.3787 12.3397 16.4615 12.3988 16.5302 12.4725L17.499 13.4412L19.4677 11.4737C19.6082 11.3331 19.7987 11.254 19.9974 11.2538C20.1962 11.2535 20.3869 11.3322 20.5277 11.4725Z" fill="#112D1F"/>
</svg>
