<svg width="32" height="32" viewBox="0 0 32 32" fill="none" xmlns="http://www.w3.org/2000/svg">
<path d="M22.0001 13.75H19.0001C18.8012 13.75 18.6104 13.671 18.4698 13.5303C18.3291 13.3897 18.2501 13.1989 18.2501 13C18.2501 12.8011 18.3291 12.6103 18.4698 12.4697C18.6104 12.329 18.8012 12.25 19.0001 12.25H22.0001C22.199 12.25 22.3898 12.329 22.5305 12.4697C22.6711 12.6103 22.7501 12.8011 22.7501 13C22.7501 13.1989 22.6711 13.3897 22.5305 13.5303C22.3898 13.671 22.199 13.75 22.0001 13.75ZM13.0001 12.25H11.7501V11C11.7501 10.8011 11.6711 10.6103 11.5305 10.4697C11.3898 10.329 11.199 10.25 11.0001 10.25C10.8012 10.25 10.6105 10.329 10.4698 10.4697C10.3291 10.6103 10.2501 10.8011 10.2501 11V12.25H9.00013C8.80122 12.25 8.61045 12.329 8.4698 12.4697C8.32915 12.6103 8.25013 12.8011 8.25013 13C8.25013 13.1989 8.32915 13.3897 8.4698 13.5303C8.61045 13.671 8.80122 13.75 9.00013 13.75H10.2501V15C10.2501 15.1989 10.3291 15.3897 10.4698 15.5303C10.6105 15.671 10.8012 15.75 11.0001 15.75C11.199 15.75 11.3898 15.671 11.5305 15.5303C11.6711 15.3897 11.7501 15.1989 11.7501 15V13.75H13.0001C13.199 13.75 13.3898 13.671 13.5305 13.5303C13.6711 13.3897 13.7501 13.1989 13.7501 13C13.7501 12.8011 13.6711 12.6103 13.5305 12.4697C13.3898 12.329 13.199 12.25 13.0001 12.25ZM29.9801 24.9375C29.5884 25.497 29.0676 25.9539 28.4618 26.2694C27.856 26.5849 27.1831 26.7498 26.5001 26.75C25.3752 26.7474 24.2969 26.3004 23.5001 25.5063L23.4676 25.4713L18.4226 19.75H13.5776L8.53888 25.47L8.50013 25.5C7.70523 26.2977 6.62624 26.7472 5.50013 26.75C4.8797 26.7496 4.26688 26.6133 3.70473 26.3508C3.14257 26.0883 2.6447 25.7059 2.2461 25.2305C1.84749 24.755 1.55782 24.1981 1.39742 23.5988C1.23702 22.9994 1.20978 22.3722 1.31763 21.7612C1.31763 21.7612 1.31763 21.7537 1.31763 21.7488L3.36263 11.235C3.65686 9.55904 4.53228 8.04038 5.8351 6.94582C7.13792 5.85126 8.78479 5.25082 10.4864 5.25H21.5001C23.1973 5.25216 24.8401 5.84896 26.1429 6.93666C27.4458 8.02437 28.3263 9.53421 28.6314 11.2037C28.6314 11.2125 28.6314 11.2188 28.6314 11.2275L30.6826 21.75C30.6826 21.75 30.6826 21.7588 30.6826 21.7638C30.7812 22.3129 30.7699 22.8762 30.6493 23.421C30.5287 23.9658 30.3013 24.4812 29.9801 24.9375ZM21.5001 18.25C23.0251 18.25 24.4877 17.6442 25.566 16.5659C26.6443 15.4875 27.2501 14.025 27.2501 12.5C27.2501 10.975 26.6443 9.51247 25.566 8.43414C24.4877 7.3558 23.0251 6.75 21.5001 6.75H10.4864C9.13669 6.75103 7.83057 7.22784 6.79766 8.0966C5.76475 8.96536 5.07118 10.1705 4.83888 11.5C4.8383 11.5041 4.8383 11.5084 4.83888 11.5125L2.79138 22.0287C2.69144 22.6027 2.77632 23.1935 3.03379 23.716C3.29127 24.2386 3.70803 24.6659 4.224 24.9363C4.73996 25.2067 5.32847 25.3063 5.90469 25.2207C6.48091 25.1351 7.01505 24.8687 7.43013 24.46L12.6801 18.5037C12.7509 18.4247 12.8376 18.3615 12.9345 18.3184C13.0315 18.2753 13.1365 18.2533 13.2426 18.2537L21.5001 18.25ZM29.2089 22.0287L27.9851 15.735C27.3833 16.9401 26.4579 17.954 25.3126 18.6631C24.1673 19.3722 22.8472 19.7485 21.5001 19.75H20.4214L24.5701 24.46C24.9852 24.8687 25.5194 25.1351 26.0956 25.2207C26.6718 25.3063 27.2603 25.2067 27.7763 24.9363C28.2922 24.6659 28.709 24.2386 28.9665 23.716C29.2239 23.1935 29.3088 22.6027 29.2089 22.0287Z" fill="#112D1F"/>
</svg>
