<svg width="32" height="32" viewBox="0 0 32 32" fill="none" xmlns="http://www.w3.org/2000/svg">
<path d="M25.0001 3.25H15.4139C15.184 3.24958 14.9563 3.29464 14.7439 3.3826C14.5315 3.47056 14.3386 3.59967 14.1764 3.7625L12.7076 5.2325L11.2376 3.7625C11.0751 3.59998 10.8822 3.47106 10.6699 3.38311C10.4575 3.29515 10.23 3.24988 10.0001 3.24988C9.7703 3.24988 9.54272 3.29515 9.33039 3.38311C9.11806 3.47106 8.92513 3.59998 8.76263 3.7625L5.76263 6.7625C5.6001 6.92501 5.47118 7.11794 5.38323 7.33027C5.29527 7.5426 5.25 7.77018 5.25 8C5.25 8.22983 5.29527 8.45741 5.38323 8.66974C5.47118 8.88207 5.6001 9.075 5.76263 9.2375L7.23263 10.7075L5.76263 12.1763C5.59979 12.3385 5.47068 12.5314 5.38272 12.7438C5.29476 12.9562 5.2497 13.1839 5.25013 13.4138V27C5.25013 27.4641 5.4345 27.9093 5.76269 28.2374C6.09088 28.5656 6.536 28.75 7.00013 28.75H25.0001C25.4643 28.75 25.9094 28.5656 26.2376 28.2374C26.5658 27.9093 26.7501 27.4641 26.7501 27V5C26.7501 4.53588 26.5658 4.09076 26.2376 3.76257C25.9094 3.43438 25.4643 3.25 25.0001 3.25ZM6.82388 8.17625C6.77731 8.12941 6.75118 8.06605 6.75118 8C6.75118 7.93396 6.77731 7.87059 6.82388 7.82375L9.82388 4.82375C9.87072 4.77719 9.93408 4.75106 10.0001 4.75106C10.0662 4.75106 10.1295 4.77719 10.1764 4.82375L11.6464 6.2925L8.29263 9.64625L6.82388 8.17625ZM25.2501 27C25.2501 27.0663 25.2238 27.1299 25.1769 27.1768C25.13 27.2237 25.0664 27.25 25.0001 27.25H7.00013C6.93382 27.25 6.87023 27.2237 6.82335 27.1768C6.77647 27.1299 6.75013 27.0663 6.75013 27V13.4138C6.75041 13.3476 6.77693 13.2842 6.82388 13.2375L8.82388 11.2375L13.2376 6.82375L15.2376 4.82375C15.2843 4.77681 15.3477 4.75028 15.4139 4.75H25.0001C25.0664 4.75 25.13 4.77634 25.1769 4.82323C25.2238 4.87011 25.2501 4.9337 25.2501 5V27ZM22.7501 8C22.7501 8.19892 22.6711 8.38968 22.5305 8.53033C22.3898 8.67099 22.199 8.75 22.0001 8.75H17.0001C16.8012 8.75 16.6104 8.67099 16.4698 8.53033C16.3291 8.38968 16.2501 8.19892 16.2501 8C16.2501 7.80109 16.3291 7.61033 16.4698 7.46967C16.6104 7.32902 16.8012 7.25 17.0001 7.25H22.0001C22.199 7.25 22.3898 7.32902 22.5305 7.46967C22.6711 7.61033 22.7501 7.80109 22.7501 8ZM22.4501 15.6L17.2501 19.5L22.4501 23.4C22.5289 23.4591 22.5953 23.5331 22.6455 23.6179C22.6957 23.7026 22.7287 23.7964 22.7426 23.8939C22.7565 23.9914 22.7511 24.0907 22.7267 24.1861C22.7022 24.2815 22.6592 24.3712 22.6001 24.45C22.541 24.5288 22.467 24.5952 22.3822 24.6454C22.2975 24.6955 22.2037 24.7285 22.1062 24.7425C22.0087 24.7564 21.9094 24.751 21.814 24.7265C21.7186 24.7021 21.6289 24.6591 21.5501 24.6L16.0001 20.4375L10.4501 24.6C10.291 24.7194 10.091 24.7706 9.89406 24.7425C9.69715 24.7143 9.51947 24.6091 9.40013 24.45C9.28078 24.2909 9.22953 24.0909 9.25766 23.8939C9.28579 23.697 9.391 23.5194 9.55013 23.4L14.7501 19.5L9.55013 15.6C9.391 15.4807 9.28579 15.303 9.25766 15.1061C9.22953 14.9092 9.28078 14.7091 9.40013 14.55C9.51947 14.3909 9.69715 14.2857 9.89406 14.2575C10.091 14.2294 10.291 14.2807 10.4501 14.4L16.0001 18.5625L21.5501 14.4C21.6289 14.3409 21.7186 14.2979 21.814 14.2735C21.9094 14.249 22.0087 14.2436 22.1062 14.2575C22.2037 14.2715 22.2975 14.3045 22.3822 14.3546C22.467 14.4048 22.541 14.4712 22.6001 14.55C22.6592 14.6288 22.7022 14.7185 22.7267 14.8139C22.7511 14.9093 22.7565 15.0086 22.7426 15.1061C22.7287 15.2036 22.6957 15.2974 22.6455 15.3821C22.5953 15.4669 22.5289 15.5409 22.4501 15.6Z" fill="#112D1F"/>
</svg>
