<svg width="32" height="32" viewBox="0 0 32 32" fill="none" xmlns="http://www.w3.org/2000/svg">
<path d="M25.7062 10.26C24.433 8.98417 22.9199 7.97299 21.254 7.28475C19.5881 6.59651 17.8024 6.24484 16 6.24999H15.9513C8.39625 6.27624 2.25 12.5075 2.25 20.1412V23C2.25 23.4641 2.43437 23.9092 2.76256 24.2374C3.09075 24.5656 3.53587 24.75 4 24.75H28C28.4641 24.75 28.9092 24.5656 29.2374 24.2374C29.5656 23.9092 29.75 23.4641 29.75 23V20C29.7549 18.1895 29.4 16.3962 28.7058 14.7241C28.0116 13.052 26.992 11.5346 25.7062 10.26ZM28.25 23C28.25 23.0663 28.2237 23.1299 28.1768 23.1768C28.1299 23.2237 28.0663 23.25 28 23.25H14.4725L21.6063 13.4412C21.7182 13.2802 21.7627 13.0818 21.7301 12.8884C21.6975 12.695 21.5904 12.522 21.4319 12.4066C21.2733 12.2912 21.0758 12.2425 20.8818 12.2709C20.6877 12.2994 20.5125 12.4027 20.3937 12.5587L12.6175 23.25H4C3.9337 23.25 3.87011 23.2237 3.82322 23.1768C3.77634 23.1299 3.75 23.0663 3.75 23V20.1412C3.75054 19.6764 3.77642 19.212 3.8275 18.75H7C7.19891 18.75 7.38968 18.671 7.53033 18.5303C7.67098 18.3897 7.75 18.1989 7.75 18C7.75 17.8011 7.67098 17.6103 7.53033 17.4697C7.38968 17.329 7.19891 17.25 7 17.25H4.08875C5.325 12.05 9.81625 8.10749 15.25 7.77374V11C15.25 11.1989 15.329 11.3897 15.4697 11.5303C15.6103 11.671 15.8011 11.75 16 11.75C16.1989 11.75 16.3897 11.671 16.5303 11.5303C16.671 11.3897 16.75 11.1989 16.75 11V7.77374C19.3877 7.93565 21.9024 8.94577 23.9192 10.6535C25.936 12.3612 27.3468 14.6751 27.9412 17.25H25C24.8011 17.25 24.6103 17.329 24.4697 17.4697C24.329 17.6103 24.25 17.8011 24.25 18C24.25 18.1989 24.329 18.3897 24.4697 18.5303C24.6103 18.671 24.8011 18.75 25 18.75H28.1875C28.2288 19.1625 28.25 19.58 28.25 20V23Z" fill="#112D1F"/>
</svg>
