<svg width="32" height="32" viewBox="0 0 32 32" fill="none" xmlns="http://www.w3.org/2000/svg">
<path d="M26.0001 14.25C25.1359 14.251 24.2985 14.5499 23.6291 15.0964C22.9596 15.6429 22.4991 16.4035 22.3251 17.25H19.0001C18.1854 17.2481 17.3822 17.0575 16.6535 16.6931C15.9249 16.3288 15.2905 15.8006 14.8001 15.15L11.3201 10.51C12.1659 10.1916 12.8682 9.57841 13.2979 8.78335C13.7275 7.98829 13.8556 7.06481 13.6586 6.18282C13.4615 5.30083 12.9526 4.51968 12.2254 3.98308C11.4982 3.44648 10.6017 3.19054 9.70082 3.26235C8.79994 3.33416 7.9553 3.72889 7.32231 4.3739C6.68931 5.01892 6.31054 5.87084 6.2557 6.7729C6.20085 7.67497 6.47361 8.5665 7.02379 9.28346C7.57397 10.0004 8.36456 10.4946 9.2501 10.675V21.325C8.33957 21.5109 7.53048 22.0282 6.9797 22.7767C6.42892 23.5252 6.17569 24.4515 6.26909 25.3761C6.3625 26.3007 6.79588 27.1577 7.48524 27.781C8.17459 28.4042 9.07079 28.7492 10.0001 28.7492C10.9294 28.7492 11.8256 28.4042 12.515 27.781C13.2043 27.1577 13.6377 26.3007 13.7311 25.3761C13.8245 24.4515 13.5713 23.5252 13.0205 22.7767C12.4697 22.0282 11.6606 21.5109 10.7501 21.325V12.25L13.6001 16.05C14.2306 16.8865 15.0462 17.5655 15.9831 18.034C16.92 18.5024 17.9526 18.7475 19.0001 18.75H22.3251C22.467 19.4452 22.8032 20.0858 23.2947 20.5976C23.7862 21.1093 24.4128 21.4711 25.1016 21.641C25.7905 21.8108 26.5135 21.7817 27.1865 21.5571C27.8595 21.3325 28.455 20.9216 28.9038 20.372C29.3526 19.8225 29.6363 19.1569 29.7219 18.4525C29.8076 17.7482 29.6916 17.034 29.3875 16.3929C29.0835 15.7519 28.6038 15.2102 28.0042 14.8309C27.4045 14.4516 26.7096 14.2501 26.0001 14.25ZM7.7501 7C7.7501 6.55499 7.88206 6.11998 8.1293 5.74996C8.37653 5.37995 8.72793 5.09157 9.13907 4.92127C9.5502 4.75097 10.0026 4.70641 10.4391 4.79323C10.8755 4.88005 11.2764 5.09434 11.5911 5.40901C11.9058 5.72368 12.1201 6.12459 12.2069 6.56104C12.2937 6.9975 12.2491 7.4499 12.0788 7.86104C11.9085 8.27217 11.6201 8.62357 11.2501 8.8708C10.8801 9.11804 10.4451 9.25 10.0001 9.25C9.40337 9.25 8.83107 9.01294 8.40911 8.59099C7.98716 8.16903 7.7501 7.59673 7.7501 7ZM12.2501 25C12.2501 25.445 12.1181 25.88 11.8709 26.25C11.6237 26.62 11.2723 26.9084 10.8611 27.0787C10.45 27.249 9.99761 27.2936 9.56115 27.2068C9.12469 27.1199 8.72378 26.9057 8.40911 26.591C8.09444 26.2763 7.88015 25.8754 7.79334 25.439C7.70652 25.0025 7.75108 24.5501 7.92137 24.139C8.09167 23.7278 8.38006 23.3764 8.75007 23.1292C9.12008 22.882 9.55509 22.75 10.0001 22.75C10.5968 22.75 11.1691 22.9871 11.5911 23.409C12.013 23.831 12.2501 24.4033 12.2501 25ZM26.0001 20.25C25.5551 20.25 25.1201 20.118 24.7501 19.8708C24.3801 19.6236 24.0917 19.2722 23.9214 18.861C23.7511 18.4499 23.7065 17.9975 23.7933 17.561C23.8802 17.1246 24.0944 16.7237 24.4091 16.409C24.7238 16.0943 25.1247 15.88 25.5611 15.7932C25.9976 15.7064 26.45 15.751 26.8611 15.9213C27.2723 16.0916 27.6237 16.38 27.8709 16.75C28.1181 17.12 28.2501 17.555 28.2501 18C28.2501 18.5967 28.0131 19.169 27.5911 19.591C27.1691 20.0129 26.5968 20.25 26.0001 20.25Z" fill="#112D1F"/>
</svg>
