<svg width="32" height="32" viewBox="0 0 32 32" fill="none" xmlns="http://www.w3.org/2000/svg">
<path d="M16 21.75C17.9284 21.75 19.8134 21.1782 21.4168 20.1068C23.0202 19.0355 24.2699 17.5128 25.0078 15.7312C25.7458 13.9496 25.9389 11.9892 25.5627 10.0979C25.1865 8.20657 24.2579 6.46929 22.8943 5.10573C21.5307 3.74217 19.7935 2.81357 17.9022 2.43736C16.0108 2.06116 14.0504 2.25424 12.2689 2.99219C10.4873 3.73015 8.96454 4.97983 7.89319 6.58321C6.82185 8.18659 6.25002 10.0717 6.25002 12C6.253 14.585 7.28118 17.0632 9.10902 18.891C10.9369 20.7189 13.4151 21.747 16 21.75ZM16 3.75002C17.6317 3.75002 19.2268 4.23387 20.5835 5.14039C21.9402 6.04692 22.9976 7.33539 23.622 8.84288C24.2464 10.3504 24.4098 12.0092 24.0915 13.6095C23.7732 15.2099 22.9874 16.6799 21.8337 17.8336C20.6799 18.9874 19.2099 19.7732 17.6095 20.0915C16.0092 20.4098 14.3504 20.2464 12.8429 19.622C11.3354 18.9976 10.0469 17.9402 9.1404 16.5835C8.23387 15.2268 7.75002 13.6317 7.75002 12C7.75267 9.81279 8.62271 7.71591 10.1693 6.16931C11.7159 4.62271 13.8128 3.75266 16 3.75002ZM25.5413 20.8613C25.6789 21.0047 25.754 21.1969 25.75 21.3957C25.7461 21.5944 25.6633 21.7835 25.52 21.9213C23.1512 24.2061 20.0367 25.5583 16.75 25.7288V28.25H20C20.1989 28.25 20.3897 28.329 20.5303 28.4697C20.671 28.6103 20.75 28.8011 20.75 29C20.75 29.1989 20.671 29.3897 20.5303 29.5303C20.3897 29.671 20.1989 29.75 20 29.75H12C11.8011 29.75 11.6103 29.671 11.4697 29.5303C11.329 29.3897 11.25 29.1989 11.25 29C11.25 28.8011 11.329 28.6103 11.4697 28.4697C11.6103 28.329 11.8011 28.25 12 28.25H15.25V25.7288C11.7612 25.5384 8.4758 24.0269 6.06118 21.5016C3.64657 18.9762 2.2839 15.6263 2.25002 12.1325C2.20663 8.53683 3.58178 5.06886 6.07752 2.48002C6.21543 2.33647 6.40472 2.25359 6.60374 2.2496C6.80277 2.24562 6.99522 2.32086 7.13877 2.45877C7.28232 2.59668 7.3652 2.78597 7.36919 2.98499C7.37317 3.18402 7.29793 3.37647 7.16002 3.52002C4.9453 5.83347 3.72465 8.92226 3.75956 12.1247C3.79447 15.3272 5.08215 18.3886 7.34677 20.6533C9.6114 22.9179 12.6728 24.2056 15.8753 24.2405C19.0778 24.2754 22.1666 23.0547 24.48 20.84C24.5511 20.7717 24.6349 20.718 24.7267 20.6821C24.8185 20.6461 24.9165 20.6286 25.015 20.6306C25.1136 20.6326 25.2108 20.654 25.3011 20.6936C25.3914 20.7331 25.473 20.7901 25.5413 20.8613Z" fill="#112D1F"/>
</svg>
