<svg width="32" height="32" viewBox="0 0 32 32" fill="none" xmlns="http://www.w3.org/2000/svg">
<path d="M27.75 16C27.75 18.7666 26.7737 21.4446 24.9931 23.5621C23.2125 25.6796 20.7417 27.1009 18.0161 27.5756C15.2905 28.0503 12.4848 27.548 10.0931 26.1572C7.70145 24.7663 5.87729 22.5761 4.94191 19.9724C4.00653 17.3687 4.01993 14.5183 4.97974 11.9235C5.93956 9.32867 7.78423 7.15574 10.1888 5.78745C12.5935 4.41915 15.4038 3.94325 18.1248 4.44356C20.8459 4.94388 23.3031 6.38832 25.0637 8.52248C25.129 8.59807 25.1785 8.68594 25.2093 8.78092C25.2402 8.8759 25.2517 8.97608 25.2433 9.07559C25.2349 9.1751 25.2068 9.27193 25.1604 9.3604C25.1141 9.44887 25.0506 9.5272 24.9736 9.5908C24.8966 9.65439 24.8077 9.70197 24.7121 9.73074C24.6164 9.75951 24.516 9.76889 24.4167 9.75833C24.3174 9.74778 24.2212 9.7175 24.1338 9.66927C24.0463 9.62104 23.9694 9.55584 23.9075 9.47748C22.3924 7.64043 20.2849 6.38823 17.947 5.93592C15.6091 5.48361 13.1866 5.85941 11.0956 6.9988C9.00463 8.13818 7.37559 9.97004 6.48825 12.1798C5.60091 14.3896 5.51064 16.8393 6.23293 19.1084C6.95523 21.3775 8.44503 23.3243 10.4465 24.6145C12.4479 25.9046 14.8362 26.4577 17.201 26.1787C19.5659 25.8997 21.7598 24.806 23.406 23.0855C25.0523 21.3649 26.0481 19.1248 26.2225 16.75H16C15.8011 16.75 15.6103 16.671 15.4697 16.5303C15.329 16.3897 15.25 16.1989 15.25 16C15.25 15.8011 15.329 15.6103 15.4697 15.4696C15.6103 15.329 15.8011 15.25 16 15.25H27C27.1989 15.25 27.3897 15.329 27.5303 15.4696C27.671 15.6103 27.75 15.8011 27.75 16Z" fill="#112D1F"/>
</svg>
