<svg width="32" height="32" viewBox="0 0 32 32" fill="none" xmlns="http://www.w3.org/2000/svg">
<path d="M30.5302 5.47001L26.5302 1.47001C26.3902 1.34353 26.2078 1.27442 26.0192 1.27644C25.8306 1.27846 25.6497 1.35148 25.5125 1.48093C25.3753 1.61038 25.2919 1.78677 25.279 1.97494C25.2661 2.16311 25.3245 2.34925 25.4427 2.49626L17.6127 10.3275C14.8177 8.80251 11.6614 8.87501 9.77141 10.77C9.28219 11.2566 8.89913 11.8392 8.64641 12.4813C8.54763 12.708 8.38527 12.9013 8.17896 13.0377C7.97265 13.1742 7.73124 13.2479 7.48391 13.25C5.72641 13.31 4.20016 13.9375 3.07141 15.0663C1.62516 16.5225 1.00016 18.625 1.34016 20.9738C1.66516 23.25 2.84766 25.5 4.67141 27.3288C6.49516 29.1575 8.75016 30.335 11.0264 30.66C11.4354 30.7191 11.8481 30.7492 12.2614 30.75C14.1102 30.75 15.7377 30.125 16.9302 28.9288C18.0552 27.8038 18.6864 26.275 18.7464 24.5163C18.7476 24.2674 18.8214 24.0244 18.9586 23.8168C19.0958 23.6092 19.2905 23.4462 19.5189 23.3475C20.1604 23.0966 20.743 22.7157 21.2302 22.2288C23.1202 20.3388 23.1977 17.1825 21.6727 14.3875L29.5002 6.55751C29.647 6.67749 29.8338 6.73742 30.023 6.72525C30.2122 6.71307 30.3897 6.62968 30.5199 6.49187C30.6502 6.35406 30.7233 6.17205 30.7248 5.98246C30.7262 5.79287 30.6558 5.60977 30.5277 5.47001H30.5302ZM25.0002 8.93876L23.0614 7.00001L26.5002 3.56001L28.4402 5.50001L25.0002 8.93876ZM20.1702 21.1688C19.8273 21.5103 19.4174 21.7771 18.9664 21.9525C18.4669 22.1589 18.0385 22.5066 17.7336 22.9528C17.4288 23.3991 17.2608 23.9246 17.2502 24.465C17.2039 25.84 16.7277 27.0138 15.8752 27.8675C14.7639 28.9788 13.1252 29.4438 11.2502 29.175C9.29391 28.8963 7.33891 27.8638 5.74266 26.2688C4.14641 24.6738 3.11766 22.7175 2.83641 20.7613C2.56766 18.8863 3.03266 17.2413 4.14391 16.13C4.99766 15.275 6.17516 14.7988 7.54641 14.755C8.08723 14.7443 8.61313 14.5757 9.05949 14.2702C9.50585 13.9646 9.85321 13.5353 10.0589 13.035C10.2347 12.5845 10.5015 12.1752 10.8427 11.8325C11.5652 11.0963 12.5714 10.75 13.6802 10.75C14.6595 10.7664 15.6228 11.0009 16.5002 11.4363L13.6752 14.265C12.9638 14.3267 12.2848 14.5902 11.718 15.0246C11.1513 15.459 10.7203 16.0462 10.4758 16.7171C10.2313 17.388 10.1835 18.1148 10.3379 18.8119C10.4923 19.5091 10.8426 20.1477 11.3475 20.6526C11.8525 21.1576 12.491 21.5078 13.1882 21.6622C13.8854 21.8167 14.6122 21.7688 15.2831 21.5243C15.954 21.2799 16.5412 20.8489 16.9755 20.2822C17.4099 19.7154 17.6735 19.0364 17.7352 18.325L20.5652 15.5C21.5789 17.6025 21.5002 19.835 20.1702 21.1688ZM18.8752 13.125C19.2 13.4496 19.4996 13.7986 19.7714 14.1688L17.4377 16.5C17.0575 15.6342 16.366 14.9427 15.5002 14.5625L17.8277 12.235C18.1987 12.5049 18.5489 12.8024 18.8752 13.125ZM14.0002 15.75C14.5969 15.75 15.1692 15.9871 15.5911 16.409C16.0131 16.831 16.2502 17.4033 16.2502 18C16.2502 18.445 16.1182 18.88 15.871 19.25C15.6237 19.6201 15.2723 19.9084 14.8612 20.0787C14.4501 20.249 13.9977 20.2936 13.5612 20.2068C13.1247 20.12 12.7238 19.9057 12.4092 19.591C12.0945 19.2763 11.8802 18.8754 11.7934 18.439C11.7066 18.0025 11.7511 17.5501 11.9214 17.139C12.0917 16.7278 12.3801 16.3764 12.7501 16.1292C13.1201 15.882 13.5552 15.75 14.0002 15.75ZM19.9289 12.07C19.6046 11.7463 19.2593 11.4444 18.8952 11.1663L22.0002 8.06001L23.9402 10L20.8352 13.1038C20.5566 12.7392 20.2543 12.3934 19.9302 12.0688L19.9289 12.07ZM11.5302 24.47C11.6007 24.5395 11.6568 24.6222 11.6952 24.7135C11.7335 24.8048 11.7535 24.9027 11.7538 25.0017C11.7542 25.1007 11.7349 25.1988 11.6972 25.2903C11.6594 25.3819 11.6039 25.465 11.5339 25.535C11.4638 25.6049 11.3806 25.6603 11.289 25.698C11.1975 25.7356 11.0994 25.7548 11.0003 25.7543C10.9013 25.7538 10.8034 25.7338 10.7122 25.6953C10.621 25.6568 10.5383 25.6006 10.4689 25.53L6.46891 21.53C6.33643 21.3878 6.2643 21.1998 6.26773 21.0055C6.27116 20.8112 6.34987 20.6258 6.48729 20.4884C6.6247 20.351 6.81008 20.2723 7.00439 20.2688C7.19869 20.2654 7.38673 20.3375 7.52891 20.47L11.5302 24.47Z" fill="#112D1F"/>
</svg>
