<svg width="32" height="32" viewBox="0 0 32 32" fill="none" xmlns="http://www.w3.org/2000/svg">
<path d="M25.7501 17.5V22C25.7501 25.1413 24.7151 27.25 24.6701 27.335C24.628 27.4262 24.568 27.508 24.4937 27.5756C24.4194 27.6432 24.3323 27.6952 24.2375 27.7284C24.1428 27.7617 24.0423 27.7756 23.942 27.7693C23.8418 27.763 23.7438 27.7366 23.654 27.6917C23.5641 27.6468 23.4842 27.5843 23.4189 27.508C23.3537 27.4316 23.3044 27.3429 23.2741 27.2472C23.2438 27.1514 23.233 27.0505 23.2424 26.9505C23.2518 26.8505 23.2812 26.7534 23.3289 26.665C23.3376 26.6475 24.2501 24.7663 24.2501 22V17.5C24.2501 17.0359 24.0657 16.5908 23.7375 16.2626C23.4094 15.9344 22.9642 15.75 22.5001 15.75C22.036 15.75 21.5909 15.9344 21.2627 16.2626C20.9345 16.5908 20.7501 17.0359 20.7501 17.5V18C20.7501 18.1989 20.6711 18.3897 20.5304 18.5304C20.3898 18.671 20.199 18.75 20.0001 18.75C19.8012 18.75 19.6104 18.671 19.4698 18.5304C19.3291 18.3897 19.2501 18.1989 19.2501 18V15.5C19.2501 15.0359 19.0657 14.5908 18.7375 14.2626C18.4094 13.9344 17.9642 13.75 17.5001 13.75C17.036 13.75 16.5909 13.9344 16.2627 14.2626C15.9345 14.5908 15.7501 15.0359 15.7501 15.5V17C15.7501 17.1989 15.6711 17.3897 15.5304 17.5304C15.3898 17.671 15.199 17.75 15.0001 17.75C14.8012 17.75 14.6104 17.671 14.4698 17.5304C14.3291 17.3897 14.2501 17.1989 14.2501 17V8.50002C14.2501 8.03589 14.0657 7.59078 13.7375 7.26259C13.4094 6.9344 12.9642 6.75002 12.5001 6.75002C12.036 6.75002 11.5909 6.9344 11.2627 7.26259C10.9345 7.59078 10.7501 8.03589 10.7501 8.50002V22C10.7499 22.1628 10.6968 22.3212 10.5986 22.4511C10.5005 22.5811 10.3628 22.6755 10.2062 22.7203C10.0497 22.765 9.88282 22.7576 9.73085 22.6992C9.57889 22.6407 9.45007 22.5344 9.36386 22.3963L7.02886 18.6463C7.024 18.6396 7.01982 18.6325 7.01636 18.625C6.7843 18.2231 6.40205 17.9297 5.95372 17.8096C5.5054 17.6895 5.0277 17.7523 4.62573 17.9844C4.22377 18.2165 3.93045 18.5987 3.81031 19.047C3.69017 19.4954 3.75305 19.9731 3.98511 20.375L7.64636 26.625C7.70383 26.7103 7.74317 26.8064 7.76192 26.9075C7.78067 27.0086 7.77845 27.1124 7.75538 27.2126C7.73232 27.3128 7.6889 27.4071 7.62783 27.4898C7.56676 27.5725 7.48934 27.6418 7.40038 27.6933C7.31142 27.7448 7.21282 27.7775 7.1107 27.7893C7.00858 27.8012 6.90512 27.7918 6.80674 27.762C6.70837 27.7321 6.61718 27.6824 6.53885 27.6158C6.46051 27.5493 6.39669 27.4673 6.35136 27.375L2.68636 21.125C2.25323 20.3791 2.13415 19.4917 2.35533 18.658C2.5765 17.8242 3.11981 17.1125 3.86573 16.6794C4.61166 16.2463 5.49909 16.1272 6.3328 16.3484C7.16652 16.5695 7.87823 17.1129 8.31136 17.8588L9.25011 19.375V8.50002C9.25011 7.63807 9.59252 6.81142 10.202 6.20193C10.8115 5.59243 11.6382 5.25002 12.5001 5.25002C13.3621 5.25002 14.1887 5.59243 14.7982 6.20193C15.4077 6.81142 15.7501 7.63807 15.7501 8.50002V12.7625C16.1917 12.48 16.6951 12.3085 17.2173 12.2627C17.7396 12.2169 18.2651 12.298 18.7492 12.4993C19.2333 12.7006 19.6615 13.016 19.9973 13.4185C20.333 13.8211 20.5665 14.2989 20.6776 14.8113C21.1662 14.4804 21.7356 14.2887 22.3248 14.2569C22.9141 14.2251 23.5008 14.3543 24.0222 14.6306C24.5436 14.907 24.9799 15.3201 25.2843 15.8256C25.5887 16.3311 25.7497 16.9099 25.7501 17.5ZM30.0001 6.25002H22.8101L25.5301 3.53002C25.6688 3.3889 25.7461 3.1987 25.7452 3.00085C25.7443 2.80299 25.6652 2.61351 25.5252 2.47369C25.3852 2.33387 25.1956 2.25502 24.9978 2.25434C24.7999 2.25365 24.6098 2.33118 24.4689 2.47002L20.4689 6.47002C20.3284 6.61065 20.2495 6.80127 20.2495 7.00002C20.2495 7.19877 20.3284 7.3894 20.4689 7.53002L24.4689 11.53C24.6098 11.6689 24.7999 11.7464 24.9978 11.7457C25.1956 11.745 25.3852 11.6662 25.5252 11.5264C25.6652 11.3865 25.7443 11.1971 25.7452 10.9992C25.7461 10.8013 25.6688 10.6111 25.5301 10.47L22.8101 7.75002H30.0001C30.199 7.75002 30.3898 7.67101 30.5304 7.53035C30.6711 7.3897 30.7501 7.19894 30.7501 7.00002C30.7501 6.80111 30.6711 6.61035 30.5304 6.46969C30.3898 6.32904 30.199 6.25002 30.0001 6.25002Z" fill="#112D1F"/>
</svg>
