<svg width="32" height="32" viewBox="0 0 32 32" fill="none" xmlns="http://www.w3.org/2000/svg">
<path d="M25.7501 17.5V22C25.7501 25.1413 24.7151 27.25 24.6701 27.335C24.6079 27.4596 24.5123 27.5643 24.394 27.6376C24.2757 27.7109 24.1393 27.7498 24.0001 27.75C23.8837 27.7503 23.7688 27.7229 23.6651 27.67C23.4889 27.581 23.3549 27.4261 23.2922 27.2389C23.2294 27.0516 23.2431 26.8473 23.3301 26.67C23.3389 26.6525 24.2514 24.7713 24.2514 22.005V17.5C24.2514 17.0359 24.067 16.5908 23.7388 16.2626C23.4106 15.9344 22.9655 15.75 22.5014 15.75C22.0372 15.75 21.5921 15.9344 21.2639 16.2626C20.9357 16.5908 20.7514 17.0359 20.7514 17.5V18C20.7514 18.1989 20.6723 18.3897 20.5317 18.5304C20.391 18.671 20.2003 18.75 20.0014 18.75C19.8024 18.75 19.6117 18.671 19.471 18.5304C19.3304 18.3897 19.2514 18.1989 19.2514 18V15.5C19.2514 15.0359 19.067 14.5908 18.7388 14.2626C18.4106 13.9344 17.9655 13.75 17.5014 13.75C17.0372 13.75 16.5921 13.9344 16.2639 14.2626C15.9357 14.5908 15.7514 15.0359 15.7514 15.5V17C15.7514 17.1989 15.6723 17.3897 15.5317 17.5304C15.391 17.671 15.2003 17.75 15.0014 17.75C14.8024 17.75 14.6117 17.671 14.471 17.5304C14.3304 17.3897 14.2514 17.1989 14.2514 17V8.50003C14.2514 8.0359 14.067 7.59078 13.7388 7.26259C13.4106 6.9344 12.9655 6.75003 12.5014 6.75003C12.0372 6.75003 11.5921 6.9344 11.2639 7.26259C10.9357 7.59078 10.7514 8.0359 10.7514 8.50003V22C10.7512 22.1629 10.698 22.3212 10.5999 22.4511C10.5018 22.5811 10.364 22.6756 10.2075 22.7203C10.0509 22.7651 9.88407 22.7576 9.7321 22.6992C9.58014 22.6407 9.45132 22.5344 9.36511 22.3963L7.03011 18.6463C7.02525 18.6396 7.02107 18.6325 7.01761 18.625C6.78555 18.2231 6.4033 17.9297 5.95497 17.8096C5.50665 17.6895 5.02895 17.7523 4.62698 17.9844C4.22502 18.2165 3.9317 18.5987 3.81156 19.047C3.69142 19.4954 3.7543 19.9731 3.98636 20.375L7.64761 26.625C7.70366 26.7103 7.7417 26.8062 7.75941 26.9067C7.77712 27.0072 7.77412 27.1103 7.75061 27.2097C7.72709 27.309 7.68354 27.4025 7.62263 27.4844C7.56173 27.5663 7.48474 27.6349 7.39639 27.686C7.30804 27.7371 7.21018 27.7697 7.10882 27.7817C7.00745 27.7936 6.9047 27.7848 6.80687 27.7557C6.70903 27.7266 6.61817 27.6778 6.53985 27.6123C6.46153 27.5469 6.39739 27.4661 6.35136 27.375L2.68636 21.125C2.25323 20.3791 2.13415 19.4917 2.35533 18.658C2.5765 17.8242 3.11981 17.1125 3.86573 16.6794C4.61166 16.2463 5.49909 16.1272 6.3328 16.3484C7.16652 16.5695 7.87823 17.1129 8.31136 17.8588L9.25011 19.375V8.50003C9.25011 7.63808 9.59252 6.81143 10.202 6.20193C10.8115 5.59244 11.6382 5.25003 12.5001 5.25003C13.3621 5.25003 14.1887 5.59244 14.7982 6.20193C15.4077 6.81143 15.7501 7.63808 15.7501 8.50003V12.7625C16.1917 12.48 16.6951 12.3085 17.2173 12.2627C17.7396 12.2169 18.2651 12.2981 18.7492 12.4993C19.2333 12.7006 19.6615 13.016 19.9973 13.4185C20.333 13.8211 20.5665 14.299 20.6776 14.8113C21.1662 14.4804 21.7356 14.2887 22.3248 14.2569C22.9141 14.2251 23.5008 14.3543 24.0222 14.6307C24.5436 14.907 24.9799 15.3201 25.2843 15.8256C25.5887 16.3311 25.7497 16.9099 25.7501 17.5ZM30.5301 6.47003L26.5301 2.47003C26.3879 2.33755 26.1999 2.26543 26.0056 2.26885C25.8113 2.27228 25.6259 2.35099 25.4885 2.48841C25.3511 2.62582 25.2724 2.81121 25.2689 3.00551C25.2655 3.19981 25.3376 3.38785 25.4701 3.53003L28.1889 6.25003H21.0001C20.8012 6.25003 20.6104 6.32905 20.4698 6.4697C20.3291 6.61035 20.2501 6.80112 20.2501 7.00003C20.2501 7.19894 20.3291 7.38971 20.4698 7.53036C20.6104 7.67101 20.8012 7.75003 21.0001 7.75003H28.1889L25.4701 10.47C25.3964 10.5387 25.3373 10.6215 25.2963 10.7135C25.2553 10.8055 25.2333 10.9048 25.2315 11.0055C25.2297 11.1062 25.2483 11.2062 25.286 11.2996C25.3237 11.393 25.3799 11.4778 25.4511 11.5491C25.5223 11.6203 25.6071 11.6764 25.7005 11.7142C25.7939 11.7519 25.8939 11.7704 25.9946 11.7686C26.0953 11.7668 26.1946 11.7448 26.2866 11.7038C26.3786 11.6628 26.4614 11.6037 26.5301 11.53L30.5301 7.53003C30.6706 7.3894 30.7494 7.19878 30.7494 7.00003C30.7494 6.80128 30.6706 6.61065 30.5301 6.47003Z" fill="#112D1F"/>
</svg>
