<svg width="32" height="32" viewBox="0 0 32 32" fill="none" xmlns="http://www.w3.org/2000/svg">
<path d="M28.64 17.8313C28.2976 17.5675 27.8989 17.3865 27.475 17.3024C27.051 17.2183 26.6134 17.2333 26.1963 17.3463L25.6562 17.4713C28.375 14.9438 29.75 12.4388 29.75 10C29.75 6.83 27.2012 4.25 24.0675 4.25C23.1837 4.24447 22.3108 4.44492 21.518 4.83548C20.7251 5.22603 20.0342 5.79594 19.5 6.50001C18.9658 5.79594 18.2749 5.22603 17.482 4.83548C16.6892 4.44492 15.8163 4.24447 14.9325 4.25C11.7987 4.25 9.25 6.83 9.25 10C9.25 11.4225 9.70375 12.8113 10.6613 14.295C9.87638 14.4161 9.15094 14.7854 8.59125 15.3488L5.69 18.25H2C1.53587 18.25 1.09075 18.4344 0.762563 18.7626C0.434374 19.0908 0.25 19.5359 0.25 20V25C0.25 25.4641 0.434374 25.9093 0.762563 26.2374C1.09075 26.5656 1.53587 26.75 2 26.75H15C15.0615 26.75 15.1228 26.7425 15.1825 26.7275L23.1825 24.7275C23.2204 24.7175 23.2575 24.7049 23.2938 24.69L28.1462 22.625L28.1875 22.6063C28.6165 22.392 28.984 22.072 29.2552 21.6765C29.5264 21.281 29.6925 20.823 29.7377 20.3455C29.783 19.8681 29.706 19.387 29.5139 18.9476C29.3219 18.5081 29.0211 18.1248 28.64 17.8338V17.8313ZM14.9325 5.75C15.7573 5.739 16.5667 5.97435 17.257 6.42595C17.9473 6.87754 18.4872 7.52484 18.8075 8.285C18.864 8.42256 18.9601 8.54022 19.0837 8.62302C19.2072 8.70582 19.3525 8.75003 19.5012 8.75003C19.65 8.75003 19.7953 8.70582 19.9188 8.62302C20.0424 8.54022 20.1385 8.42256 20.195 8.285C20.5153 7.52484 21.0552 6.87754 21.7455 6.42595C22.4358 5.97435 23.2452 5.739 24.07 5.75C26.335 5.75 28.25 7.69625 28.25 10C28.25 12.53 26.2275 15.375 22.4 18.2188L20.5413 18.6463C20.7266 18.1544 20.79 17.625 20.7258 17.1033C20.6616 16.5816 20.4719 16.0833 20.1729 15.651C19.8738 15.2188 19.4744 14.8655 19.0089 14.6215C18.5434 14.3775 18.0256 14.25 17.5 14.25H12.4587C11.295 12.7088 10.75 11.3513 10.75 10C10.75 7.69625 12.665 5.75 14.9325 5.75ZM1.75 25V20C1.75 19.9337 1.77634 19.8701 1.82322 19.8232C1.87011 19.7763 1.9337 19.75 2 19.75H5.25V25.25H2C1.9337 25.25 1.87011 25.2237 1.82322 25.1768C1.77634 25.1299 1.75 25.0663 1.75 25ZM27.535 21.25L22.76 23.2838L14.9075 25.25H6.75V19.3113L9.65125 16.4088C9.85974 16.1992 10.1077 16.033 10.3809 15.92C10.654 15.8069 10.9469 15.7491 11.2425 15.75H17.5C17.9641 15.75 18.4092 15.9344 18.7374 16.2626C19.0656 16.5908 19.25 17.0359 19.25 17.5C19.25 17.9641 19.0656 18.4093 18.7374 18.7374C18.4092 19.0656 17.9641 19.25 17.5 19.25H14C13.8011 19.25 13.6103 19.329 13.4697 19.4697C13.329 19.6103 13.25 19.8011 13.25 20C13.25 20.1989 13.329 20.3897 13.4697 20.5303C13.6103 20.671 13.8011 20.75 14 20.75H18C18.0564 20.7501 18.1125 20.7438 18.1675 20.7313L26.5425 18.805L26.5725 18.7975C26.8877 18.7116 27.2236 18.7451 27.5156 18.8917C27.8075 19.0383 28.0351 19.2877 28.1544 19.5918C28.2738 19.8959 28.2766 20.2334 28.1622 20.5395C28.0479 20.8456 27.8245 21.0986 27.535 21.25Z" fill="#112D1F"/>
</svg>
