<svg width="32" height="32" viewBox="0 0 32 32" fill="none" xmlns="http://www.w3.org/2000/svg">
<path d="M20.2498 10C20.2498 9.80109 20.3288 9.61032 20.4695 9.46967C20.6101 9.32902 20.8009 9.25 20.9998 9.25H29.9998C30.1987 9.25 30.3895 9.32902 30.5301 9.46967C30.6708 9.61032 30.7498 9.80109 30.7498 10C30.7498 10.1989 30.6708 10.3897 30.5301 10.5303C30.3895 10.671 30.1987 10.75 29.9998 10.75H20.9998C20.8009 10.75 20.6101 10.671 20.4695 10.5303C20.3288 10.3897 20.2498 10.1989 20.2498 10ZM29.9998 21.25H20.9998C20.8009 21.25 20.6101 21.329 20.4695 21.4697C20.3288 21.6103 20.2498 21.8011 20.2498 22C20.2498 22.1989 20.3288 22.3897 20.4695 22.5303C20.6101 22.671 20.8009 22.75 20.9998 22.75H29.9998C30.1987 22.75 30.3895 22.671 30.5301 22.5303C30.6708 22.3897 30.7498 22.1989 30.7498 22C30.7498 21.8011 30.6708 21.6103 30.5301 21.4697C30.3895 21.329 30.1987 21.25 29.9998 21.25ZM29.9998 13.25H20.9998C20.8009 13.25 20.6101 13.329 20.4695 13.4697C20.3288 13.6103 20.2498 13.8011 20.2498 14C20.2498 14.1989 20.3288 14.3897 20.4695 14.5303C20.6101 14.671 20.8009 14.75 20.9998 14.75H29.9998C30.1987 14.75 30.3895 14.671 30.5301 14.5303C30.6708 14.3897 30.7498 14.1989 30.7498 14C30.7498 13.8011 30.6708 13.6103 30.5301 13.4697C30.3895 13.329 30.1987 13.25 29.9998 13.25ZM29.9998 17.25H20.9998C20.8009 17.25 20.6101 17.329 20.4695 17.4697C20.3288 17.6103 20.2498 17.8011 20.2498 18C20.2498 18.1989 20.3288 18.3897 20.4695 18.5303C20.6101 18.671 20.8009 18.75 20.9998 18.75H29.9998C30.1987 18.75 30.3895 18.671 30.5301 18.5303C30.6708 18.3897 30.7498 18.1989 30.7498 18C30.7498 17.8011 30.6708 17.6103 30.5301 17.4697C30.3895 17.329 30.1987 17.25 29.9998 17.25ZM17.7498 8V24C17.7498 24.4641 17.5654 24.9092 17.2372 25.2374C16.909 25.5656 16.4639 25.75 15.9998 25.75H10.9998C9.71317 25.75 8.43927 25.4954 7.25151 25.0008C6.06376 24.5062 4.98563 23.7815 4.07929 22.8683C3.17295 21.9551 2.45631 20.8715 1.97069 19.6801C1.48507 18.4886 1.24006 17.2128 1.24979 15.9263C1.28979 10.5913 5.71354 6.25 11.1123 6.25H15.9998C16.4639 6.25 16.909 6.43437 17.2372 6.76256C17.5654 7.09075 17.7498 7.53587 17.7498 8ZM16.2498 8C16.2498 7.9337 16.2235 7.87011 16.1766 7.82322C16.1297 7.77634 16.0661 7.75 15.9998 7.75H11.1123C6.53479 7.75 2.78354 11.4225 2.74979 15.9375C2.74154 17.0262 2.94885 18.1057 3.35975 19.1138C3.77066 20.122 4.37705 21.0389 5.14395 21.8116C5.91086 22.5843 6.82312 23.1976 7.82815 23.6161C8.83318 24.0346 9.91111 24.25 10.9998 24.25H15.9998C16.0661 24.25 16.1297 24.2237 16.1766 24.1768C16.2235 24.1299 16.2498 24.0663 16.2498 24V8Z" fill="#112D1F"/>
</svg>
