<svg width="32" height="32" viewBox="0 0 32 32" fill="none" xmlns="http://www.w3.org/2000/svg">
<path d="M27.7024 7.29751C26.3889 5.98797 24.6097 5.2526 22.7549 5.2526C20.9001 5.2526 19.121 5.98797 17.8074 7.29751L15.9999 9.03001L14.1949 7.29251C13.5448 6.64247 12.773 6.12684 11.9236 5.77508C11.0742 5.42331 10.1639 5.24228 9.2445 5.24234C7.38777 5.24246 5.60714 5.98015 4.29431 7.29314C2.98149 8.60613 2.24402 10.3869 2.24414 12.2436C2.24426 14.1003 2.98195 15.8809 4.29494 17.1938L15.4662 28.5263C15.536 28.5971 15.6192 28.6534 15.7109 28.6918C15.8026 28.7302 15.9011 28.75 16.0006 28.75C16.1 28.75 16.1985 28.7302 16.2902 28.6918C16.382 28.6534 16.4652 28.5971 16.5349 28.5263L27.7012 17.1975C29.0124 15.8839 29.749 14.1038 29.7492 12.2478C29.7495 10.3917 29.0133 8.61143 27.7024 7.29751ZM26.6387 16.1413L15.9999 26.9313L5.36119 16.1375C4.3295 15.106 3.74983 13.7069 3.74972 12.248C3.7496 10.789 4.32904 9.38983 5.36056 8.35814C6.39209 7.32645 7.79121 6.74678 9.25012 6.74667C10.709 6.74655 12.1082 7.32599 13.1399 8.35751L13.1499 8.36751L14.9199 10.0725L13.4812 11.4575C13.4095 11.5267 13.3523 11.6094 13.3129 11.7009C13.2735 11.7924 13.2527 11.8908 13.2518 11.9904C13.2509 12.09 13.2698 12.1888 13.3075 12.281C13.3451 12.3733 13.4008 12.457 13.4712 12.5275L16.9412 16L15.4712 17.47C15.4007 17.5395 15.3446 17.6222 15.3062 17.7135C15.2678 17.8048 15.2479 17.9027 15.2475 18.0017C15.2472 18.1007 15.2664 18.1988 15.3042 18.2903C15.3419 18.3819 15.3974 18.465 15.4675 18.535C15.5375 18.6049 15.6207 18.6603 15.7123 18.698C15.8039 18.7356 15.902 18.7548 16.001 18.7543C16.1 18.7539 16.1979 18.7338 16.2891 18.6953C16.3804 18.6568 16.463 18.6006 16.5324 18.53L18.5324 16.53C18.6022 16.4604 18.6575 16.3776 18.6952 16.2866C18.733 16.1955 18.7524 16.098 18.7524 15.9994C18.7524 15.9008 18.733 15.8032 18.6952 15.7122C18.6575 15.6211 18.6022 15.5384 18.5324 15.4688L15.0724 12.0075L18.8524 8.36751C18.8564 8.36485 18.8598 8.36145 18.8624 8.35751C19.8946 7.32632 21.2942 6.7474 22.7532 6.7481C24.2122 6.7488 25.6112 7.32907 26.6424 8.36126C27.6736 9.39345 28.2526 10.793 28.2519 12.252C28.2512 13.7111 27.6709 15.1101 26.6387 16.1413Z" fill="#112D1F"/>
</svg>
