<svg width="32" height="32" viewBox="0 0 32 32" fill="none" xmlns="http://www.w3.org/2000/svg">
<path d="M22.25 4.24999C21.2647 4.24733 20.2886 4.44007 19.3782 4.81705C18.4678 5.19403 17.6413 5.74777 16.9463 6.44624L16 7.39374L15.0538 6.44624C14.0049 5.39716 12.6684 4.68271 11.2134 4.39325C9.75845 4.10378 8.25031 4.25231 6.87975 4.82004C5.5092 5.38777 4.33779 6.34921 3.51369 7.58274C2.68959 8.81627 2.24982 10.2665 2.25 11.75C2.25 15.4 4.525 19.1987 9.0125 23.0387C11.0688 24.7909 13.29 26.3398 15.645 27.6637C15.7541 27.7224 15.8761 27.7531 16 27.7531C16.1239 27.7531 16.2459 27.7224 16.355 27.6637C18.71 26.3398 20.9312 24.7909 22.9875 23.0387C27.475 19.1987 29.75 15.4 29.75 11.75C29.7477 9.76157 28.9568 7.85526 27.5507 6.44924C26.1447 5.04322 24.2384 4.2523 22.25 4.24999ZM16 26.1387C13.9487 24.955 3.75 18.715 3.75 11.75C3.75006 10.5633 4.10198 9.40336 4.76127 8.41671C5.42056 7.43007 6.35762 6.66108 7.45394 6.20697C8.55026 5.75287 9.75662 5.63405 10.9205 5.86554C12.0843 6.09703 13.1534 6.66843 13.9925 7.50749L14.9388 8.45374L13.47 9.92374C13.4003 9.99339 13.3449 10.0761 13.3072 10.1672C13.2695 10.2582 13.25 10.3558 13.25 10.4544C13.25 10.5529 13.2695 10.6505 13.3072 10.7416C13.3449 10.8326 13.4003 10.9153 13.47 10.985L16.7125 14.2275L14.47 16.47C14.3375 16.6122 14.2654 16.8002 14.2688 16.9945C14.2723 17.1888 14.351 17.3742 14.4884 17.5116C14.6258 17.649 14.8112 17.7277 15.0055 17.7312C15.1998 17.7346 15.3878 17.6625 15.53 17.53L18.3037 14.7575C18.3735 14.6878 18.4288 14.6051 18.4665 14.5141C18.5043 14.423 18.5237 14.3254 18.5237 14.2269C18.5237 14.1283 18.5043 14.0307 18.4665 13.9397C18.4288 13.8486 18.3735 13.7659 18.3037 13.6962L15.0612 10.4537L18.0075 7.50749C18.8466 6.66843 19.9157 6.09703 21.0795 5.86554C22.2434 5.63405 23.4497 5.75287 24.5461 6.20697C25.6424 6.66108 26.5794 7.43007 27.2387 8.41671C27.898 9.40336 28.2499 10.5633 28.25 11.75C28.25 18.715 18.0513 24.955 16 26.1387Z" fill="#112D1F"/>
</svg>
