<svg width="32" height="32" viewBox="0 0 32 32" fill="none" xmlns="http://www.w3.org/2000/svg">
<path d="M27.6999 7.2975C26.3879 5.98815 24.6106 5.25195 22.757 5.25008C20.9034 5.2482 19.1246 5.9808 17.8099 7.2875L15.9999 8.9725L14.1899 7.2875C12.8763 5.97551 11.0952 5.23909 9.23861 5.24027C7.382 5.24144 5.6019 5.9801 4.28991 7.29375C2.97792 8.6074 2.24151 10.3884 2.24268 12.245C2.24385 14.1017 2.98251 15.8818 4.29616 17.1937L15.4662 28.5262C15.5359 28.5969 15.619 28.653 15.7107 28.6913C15.8023 28.7296 15.9006 28.7494 15.9999 28.7494C16.0992 28.7494 16.1975 28.7296 16.2892 28.6913C16.3808 28.653 16.4639 28.5969 16.5337 28.5262L27.6999 17.1987C28.3502 16.5487 28.866 15.7769 29.218 14.9275C29.5699 14.078 29.751 13.1676 29.751 12.2481C29.751 11.3287 29.5699 10.4182 29.218 9.56877C28.866 8.71933 28.3502 7.94754 27.6999 7.2975ZM26.6349 16.1412L15.9999 26.9312L5.36116 16.1375C4.33571 15.1049 3.76132 13.7079 3.7638 12.2526C3.76628 10.7973 4.34543 9.40236 5.37439 8.37323C6.40336 7.34411 7.79825 6.76473 9.25353 6.76202C10.7088 6.7593 12.1059 7.33347 13.1387 8.35875C13.1447 8.36523 13.1514 8.37109 13.1587 8.37625L15.4887 10.5462C15.6275 10.6756 15.8102 10.7475 15.9999 10.7475C16.1896 10.7475 16.3723 10.6756 16.5112 10.5462L18.8412 8.375C18.8484 8.36984 18.8551 8.36398 18.8612 8.3575C19.3715 7.84411 19.9782 7.43652 20.6464 7.1581C21.3146 6.87968 22.0312 6.73592 22.7552 6.73505C23.4791 6.73418 24.196 6.87622 24.8649 7.15303C25.5338 7.42984 26.1414 7.83598 26.653 8.34814C27.1646 8.86031 27.5701 9.46843 27.8461 10.1376C28.1222 10.8068 28.2634 11.5239 28.2617 12.2478C28.2601 12.9717 28.1155 13.6882 27.8363 14.3561C27.5571 15.024 27.1489 15.6302 26.6349 16.14V16.1412Z" fill="#112D1F"/>
</svg>
