<svg width="32" height="32" viewBox="0 0 32 32" fill="none" xmlns="http://www.w3.org/2000/svg">
<path d="M25.0152 6.98376C23.8347 5.78402 22.4285 4.82987 20.8774 4.17635C19.3264 3.52283 17.6613 3.18286 15.9782 3.17607C14.2952 3.16927 12.6274 3.49578 11.0711 4.13676C9.51487 4.77774 8.10092 5.7205 6.91083 6.91067C5.72075 8.10083 4.77809 9.51485 4.13722 11.0712C3.49635 12.6275 3.16995 14.2952 3.17687 15.9783C3.18378 17.6614 3.52386 19.3265 4.17749 20.8774C4.83112 22.4284 5.78536 23.8347 6.98518 25.015C8.16562 26.2147 9.57191 27.1689 11.1229 27.8224C12.674 28.4759 14.3391 28.8159 16.0221 28.8227C17.7052 28.8295 19.373 28.503 20.9292 27.862C22.4855 27.221 23.8994 26.2783 25.0895 25.0881C26.2796 23.8979 27.2223 22.4839 27.8631 20.9276C28.504 19.3713 28.8304 17.7035 28.8235 16.0204C28.8166 14.3374 28.4765 12.6723 27.8229 11.1213C27.1692 9.57033 26.215 8.16411 25.0152 6.98376ZM11.7502 26.4213V19C11.7502 18.9337 11.7765 18.8701 11.8234 18.8232C11.8703 18.7763 11.9339 18.75 12.0002 18.75H20.0002C20.0665 18.75 20.1301 18.7763 20.177 18.8232C20.2238 18.8701 20.2502 18.9337 20.2502 19V26.4213C17.5246 27.5263 14.4758 27.5263 11.7502 26.4213ZM18.2502 17.25H13.7502V12.4638L18.2502 10.2138V17.25ZM23.9552 23.955C23.2937 24.6165 22.5531 25.1938 21.7502 25.6738V19C21.7502 18.5359 21.5658 18.0908 21.2376 17.7626C20.9094 17.4344 20.4643 17.25 20.0002 17.25H19.7502V9.00001C19.7502 8.87218 19.7176 8.74647 19.6554 8.63481C19.5932 8.52314 19.5035 8.42922 19.3948 8.36197C19.2861 8.29472 19.162 8.25637 19.0343 8.25056C18.9066 8.24474 18.7795 8.27166 18.6652 8.32876L12.6652 11.3288C12.5405 11.391 12.4356 11.4868 12.3623 11.6054C12.2889 11.724 12.2501 11.8606 12.2502 12V17.25H12.0002C11.5361 17.25 11.0909 17.4344 10.7627 17.7626C10.4346 18.0908 10.2502 18.5359 10.2502 19V25.6738C9.44725 25.1938 8.70665 24.6165 8.04518 23.955C6.47185 22.3817 5.40041 20.3771 4.96634 18.1948C4.53226 16.0125 4.75506 13.7505 5.60655 11.6949C6.45804 9.63922 7.89998 7.88222 9.75003 6.64606C11.6001 5.4099 13.7751 4.7501 16.0002 4.7501C18.2252 4.7501 20.4003 5.4099 22.2503 6.64606C24.1004 7.88222 25.5423 9.63922 26.3938 11.6949C27.2453 13.7505 27.4681 16.0125 27.034 18.1948C26.6 20.3771 25.5285 22.3817 23.9552 23.955Z" fill="#112D1F"/>
</svg>
