<svg width="32" height="32" viewBox="0 0 32 32" fill="none" xmlns="http://www.w3.org/2000/svg">
<path d="M28.8162 20.7675L22.375 19.3162L8.53 5.46998C8.45839 5.39832 8.37301 5.34191 8.27901 5.30416C8.18501 5.2664 8.08433 5.24808 7.98305 5.2503C7.88177 5.25252 7.78199 5.27524 7.68973 5.31707C7.59748 5.35891 7.51465 5.419 7.44625 5.49373C4.74 8.45248 3.25 12.1837 3.25 16V25C3.25 25.4641 3.43437 25.9092 3.76256 26.2374C4.09075 26.5656 4.53587 26.75 5 26.75H9C9.46413 26.75 9.90925 26.5656 10.2374 26.2374C10.5656 25.9092 10.75 25.4641 10.75 25V18.4562C13.6752 20.0394 15.9609 22.5879 17.2175 25.6675C17.349 25.9897 17.5742 26.2652 17.8638 26.4581C18.1535 26.6511 18.4944 26.7528 18.8425 26.75H30C30.4641 26.75 30.9092 26.5656 31.2374 26.2374C31.5656 25.9092 31.75 25.4641 31.75 25V24.4087C31.7519 23.5576 31.4616 22.7316 30.9276 22.0688C30.3936 21.4061 29.6483 20.9467 28.8162 20.7675ZM9.25 25C9.25 25.0663 9.22366 25.1299 9.17678 25.1768C9.12989 25.2236 9.0663 25.25 9 25.25H5C4.9337 25.25 4.87011 25.2236 4.82322 25.1768C4.77634 25.1299 4.75 25.0663 4.75 25V16.7725C6.29345 16.8494 7.81374 17.1796 9.25 17.75V25ZM30.25 25C30.25 25.0663 30.2237 25.1299 30.1768 25.1768C30.1299 25.2236 30.0663 25.25 30 25.25H18.84C18.7911 25.2509 18.7429 25.2373 18.7016 25.2111C18.6603 25.1849 18.6276 25.1471 18.6075 25.1025C17.442 22.2355 15.4611 19.7734 12.91 18.0212C10.5066 16.3627 7.68684 15.4101 4.77 15.2712C4.93375 12.3325 6.075 9.47873 8.03875 7.09873L21.47 20.53C21.5702 20.6302 21.6968 20.7 21.835 20.7312L28.4888 22.2312C28.9881 22.3379 29.4356 22.6129 29.7562 23.0103C30.0769 23.4076 30.2512 23.9031 30.25 24.4137V25Z" fill="#112D1F"/>
</svg>
