<svg width="32" height="32" viewBox="0 0 32 32" fill="none" xmlns="http://www.w3.org/2000/svg">
<path d="M16.7498 12.5C16.7498 12.7472 16.6765 12.9889 16.5391 13.1945C16.4018 13.4 16.2066 13.5602 15.9782 13.6548C15.7498 13.7495 15.4984 13.7742 15.2559 13.726C15.0135 13.6778 14.7907 13.5587 14.6159 13.3839C14.4411 13.2091 14.3221 12.9863 14.2738 12.7439C14.2256 12.5014 14.2504 12.2501 14.345 12.0216C14.4396 11.7932 14.5998 11.598 14.8053 11.4607C15.0109 11.3233 15.2526 11.25 15.4998 11.25C15.8313 11.25 16.1493 11.3817 16.3837 11.6161C16.6181 11.8505 16.7498 12.1685 16.7498 12.5ZM28.7498 16.1812C28.6945 19.4843 27.3629 22.6377 25.0341 24.9808C22.7052 27.3238 19.56 28.6746 16.2573 28.75H15.9911C12.8637 28.771 9.83919 27.6343 7.49981 25.5588C7.42382 25.4938 7.36156 25.4144 7.31671 25.3251C7.27185 25.2358 7.2453 25.1384 7.23862 25.0387C7.23193 24.9389 7.24524 24.8389 7.27777 24.7444C7.3103 24.6499 7.36139 24.5628 7.42804 24.4883C7.49469 24.4139 7.57555 24.3535 7.66587 24.3107C7.7562 24.2679 7.85416 24.2436 7.95401 24.2392C8.05386 24.2348 8.15358 24.2504 8.24731 24.2851C8.34104 24.3198 8.42689 24.3729 8.49981 24.4412C9.32365 25.1774 10.2547 25.784 11.2611 26.24L14.8861 21.2537C11.8948 19.8325 8.61356 20.3875 6.78606 20.6975C6.0948 20.8182 5.38349 20.7415 4.73386 20.4762C4.08423 20.2109 3.52263 19.7677 3.11356 19.1975C3.10369 19.1847 3.09451 19.1713 3.08606 19.1575L1.36231 16.4075C1.30991 16.3236 1.27465 16.2301 1.25854 16.1324C1.24243 16.0348 1.2458 15.935 1.26846 15.8386C1.29112 15.7423 1.33261 15.6514 1.39055 15.5712C1.4485 15.491 1.52174 15.423 1.60606 15.3713L14.2498 7.58125V4C14.2498 3.80109 14.3288 3.61032 14.4695 3.46967C14.6101 3.32902 14.8009 3.25 14.9998 3.25H15.9998C17.6895 3.24983 19.3624 3.58553 20.9213 4.23758C22.4801 4.88963 23.8938 5.84503 25.0801 7.04824C26.2665 8.25145 27.2018 9.67847 27.8318 11.2464C28.4618 12.8142 28.7738 14.4917 28.7498 16.1812ZM27.2498 16.16C27.271 14.6692 26.9957 13.1891 26.4398 11.8057C25.884 10.4222 25.0586 9.16308 24.0119 8.10141C22.9651 7.03975 21.7177 6.19674 20.3423 5.6214C18.9668 5.04605 17.4907 4.74985 15.9998 4.75H15.7498V8C15.7498 8.12814 15.7169 8.25413 15.6543 8.36595C15.5917 8.47777 15.5015 8.57169 15.3923 8.63875L3.03606 16.2425L4.34481 18.335C4.59157 18.672 4.92767 18.9332 5.31512 19.0891C5.70257 19.2451 6.12592 19.2896 6.53731 19.2175C8.51481 18.8838 12.5898 18.195 16.1911 20.245C17.5492 20.1955 18.8352 19.6213 19.7786 18.6431C20.722 17.6649 21.2494 16.359 21.2498 15C21.2498 14.8011 21.3288 14.6103 21.4695 14.4697C21.6101 14.329 21.8009 14.25 21.9998 14.25C22.1987 14.25 22.3895 14.329 22.5301 14.4697C22.6708 14.6103 22.7498 14.8011 22.7498 15C22.7477 16.7218 22.0885 18.3778 20.9067 19.6299C19.725 20.8821 18.1098 21.6359 16.3911 21.7375L12.7211 26.7838C13.8591 27.1174 15.0416 27.2747 16.2273 27.25C19.1411 27.1826 21.9158 25.9905 23.9705 23.9233C26.0251 21.8561 27.2002 19.0742 27.2498 16.16Z" fill="#112D1F"/>
</svg>
