<svg width="32" height="32" viewBox="0 0 32 32" fill="none" xmlns="http://www.w3.org/2000/svg">
<path d="M21.6139 10.3862C21.3179 8.62019 20.5413 6.96976 19.3692 5.61598C18.1971 4.26219 16.6748 3.25734 14.9693 2.71163C13.2638 2.16593 11.441 2.10046 9.70068 2.52239C7.96042 2.94432 6.36996 3.83737 5.10376 5.10357C3.83755 6.36978 2.94451 7.96024 2.52257 9.7005C2.10064 11.4408 2.16611 13.2636 2.71182 14.9691C3.25752 16.6746 4.26237 18.1969 5.61616 19.369C6.96995 20.5411 8.62038 21.3178 10.3864 21.6137C10.6824 23.3798 11.4591 25.0302 12.6312 26.384C13.8032 27.7378 15.3255 28.7427 17.031 29.2884C18.7366 29.8341 20.5594 29.8995 22.2997 29.4776C24.0399 29.0557 25.6304 28.1626 26.8966 26.8964C28.1628 25.6302 29.0559 24.0398 29.4778 22.2995C29.8997 20.5592 29.8342 18.7364 29.2885 17.0309C28.7428 15.3254 27.738 13.8031 26.3842 12.631C25.0304 11.4589 23.38 10.6822 21.6139 10.3862ZM3.75018 12C3.75132 9.96514 4.50445 8.00248 5.86482 6.4892C7.2252 4.97592 9.09685 4.01877 11.1201 3.8017C13.1434 3.58463 15.1754 4.12295 16.8259 5.31321C18.4763 6.50347 19.6287 8.26169 20.0614 10.25H20.0002C17.4152 10.253 14.937 11.2812 13.1092 13.109C11.2813 14.9368 10.2532 17.415 10.2502 20C10.2502 20.0212 10.2502 20.0412 10.2502 20.0612C8.41025 19.6595 6.76276 18.6413 5.58064 17.1752C4.39852 15.7092 3.75271 13.8833 3.75018 12ZM11.7502 20C11.7488 18.8138 12.0047 17.6415 12.5002 16.5637L15.4364 19.5C14.3587 19.9955 13.1864 20.2514 12.0002 20.25C11.9189 20.25 11.8377 20.25 11.7502 20.2437C11.7502 20.1625 11.7502 20.0812 11.7502 20ZM16.7789 18.7187L13.2789 15.2187C13.8136 14.469 14.4692 13.8134 15.2189 13.2787L18.7189 16.7787C18.1842 17.5284 17.5286 18.1841 16.7789 18.7187ZM20.2502 12C20.2516 13.1862 19.9957 14.3585 19.5002 15.4362L16.5639 12.5C17.6416 12.0045 18.814 11.7486 20.0002 11.75C20.0814 11.75 20.1627 11.75 20.2439 11.75C20.2502 11.8375 20.2502 11.9187 20.2502 12ZM20.0002 28.25C18.1169 28.2475 16.291 27.6017 14.8249 26.4195C13.3589 25.2374 12.3407 23.5899 11.9389 21.75H12.0002C14.5851 21.747 17.0633 20.7188 18.8912 18.891C20.719 17.0632 21.7472 14.5849 21.7502 12C21.7502 11.9787 21.7502 11.9587 21.7502 11.9387C23.7385 12.3715 25.4967 13.5239 26.687 15.1743C27.8772 16.8247 28.4155 18.8568 28.1985 20.8801C27.9814 22.9033 27.0243 24.775 25.511 26.1354C23.9977 27.4957 22.035 28.2489 20.0002 28.25Z" fill="#112D1F"/>
</svg>
