<svg width="32" height="32" viewBox="0 0 32 32" fill="none" xmlns="http://www.w3.org/2000/svg">
<path d="M26.7298 14.8287C26.7017 14.7087 26.6445 14.5974 26.5632 14.5047C26.4819 14.4121 26.3789 14.3409 26.2635 14.2975L18.8598 11.5212L20.7348 2.14623C20.7668 1.98622 20.7457 1.82014 20.6748 1.67319C20.6039 1.52624 20.4869 1.40643 20.3418 1.33193C20.1966 1.25744 20.0311 1.23232 19.8703 1.26039C19.7096 1.28846 19.5624 1.36819 19.451 1.48748L5.45104 16.4875C5.36697 16.5776 5.3064 16.6871 5.27471 16.8062C5.24303 16.9254 5.24119 17.0505 5.26937 17.1705C5.29755 17.2905 5.35487 17.4017 5.43627 17.4943C5.51767 17.5868 5.62063 17.6579 5.73604 17.7012L13.1398 20.4775L11.2648 29.8525C11.2326 30.0125 11.2535 30.1787 11.3243 30.3258C11.3952 30.4729 11.5121 30.5929 11.6573 30.6675C11.7634 30.7215 11.8807 30.7497 11.9998 30.75C12.1028 30.75 12.2046 30.7288 12.299 30.6877C12.3934 30.6466 12.4784 30.5866 12.5485 30.5112L26.5485 15.5112C26.6325 15.4211 26.6929 15.3117 26.7245 15.1926C26.7561 15.0736 26.7579 14.9486 26.7298 14.8287ZM13.2498 27.5575L14.731 20.1475C14.7662 19.9729 14.7381 19.7915 14.6517 19.6358C14.5654 19.4801 14.4265 19.3602 14.2598 19.2975L7.30979 16.6912L18.7423 4.44123L17.2648 11.8525C17.2297 12.027 17.2578 12.2084 17.3441 12.3641C17.4304 12.5199 17.5694 12.6398 17.736 12.7025L24.686 15.3087L13.2498 27.5575Z" fill="#112D1F"/>
</svg>
