<svg width="32" height="32" viewBox="0 0 32 32" fill="none" xmlns="http://www.w3.org/2000/svg">
<path d="M26 10.25C25.8011 10.25 25.6103 10.329 25.4697 10.4697C25.329 10.6103 25.25 10.8011 25.25 11V13.25H23.375L22.75 6.92501C22.7305 6.73769 22.6413 6.56455 22.5 6.44001L17.1388 1.67126L17.12 1.65626C16.8055 1.39434 16.4092 1.25092 16 1.25092C15.5908 1.25092 15.1945 1.39434 14.88 1.65626L14.8612 1.67126L9.5 6.44001C9.35873 6.56455 9.26948 6.73769 9.25 6.92501L8.625 13.25H6.75V11C6.75 10.8011 6.67098 10.6103 6.53033 10.4697C6.38968 10.329 6.19891 10.25 6 10.25C5.80109 10.25 5.61032 10.329 5.46967 10.4697C5.32902 10.6103 5.25 10.8011 5.25 11V14C5.25 14.1989 5.32902 14.3897 5.46967 14.5303C5.61032 14.671 5.80109 14.75 6 14.75H8.46875L7.2575 26.8338C7.23433 27.0765 7.26216 27.3214 7.3392 27.5528C7.41623 27.7842 7.54078 27.9969 7.70484 28.1774C7.86891 28.3578 8.06887 28.5019 8.29191 28.6005C8.51495 28.6992 8.75613 28.7501 9 28.75H23C23.2441 28.7499 23.4855 28.6988 23.7087 28.5999C23.9318 28.501 24.1318 28.3565 24.2958 28.1756C24.4598 27.9948 24.5842 27.7817 24.6609 27.5499C24.7376 27.3182 24.765 27.073 24.7412 26.83L23.5312 14.75H26C26.1989 14.75 26.3897 14.671 26.5303 14.5303C26.671 14.3897 26.75 14.1989 26.75 14V11C26.75 10.8011 26.671 10.6103 26.5303 10.4697C26.3897 10.329 26.1989 10.25 26 10.25ZM15.8462 2.80251C15.8902 2.76825 15.9443 2.74964 16 2.74964C16.0557 2.74964 16.1098 2.76825 16.1537 2.80251L20.0287 6.25001H11.9712L15.8462 2.80251ZM10.6788 7.75001H21.3213L21.875 13.25H16.75V11C16.75 10.8011 16.671 10.6103 16.5303 10.4697C16.3897 10.329 16.1989 10.25 16 10.25C15.8011 10.25 15.6103 10.329 15.4697 10.4697C15.329 10.6103 15.25 10.8011 15.25 11V13.25H10.125L10.6788 7.75001ZM23.1787 27.1688C23.156 27.1937 23.1284 27.2137 23.0977 27.2277C23.067 27.2416 23.0337 27.2492 23 27.25H9C8.96542 27.2501 8.93119 27.2431 8.89947 27.2293C8.86776 27.2155 8.83926 27.1952 8.81576 27.1699C8.79226 27.1445 8.77429 27.1145 8.76297 27.0818C8.75165 27.0492 8.74723 27.0145 8.75 26.98L9.275 21.75H22.725L23.25 26.9763C23.2532 27.0111 23.2491 27.0462 23.2379 27.0794C23.2267 27.1126 23.2087 27.143 23.185 27.1688H23.1787ZM22.575 20.25H9.425L9.97625 14.75H22.0238L22.575 20.25Z" fill="#112D1F"/>
</svg>
