<svg width="32" height="32" viewBox="0 0 32 32" fill="none" xmlns="http://www.w3.org/2000/svg">
<path d="M21.7502 29C21.7502 29.1989 21.6712 29.3897 21.5305 29.5303C21.3898 29.671 21.1991 29.75 21.0002 29.75H11.0002C10.8013 29.75 10.6105 29.671 10.4698 29.5303C10.3292 29.3897 10.2502 29.1989 10.2502 29C10.2502 28.8011 10.3292 28.6103 10.4698 28.4697C10.6105 28.329 10.8013 28.25 11.0002 28.25H21.0002C21.1991 28.25 21.3898 28.329 21.5305 28.4697C21.6712 28.6103 21.7502 28.8011 21.7502 29ZM26.7502 13C26.7544 14.6293 26.3863 16.238 25.674 17.7033C24.9617 19.1686 23.924 20.4518 22.6402 21.455C22.3649 21.6666 22.1416 21.9383 21.9873 22.2494C21.8331 22.5605 21.752 22.9028 21.7502 23.25V24C21.7502 24.4641 21.5658 24.9093 21.2376 25.2374C20.9094 25.5656 20.4643 25.75 20.0002 25.75H12.0002C11.536 25.75 11.0909 25.5656 10.7627 25.2374C10.4345 24.9093 10.2502 24.4641 10.2502 24V23.25C10.2498 22.9064 10.1708 22.5674 10.0191 22.2591C9.86744 21.9507 9.64716 21.6812 9.37517 21.4713C8.09544 20.4746 7.05907 19.2001 6.34444 17.7439C5.62981 16.2878 5.25562 14.6883 5.25017 13.0663C5.21767 7.23875 9.92392 2.39 15.7414 2.25C17.1748 2.21549 18.6005 2.46805 19.9348 2.99282C21.269 3.51758 22.4848 4.30395 23.5106 5.30564C24.5364 6.30733 25.3515 7.50409 25.9078 8.8255C26.4642 10.1469 26.7506 11.5663 26.7502 13ZM25.2502 13C25.2505 11.7662 25.0041 10.5448 24.5253 9.40772C24.0465 8.27063 23.3451 7.2408 22.4623 6.37887C21.5795 5.51694 20.5332 4.84032 19.385 4.38884C18.2368 3.93737 17.0098 3.72016 15.7764 3.75C10.7714 3.875 6.72267 8.0425 6.75017 13.0525C6.7549 14.4485 7.07695 15.8251 7.69196 17.0783C8.30698 18.3315 9.19885 19.4284 10.3002 20.2863C10.7524 20.6365 11.1183 21.0858 11.3697 21.5996C11.621 22.1134 11.7512 22.678 11.7502 23.25V24C11.7502 24.0663 11.7765 24.1299 11.8234 24.1768C11.8703 24.2237 11.9339 24.25 12.0002 24.25H20.0002C20.0665 24.25 20.1301 24.2237 20.1769 24.1768C20.2238 24.1299 20.2502 24.0663 20.2502 24V23.25C20.2517 22.6759 20.3842 22.1097 20.6377 21.5946C20.8911 21.0795 21.2588 20.629 21.7127 20.2775C22.8181 19.4144 23.7115 18.3099 24.3246 17.0486C24.9377 15.7873 25.2543 14.4024 25.2502 13ZM22.7402 11.875C22.4901 10.4775 21.8178 9.19013 20.8139 8.18623C19.81 7.18234 18.5227 6.5101 17.1252 6.26C17.028 6.24359 16.9285 6.24647 16.8325 6.2685C16.7364 6.29052 16.6456 6.33125 16.5653 6.38835C16.4031 6.50369 16.2933 6.67874 16.2602 6.875C16.227 7.07126 16.2732 7.27265 16.3885 7.43487C16.5039 7.59709 16.6789 7.70685 16.8752 7.74C19.0477 8.105 20.8914 9.95 21.2602 12.125C21.2897 12.2996 21.3801 12.4582 21.5153 12.5726C21.6505 12.687 21.8218 12.7498 21.9989 12.75C22.0408 12.7497 22.0826 12.7464 22.1239 12.74C22.2212 12.7238 22.3144 12.6885 22.3981 12.6363C22.4817 12.584 22.5543 12.5157 22.6115 12.4354C22.6688 12.355 22.7096 12.2642 22.7317 12.168C22.7537 12.0718 22.7566 11.9723 22.7402 11.875Z" fill="#112D1F"/>
</svg>
