<svg width="32" height="32" viewBox="0 0 32 32" fill="none" xmlns="http://www.w3.org/2000/svg">
<path d="M26.6536 5.34622C25.9963 4.68906 25.1185 4.29941 24.1902 4.25282C23.2619 4.20624 22.3494 4.50604 21.6296 5.09409C20.9099 5.68214 20.4341 6.51654 20.2947 7.43546C20.1552 8.35438 20.362 9.29235 20.8749 10.0675L10.0674 20.875C9.34564 20.3994 8.48206 20.1872 7.6221 20.2739C6.76214 20.3606 5.95835 20.7411 5.34613 21.3512C4.84437 21.8531 4.49532 22.487 4.33953 23.1794C4.18373 23.8717 4.2276 24.594 4.46601 25.2625C4.70443 25.9309 5.12762 26.5179 5.68641 26.9554C6.2452 27.3928 6.91665 27.6628 7.62275 27.7338C8.32885 27.8048 9.0406 27.674 9.67532 27.3566C10.31 27.0392 10.8417 26.5482 11.2084 25.9406C11.5752 25.3331 11.762 24.634 11.7472 23.9245C11.7324 23.2149 11.5166 22.5242 11.1249 21.9325L21.9324 11.125C22.7077 11.6407 23.6471 11.8495 24.5678 11.7108C25.4886 11.5721 26.3248 11.0958 26.9137 10.3746C27.5027 9.65338 27.8023 8.73886 27.7542 7.80897C27.7061 6.87908 27.3138 6.00033 26.6536 5.34372V5.34622ZM9.58988 25.5962C9.27518 25.9108 8.87427 26.125 8.43783 26.2118C8.00139 26.2985 7.54903 26.2539 7.13794 26.0836C6.72685 25.9133 6.37549 25.6249 6.12829 25.2549C5.88109 24.8849 5.74915 24.4499 5.74915 24.005C5.74915 23.56 5.88109 23.125 6.12829 22.755C6.37549 22.385 6.72685 22.0966 7.13794 21.9263C7.54903 21.756 8.00139 21.7114 8.43783 21.7982C8.87427 21.8849 9.27518 22.0991 9.58988 22.4137C10.0108 22.8355 10.2473 23.4072 10.2473 24.0031C10.2473 24.599 10.0108 25.1706 9.58988 25.5925V25.5962ZM25.5899 9.59622C25.3809 9.80523 25.1329 9.97103 24.8598 10.0841C24.5868 10.1973 24.2942 10.2555 23.9986 10.2555C23.7031 10.2555 23.4104 10.1973 23.1374 10.0841C22.8644 9.97103 22.6163 9.80523 22.4074 9.59622C22.0928 9.28152 21.8786 8.88061 21.7918 8.44417C21.705 8.00774 21.7496 7.55537 21.92 7.14428C22.0903 6.73319 22.3787 6.38183 22.7487 6.13463C23.1187 5.88743 23.5536 5.75549 23.9986 5.75549C24.4436 5.75549 24.8786 5.88743 25.2486 6.13463C25.6186 6.38183 25.907 6.73319 26.0773 7.14428C26.2476 7.55537 26.2922 8.00774 26.2054 8.44417C26.1187 8.88061 25.9045 9.28152 25.5899 9.59622Z" fill="#112D1F"/>
</svg>
