<svg width="32" height="32" viewBox="0 0 32 32" fill="none" xmlns="http://www.w3.org/2000/svg">
<path d="M24.0001 8C23.2043 7.20532 22.126 6.75844 21.0013 6.75727C19.8767 6.7561 18.7975 7.20072 18.0001 7.99375L16.5426 9.5175C16.4754 9.59175 16.394 9.6518 16.3032 9.69409C16.2124 9.73638 16.1141 9.76006 16.014 9.76374C15.9139 9.76741 15.8141 9.751 15.7205 9.71549C15.6268 9.67997 15.5413 9.62605 15.4688 9.55693C15.3963 9.4878 15.3384 9.40486 15.2985 9.313C15.2587 9.22114 15.2376 9.12222 15.2365 9.02208C15.2355 8.92194 15.2545 8.8226 15.2924 8.72993C15.3304 8.63725 15.3866 8.55312 15.4576 8.4825L16.9213 6.9475L16.9338 6.93375C18.0122 5.85531 19.4749 5.24945 21.0001 5.24945C22.5252 5.24945 23.9879 5.85531 25.0663 6.93375C26.1447 8.01218 26.7506 9.47486 26.7506 11C26.7506 12.5251 26.1447 13.9878 25.0663 15.0662L25.0526 15.0787L23.5176 16.5425C23.3726 16.6737 23.1821 16.7431 22.9868 16.7359C22.7914 16.7287 22.6066 16.6456 22.4716 16.5041C22.3367 16.3626 22.2623 16.1741 22.2643 15.9786C22.2664 15.7831 22.3447 15.5961 22.4826 15.4575L24.0113 14C24.8037 13.2019 25.2474 12.1223 25.2453 10.9977C25.2432 9.87305 24.7954 8.79511 24.0001 8ZM15.4526 22.4875L14.0001 24.0112C13.2029 24.8084 12.1218 25.2562 10.9944 25.2562C9.86711 25.2562 8.78595 24.8084 7.98881 24.0112C7.19167 23.2141 6.74384 22.1329 6.74384 21.0056C6.74384 19.8783 7.19167 18.7971 7.98881 18L9.51756 16.5412C9.59181 16.474 9.65186 16.3927 9.69415 16.3019C9.73644 16.2111 9.76012 16.1128 9.7638 16.0127C9.76747 15.9126 9.75107 15.8128 9.71555 15.7192C9.68003 15.6255 9.62611 15.5399 9.55699 15.4675C9.48786 15.395 9.40492 15.3371 9.31306 15.2972C9.2212 15.2573 9.12229 15.2362 9.02214 15.2352C8.922 15.2342 8.82266 15.2532 8.72999 15.2911C8.63732 15.3291 8.55318 15.3852 8.48256 15.4562L6.94756 16.9212L6.93381 16.9337C5.85537 18.0122 5.24951 19.4749 5.24951 21C5.24951 22.5251 5.85537 23.9878 6.93381 25.0662C8.01224 26.1447 9.47492 26.7505 11.0001 26.7505C12.5252 26.7505 13.9879 26.1447 15.0663 25.0662L15.0788 25.0525L16.5426 23.5175C16.6136 23.4469 16.6697 23.3627 16.7077 23.2701C16.7456 23.1774 16.7647 23.0781 16.7636 22.9779C16.7626 22.8778 16.7415 22.7789 16.7016 22.687C16.6617 22.5951 16.6038 22.5122 16.5313 22.4431C16.4589 22.3739 16.3733 22.32 16.2796 22.2845C16.186 22.249 16.0862 22.2326 15.9861 22.2363C15.886 22.2399 15.7877 22.2636 15.6969 22.3059C15.6061 22.3482 15.5248 22.4082 15.4576 22.4825L15.4526 22.4875ZM26.0001 19.25H23.0001C22.8011 19.25 22.6104 19.329 22.4697 19.4697C22.3291 19.6103 22.2501 19.8011 22.2501 20C22.2501 20.1989 22.3291 20.3897 22.4697 20.5303C22.6104 20.671 22.8011 20.75 23.0001 20.75H26.0001C26.199 20.75 26.3897 20.671 26.5304 20.5303C26.671 20.3897 26.7501 20.1989 26.7501 20C26.7501 19.8011 26.671 19.6103 26.5304 19.4697C26.3897 19.329 26.199 19.25 26.0001 19.25ZM6.00006 12.75H9.00006C9.19897 12.75 9.38974 12.671 9.53039 12.5303C9.67104 12.3897 9.75006 12.1989 9.75006 12C9.75006 11.8011 9.67104 11.6103 9.53039 11.4697C9.38974 11.329 9.19897 11.25 9.00006 11.25H6.00006C5.80115 11.25 5.61038 11.329 5.46973 11.4697C5.32908 11.6103 5.25006 11.8011 5.25006 12C5.25006 12.1989 5.32908 12.3897 5.46973 12.5303C5.61038 12.671 5.80115 12.75 6.00006 12.75ZM20.0001 22.25C19.8011 22.25 19.6104 22.329 19.4697 22.4697C19.3291 22.6103 19.2501 22.8011 19.2501 23V26C19.2501 26.1989 19.3291 26.3897 19.4697 26.5303C19.6104 26.671 19.8011 26.75 20.0001 26.75C20.199 26.75 20.3897 26.671 20.5304 26.5303C20.671 26.3897 20.7501 26.1989 20.7501 26V23C20.7501 22.8011 20.671 22.6103 20.5304 22.4697C20.3897 22.329 20.199 22.25 20.0001 22.25ZM12.0001 9.75C12.199 9.75 12.3897 9.67098 12.5304 9.53033C12.671 9.38967 12.7501 9.19891 12.7501 9V6C12.7501 5.80108 12.671 5.61032 12.5304 5.46967C12.3897 5.32901 12.199 5.25 12.0001 5.25C11.8011 5.25 11.6104 5.32901 11.4697 5.46967C11.3291 5.61032 11.2501 5.80108 11.2501 6V9C11.2501 9.19891 11.3291 9.38967 11.4697 9.53033C11.6104 9.67098 11.8011 9.75 12.0001 9.75Z" fill="#112D1F"/>
</svg>
