<svg width="32" height="32" viewBox="0 0 32 32" fill="none" xmlns="http://www.w3.org/2000/svg">
<path d="M17.0162 23.4712C17.0859 23.5409 17.1412 23.6236 17.179 23.7146C17.2167 23.8057 17.2361 23.9033 17.2361 24.0019C17.2361 24.1004 17.2167 24.198 17.179 24.2891C17.1412 24.3801 17.0859 24.4628 17.0162 24.5325L15.7724 25.775C14.5063 27.0411 12.7892 27.7523 10.9987 27.7523C9.20816 27.7523 7.49099 27.0411 6.22491 25.775C4.95883 24.5089 4.24756 22.7917 4.24756 21.0012C4.24756 19.2107 4.95883 17.4936 6.22491 16.2275L9.23866 13.2125C10.456 11.9938 12.0931 11.2866 13.8149 11.2357C15.5367 11.1848 17.2127 11.7941 18.4999 12.9387C18.5738 13.0044 18.634 13.084 18.6771 13.1729C18.7202 13.2618 18.7454 13.3584 18.7512 13.457C18.757 13.5557 18.7433 13.6545 18.7109 13.7479C18.6785 13.8413 18.6281 13.9274 18.5624 14.0012C18.4967 14.0751 18.4172 14.1353 18.3283 14.1784C18.2393 14.2215 18.1428 14.2467 18.0441 14.2525C17.9454 14.2583 17.8466 14.2446 17.7532 14.2123C17.6599 14.1799 17.5738 14.1294 17.4999 14.0637C16.4989 13.1745 15.1959 12.7013 13.8575 12.7411C12.5191 12.7808 11.2464 13.3304 10.2999 14.2775L7.28491 17.2875C6.29996 18.2724 5.74662 19.6083 5.74662 21.0012C5.74662 22.3942 6.29996 23.73 7.28491 24.715C8.26986 25.6999 9.60573 26.2533 10.9987 26.2533C12.3916 26.2533 13.7275 25.6999 14.7124 24.715L15.9549 23.4712C16.0246 23.4015 16.1073 23.3462 16.1983 23.3084C16.2894 23.2707 16.387 23.2513 16.4855 23.2513C16.5841 23.2513 16.6817 23.2707 16.7727 23.3084C16.8638 23.3462 16.9465 23.4015 17.0162 23.4712ZM25.7749 6.22123C24.508 4.95672 22.7911 4.24652 21.0012 4.24652C19.2112 4.24652 17.4943 4.95672 16.2274 6.22123L14.9837 7.46373C14.8429 7.60446 14.7639 7.79533 14.7639 7.99435C14.7639 8.19338 14.8429 8.38425 14.9837 8.52498C15.1244 8.66571 15.3153 8.74477 15.5143 8.74477C15.7133 8.74477 15.9042 8.66571 16.0449 8.52498L17.2874 7.27498C18.2724 6.29003 19.6082 5.73669 21.0012 5.73669C22.3941 5.73669 23.73 6.29003 24.7149 7.27498C25.6999 8.25992 26.2532 9.5958 26.2532 10.9887C26.2532 12.3817 25.6999 13.7175 24.7149 14.7025L21.6999 17.7262C20.7534 18.6733 19.4807 19.2229 18.1423 19.2626C16.804 19.3024 15.501 18.8292 14.4999 17.94C14.426 17.8743 14.34 17.8238 14.2466 17.7915C14.1532 17.7591 14.0544 17.7454 13.9557 17.7512C13.8571 17.757 13.7605 17.7822 13.6716 17.8253C13.5826 17.8684 13.5031 17.9286 13.4374 18.0025C13.3717 18.0763 13.3213 18.1624 13.2889 18.2558C13.2565 18.3492 13.2428 18.448 13.2486 18.5467C13.2544 18.6453 13.2796 18.7419 13.3227 18.8308C13.3658 18.9197 13.426 18.9993 13.4999 19.065C14.7869 20.2089 16.4625 20.8177 18.1837 20.7668C19.9048 20.7159 21.5415 20.0092 22.7587 18.7912L25.7724 15.7762C26.4002 15.1495 26.8982 14.4052 27.2381 13.5858C27.578 12.7665 27.7531 11.8882 27.7533 11.0011C27.7536 10.1141 27.579 9.23566 27.2395 8.41614C26.9 7.59661 26.4023 6.85203 25.7749 6.22498V6.22123Z" fill="#112D1F"/>
</svg>
