<svg width="32" height="32" viewBox="0 0 32 32" fill="none" xmlns="http://www.w3.org/2000/svg">
<path d="M27.7502 16C27.7502 16.1989 27.6712 16.3897 27.5305 16.5303C27.3899 16.671 27.1991 16.75 27.0002 16.75H13.0002C12.8013 16.75 12.6105 16.671 12.4699 16.5303C12.3292 16.3897 12.2502 16.1989 12.2502 16C12.2502 15.8011 12.3292 15.6103 12.4699 15.4697C12.6105 15.329 12.8013 15.25 13.0002 15.25H27.0002C27.1991 15.25 27.3899 15.329 27.5305 15.4697C27.6712 15.6103 27.7502 15.8011 27.7502 16ZM13.0002 8.74998H27.0002C27.1991 8.74998 27.3899 8.67096 27.5305 8.53031C27.6712 8.38966 27.7502 8.19889 27.7502 7.99998C27.7502 7.80107 27.6712 7.6103 27.5305 7.46965C27.3899 7.329 27.1991 7.24998 27.0002 7.24998H13.0002C12.8013 7.24998 12.6105 7.329 12.4699 7.46965C12.3292 7.6103 12.2502 7.80107 12.2502 7.99998C12.2502 8.19889 12.3292 8.38966 12.4699 8.53031C12.6105 8.67096 12.8013 8.74998 13.0002 8.74998ZM27.0002 23.25H13.0002C12.8013 23.25 12.6105 23.329 12.4699 23.4697C12.3292 23.6103 12.2502 23.8011 12.2502 24C12.2502 24.1989 12.3292 24.3897 12.4699 24.5303C12.6105 24.671 12.8013 24.75 13.0002 24.75H27.0002C27.1991 24.75 27.3899 24.671 27.5305 24.5303C27.6712 24.3897 27.7502 24.1989 27.7502 24C27.7502 23.8011 27.6712 23.6103 27.5305 23.4697C27.3899 23.329 27.1991 23.25 27.0002 23.25ZM5.3352 6.67123L6.2502 6.21373V13C6.2502 13.1989 6.32922 13.3897 6.46987 13.5303C6.61052 13.671 6.80129 13.75 7.0002 13.75C7.19911 13.75 7.38988 13.671 7.53053 13.5303C7.67118 13.3897 7.7502 13.1989 7.7502 13V4.99998C7.75024 4.87216 7.71761 4.74645 7.65541 4.63478C7.5932 4.52311 7.50349 4.4292 7.39479 4.36195C7.28609 4.2947 7.162 4.25635 7.03431 4.25053C6.90662 4.24472 6.77956 4.27164 6.6652 4.32873L4.6652 5.32873C4.48718 5.41758 4.35173 5.57351 4.28868 5.76222C4.22562 5.95092 4.2401 6.15695 4.32895 6.33498C4.4178 6.51301 4.57373 6.64845 4.76244 6.71151C4.95115 6.77457 5.15718 6.76008 5.3352 6.67123ZM9.0002 25.25H6.5002L9.1852 21.6575C9.40701 21.3723 9.56904 21.0453 9.6616 20.6961C9.75417 20.3469 9.77538 19.9826 9.72395 19.625C9.67342 19.262 9.55004 18.9131 9.36122 18.599C9.1724 18.285 8.92205 18.0123 8.6252 17.7975C8.02863 17.3645 7.28781 17.1788 6.55754 17.2792C5.82727 17.3796 5.16404 17.7583 4.70645 18.3362C4.53273 18.5605 4.39446 18.81 4.29645 19.0762C4.22832 19.2632 4.23726 19.4696 4.3213 19.65C4.40534 19.8304 4.5576 19.97 4.74458 20.0381C4.93155 20.1062 5.13794 20.0973 5.31832 20.0133C5.49871 19.9292 5.63832 19.777 5.70645 19.59C5.75044 19.4698 5.81285 19.3572 5.89145 19.2562C6.1078 18.9845 6.42075 18.8067 6.76499 18.7602C7.10922 18.7136 7.45815 18.8017 7.73895 19.0062C7.87347 19.1034 7.98707 19.2266 8.07297 19.3685C8.15887 19.5105 8.21532 19.6683 8.23895 19.8325C8.26066 19.9932 8.2497 20.1566 8.20674 20.313C8.16378 20.4693 8.08971 20.6154 7.98895 20.7425L7.98145 20.7537L4.4002 25.5512C4.31699 25.6627 4.2664 25.795 4.25408 25.9336C4.24177 26.0721 4.26821 26.2113 4.33046 26.3357C4.3927 26.46 4.4883 26.5646 4.60657 26.6378C4.72484 26.711 4.86113 26.7498 5.0002 26.75H9.0002C9.19911 26.75 9.38988 26.671 9.53053 26.5303C9.67118 26.3897 9.7502 26.1989 9.7502 26C9.7502 25.8011 9.67118 25.6103 9.53053 25.4697C9.38988 25.329 9.19911 25.25 9.0002 25.25Z" fill="#112D1F"/>
</svg>
