<svg width="32" height="32" viewBox="0 0 32 32" fill="none" xmlns="http://www.w3.org/2000/svg">
<path d="M27.7502 16C27.7502 16.1989 27.6711 16.3896 27.5305 16.5303C27.3898 16.671 27.1991 16.75 27.0002 16.75H16.0002C15.8012 16.75 15.6105 16.671 15.4698 16.5303C15.3292 16.3896 15.2502 16.1989 15.2502 16C15.2502 15.8011 15.3292 15.6103 15.4698 15.4696C15.6105 15.329 15.8012 15.25 16.0002 15.25H27.0002C27.1991 15.25 27.3898 15.329 27.5305 15.4696C27.6711 15.6103 27.7502 15.8011 27.7502 16ZM16.0002 8.74997H27.0002C27.1991 8.74997 27.3898 8.67095 27.5305 8.5303C27.6711 8.38965 27.7502 8.19888 27.7502 7.99997C27.7502 7.80106 27.6711 7.61029 27.5305 7.46964C27.3898 7.32899 27.1991 7.24997 27.0002 7.24997H16.0002C15.8012 7.24997 15.6105 7.32899 15.4698 7.46964C15.3292 7.61029 15.2502 7.80106 15.2502 7.99997C15.2502 8.19888 15.3292 8.38965 15.4698 8.5303C15.6105 8.67095 15.8012 8.74997 16.0002 8.74997ZM27.0002 23.25H16.0002C15.8012 23.25 15.6105 23.329 15.4698 23.4696C15.3292 23.6103 15.2502 23.8011 15.2502 24C15.2502 24.1989 15.3292 24.3896 15.4698 24.5303C15.6105 24.671 15.8012 24.75 16.0002 24.75H27.0002C27.1991 24.75 27.3898 24.671 27.5305 24.5303C27.6711 24.3896 27.7502 24.1989 27.7502 24C27.7502 23.8011 27.6711 23.6103 27.5305 23.4696C27.3898 23.329 27.1991 23.25 27.0002 23.25ZM10.4702 5.46997L7.00015 8.93872L5.53015 7.46997C5.38798 7.33749 5.19993 7.26537 5.00563 7.26879C4.81133 7.27222 4.62594 7.35093 4.48853 7.48835C4.35112 7.62576 4.27241 7.81115 4.26898 8.00545C4.26555 8.19975 4.33767 8.38779 4.47015 8.52997L6.47015 10.53C6.61078 10.6704 6.8014 10.7493 7.00015 10.7493C7.1989 10.7493 7.38953 10.6704 7.53015 10.53L11.5302 6.52997C11.6626 6.38779 11.7348 6.19975 11.7313 6.00545C11.7279 5.81114 11.6492 5.62576 11.5118 5.48835C11.3744 5.35093 11.189 5.27222 10.9947 5.26879C10.8004 5.26537 10.6123 5.33749 10.4702 5.46997ZM10.4702 13.47L7.00015 16.9387L5.53015 15.47C5.46149 15.3963 5.37869 15.3372 5.28669 15.2962C5.19469 15.2552 5.09538 15.2332 4.99468 15.2314C4.89397 15.2296 4.79394 15.2481 4.70056 15.2858C4.60717 15.3236 4.52233 15.3797 4.45112 15.4509C4.3799 15.5221 4.32375 15.607 4.28603 15.7004C4.24831 15.7938 4.22979 15.8938 4.23156 15.9945C4.23334 16.0952 4.25538 16.1945 4.29637 16.2865C4.33736 16.3785 4.39647 16.4613 4.47015 16.53L6.47015 18.53C6.61078 18.6704 6.8014 18.7493 7.00015 18.7493C7.1989 18.7493 7.38953 18.6704 7.53015 18.53L11.5302 14.53C11.6626 14.3878 11.7348 14.1997 11.7313 14.0054C11.7279 13.8111 11.6492 13.6258 11.5118 13.4883C11.3744 13.3509 11.189 13.2722 10.9947 13.2688C10.8004 13.2654 10.6123 13.3375 10.4702 13.47ZM10.4702 21.47L7.00015 24.9387L5.53015 23.47C5.38798 23.3375 5.19993 23.2654 5.00563 23.2688C4.81133 23.2722 4.62594 23.3509 4.48853 23.4883C4.35112 23.6258 4.27241 23.8111 4.26898 24.0054C4.26555 24.1997 4.33767 24.3878 4.47015 24.53L6.47015 26.53C6.61078 26.6704 6.8014 26.7493 7.00015 26.7493C7.1989 26.7493 7.38953 26.6704 7.53015 26.53L11.5302 22.53C11.6626 22.3878 11.7348 22.1997 11.7313 22.0054C11.7279 21.8111 11.6492 21.6258 11.5118 21.4883C11.3744 21.3509 11.189 21.2722 10.9947 21.2688C10.8004 21.2654 10.6123 21.3375 10.4702 21.47Z" fill="#112D1F"/>
</svg>
