<svg width="32" height="32" viewBox="0 0 32 32" fill="none" xmlns="http://www.w3.org/2000/svg">
<path d="M30.7499 19C30.7499 19.1989 30.6709 19.3897 30.5302 19.5303C30.3896 19.671 30.1988 19.75 29.9999 19.75H27.7499V22C27.7499 22.1989 27.6709 22.3897 27.5302 22.5303C27.3896 22.671 27.1988 22.75 26.9999 22.75C26.801 22.75 26.6102 22.671 26.4696 22.5303C26.3289 22.3897 26.2499 22.1989 26.2499 22V19.75H23.9999C23.801 19.75 23.6102 19.671 23.4696 19.5303C23.3289 19.3897 23.2499 19.1989 23.2499 19C23.2499 18.8011 23.3289 18.6103 23.4696 18.4697C23.6102 18.329 23.801 18.25 23.9999 18.25H26.2499V16C26.2499 15.8011 26.3289 15.6103 26.4696 15.4697C26.6102 15.329 26.801 15.25 26.9999 15.25C27.1988 15.25 27.3896 15.329 27.5302 15.4697C27.6709 15.6103 27.7499 15.8011 27.7499 16V18.25H29.9999C30.1988 18.25 30.3896 18.329 30.5302 18.4697C30.6709 18.6103 30.7499 18.8011 30.7499 19ZM6.99991 8.75H9.24991V11C9.24991 11.1989 9.32893 11.3897 9.46958 11.5303C9.61023 11.671 9.801 11.75 9.99991 11.75C10.1988 11.75 10.3896 11.671 10.5302 11.5303C10.6709 11.3897 10.7499 11.1989 10.7499 11V8.75H12.9999C13.1988 8.75 13.3896 8.67099 13.5302 8.53033C13.6709 8.38968 13.7499 8.19892 13.7499 8C13.7499 7.80109 13.6709 7.61033 13.5302 7.46967C13.3896 7.32902 13.1988 7.25 12.9999 7.25H10.7499V5C10.7499 4.80109 10.6709 4.61033 10.5302 4.46967C10.3896 4.32902 10.1988 4.25 9.99991 4.25C9.801 4.25 9.61023 4.32902 9.46958 4.46967C9.32893 4.61033 9.24991 4.80109 9.24991 5V7.25H6.99991C6.801 7.25 6.61023 7.32902 6.46958 7.46967C6.32893 7.61033 6.24991 7.80109 6.24991 8C6.24991 8.19892 6.32893 8.38968 6.46958 8.53033C6.61023 8.67099 6.801 8.75 6.99991 8.75ZM22.9999 24.25H21.7499V23C21.7499 22.8011 21.6709 22.6103 21.5302 22.4697C21.3896 22.329 21.1988 22.25 20.9999 22.25C20.801 22.25 20.6102 22.329 20.4696 22.4697C20.3289 22.6103 20.2499 22.8011 20.2499 23V24.25H18.9999C18.801 24.25 18.6102 24.329 18.4696 24.4697C18.3289 24.6103 18.2499 24.8011 18.2499 25C18.2499 25.1989 18.3289 25.3897 18.4696 25.5303C18.6102 25.671 18.801 25.75 18.9999 25.75H20.2499V27C20.2499 27.1989 20.3289 27.3897 20.4696 27.5303C20.6102 27.671 20.801 27.75 20.9999 27.75C21.1988 27.75 21.3896 27.671 21.5302 27.5303C21.6709 27.3897 21.7499 27.1989 21.7499 27V25.75H22.9999C23.1988 25.75 23.3896 25.671 23.5302 25.5303C23.6709 25.3897 23.7499 25.1989 23.7499 25C23.7499 24.8011 23.6709 24.6103 23.5302 24.4697C23.3896 24.329 23.1988 24.25 22.9999 24.25ZM27.2374 9.82375L9.82241 27.2375C9.65991 27.4 9.46698 27.5289 9.25465 27.6169C9.04232 27.7049 8.81474 27.7501 8.58491 27.7501C8.35508 27.7501 8.12751 27.7049 7.91517 27.6169C7.70284 27.5289 7.50992 27.4 7.34741 27.2375L4.76116 24.6513C4.59864 24.4888 4.46972 24.2958 4.38176 24.0835C4.29381 23.8712 4.24854 23.6436 4.24854 23.4138C4.24854 23.1839 4.29381 22.9563 4.38176 22.744C4.46972 22.5317 4.59864 22.3388 4.76116 22.1763L22.1762 4.7625C22.3387 4.59998 22.5316 4.47106 22.7439 4.38311C22.9563 4.29515 23.1838 4.24988 23.4137 4.24988C23.6435 4.24988 23.8711 4.29515 24.0834 4.38311C24.2957 4.47106 24.4887 4.59998 24.6512 4.7625L27.2374 7.34875C27.3999 7.51126 27.5289 7.70419 27.6168 7.91652C27.7048 8.12885 27.75 8.35643 27.75 8.58625C27.75 8.81608 27.7048 9.04366 27.6168 9.25599C27.5289 9.46832 27.3999 9.66125 27.2374 9.82375ZM20.9387 14L17.9999 11.0613L5.82241 23.2375C5.79917 23.2607 5.78073 23.2883 5.76815 23.3186C5.75557 23.349 5.74909 23.3815 5.74909 23.4144C5.74909 23.4472 5.75557 23.4798 5.76815 23.5101C5.78073 23.5405 5.79917 23.568 5.82241 23.5913L8.40866 26.1763C8.4555 26.2228 8.51887 26.249 8.58491 26.249C8.65096 26.249 8.71432 26.2228 8.76116 26.1763L20.9387 14ZM26.1762 8.40875L23.5912 5.82375C23.5679 5.80051 23.5404 5.78207 23.51 5.76949C23.4797 5.75691 23.4471 5.75043 23.4143 5.75043C23.3814 5.75043 23.3489 5.75691 23.3186 5.76949C23.2882 5.78207 23.2606 5.80051 23.2374 5.82375L19.0599 10L21.9999 12.94L26.1762 8.7625C26.1994 8.73929 26.2178 8.71171 26.2304 8.68136C26.243 8.65101 26.2495 8.61848 26.2495 8.58563C26.2495 8.55277 26.243 8.52024 26.2304 8.48989C26.2178 8.45954 26.1994 8.43197 26.1762 8.40875Z" fill="#112D1F"/>
</svg>
