<svg width="32" height="32" viewBox="0 0 32 32" fill="none" xmlns="http://www.w3.org/2000/svg">
<path d="M18.7498 14C18.7498 14.1989 18.6708 14.3897 18.5302 14.5304C18.3895 14.671 18.1988 14.75 17.9998 14.75H14.7498V18C14.7498 18.1989 14.6708 18.3897 14.5302 18.5304C14.3895 18.671 14.1988 18.75 13.9998 18.75C13.8009 18.75 13.6102 18.671 13.4695 18.5304C13.3289 18.3897 13.2498 18.1989 13.2498 18V14.75H9.99984C9.80093 14.75 9.61017 14.671 9.46951 14.5304C9.32886 14.3897 9.24984 14.1989 9.24984 14C9.24984 13.8011 9.32886 13.6103 9.46951 13.4697C9.61017 13.329 9.80093 13.25 9.99984 13.25H13.2498V10C13.2498 9.80111 13.3289 9.61035 13.4695 9.4697C13.6102 9.32904 13.8009 9.25003 13.9998 9.25003C14.1988 9.25003 14.3895 9.32904 14.5302 9.4697C14.6708 9.61035 14.7498 9.80111 14.7498 10V13.25H17.9998C18.1988 13.25 18.3895 13.329 18.5302 13.4697C18.6708 13.6103 18.7498 13.8011 18.7498 14ZM28.5298 28.53C28.3892 28.6705 28.1986 28.7494 27.9998 28.7494C27.8011 28.7494 27.6105 28.6705 27.4698 28.53L21.0473 22.1075C18.9411 23.939 16.2061 24.8811 13.4188 24.7354C10.6315 24.5896 8.00965 23.3674 6.10596 21.3262C4.20226 19.2851 3.16543 16.5845 3.21404 13.7938C3.26264 11.0031 4.39288 8.3403 6.3665 6.36668C8.34012 4.39306 11.0029 3.26282 13.7936 3.21422C16.5843 3.16562 19.2849 4.20244 21.326 6.10614C23.3672 8.00984 24.5895 10.6317 24.7352 13.419C24.881 16.2063 23.9388 18.9413 22.1073 21.0475L28.5298 27.47C28.6703 27.6107 28.7492 27.8013 28.7492 28C28.7492 28.1988 28.6703 28.3894 28.5298 28.53ZM13.9998 23.25C15.8293 23.25 17.6177 22.7075 19.1389 21.6911C20.66 20.6747 21.8456 19.2301 22.5457 17.5398C23.2458 15.8496 23.429 13.9898 23.0721 12.1954C22.7152 10.4011 21.8342 8.75292 20.5406 7.45929C19.2469 6.16565 17.5988 5.28468 15.8044 4.92776C14.0101 4.57085 12.1502 4.75403 10.46 5.45414C8.7698 6.15425 7.32515 7.33985 6.30875 8.861C5.29235 10.3822 4.74984 12.1705 4.74984 14C4.75282 16.4524 5.72833 18.8034 7.46239 20.5375C9.19646 22.2715 11.5475 23.247 13.9998 23.25Z" fill="#112D1F"/>
</svg>
