<svg width="32" height="32" viewBox="0 0 32 32" fill="none" xmlns="http://www.w3.org/2000/svg">
<path d="M28.5298 27.47L22.1073 21.0475C23.9388 18.9413 24.881 16.2063 24.7352 13.419C24.5895 10.6317 23.3672 8.00984 21.326 6.10614C19.2849 4.20244 16.5843 3.16562 13.7936 3.21422C11.0029 3.26282 8.34012 4.39306 6.3665 6.36668C4.39288 8.3403 3.26264 11.0031 3.21404 13.7938C3.16543 16.5845 4.20226 19.2851 6.10596 21.3262C8.00965 23.3674 10.6315 24.5896 13.4188 24.7354C16.2061 24.8811 18.9411 23.939 21.0473 22.1075L27.4698 28.53C27.612 28.6625 27.8001 28.7346 27.9944 28.7312C28.1887 28.7278 28.3741 28.6491 28.5115 28.5116C28.6489 28.3742 28.7276 28.1889 28.731 27.9945C28.7344 27.8002 28.6623 27.6122 28.5298 27.47ZM4.74984 14C4.74984 12.1705 5.29235 10.3822 6.30875 8.861C7.32515 7.33985 8.7698 6.15425 10.46 5.45414C12.1502 4.75403 14.0101 4.57085 15.8044 4.92776C17.5988 5.28468 19.2469 6.16565 20.5406 7.45929C21.8342 8.75292 22.7152 10.4011 23.0721 12.1954C23.429 13.9898 23.2458 15.8496 22.5457 17.5398C21.8456 19.2301 20.66 20.6747 19.1389 21.6911C17.6177 22.7075 15.8293 23.25 13.9998 23.25C11.5475 23.247 9.19646 22.2715 7.46239 20.5375C5.72833 18.8034 4.75282 16.4524 4.74984 14Z" fill="#112D1F"/>
</svg>
