<svg width="32" height="32" viewBox="0 0 32 32" fill="none" xmlns="http://www.w3.org/2000/svg">
<path d="M25.0152 6.98376C23.8347 5.78402 22.4285 4.82987 20.8774 4.17635C19.3264 3.52283 17.6613 3.18286 15.9782 3.17607C14.2952 3.16927 12.6274 3.49578 11.0711 4.13676C9.51487 4.77774 8.10092 5.7205 6.91083 6.91067C5.72075 8.10083 4.77809 9.51485 4.13722 11.0712C3.49635 12.6275 3.16995 14.2952 3.17687 15.9783C3.18378 17.6614 3.52386 19.3265 4.17749 20.8774C4.83112 22.4284 5.78536 23.8347 6.98518 25.015C8.16562 26.2147 9.57191 27.1689 11.1229 27.8224C12.674 28.4759 14.3391 28.8159 16.0221 28.8227C17.7052 28.8295 19.373 28.503 20.9292 27.862C22.4855 27.221 23.8994 26.2783 25.0895 25.0881C26.2796 23.8979 27.2223 22.4839 27.8631 20.9276C28.504 19.3713 28.8304 17.7035 28.8235 16.0204C28.8166 14.3374 28.4765 12.6723 27.8229 11.1213C27.1692 9.57033 26.215 8.16411 25.0152 6.98376ZM10.7502 25.955V22C10.7502 21.9337 10.7765 21.8701 10.8234 21.8232C10.8703 21.7763 10.9339 21.75 11.0002 21.75H21.0002C21.0665 21.75 21.1301 21.7763 21.177 21.8232C21.2238 21.8701 21.2502 21.9337 21.2502 22V25.955C19.6309 26.8055 17.8292 27.2499 16.0002 27.2499C14.1711 27.2499 12.3695 26.8055 10.7502 25.955ZM13.0002 17.75H19.0002C19.0665 17.75 19.1301 17.7763 19.177 17.8232C19.2238 17.8701 19.2502 17.9337 19.2502 18V20.25H12.7502V18C12.7502 17.9337 12.7765 17.8701 12.8234 17.8232C12.8703 17.7763 12.9339 17.75 13.0002 17.75ZM14.4427 16.25L15.7502 9.94876C15.7617 9.89224 15.7923 9.84143 15.837 9.80494C15.8816 9.76844 15.9375 9.74851 15.9952 9.74851C16.0528 9.74851 16.1087 9.76844 16.1534 9.80494C16.198 9.84143 16.2287 9.89224 16.2402 9.94876L17.5577 16.25H14.4427ZM23.9552 23.955C23.578 24.3306 23.1754 24.6797 22.7502 25V22C22.7502 21.5359 22.5658 21.0908 22.2376 20.7626C21.9094 20.4344 21.4643 20.25 21.0002 20.25H20.7502V18C20.7508 17.5513 20.579 17.1194 20.2703 16.7937C19.9616 16.4681 19.5396 16.2734 19.0914 16.25L17.7164 9.63751C17.6349 9.24324 17.4199 8.88914 17.1078 8.63491C16.7956 8.38067 16.4053 8.24185 16.0027 8.24185C15.6001 8.24185 15.2098 8.38067 14.8976 8.63491C14.5854 8.88914 14.3705 9.24324 14.2889 9.63751L12.9139 16.25C12.4649 16.2722 12.0416 16.4663 11.7319 16.7921C11.4221 17.1179 11.2496 17.5504 11.2502 18V20.25H11.0002C10.5361 20.25 10.0909 20.4344 9.76274 20.7626C9.43455 21.0908 9.25018 21.5359 9.25018 22V25C8.82496 24.6793 8.42234 24.3298 8.04518 23.9538C6.47185 22.3804 5.40041 20.3759 4.96634 18.1936C4.53226 16.0113 4.75506 13.7493 5.60655 11.6936C6.45804 9.63797 7.89998 7.88097 9.75003 6.64481C11.6001 5.40865 13.7751 4.74885 16.0002 4.74885C18.2252 4.74885 20.4003 5.40865 22.2503 6.64481C24.1004 7.88097 25.5423 9.63797 26.3938 11.6936C27.2453 13.7493 27.4681 16.0113 27.034 18.1936C26.6 20.3759 25.5285 22.3804 23.9552 23.9538V23.955Z" fill="#112D1F"/>
</svg>
