<svg width="32" height="32" viewBox="0 0 32 32" fill="none" xmlns="http://www.w3.org/2000/svg">
<path d="M23.5588 15.5C23.6271 15.5729 23.6802 15.6588 23.7149 15.7525C23.7496 15.8462 23.7652 15.9459 23.7608 16.0458C23.7564 16.1456 23.7321 16.2436 23.6893 16.3339C23.6465 16.4242 23.5861 16.5051 23.5117 16.5718C23.4372 16.6384 23.3501 16.6895 23.2556 16.722C23.1611 16.7546 23.0611 16.7679 22.9613 16.7612C22.8616 16.7545 22.7642 16.7279 22.6749 16.6831C22.5856 16.6382 22.5062 16.576 22.4412 16.5C22.0588 16.0725 21.2237 15.75 20.5 15.75C19.7762 15.75 18.9412 16.0725 18.5588 16.5C18.4248 16.6429 18.2402 16.7278 18.0444 16.7364C17.8487 16.745 17.6574 16.6767 17.5114 16.546C17.3654 16.4154 17.2763 16.2328 17.2632 16.0373C17.2501 15.8418 17.314 15.649 17.4412 15.5C18.11 14.75 19.34 14.25 20.5 14.25C21.66 14.25 22.89 14.75 23.5588 15.5ZM13.4412 16.5C13.5062 16.576 13.5856 16.6382 13.6749 16.6831C13.7642 16.7279 13.8616 16.7545 13.9613 16.7612C14.0611 16.7679 14.1611 16.7546 14.2556 16.722C14.3501 16.6895 14.4372 16.6384 14.5117 16.5718C14.5861 16.5051 14.6465 16.4242 14.6893 16.3339C14.7321 16.2436 14.7564 16.1456 14.7608 16.0458C14.7652 15.9459 14.7496 15.8462 14.7149 15.7525C14.6802 15.6588 14.6271 15.5729 14.5588 15.5C13.89 14.75 12.66 14.25 11.5 14.25C10.34 14.25 9.11 14.75 8.44125 15.5C8.3729 15.5729 8.31982 15.6588 8.28513 15.7525C8.25043 15.8462 8.23482 15.9459 8.2392 16.0458C8.24359 16.1456 8.26789 16.2436 8.31068 16.3339C8.35346 16.4242 8.41387 16.5051 8.48835 16.5718C8.56283 16.6384 8.64988 16.6895 8.74438 16.722C8.83888 16.7546 8.93893 16.7679 9.03866 16.7612C9.13838 16.7545 9.23576 16.7279 9.32507 16.6831C9.41439 16.6382 9.49384 16.576 9.55875 16.5C9.94125 16.0725 10.7762 15.75 11.5 15.75C12.2238 15.75 13.0588 16.0725 13.4412 16.5ZM20.7825 20.4287C20.7076 20.3648 20.6208 20.3162 20.5271 20.2858C20.4334 20.2554 20.3346 20.2438 20.2364 20.2516C20.1382 20.2593 20.0425 20.2864 19.9547 20.3312C19.867 20.3759 19.7889 20.4375 19.725 20.5125C19.2687 21.0566 18.6988 21.4942 18.0552 21.7944C17.4117 22.0947 16.7101 22.2503 16 22.2503C15.2899 22.2503 14.5883 22.0947 13.9448 21.7944C13.3012 21.4942 12.7313 21.0566 12.275 20.5125C12.2111 20.4376 12.133 20.3759 12.0452 20.3312C11.9575 20.2864 11.8618 20.2594 11.7636 20.2516C11.6654 20.2438 11.5666 20.2555 11.4729 20.2859C11.3792 20.3162 11.2924 20.3648 11.2175 20.4287C11.1426 20.4927 11.081 20.5707 11.0362 20.6585C10.9914 20.7462 10.9644 20.8419 10.9566 20.9401C10.9488 21.0383 10.9605 21.1371 10.9909 21.2308C11.0213 21.3245 11.0698 21.4113 11.1337 21.4862C11.731 22.1953 12.476 22.7652 13.3165 23.1562C14.1571 23.5472 15.0729 23.7498 16 23.7498C16.9271 23.7498 17.8429 23.5472 18.6835 23.1562C19.524 22.7652 20.269 22.1953 20.8662 21.4862C20.9302 21.4113 20.9788 21.3245 21.0092 21.2308C21.0396 21.1371 21.0512 21.0383 21.0434 20.9401C21.0357 20.8419 21.0086 20.7462 20.9638 20.6585C20.9191 20.5707 20.8574 20.4927 20.7825 20.4287ZM27.75 5.99999V12.9712C27.75 17.4025 26.5588 21.5787 24.3962 24.7287C22.175 27.9675 19.1925 29.75 16 29.75C12.8075 29.75 9.825 27.9675 7.60375 24.73C5.44125 21.58 4.25 17.4037 4.25 12.9725V5.99999C4.25109 5.71616 4.32119 5.43685 4.45428 5.18615C4.58736 4.93545 4.77943 4.72088 5.01391 4.56095C5.2484 4.40101 5.51827 4.30052 5.80025 4.26812C6.08223 4.23572 6.36785 4.2724 6.6325 4.37499C8.40625 5.05749 11.9825 6.21249 16 6.21249C20.0175 6.21249 23.5938 5.05749 25.3675 4.37499C25.6321 4.2724 25.9178 4.23572 26.1998 4.26812C26.4817 4.30052 26.7516 4.40101 26.9861 4.56095C27.2206 4.72088 27.4126 4.93545 27.5457 5.18615C27.6788 5.43685 27.7489 5.71616 27.75 5.99999ZM26.25 5.99999C26.2502 5.95915 26.2404 5.91888 26.2214 5.88271C26.2025 5.84654 26.1749 5.81556 26.1413 5.79249C26.108 5.76897 26.0694 5.75422 26.029 5.74963C25.9886 5.74504 25.9476 5.75076 25.91 5.76624C24.0387 6.49999 20.2625 7.71249 16 7.71249C11.7375 7.71249 7.96125 6.49999 6.09 5.76749C6.05222 5.75278 6.01142 5.74749 5.97113 5.75206C5.93085 5.75664 5.89228 5.77094 5.85875 5.79374C5.82523 5.81669 5.79781 5.84747 5.77886 5.88341C5.75991 5.91935 5.75 5.95936 5.75 5.99999V12.97C5.75 21.3962 10.3488 28.25 16 28.25C21.6512 28.25 26.25 21.3962 26.25 12.9725V5.99999Z" fill="#112D1F"/>
</svg>
