<svg width="32" height="32" viewBox="0 0 32 32" fill="none" xmlns="http://www.w3.org/2000/svg">
<path d="M19.625 23.415C19.5704 23.497 19.5002 23.5674 19.4184 23.6223C19.3366 23.6772 19.2448 23.7154 19.1482 23.7348C19.0517 23.7542 18.9522 23.7543 18.8556 23.7353C18.7589 23.7162 18.667 23.6783 18.585 23.6237C17.7512 23.07 17.0612 22.7487 16 22.7487C14.9388 22.7487 14.25 23.0687 13.415 23.6237C13.3329 23.6782 13.2409 23.716 13.1442 23.735C13.0475 23.7539 12.9481 23.7536 12.8515 23.7341C12.7549 23.7146 12.6631 23.6763 12.5814 23.6213C12.4996 23.5664 12.4295 23.4958 12.375 23.4137C12.3205 23.3317 12.2827 23.2397 12.2638 23.143C12.2448 23.0463 12.2451 22.9468 12.2646 22.8502C12.2841 22.7537 12.3224 22.6619 12.3774 22.5801C12.4324 22.4984 12.5029 22.4282 12.585 22.3737C13.6012 21.6987 14.57 21.2487 16 21.2487C17.43 21.2487 18.3988 21.6987 19.415 22.3737C19.4973 22.4282 19.568 22.4984 19.6231 22.5803C19.6782 22.6621 19.7166 22.7541 19.7361 22.8508C19.7556 22.9475 19.7558 23.0471 19.7368 23.144C19.7177 23.2408 19.6797 23.3329 19.625 23.415ZM22.4412 14.5C22.0588 14.9275 21.2237 15.25 20.5 15.25C19.7762 15.25 18.9412 14.9275 18.5588 14.5C18.4938 14.424 18.4144 14.3617 18.3251 14.3169C18.2358 14.272 18.1384 14.2455 18.0387 14.2388C17.9389 14.2321 17.8389 14.2454 17.7444 14.278C17.6499 14.3105 17.5628 14.3616 17.4883 14.4282C17.4139 14.4949 17.3535 14.5757 17.3107 14.6661C17.2679 14.7564 17.2436 14.8543 17.2392 14.9542C17.2348 15.054 17.2504 15.1538 17.2851 15.2475C17.3198 15.3412 17.3729 15.4271 17.4412 15.5C18.11 16.25 19.34 16.75 20.5 16.75C21.66 16.75 22.89 16.25 23.5588 15.5C23.6271 15.4271 23.6802 15.3412 23.7149 15.2475C23.7496 15.1538 23.7652 15.054 23.7608 14.9542C23.7564 14.8543 23.7321 14.7564 23.6893 14.6661C23.6465 14.5757 23.5861 14.4949 23.5117 14.4282C23.4372 14.3616 23.3501 14.3105 23.2556 14.278C23.1611 14.2454 23.0611 14.2321 22.9613 14.2388C22.8616 14.2455 22.7642 14.272 22.6749 14.3169C22.5856 14.3617 22.5062 14.424 22.4412 14.5ZM27.75 5.99999V12.9712C27.75 17.4025 26.5588 21.5787 24.3962 24.7287C22.175 27.9675 19.1925 29.75 16 29.75C12.8075 29.75 9.825 27.9675 7.60375 24.73C5.44125 21.58 4.25 17.4037 4.25 12.9725V5.99999C4.25109 5.71616 4.32119 5.43685 4.45428 5.18615C4.58736 4.93545 4.77943 4.72088 5.01391 4.56095C5.2484 4.40101 5.51827 4.30052 5.80025 4.26812C6.08223 4.23572 6.36785 4.2724 6.6325 4.37499C8.40625 5.05749 11.9825 6.21249 16 6.21249C20.0175 6.21249 23.5938 5.05749 25.3675 4.37499C25.6321 4.2724 25.9178 4.23572 26.1998 4.26812C26.4817 4.30052 26.7516 4.40101 26.9861 4.56095C27.2206 4.72088 27.4126 4.93545 27.5457 5.18615C27.6788 5.43685 27.7489 5.71616 27.75 5.99999ZM26.25 5.99999C26.2501 5.95935 26.2403 5.9193 26.2214 5.88332C26.2025 5.84733 26.1751 5.81649 26.1416 5.79347C26.1081 5.77044 26.0695 5.75593 26.0292 5.75119C25.9888 5.74644 25.9479 5.75161 25.91 5.76624C24.0387 6.49999 20.2625 7.71249 16 7.71249C11.7375 7.71249 7.96125 6.49999 6.09 5.76749C6.05222 5.75278 6.01142 5.74749 5.97113 5.75206C5.93085 5.75664 5.89228 5.77094 5.85875 5.79374C5.82523 5.81669 5.79781 5.84747 5.77886 5.88341C5.75991 5.91935 5.75 5.95936 5.75 5.99999V12.97C5.75 21.3962 10.3488 28.25 16 28.25C21.6512 28.25 26.25 21.3962 26.25 12.9725V5.99999ZM14.5588 15.5C14.6271 15.4271 14.6802 15.3412 14.7149 15.2475C14.7496 15.1538 14.7652 15.054 14.7608 14.9542C14.7564 14.8543 14.7321 14.7564 14.6893 14.6661C14.6465 14.5757 14.5861 14.4949 14.5117 14.4282C14.4372 14.3616 14.3501 14.3105 14.2556 14.278C14.1611 14.2454 14.0611 14.2321 13.9613 14.2388C13.8616 14.2455 13.7642 14.272 13.6749 14.3169C13.5856 14.3617 13.5062 14.424 13.4412 14.5C13.0588 14.9275 12.2238 15.25 11.5 15.25C10.7762 15.25 9.94125 14.9275 9.55875 14.5C9.42477 14.357 9.24018 14.2722 9.04445 14.2636C8.84871 14.255 8.65739 14.3233 8.51139 14.454C8.36539 14.5846 8.27631 14.7672 8.2632 14.9627C8.25009 15.1582 8.314 15.351 8.44125 15.5C9.11 16.25 10.34 16.75 11.5 16.75C12.66 16.75 13.89 16.25 14.5588 15.5Z" fill="#112D1F"/>
</svg>
