<svg width="32" height="32" viewBox="0 0 32 32" fill="none" xmlns="http://www.w3.org/2000/svg">
<path d="M29.75 15C29.7484 13.4755 29.1421 12.0139 28.0641 10.936C26.9861 9.85798 25.5245 9.25164 24 9.24999H19.0188C18.6963 9.23249 12.2563 8.80499 6.12504 3.66249C5.87006 3.44849 5.55933 3.31166 5.22932 3.26805C4.8993 3.22443 4.5637 3.27585 4.26188 3.41626C3.96006 3.55667 3.70454 3.78025 3.52532 4.06077C3.3461 4.34129 3.25061 4.66711 3.25004 4.99999V25C3.24779 25.3332 3.34177 25.6601 3.52071 25.9412C3.69965 26.2224 3.95593 26.4459 4.25879 26.585C4.49103 26.693 4.74393 26.7493 5.00004 26.75C5.41209 26.7502 5.81082 26.604 6.12504 26.3375C11.125 22.1475 16.3213 21.0875 18.25 20.8287V25.0787C18.25 25.3668 18.321 25.6505 18.4568 25.9045C18.5927 26.1585 18.7892 26.3751 19.0288 26.535L20.4038 27.4512C20.6364 27.6061 20.9026 27.7031 21.1803 27.7339C21.458 27.7648 21.7391 27.7288 22 27.6288C22.2609 27.5288 22.4941 27.3678 22.68 27.1592C22.866 26.9507 22.9993 26.7006 23.0688 26.43L24.585 20.7162C25.9999 20.5696 27.3105 19.9044 28.2642 18.849C29.2178 17.7935 29.7471 16.4225 29.75 15ZM5.16129 25.19C5.12494 25.2207 5.0806 25.2403 5.03347 25.2467C4.98633 25.2531 4.93836 25.2458 4.89519 25.2259C4.85201 25.2059 4.81542 25.1741 4.78971 25.1341C4.764 25.0941 4.75024 25.0476 4.75004 25V4.99999C4.74869 4.9524 4.76167 4.9055 4.7873 4.86538C4.81294 4.82525 4.85004 4.79376 4.89379 4.77499C4.92704 4.75923 4.96325 4.75071 5.00004 4.74999C5.05809 4.75018 5.11408 4.77151 5.15754 4.80999C10.6575 9.42499 16.2825 10.4587 18.2463 10.685V19.31C16.2863 19.5412 10.6625 20.5762 5.16129 25.19ZM21.6163 26.065C21.6066 26.1039 21.5877 26.1399 21.5612 26.1699C21.5347 26.1999 21.5013 26.2232 21.4639 26.2376C21.4266 26.2521 21.3863 26.2574 21.3464 26.253C21.3066 26.2486 21.2684 26.2347 21.235 26.2125L19.86 25.2962C19.8257 25.2733 19.7976 25.2423 19.7782 25.2059C19.7588 25.1694 19.7487 25.1288 19.7488 25.0875V20.75H23.0238L21.6163 26.065ZM24 19.25H19.75V10.75H24C25.1272 10.75 26.2082 11.1978 27.0052 11.9948C27.8023 12.7918 28.25 13.8728 28.25 15C28.25 16.1272 27.8023 17.2082 27.0052 18.0052C26.2082 18.8022 25.1272 19.25 24 19.25Z" fill="#112D1F"/>
</svg>
