<svg width="32" height="32" viewBox="0 0 32 32" fill="none" xmlns="http://www.w3.org/2000/svg">
<path d="M27.5 11.0738L5.49 4.32376C5.22949 4.24777 4.95488 4.23341 4.68787 4.28181C4.42086 4.33021 4.16876 4.44004 3.9515 4.60263C3.73423 4.76521 3.55776 4.9761 3.43601 5.21862C3.31426 5.46113 3.25058 5.72864 3.25 6.00001V24C3.25 24.4641 3.43437 24.9093 3.76256 25.2374C4.09075 25.5656 4.53587 25.75 5 25.75C5.16928 25.7487 5.33756 25.7239 5.5 25.6763L16.25 22.375V24C16.25 24.4641 16.4344 24.9093 16.7626 25.2374C17.0908 25.5656 17.5359 25.75 18 25.75H22C22.4641 25.75 22.9092 25.5656 23.2374 25.2374C23.5656 24.9093 23.75 24.4641 23.75 24V20.0775L27.5 18.9288C27.8607 18.8198 28.1769 18.5978 28.4019 18.2956C28.6269 17.9933 28.749 17.6268 28.75 17.25V12.75C28.7498 12.3733 28.6281 12.0067 28.4029 11.7047C28.1777 11.4027 27.861 11.1814 27.5 11.0738ZM5.07 24.24C5.03274 24.2509 4.99346 24.2529 4.95528 24.246C4.91709 24.239 4.88105 24.2233 4.85 24.2C4.81895 24.1767 4.79375 24.1465 4.77639 24.1118C4.75904 24.0771 4.75 24.0388 4.75 24V6.00001C4.75 5.96119 4.75904 5.92292 4.77639 5.8882C4.79375 5.85349 4.81895 5.82329 4.85 5.80001C4.89348 5.76794 4.94598 5.75044 5 5.75001C5.02078 5.75048 5.0414 5.75384 5.06125 5.76001L16.25 9.19126V20.81L5.07 24.24ZM22.25 24C22.25 24.0663 22.2237 24.1299 22.1768 24.1768C22.1299 24.2237 22.0663 24.25 22 24.25H18C17.9337 24.25 17.8701 24.2237 17.8232 24.1768C17.7763 24.1299 17.75 24.0663 17.75 24V21.9188L22.25 20.5438V24ZM27.25 17.25C27.25 17.3041 27.2325 17.3567 27.2 17.4C27.1675 17.4433 27.1219 17.4749 27.07 17.49H27.06L17.75 20.35V9.65126L27.07 12.51C27.1219 12.5252 27.1675 12.5567 27.2 12.6C27.2325 12.6433 27.25 12.6959 27.25 12.75V17.25Z" fill="#112D1F"/>
</svg>
