<svg width="32" height="32" viewBox="0 0 32 32" fill="none" xmlns="http://www.w3.org/2000/svg">
<path d="M22.53 13.47C22.6705 13.6106 22.7493 13.8013 22.7493 14C22.7493 14.1988 22.6705 14.3894 22.53 14.53L18.53 18.53C18.3894 18.6705 18.1988 18.7494 18 18.7494C17.8012 18.7494 17.6106 18.6705 17.47 18.53L14 15.0613L10.53 18.53C10.3878 18.6625 10.1998 18.7346 10.0055 18.7312C9.81118 18.7278 9.62579 18.649 9.48838 18.5116C9.35097 18.3742 9.27225 18.1888 9.26882 17.9945C9.2654 17.8002 9.33752 17.6122 9.47 17.47L13.47 13.47C13.6106 13.3296 13.8012 13.2507 14 13.2507C14.1988 13.2507 14.3894 13.3296 14.53 13.47L18 16.9388L21.47 13.47C21.6106 13.3296 21.8012 13.2507 22 13.2507C22.1988 13.2507 22.3894 13.3296 22.53 13.47ZM28.75 16C28.7505 18.2103 28.1763 20.3827 27.084 22.3042C25.9916 24.2256 24.4184 25.8301 22.5189 26.9602C20.6194 28.0902 18.4587 28.7071 16.2489 28.7503C14.039 28.7934 11.8559 28.2613 9.91375 27.2063L5.555 28.6588C5.24666 28.7616 4.91577 28.7765 4.59942 28.7019C4.28307 28.6272 3.99377 28.4659 3.76393 28.2361C3.53409 28.0062 3.37281 27.7169 3.29815 27.4006C3.2235 27.0842 3.23842 26.7534 3.34125 26.445L4.79375 22.0863C3.86783 20.38 3.34374 18.4849 3.26146 16.5454C3.17918 14.6058 3.54087 12.6731 4.31895 10.8946C5.09703 9.11609 6.27097 7.53872 7.75123 6.28279C9.2315 5.02686 10.979 4.12552 12.8605 3.64751C14.742 3.1695 16.7078 3.12744 18.6081 3.52454C20.5083 3.92163 22.2927 4.7474 23.8254 5.93886C25.358 7.13033 26.5983 8.65604 27.4518 10.3997C28.3052 12.1433 28.7492 14.0587 28.75 16ZM27.25 16C27.2496 14.2743 26.8522 12.5718 26.0885 11.0242C25.3248 9.47666 24.2153 8.12554 22.8459 7.0754C21.4764 6.02525 19.8838 5.30423 18.1911 4.96812C16.4984 4.63202 14.7511 4.68983 13.0843 5.13709C11.4175 5.58436 9.87601 6.40908 8.57899 7.54745C7.28197 8.68582 6.26423 10.1073 5.6045 11.702C4.94478 13.2966 4.66076 15.0217 4.77443 16.7437C4.88809 18.4657 5.39639 20.1384 6.26 21.6325C6.31334 21.7245 6.3465 21.8268 6.35728 21.9327C6.36805 22.0385 6.3562 22.1454 6.3225 22.2463L4.765 26.9188C4.75031 26.9628 4.74818 27.0101 4.75884 27.0553C4.76951 27.1005 4.79255 27.1418 4.82538 27.1746C4.85822 27.2075 4.89955 27.2305 4.94474 27.2412C4.98993 27.2518 5.0372 27.2497 5.08125 27.235L9.75 25.6775C9.82667 25.6523 9.9068 25.6392 9.9875 25.6388C10.1192 25.6395 10.2484 25.6744 10.3625 25.74C12.0728 26.7304 14.0139 27.2527 15.9903 27.2545C17.9667 27.2562 19.9086 26.7372 21.6207 25.7497C23.3327 24.7623 24.7544 23.3413 25.7426 21.6297C26.7309 19.9181 27.2508 17.9764 27.25 16Z" fill="#112D1F"/>
</svg>
