<svg width="32" height="32" viewBox="0 0 32 32" fill="none" xmlns="http://www.w3.org/2000/svg">
<path d="M26.6661 25.4687L23.1098 14.2925L26.5536 10.5C26.666 10.3502 26.7184 10.1637 26.7003 9.97725C26.6822 9.7908 26.595 9.61786 26.4558 9.49247C26.3166 9.36709 26.1355 9.29832 25.9482 9.29972C25.7609 9.30111 25.5809 9.37255 25.4436 9.49999L22.5848 12.6462L20.3023 5.46874C20.1906 5.11435 19.9686 4.80494 19.6686 4.58568C19.3686 4.36643 19.0064 4.24881 18.6348 4.24999H13.3648C12.9932 4.24881 12.631 4.36643 12.331 4.58568C12.031 4.80494 11.809 5.11435 11.6973 5.46874L5.33356 25.4687C5.25001 25.731 5.22949 26.0092 5.27367 26.2809C5.31784 26.5525 5.42547 26.8099 5.5878 27.0322C5.75014 27.2544 5.9626 27.4353 6.20794 27.56C6.45329 27.6847 6.72459 27.7498 6.99981 27.75H24.9998C25.2751 27.75 25.5466 27.6851 25.7921 27.5604C26.0376 27.4358 26.2502 27.255 26.4127 27.0327C26.5752 26.8104 26.6829 26.5529 26.7272 26.2812C26.7714 26.0094 26.7509 25.7311 26.6673 25.4687H26.6661ZM23.4311 20.25H17.6948L21.9448 15.5762L23.4311 20.25ZM13.1248 5.92374C13.1411 5.87298 13.1731 5.82874 13.2163 5.79748C13.2595 5.76623 13.3115 5.74959 13.3648 5.74999H18.6348C18.6881 5.74959 18.7401 5.76623 18.7833 5.79748C18.8265 5.82874 18.8586 5.87298 18.8748 5.92374L21.4198 13.9237L15.6698 20.25H8.56856L13.1248 5.92374ZM25.1998 26.1475C25.1772 26.1794 25.1472 26.2055 25.1124 26.2233C25.0776 26.2412 25.0389 26.2503 24.9998 26.25H6.99981C6.9605 26.2499 6.92176 26.2405 6.88674 26.2227C6.85173 26.2048 6.82142 26.1789 6.79828 26.1471C6.77514 26.1153 6.75983 26.0786 6.75358 26.0397C6.74733 26.0009 6.75032 25.9612 6.76231 25.9237L8.09106 21.75H23.9086L25.2361 25.9237C25.2487 25.9612 25.252 26.0011 25.2457 26.0401C25.2394 26.0791 25.2236 26.116 25.1998 26.1475Z" fill="#112D1F"/>
</svg>
