<svg width="32" height="32" viewBox="0 0 32 32" fill="none" xmlns="http://www.w3.org/2000/svg">
<path d="M26.5551 26.5L6.55515 4.5C6.41785 4.37256 6.23782 4.30111 6.0505 4.29972C5.86317 4.29833 5.6821 4.36709 5.54292 4.49248C5.40374 4.61787 5.31653 4.7908 5.29843 4.97725C5.28034 5.16371 5.33267 5.35019 5.44515 5.5L10.2501 10.79V16C10.2502 17.05 10.5377 18.08 11.0816 18.9782C11.6255 19.8763 12.405 20.6084 13.3354 21.095C14.2659 21.5817 15.3118 21.8042 16.3598 21.7385C17.4078 21.6728 18.4177 21.3215 19.2801 20.7225L20.9714 22.5837C19.7469 23.5083 18.2888 24.0731 16.761 24.2146C15.2331 24.3561 13.6961 24.0687 12.3227 23.3848C10.9492 22.7008 9.79362 21.6474 8.98588 20.3428C8.17814 19.0383 7.7502 17.5344 7.75015 16C7.75015 15.8011 7.67113 15.6103 7.53048 15.4697C7.38983 15.329 7.19906 15.25 7.00015 15.25C6.80124 15.25 6.61047 15.329 6.46982 15.4697C6.32917 15.6103 6.25015 15.8011 6.25015 16C6.25336 18.4549 7.18142 20.8184 8.84939 22.6196C10.5174 24.4207 12.8028 25.5273 15.2501 25.7187V29C15.2501 29.1989 15.3292 29.3897 15.4698 29.5303C15.6105 29.671 15.8012 29.75 16.0001 29.75C16.1991 29.75 16.3898 29.671 16.5305 29.5303C16.6711 29.3897 16.7501 29.1989 16.7501 29V25.7187C18.6553 25.5741 20.4755 24.8705 21.9826 23.6962L25.4451 27.5C25.5791 27.6472 25.766 27.7352 25.9648 27.7445C26.1636 27.7539 26.358 27.6839 26.5051 27.55C26.6523 27.4161 26.7403 27.2291 26.7497 27.0304C26.7591 26.8316 26.6891 26.6372 26.5551 26.49V26.5ZM16.0001 20.25C14.873 20.25 13.792 19.8022 12.9949 19.0052C12.1979 18.2082 11.7501 17.1272 11.7501 16V12.44L18.2589 19.6C17.5823 20.0252 16.7993 20.2505 16.0001 20.25ZM11.1076 4.97875C11.765 3.91409 12.7518 3.09293 13.9181 2.63985C15.0844 2.18678 16.3667 2.12653 17.5704 2.46824C18.7741 2.80995 19.8335 3.53497 20.5878 4.53329C21.3421 5.53161 21.7502 6.74874 21.7501 8V15.5537C21.7501 15.7527 21.6711 15.9434 21.5305 16.0841C21.3898 16.2247 21.1991 16.3037 21.0001 16.3037C20.8012 16.3037 20.6105 16.2247 20.4698 16.0841C20.3292 15.9434 20.2501 15.7527 20.2501 15.5537V8C20.2505 7.07481 19.949 6.17478 19.3913 5.43655C18.8337 4.69831 18.0504 4.16222 17.1603 3.90966C16.2703 3.6571 15.3221 3.70187 14.4599 4.03717C13.5976 4.37248 12.8683 4.98 12.3826 5.7675C12.3325 5.85458 12.2654 5.9307 12.1853 5.99134C12.1051 6.05198 12.0136 6.0959 11.9162 6.12049C11.8188 6.14507 11.7174 6.14983 11.6181 6.13448C11.5188 6.11912 11.4236 6.08397 11.3381 6.0311C11.2526 5.97824 11.1787 5.90874 11.1206 5.82673C11.0625 5.74473 11.0215 5.65189 11 5.55373C10.9785 5.45556 10.977 5.35408 10.9955 5.25531C11.014 5.15654 11.0521 5.06249 11.1076 4.97875ZM23.6876 19C24.0614 18.0441 24.2522 17.0264 24.2501 16C24.2501 15.8011 24.3292 15.6103 24.4698 15.4697C24.6105 15.329 24.8012 15.25 25.0001 15.25C25.1991 15.25 25.3898 15.329 25.5305 15.4697C25.6711 15.6103 25.7501 15.8011 25.7501 16C25.7521 17.2133 25.5265 18.4161 25.0851 19.5462C25.0303 19.6869 24.9342 19.8078 24.8096 19.893C24.6849 19.9782 24.5374 20.0238 24.3864 20.0237C24.2642 20.0238 24.1439 19.9941 24.0358 19.937C23.9278 19.88 23.8353 19.7975 23.7664 19.6966C23.6976 19.5956 23.6544 19.4794 23.6407 19.358C23.6269 19.2367 23.6431 19.1137 23.6876 19Z" fill="#112D1F"/>
</svg>
