<svg width="32" height="32" viewBox="0 0 32 32" fill="none" xmlns="http://www.w3.org/2000/svg">
<path d="M10.25 13.75H9C8.80109 13.75 8.61032 13.671 8.46967 13.5303C8.32902 13.3897 8.25 13.1989 8.25 13C8.25 12.8011 8.32902 12.6103 8.46967 12.4697C8.61032 12.329 8.80109 12.25 9 12.25H13C13.1989 12.25 13.3897 12.329 13.5303 12.4697C13.671 12.6103 13.75 12.8011 13.75 13C13.75 13.1989 13.671 13.3897 13.5303 13.5303C13.3897 13.671 13.1989 13.75 13 13.75H11.75V19C11.75 19.1989 11.671 19.3897 11.5303 19.5303C11.3897 19.671 11.1989 19.75 11 19.75C10.8011 19.75 10.6103 19.671 10.4697 19.5303C10.329 19.3897 10.25 19.1989 10.25 19V13.75ZM28.75 11.5925V19C28.7502 20.2172 28.2837 21.3881 27.4466 22.2717C26.6094 23.1553 25.4654 23.6844 24.25 23.75C23.6936 25.2229 22.7019 26.4913 21.4067 27.3866C20.1116 28.2818 18.5745 28.7614 17 28.7614C15.4255 28.7614 13.8884 28.2818 12.5933 27.3866C11.2981 26.4913 10.3064 25.2229 9.75 23.75H5C4.53587 23.75 4.09075 23.5656 3.76256 23.2374C3.43437 22.9092 3.25 22.4641 3.25 22V9.99998C3.25 9.53585 3.43437 9.09073 3.76256 8.76254C4.09075 8.43435 4.53587 8.24998 5 8.24998H12.4175C12.1143 7.12804 12.233 5.93389 12.7511 4.89357C13.2691 3.85324 14.1506 3.03894 15.2286 2.6048C16.3067 2.17065 17.5065 2.1468 18.6009 2.53775C19.6954 2.9287 20.6085 3.70732 21.1675 4.72623C21.9179 4.30516 22.7903 4.15496 23.6383 4.30083C24.4863 4.4467 25.2584 4.87977 25.8249 5.52739C26.3915 6.175 26.7181 6.99776 26.75 7.85764C26.7819 8.71751 26.5171 9.5622 26 10.25H27.41C27.7655 10.251 28.1062 10.3928 28.3573 10.6444C28.6085 10.8961 28.7497 11.237 28.75 11.5925ZM21.6775 6.18123C21.7257 6.45148 21.75 6.72546 21.75 6.99998C21.7502 8.20725 21.2908 9.36931 20.465 10.25H23C23.3553 10.2503 23.7056 10.1665 24.0222 10.0054C24.3389 9.84437 24.6129 9.6106 24.8219 9.32326C25.0308 9.03593 25.1687 8.7032 25.2244 8.35231C25.28 8.00141 25.2518 7.64234 25.1419 7.30446C25.0321 6.96659 24.8438 6.65952 24.5925 6.4084C24.3412 6.15728 24.034 5.96923 23.6961 5.85966C23.3581 5.75009 22.999 5.72211 22.6482 5.778C22.2973 5.83389 21.9647 5.97207 21.6775 6.18123ZM14 8.24998H17C17.4205 8.25047 17.8267 8.40233 18.1444 8.67778C18.462 8.95322 18.6699 9.33383 18.73 9.74998C19.2546 9.41998 19.674 8.94685 19.9385 8.38638C20.2031 7.82591 20.3019 7.20147 20.2233 6.58669C20.1447 5.97191 19.8919 5.39244 19.4948 4.91659C19.0977 4.44074 18.5728 4.08836 17.982 3.901C17.3912 3.71365 16.7592 3.69913 16.1604 3.85916C15.5616 4.01919 15.0211 4.3471 14.6026 4.80422C14.184 5.26133 13.9049 5.82859 13.7982 6.43911C13.6914 7.04963 13.7614 7.67795 14 8.24998ZM5 22.25H17C17.0663 22.25 17.1299 22.2236 17.1768 22.1768C17.2237 22.1299 17.25 22.0663 17.25 22V9.99998C17.25 9.93368 17.2237 9.87009 17.1768 9.8232C17.1299 9.77632 17.0663 9.74998 17 9.74998H5C4.9337 9.74998 4.87011 9.77632 4.82322 9.8232C4.77634 9.87009 4.75 9.93368 4.75 9.99998V22C4.75 22.0663 4.77634 22.1299 4.82322 22.1768C4.87011 22.2236 4.9337 22.25 5 22.25ZM23.25 21V12C23.25 11.9337 23.2237 11.8701 23.1768 11.8232C23.1299 11.7763 23.0663 11.75 23 11.75H18.75V22C18.75 22.4641 18.5656 22.9092 18.2374 23.2374C17.9092 23.5656 17.4641 23.75 17 23.75H11.3875C12.0089 25.0182 13.0415 26.0386 14.317 26.6448C15.5925 27.2511 17.0357 27.4075 18.4115 27.0885C19.7872 26.7696 21.0144 25.9941 21.8931 24.8885C22.7717 23.7829 23.25 22.4122 23.25 21ZM27.25 11.75H24.73C24.7423 11.8328 24.749 11.9163 24.75 12V21C24.7499 21.3959 24.7198 21.7912 24.66 22.1825C25.3918 22.0307 26.049 21.6313 26.5207 21.0516C26.9925 20.4719 27.2501 19.7474 27.25 19V11.75Z" fill="#112D1F"/>
</svg>
