<svg width="32" height="32" viewBox="0 0 32 32" fill="none" xmlns="http://www.w3.org/2000/svg">
<path d="M26 5.24999H20.69C20.5078 4.13817 19.9364 3.1273 19.0778 2.39788C18.2191 1.66847 17.1291 1.26801 16.0025 1.26801C14.8759 1.26801 13.7859 1.66847 12.9272 2.39788C12.0686 3.1273 11.4972 4.13817 11.315 5.24999H6C5.80109 5.24999 5.61032 5.32901 5.46967 5.46966C5.32902 5.61031 5.25 5.80108 5.25 5.99999C5.25 6.1989 5.32902 6.38967 5.46967 6.53032C5.61032 6.67097 5.80109 6.74999 6 6.74999H11.31C11.5051 7.96529 12.1643 9.05741 13.1488 9.79624C11.7052 10.369 10.4667 11.3617 9.59334 12.646C8.72002 13.9302 8.25207 15.4469 8.25 17V25C8.25 25.4641 8.43437 25.9092 8.76256 26.2374C9.09075 26.5656 9.53587 26.75 10 26.75H12.25V27C12.25 27.9946 12.6451 28.9484 13.3483 29.6516C14.0516 30.3549 15.0054 30.75 16 30.75C16.9946 30.75 17.9484 30.3549 18.6517 29.6516C19.3549 28.9484 19.75 27.9946 19.75 27V26.75H22C22.4641 26.75 22.9092 26.5656 23.2374 26.2374C23.5656 25.9092 23.75 25.4641 23.75 25V17C23.7479 15.4469 23.28 13.9302 22.4067 12.646C21.5333 11.3617 20.2948 10.369 18.8512 9.79624C19.8357 9.05741 20.4949 7.96529 20.69 6.74999H26C26.1989 6.74999 26.3897 6.67097 26.5303 6.53032C26.671 6.38967 26.75 6.1989 26.75 5.99999C26.75 5.80108 26.671 5.61031 26.5303 5.46966C26.3897 5.32901 26.1989 5.24999 26 5.24999ZM18.25 27C18.25 27.5967 18.0129 28.169 17.591 28.591C17.169 29.0129 16.5967 29.25 16 29.25C15.4033 29.25 14.831 29.0129 14.409 28.591C13.9871 28.169 13.75 27.5967 13.75 27V21C13.75 20.4033 13.9871 19.831 14.409 19.409C14.831 18.987 15.4033 18.75 16 18.75C16.5967 18.75 17.169 18.987 17.591 19.409C18.0129 19.831 18.25 20.4033 18.25 21V27ZM22.25 17V25C22.25 25.0663 22.2237 25.1299 22.1768 25.1768C22.1299 25.2237 22.0663 25.25 22 25.25H19.75V21C19.75 20.0054 19.3549 19.0516 18.6517 18.3483C17.9484 17.6451 16.9946 17.25 16 17.25C15.0054 17.25 14.0516 17.6451 13.3483 18.3483C12.6451 19.0516 12.25 20.0054 12.25 21V25.25H10C9.9337 25.25 9.87011 25.2237 9.82322 25.1768C9.77634 25.1299 9.75 25.0663 9.75 25V17C9.75 15.3424 10.4085 13.7527 11.5806 12.5806C12.7527 11.4085 14.3424 10.75 16 10.75C17.6576 10.75 19.2473 11.4085 20.4194 12.5806C21.5915 13.7527 22.25 15.3424 22.25 17ZM16 9.24999C15.3572 9.24999 14.7289 9.05938 14.1944 8.70227C13.6599 8.34515 13.2434 7.83757 12.9974 7.24371C12.7514 6.64985 12.687 5.99639 12.8124 5.36595C12.9378 4.73551 13.2474 4.15642 13.7019 3.7019C14.1564 3.24737 14.7355 2.93784 15.366 2.81244C15.9964 2.68704 16.6499 2.7514 17.2437 2.99738C17.8376 3.24337 18.3452 3.65993 18.7023 4.19439C19.0594 4.72885 19.25 5.3572 19.25 5.99999C19.25 6.86195 18.9076 7.6886 18.2981 8.29809C17.6886 8.90758 16.862 9.24999 16 9.24999Z" fill="#112D1F"/>
</svg>
