<svg width="32" height="32" viewBox="0 0 32 32" fill="none" xmlns="http://www.w3.org/2000/svg">
<path d="M28.7499 7C28.7499 7.19891 28.6708 7.38968 28.5302 7.53033C28.3895 7.67098 28.1988 7.75 27.9999 7.75H25.7499V10C25.7499 10.1989 25.6708 10.3897 25.5302 10.5303C25.3895 10.671 25.1988 10.75 24.9999 10.75C24.8009 10.75 24.6102 10.671 24.4695 10.5303C24.3289 10.3897 24.2499 10.1989 24.2499 10V7.75H21.9999C21.8009 7.75 21.6102 7.67098 21.4695 7.53033C21.3289 7.38968 21.2499 7.19891 21.2499 7C21.2499 6.80109 21.3289 6.61032 21.4695 6.46967C21.6102 6.32902 21.8009 6.25 21.9999 6.25H24.2499V4C24.2499 3.80109 24.3289 3.61032 24.4695 3.46967C24.6102 3.32902 24.8009 3.25 24.9999 3.25C25.1988 3.25 25.3895 3.32902 25.5302 3.46967C25.6708 3.61032 25.7499 3.80109 25.7499 4V6.25H27.9999C28.1988 6.25 28.3895 6.32902 28.5302 6.46967C28.6708 6.61032 28.7499 6.80109 28.7499 7ZM10.7499 14.585V25.5C10.7516 26.4705 10.4217 27.4126 9.81475 28.1699C9.20784 28.9273 8.36037 29.4546 7.41277 29.6644C6.46517 29.8742 5.47432 29.754 4.60441 29.3236C3.73451 28.8932 3.03776 28.1785 2.62962 27.298C2.22148 26.4174 2.12645 25.4238 2.36027 24.4819C2.5941 23.5399 3.14275 22.7061 3.9153 22.1186C4.68786 21.5312 5.63795 21.2253 6.60814 21.2517C7.57833 21.2781 8.51038 21.6351 9.24986 22.2638V8C9.24985 7.83284 9.30569 7.67046 9.4085 7.53866C9.51132 7.40685 9.65522 7.31318 9.81736 7.2725L16.8174 5.5225C17.0103 5.4741 17.2146 5.50433 17.3852 5.60653C17.5559 5.70874 17.679 5.87456 17.7274 6.0675C17.7758 6.26045 17.7455 6.46472 17.6433 6.63537C17.5411 6.80603 17.3753 6.9291 17.1824 6.9775L10.7499 8.585V13.04L19.8174 10.7725C19.9129 10.7485 20.0122 10.7436 20.1097 10.758C20.2071 10.7725 20.3007 10.8059 20.3852 10.8565C20.4697 10.9071 20.5434 10.9739 20.6021 11.053C20.6608 11.1321 20.7034 11.222 20.7274 11.3175C20.7513 11.413 20.7562 11.5124 20.7418 11.6098C20.7274 11.7072 20.6939 11.8009 20.6433 11.8854C20.5927 11.9699 20.526 12.0436 20.4469 12.1023C20.3678 12.161 20.2779 12.2035 20.1824 12.2275L10.7499 14.585ZM9.24986 25.5C9.24986 24.9561 9.08857 24.4244 8.7864 23.9722C8.48423 23.5199 8.05474 23.1675 7.55224 22.9593C7.04974 22.7512 6.49681 22.6967 5.96336 22.8028C5.42991 22.909 4.93991 23.1709 4.55532 23.5555C4.17072 23.9401 3.90881 24.4301 3.8027 24.9635C3.69659 25.4969 3.75105 26.0499 3.95919 26.5524C4.16733 27.0549 4.51981 27.4844 4.97204 27.7865C5.42428 28.0887 5.95596 28.25 6.49986 28.25C7.22921 28.25 7.92868 27.9603 8.4444 27.4445C8.96013 26.9288 9.24986 26.2293 9.24986 25.5ZM26.7499 15V21.5C26.7516 22.4705 26.4217 23.4126 25.8148 24.1699C25.2078 24.9273 24.3604 25.4546 23.4128 25.6644C22.4652 25.8742 21.4743 25.754 20.6044 25.3236C19.7345 24.8932 19.0378 24.1785 18.6296 23.298C18.2215 22.4174 18.1264 21.4238 18.3603 20.4819C18.5941 19.5399 19.1427 18.7061 19.9153 18.1186C20.6879 17.5312 21.6379 17.2253 22.6081 17.2517C23.5783 17.2781 24.5104 17.6351 25.2499 18.2638V15C25.2499 14.8011 25.3289 14.6103 25.4695 14.4697C25.6102 14.329 25.8009 14.25 25.9999 14.25C26.1988 14.25 26.3895 14.329 26.5302 14.4697C26.6708 14.6103 26.7499 14.8011 26.7499 15ZM25.2499 21.5C25.2499 20.9561 25.0886 20.4244 24.7864 19.9722C24.4842 19.5199 24.0547 19.1675 23.5522 18.9593C23.0497 18.7512 22.4968 18.6967 21.9634 18.8028C21.4299 18.909 20.9399 19.1709 20.5553 19.5555C20.1707 19.9401 19.9088 20.4301 19.8027 20.9635C19.6966 21.4969 19.7511 22.0499 19.9592 22.5524C20.1673 23.0549 20.5198 23.4844 20.972 23.7865C21.4243 24.0887 21.956 24.25 22.4999 24.25C23.2292 24.25 23.9287 23.9603 24.4444 23.4445C24.9601 22.9288 25.2499 22.2293 25.2499 21.5Z" fill="#112D1F"/>
</svg>
