<svg width="32" height="32" viewBox="0 0 32 32" fill="none" xmlns="http://www.w3.org/2000/svg">
<path d="M26.215 7.28125L16.215 4.28125C16.103 4.24774 15.9847 4.24087 15.8696 4.26119C15.7545 4.28151 15.6457 4.32845 15.552 4.39828C15.4582 4.4681 15.3821 4.55887 15.3297 4.66335C15.2773 4.76782 15.25 4.8831 15.25 5V19.1312C14.3461 18.1394 13.1238 17.4949 11.7948 17.3094C10.4657 17.1239 9.11367 17.4091 7.97278 18.1156C6.83188 18.8221 5.97402 19.9054 5.54778 21.1778C5.12153 22.4503 5.15376 23.8317 5.63886 25.0829C6.12397 26.334 7.03141 27.3761 8.204 28.0287C9.37659 28.6812 10.7405 28.903 12.0594 28.6558C13.3784 28.4085 14.5693 27.7078 15.426 26.6749C16.2826 25.6419 16.751 24.3419 16.75 23V6.0075L25.7837 8.71875C25.8781 8.74706 25.9772 8.75651 26.0752 8.74655C26.1733 8.73659 26.2684 8.70742 26.3551 8.6607C26.4419 8.61398 26.5186 8.55063 26.5809 8.47426C26.6432 8.3979 26.6898 8.31001 26.7181 8.21562C26.7464 8.12124 26.7559 8.02219 26.7459 7.92416C26.736 7.82612 26.7068 7.731 26.6601 7.64424C26.6134 7.55747 26.55 7.48076 26.4736 7.41848C26.3973 7.35619 26.3094 7.30956 26.215 7.28125ZM11 27.25C10.1594 27.25 9.33773 27.0007 8.63883 26.5337C7.93992 26.0667 7.39518 25.403 7.07351 24.6264C6.75184 23.8498 6.66767 22.9953 6.83166 22.1709C6.99565 21.3464 7.40042 20.5892 7.9948 19.9948C8.58917 19.4004 9.34645 18.9956 10.1709 18.8317C10.9953 18.6677 11.8498 18.7518 12.6264 19.0735C13.403 19.3952 14.0667 19.9399 14.5337 20.6388C15.0007 21.3377 15.25 22.1594 15.25 23C15.25 24.1272 14.8022 25.2082 14.0052 26.0052C13.2082 26.8022 12.1272 27.25 11 27.25Z" fill="#112D1F"/>
</svg>
