<svg width="32" height="32" viewBox="0 0 32 32" fill="none" xmlns="http://www.w3.org/2000/svg">
<path d="M28.581 12.5125L6.5898 4.35378H6.57355C6.26384 4.24705 5.93039 4.2294 5.61115 4.30283C5.29191 4.37626 4.99968 4.53782 4.76772 4.76913C4.53576 5.00043 4.37338 5.2922 4.29906 5.61124C4.22473 5.93028 4.24145 6.26377 4.3473 6.57378C4.3473 6.57378 4.3473 6.58503 4.3473 6.59003L12.5123 28.5813C12.6287 28.9248 12.8507 29.2228 13.1466 29.4327C13.4424 29.6426 13.7971 29.7537 14.1598 29.75H14.1923C14.5623 29.7476 14.9218 29.6262 15.2175 29.4038C15.5133 29.1814 15.7297 28.8698 15.8348 28.515L18.7798 18.945C18.7918 18.9062 18.8131 18.8708 18.8419 18.8421C18.8706 18.8133 18.9059 18.792 18.9448 18.78L28.5148 15.835C28.8665 15.7265 29.175 15.5099 29.3965 15.2159C29.618 14.922 29.7411 14.5657 29.7485 14.1977C29.7558 13.8297 29.6469 13.4688 29.4373 13.1663C29.2278 12.8637 28.9281 12.635 28.581 12.5125ZM28.0735 14.4013L18.4998 17.3463C18.2271 17.4302 17.9791 17.5796 17.7774 17.7813C17.5756 17.9831 17.4263 18.2311 17.3423 18.5038L14.3973 28.0738C14.3844 28.1257 14.354 28.1716 14.3112 28.2037C14.2683 28.2358 14.2158 28.2522 14.1623 28.25C14.1088 28.2547 14.0554 28.2404 14.0115 28.2095C13.9675 28.1786 13.936 28.1332 13.9223 28.0813C13.9228 28.0763 13.9228 28.0713 13.9223 28.0663L5.76355 6.07753C5.74974 6.03388 5.74819 5.98729 5.75905 5.94282C5.76991 5.89836 5.79277 5.85773 5.82513 5.82536C5.8575 5.793 5.89813 5.77014 5.9426 5.75928C5.98706 5.74842 6.03365 5.74997 6.0773 5.76378L28.066 13.9213H28.081C28.1308 13.9385 28.1739 13.971 28.2041 14.0141C28.2343 14.0573 28.2501 14.1088 28.2493 14.1615C28.2485 14.2142 28.231 14.2652 28.1995 14.3074C28.1679 14.3495 28.1238 14.3806 28.0735 14.3963V14.4013Z" fill="#112D1F"/>
</svg>
