<svg width="32" height="32" viewBox="0 0 32 32" fill="none" xmlns="http://www.w3.org/2000/svg">
<path d="M26.5302 16.53L16.5302 26.53C16.4615 26.6037 16.3787 26.6628 16.2867 26.7038C16.1947 26.7448 16.0954 26.7668 15.9947 26.7686C15.894 26.7704 15.7939 26.7519 15.7006 26.7141C15.6072 26.6764 15.5223 26.6203 15.4511 26.549C15.3799 26.4778 15.3238 26.393 15.286 26.2996C15.2483 26.2062 15.2298 26.1062 15.2316 26.0055C15.2333 25.9048 15.2554 25.8055 15.2964 25.7135C15.3374 25.6215 15.3965 25.5387 15.4702 25.47L25.4702 15.47C25.5388 15.3963 25.6216 15.3372 25.7136 15.2962C25.8056 15.2552 25.9049 15.2332 26.0056 15.2314C26.1063 15.2296 26.2064 15.2482 26.2997 15.2859C26.3931 15.3236 26.478 15.3798 26.5492 15.451C26.6204 15.5222 26.6766 15.607 26.7143 15.7004C26.752 15.7938 26.7705 15.8938 26.7687 15.9945C26.767 16.0952 26.7449 16.1946 26.7039 16.2866C26.6629 16.3785 26.6038 16.4614 26.5302 16.53ZM24.5302 4.47001C24.3895 4.32956 24.1989 4.25067 24.0002 4.25067C23.8014 4.25067 23.6108 4.32956 23.4702 4.47001L4.47015 23.47C4.39647 23.5387 4.33736 23.6215 4.29637 23.7135C4.25538 23.8055 4.23334 23.9048 4.23156 24.0055C4.22979 24.1062 4.24831 24.2062 4.28603 24.2996C4.32375 24.393 4.3799 24.4778 4.45112 24.549C4.52233 24.6203 4.60717 24.6764 4.70056 24.7141C4.79394 24.7519 4.89397 24.7704 4.99468 24.7686C5.09538 24.7668 5.19469 24.7448 5.28669 24.7038C5.37869 24.6628 5.46149 24.6037 5.53015 24.53L24.5302 5.53001C24.6706 5.38939 24.7495 5.19876 24.7495 5.00001C24.7495 4.80126 24.6706 4.61064 24.5302 4.47001Z" fill="#112D1F"/>
</svg>
