<svg width="32" height="32" viewBox="0 0 32 32" fill="none" xmlns="http://www.w3.org/2000/svg">
<path d="M28.53 7.46995L24.53 3.46995C24.3894 3.3295 24.1988 3.25061 24 3.25061C23.8012 3.25061 23.6106 3.3295 23.47 3.46995L11.47 15.47C11.3293 15.6105 11.2502 15.8011 11.25 16V20C11.25 20.1989 11.329 20.3896 11.4697 20.5303C11.6103 20.6709 11.8011 20.75 12 20.75H16C16.1988 20.7498 16.3895 20.6706 16.53 20.53L28.53 8.52995C28.6705 8.38932 28.7493 8.1987 28.7493 7.99995C28.7493 7.8012 28.6705 7.61058 28.53 7.46995ZM15.6888 19.25H12.75V16.3112L21 8.0612L23.9387 11L15.6888 19.25ZM25 9.9387L22.0613 6.99995L24 5.0612L26.9387 7.99995L25 9.9387ZM27.75 15V26C27.75 26.4641 27.5656 26.9092 27.2374 27.2374C26.9092 27.5656 26.4641 27.75 26 27.75H6C5.53587 27.75 5.09075 27.5656 4.76256 27.2374C4.43437 26.9092 4.25 26.4641 4.25 26V5.99995C4.25 5.53582 4.43437 5.0907 4.76256 4.76251C5.09075 4.43432 5.53587 4.24995 6 4.24995H17C17.1989 4.24995 17.3897 4.32897 17.5303 4.46962C17.671 4.61027 17.75 4.80104 17.75 4.99995C17.75 5.19886 17.671 5.38963 17.5303 5.53028C17.3897 5.67093 17.1989 5.74995 17 5.74995H6C5.9337 5.74995 5.87011 5.77629 5.82322 5.82317C5.77634 5.87006 5.75 5.93365 5.75 5.99995V26C5.75 26.0663 5.77634 26.1298 5.82322 26.1767C5.87011 26.2236 5.9337 26.25 6 26.25H26C26.0663 26.25 26.1299 26.2236 26.1768 26.1767C26.2237 26.1298 26.25 26.0663 26.25 26V15C26.25 14.801 26.329 14.6103 26.4697 14.4696C26.6103 14.329 26.8011 14.25 27 14.25C27.1989 14.25 27.3897 14.329 27.5303 14.4696C27.671 14.6103 27.75 14.801 27.75 15Z" fill="#112D1F"/>
</svg>
