<svg width="32" height="32" viewBox="0 0 32 32" fill="none" xmlns="http://www.w3.org/2000/svg">
<path d="M16 10.25C14.8628 10.25 13.7511 10.5872 12.8055 11.219C11.8599 11.8509 11.1229 12.7489 10.6877 13.7996C10.2525 14.8502 10.1386 16.0064 10.3605 17.1218C10.5824 18.2371 11.13 19.2617 11.9341 20.0659C12.7383 20.87 13.7628 21.4176 14.8782 21.6395C15.9936 21.8614 17.1498 21.7475 18.2004 21.3123C19.2511 20.8771 20.1491 20.1401 20.781 19.1945C21.4128 18.2489 21.75 17.1372 21.75 16C21.748 14.4756 21.1416 13.0142 20.0637 11.9363C18.9858 10.8584 17.5244 10.252 16 10.25ZM16 20.25C15.1594 20.25 14.3377 20.0007 13.6388 19.5337C12.9399 19.0667 12.3952 18.403 12.0735 17.6264C11.7518 16.8498 11.6677 15.9953 11.8317 15.1709C11.9956 14.3464 12.4004 13.5892 12.9948 12.9948C13.5892 12.4004 14.3464 11.9956 15.1709 11.8317C15.9953 11.6677 16.8498 11.7518 17.6264 12.0735C18.403 12.3952 19.0668 12.9399 19.5337 13.6388C20.0007 14.3377 20.25 15.1594 20.25 16C20.25 17.1272 19.8022 18.2082 19.0052 19.0052C18.2082 19.8022 17.1272 20.25 16 20.25ZM27.84 8.48874L16.84 2.46624C16.5828 2.3242 16.2938 2.24969 16 2.24969C15.7062 2.24969 15.4172 2.3242 15.16 2.46624L4.16 8.48874C3.88476 8.63934 3.65506 8.86117 3.49497 9.131C3.33487 9.40083 3.25026 9.70874 3.25 10.0225V21.9775C3.25026 22.2912 3.33487 22.5991 3.49497 22.869C3.65506 23.1388 3.88476 23.3606 4.16 23.5112L15.16 29.5337C15.4173 29.6756 15.7062 29.7499 16 29.7499C16.2938 29.7499 16.5827 29.6756 16.84 29.5337L27.84 23.5112C28.1152 23.3606 28.3449 23.1388 28.505 22.869C28.6651 22.5991 28.7497 22.2912 28.75 21.9775V10.0225C28.7497 9.70874 28.6651 9.40083 28.505 9.131C28.3449 8.86117 28.1152 8.63934 27.84 8.48874ZM27.25 21.9775C27.2504 22.0218 27.239 22.0653 27.2171 22.1038C27.1951 22.1422 27.1633 22.1741 27.125 22.1962L16.125 28.2187C16.0882 28.2389 16.0469 28.2494 16.005 28.2494C15.9631 28.2494 15.9218 28.2389 15.885 28.2187L4.875 22.1962C4.83666 22.1741 4.80489 22.1422 4.78293 22.1038C4.76097 22.0653 4.7496 22.0218 4.75 21.9775V10.0225C4.7496 9.97823 4.76097 9.93465 4.78293 9.89622C4.80489 9.85778 4.83666 9.82587 4.875 9.80374L15.875 3.78124C15.9118 3.76111 15.9531 3.75056 15.995 3.75056C16.0369 3.75056 16.0782 3.76111 16.115 3.78124L27.115 9.80374C27.1533 9.82587 27.1851 9.85778 27.2071 9.89622C27.229 9.93465 27.2404 9.97823 27.24 10.0225L27.25 21.9775Z" fill="#112D1F"/>
</svg>
