<svg width="32" height="32" viewBox="0 0 32 32" fill="none" xmlns="http://www.w3.org/2000/svg">
<path d="M28.9685 20.415C28.8355 20.3085 28.6702 20.2505 28.4998 20.2505C28.3294 20.2505 28.1641 20.3085 28.031 20.415C27.9173 20.5 25.2498 22.6725 25.2498 25.5C25.2498 26.362 25.5922 27.1886 26.2017 27.7981C26.8112 28.4076 27.6378 28.75 28.4998 28.75C29.3618 28.75 30.1884 28.4076 30.7979 27.7981C31.4074 27.1886 31.7498 26.362 31.7498 25.5C31.7498 22.6725 29.0823 20.5 28.9685 20.415ZM28.4998 27.25C28.0357 27.25 27.5906 27.0657 27.2624 26.7375C26.9342 26.4093 26.7498 25.9642 26.7498 25.5C26.7498 24.015 27.8485 22.6813 28.4998 22.0213C29.1511 22.6813 30.2498 24.0213 30.2498 25.5C30.2498 25.9642 30.0654 26.4093 29.7372 26.7375C29.409 27.0657 28.9639 27.25 28.4998 27.25ZM28.5298 14.905L15.0948 1.47003C15.0251 1.40029 14.9424 1.34497 14.8514 1.30723C14.7603 1.26949 14.6627 1.25006 14.5642 1.25006C14.4656 1.25006 14.368 1.26949 14.277 1.30723C14.1859 1.34497 14.1032 1.40029 14.0335 1.47003L8.78355 6.72003L5.53355 3.47003C5.39259 3.33118 5.20248 3.25365 5.00463 3.25434C4.80677 3.25503 4.6172 3.33387 4.47721 3.47369C4.33722 3.61352 4.25816 3.80299 4.25724 4.00085C4.25632 4.1987 4.33362 4.38891 4.4723 4.53003L7.7223 7.78003L2.0548 13.4488C1.53918 13.9645 1.24951 14.6639 1.24951 15.3932C1.24951 16.1224 1.53918 16.8218 2.0548 17.3375L12.6623 27.945C13.178 28.4606 13.8774 28.7503 14.6067 28.7503C15.3359 28.7503 16.0353 28.4606 16.5511 27.945L28.5298 15.9663C28.5995 15.8966 28.6549 15.8139 28.6926 15.7229C28.7303 15.6318 28.7498 15.5342 28.7498 15.4357C28.7498 15.3371 28.7303 15.2395 28.6926 15.1484C28.6549 15.0574 28.5995 14.9747 28.5298 14.905ZM15.491 26.8838C15.2566 27.1181 14.9388 27.2498 14.6073 27.2498C14.2758 27.2498 13.958 27.1181 13.7235 26.8838L3.11605 16.2763C2.88171 16.0419 2.75007 15.724 2.75007 15.3925C2.75007 15.0611 2.88171 14.7432 3.11605 14.5088L8.78105 8.84378L12.7336 12.795C12.3506 13.4174 12.1886 14.1506 12.2737 14.8764C12.3587 15.6021 12.6859 16.2781 13.2023 16.795C13.8117 17.4042 14.6381 17.7463 15.4998 17.7463C16.3615 17.7463 17.1879 17.4042 17.7973 16.795C18.3571 16.2313 18.691 15.4822 18.736 14.689C18.781 13.8959 18.534 13.1137 18.0416 12.4903C17.5491 11.867 16.8454 11.4455 16.0634 11.3057C15.2814 11.1658 14.4753 11.3172 13.7973 11.7313L9.8423 7.78253L14.5648 3.06128L26.9398 15.4363L15.491 26.8838ZM15.4998 12.75C15.9047 12.7501 16.297 12.8905 16.61 13.1473C16.9229 13.4042 17.1371 13.7616 17.2161 14.1587C17.295 14.5558 17.2339 14.968 17.043 15.3251C16.8521 15.6821 16.5433 15.9619 16.1693 16.1169C15.7952 16.2718 15.379 16.2922 14.9916 16.1746C14.6041 16.0571 14.2695 15.8088 14.0445 15.4722C13.8196 15.1355 13.7184 14.7313 13.7581 14.3284C13.7978 13.9255 13.976 13.5488 14.2623 13.2625C14.4245 13.0996 14.6174 12.9704 14.8298 12.8824C15.0422 12.7945 15.2699 12.7495 15.4998 12.75Z" fill="#112D1F"/>
</svg>
