<svg width="32" height="32" viewBox="0 0 32 32" fill="none" xmlns="http://www.w3.org/2000/svg">
<path d="M29.5215 25.1362L17.5127 4.14499C17.3605 3.87417 17.139 3.64875 16.8709 3.49186C16.6028 3.33498 16.2977 3.25229 15.9871 3.25229C15.6764 3.25229 15.3714 3.33498 15.1033 3.49186C14.8352 3.64875 14.6136 3.87417 14.4615 4.14499L2.47645 25.145C2.30282 25.4551 2.22774 25.8107 2.26119 26.1646C2.29464 26.5184 2.43503 26.8537 2.6637 27.1258C2.89237 27.3979 3.19846 27.5939 3.54126 27.6878C3.88406 27.7816 4.24732 27.7689 4.5827 27.6512L15.8927 23.7762H15.9015C15.9588 23.7557 16.0216 23.7557 16.079 23.7762L27.409 27.6512C27.745 27.7713 28.1097 27.7858 28.4542 27.6927C28.7987 27.5996 29.1066 27.4034 29.3364 27.1305C29.5663 26.8575 29.7072 26.5208 29.7403 26.1655C29.7733 25.8101 29.697 25.4532 29.5215 25.1425V25.1362ZM28.1889 26.1575C28.1562 26.1994 28.1103 26.2292 28.0587 26.2421C28.0071 26.255 27.9526 26.2503 27.9039 26.2287L16.7502 22.4125V15C16.7502 14.8011 16.6712 14.6103 16.5305 14.4697C16.3899 14.329 16.1991 14.25 16.0002 14.25C15.8013 14.25 15.6105 14.329 15.4699 14.4697C15.3292 14.6103 15.2502 14.8011 15.2502 15V22.4012L4.0877 26.2325C4.04001 26.2521 3.98718 26.2553 3.93745 26.2418C3.88771 26.2282 3.84385 26.1986 3.8127 26.1575C3.77778 26.121 3.7559 26.074 3.75047 26.0238C3.74504 25.9736 3.75638 25.9231 3.7827 25.88L15.7677 4.87499C15.789 4.83621 15.8206 4.80404 15.8589 4.78199C15.8973 4.75995 15.941 4.74887 15.9852 4.74999C16.031 4.74977 16.0759 4.76213 16.1152 4.78572C16.1544 4.8093 16.1864 4.84321 16.2077 4.88374L28.2164 25.875C28.2437 25.9185 28.2558 25.9698 28.2508 26.0209C28.2458 26.072 28.2241 26.12 28.1889 26.1575Z" fill="#112D1F"/>
</svg>
