<svg width="32" height="32" viewBox="0 0 32 32" fill="none" xmlns="http://www.w3.org/2000/svg">
<path d="M27.8602 14.4613L6.86023 2.47625C6.55024 2.30475 6.19549 2.23138 5.8429 2.26583C5.49031 2.30029 5.15647 2.44094 4.88554 2.6692C4.6146 2.89747 4.41933 3.20258 4.32553 3.54421C4.23174 3.88584 4.24384 4.2479 4.36023 4.5825L8.23523 15.8925V15.9013C8.25574 15.9586 8.25574 16.0214 8.23523 16.0788L4.36023 27.4088C4.26561 27.6724 4.23563 27.9548 4.27283 28.2324C4.31002 28.51 4.4133 28.7746 4.57399 29.004C4.73468 29.2334 4.94808 29.4209 5.19626 29.5507C5.44445 29.6805 5.72016 29.7489 6.00023 29.75C6.30344 29.7494 6.60136 29.6706 6.86523 29.5213L27.8552 17.5125C28.126 17.3603 28.3515 17.1388 28.5084 16.8707C28.6652 16.6026 28.7479 16.2975 28.7479 15.9869C28.7479 15.6762 28.6652 15.3712 28.5084 15.1031C28.3515 14.835 28.126 14.6134 27.8552 14.4613H27.8602ZM27.1165 16.2113L6.12523 28.2163C6.08153 28.2436 6.03 28.2557 5.97868 28.2508C5.92736 28.2458 5.87913 28.224 5.84148 28.1888C5.79993 28.1557 5.77051 28.1098 5.75785 28.0582C5.74518 28.0066 5.74998 27.9523 5.77148 27.9038L9.58773 16.75H17.0002C17.1991 16.75 17.3899 16.671 17.5306 16.5303C17.6712 16.3897 17.7502 16.1989 17.7502 16C17.7502 15.8011 17.6712 15.6103 17.5306 15.4697C17.3899 15.329 17.1991 15.25 17.0002 15.25H9.59773L5.76773 4.0875C5.74936 4.03936 5.74632 3.98672 5.75901 3.93677C5.77171 3.88683 5.79953 3.84204 5.83866 3.80851C5.8778 3.77499 5.92633 3.75438 5.97763 3.7495C6.02893 3.74462 6.08048 3.75571 6.12523 3.78125L27.1252 15.7675C27.164 15.7888 27.1962 15.8204 27.2182 15.8587C27.2403 15.8971 27.2513 15.9408 27.2502 15.985C27.2504 16.0308 27.2381 16.0757 27.2145 16.115C27.1909 16.1542 27.157 16.1862 27.1165 16.2075V16.2113Z" fill="#112D1F"/>
</svg>
