<svg width="32" height="32" viewBox="0 0 32 32" fill="none" xmlns="http://www.w3.org/2000/svg">
<path d="M28.2351 3.765C28.0165 3.54301 27.7419 3.38423 27.4405 3.30546C27.139 3.22669 26.8219 3.23085 26.5226 3.3175H26.5088L2.51759 10.5963C2.1757 10.6942 1.87177 10.894 1.64627 11.169C1.42077 11.444 1.28441 11.7812 1.25536 12.1356C1.22631 12.4901 1.30594 12.845 1.48365 13.153C1.66136 13.4611 1.92871 13.7077 2.25009 13.86L12.9513 18.9288C13.003 18.9541 13.0447 18.9959 13.0701 19.0475L18.1401 29.75C18.2801 30.0497 18.5029 30.3031 18.7821 30.4802C19.0614 30.6574 19.3856 30.751 19.7163 30.75C19.7663 30.75 19.8176 30.75 19.8676 30.7438C20.2219 30.7159 20.5592 30.58 20.8339 30.3545C21.1086 30.129 21.3075 29.8246 21.4038 29.4825L28.6788 5.49125V5.4775C28.766 5.17855 28.7707 4.86162 28.6926 4.56019C28.6145 4.25876 28.4564 3.98402 28.2351 3.765ZM27.2351 5.065L19.9663 29.0538V29.0675C19.9546 29.1176 19.9267 29.1625 19.887 29.1953C19.8472 29.228 19.7978 29.2468 19.7463 29.2488C19.6947 29.2565 19.642 29.2467 19.5966 29.2208C19.5513 29.195 19.516 29.1546 19.4963 29.1063L14.4963 18.5613L20.5263 12.5313C20.6671 12.3905 20.7461 12.1996 20.7461 12.0006C20.7461 11.8016 20.6671 11.6107 20.5263 11.47C20.3856 11.3293 20.1947 11.2502 19.9957 11.2502C19.7967 11.2502 19.6058 11.3293 19.4651 11.47L13.4401 17.5L2.89384 12.5C2.84751 12.4784 2.8089 12.4431 2.78324 12.3989C2.75757 12.3547 2.74607 12.3037 2.7503 12.2527C2.75452 12.2018 2.77426 12.1534 2.80685 12.114C2.83945 12.0746 2.88333 12.0462 2.93259 12.0325H2.94634L26.9351 4.76C26.9772 4.74817 27.0218 4.74796 27.0641 4.7594C27.1063 4.77085 27.1447 4.79351 27.1751 4.825C27.2059 4.85586 27.2281 4.89425 27.2395 4.93635C27.2509 4.97845 27.2511 5.0228 27.2401 5.065H27.2351Z" fill="#112D1F"/>
</svg>
