<svg width="32" height="32" viewBox="0 0 32 32" fill="none" xmlns="http://www.w3.org/2000/svg">
<path d="M29 24.25H24.75V20.75H28C28.114 20.75 28.2266 20.724 28.329 20.674C28.4315 20.624 28.5212 20.5512 28.5914 20.4613C28.6615 20.3714 28.7102 20.2667 28.7338 20.1551C28.7574 20.0436 28.7552 19.9281 28.7275 19.8175L24.7275 3.81749C24.6869 3.65532 24.5932 3.51138 24.4614 3.40853C24.3296 3.30568 24.1672 3.24982 24 3.24982C23.8328 3.24982 23.6704 3.30568 23.5386 3.40853C23.4068 3.51138 23.3131 3.65532 23.2725 3.81749L19.2725 19.8175C19.2448 19.9281 19.2426 20.0436 19.2662 20.1551C19.2898 20.2667 19.3385 20.3714 19.4086 20.4613C19.4788 20.5512 19.5685 20.624 19.671 20.674C19.7734 20.724 19.886 20.75 20 20.75H23.25V24.25H14.75V21.75H16C16.1989 21.75 16.3897 21.671 16.5303 21.5303C16.671 21.3897 16.75 21.1989 16.75 21C16.75 20.8011 16.671 20.6103 16.5303 20.4697C16.3897 20.329 16.1989 20.25 16 20.25H14.75V17.75H16C16.1989 17.75 16.3897 17.671 16.5303 17.5303C16.671 17.3897 16.75 17.1989 16.75 17C16.75 16.8011 16.671 16.6103 16.5303 16.4697C16.3897 16.329 16.1989 16.25 16 16.25H5C4.80109 16.25 4.61032 16.329 4.46967 16.4697C4.32902 16.6103 4.25 16.8011 4.25 17C4.25 17.1989 4.32902 17.3897 4.46967 17.5303C4.61032 17.671 4.80109 17.75 5 17.75H6.25V20.25H5C4.80109 20.25 4.61032 20.329 4.46967 20.4697C4.32902 20.6103 4.25 20.8011 4.25 21C4.25 21.1989 4.32902 21.3897 4.46967 21.5303C4.61032 21.671 4.80109 21.75 5 21.75H6.25V24.25H3C2.80109 24.25 2.61032 24.329 2.46967 24.4697C2.32902 24.6103 2.25 24.8011 2.25 25C2.25 25.1989 2.32902 25.3897 2.46967 25.5303C2.61032 25.671 2.80109 25.75 3 25.75H29C29.1989 25.75 29.3897 25.671 29.5303 25.5303C29.671 25.3897 29.75 25.1989 29.75 25C29.75 24.8011 29.671 24.6103 29.5303 24.4697C29.3897 24.329 29.1989 24.25 29 24.25ZM24 7.09249L27.04 19.25H20.96L24 7.09249ZM7.75 17.75H13.25V20.25H7.75V17.75ZM7.75 21.75H13.25V24.25H7.75V21.75ZM14.5 11.75C15.1428 11.75 15.7711 11.5594 16.3056 11.2023C16.8401 10.8451 17.2566 10.3376 17.5026 9.74371C17.7486 9.14985 17.813 8.49638 17.6876 7.86594C17.5621 7.23551 17.2526 6.65641 16.7981 6.20189C16.3436 5.74737 15.7645 5.43784 15.134 5.31244C14.5036 5.18703 13.8501 5.2514 13.2563 5.49738C12.6624 5.74336 12.1548 6.15993 11.7977 6.69439C11.4406 7.22885 11.25 7.8572 11.25 8.49999C11.25 9.36194 11.5924 10.1886 12.2019 10.7981C12.8114 11.4076 13.638 11.75 14.5 11.75ZM14.5 6.74999C14.8461 6.74999 15.1845 6.85262 15.4722 7.04492C15.76 7.23721 15.9843 7.51052 16.1168 7.83029C16.2492 8.15006 16.2839 8.50193 16.2164 8.8414C16.1488 9.18086 15.9822 9.49268 15.7374 9.73743C15.4927 9.98217 15.1809 10.1488 14.8414 10.2164C14.5019 10.2839 14.1501 10.2492 13.8303 10.1168C13.5105 9.98432 13.2372 9.76002 13.0449 9.47224C12.8526 9.18445 12.75 8.84611 12.75 8.49999C12.75 8.03586 12.9344 7.59074 13.2626 7.26255C13.5908 6.93436 14.0359 6.74999 14.5 6.74999Z" fill="#112D1F"/>
</svg>
