<svg width="32" height="32" viewBox="0 0 32 32" fill="none" xmlns="http://www.w3.org/2000/svg">
<path d="M25.0152 6.98376C23.8347 5.78402 22.4285 4.82987 20.8774 4.17635C19.3264 3.52283 17.6613 3.18286 15.9782 3.17607C14.2952 3.16927 12.6274 3.49578 11.0711 4.13676C9.51487 4.77774 8.10092 5.7205 6.91083 6.91067C5.72075 8.10083 4.77809 9.51485 4.13722 11.0712C3.49635 12.6275 3.16995 14.2952 3.17687 15.9783C3.18378 17.6614 3.52386 19.3265 4.17749 20.8774C4.83112 22.4284 5.78536 23.8347 6.98518 25.015C8.16562 26.2147 9.57191 27.1689 11.1229 27.8224C12.674 28.4759 14.3391 28.8159 16.0221 28.8227C17.7052 28.8295 19.373 28.503 20.9292 27.862C22.4855 27.221 23.8994 26.2783 25.0895 25.0881C26.2796 23.8979 27.2223 22.4839 27.8631 20.9276C28.504 19.3713 28.8304 17.7035 28.8235 16.0204C28.8166 14.3374 28.4765 12.6723 27.8229 11.1213C27.1692 9.57033 26.215 8.16411 25.0152 6.98376ZM13.2502 16.75H18.7502L20.5127 20.57C19.7378 20.2282 18.87 20.1588 18.0507 20.3731C17.2313 20.5873 16.5086 21.0727 16.0002 21.75C15.4921 21.0719 14.7693 20.586 13.9496 20.3712C13.13 20.1565 12.2617 20.2257 11.4864 20.5675L13.2502 16.75ZM13.9427 15.25L16.0002 10.79L18.0589 15.25H13.9427ZM16.7502 24C16.7502 23.4033 16.9872 22.831 17.4092 22.409C17.8311 21.9871 18.4034 21.75 19.0002 21.75C19.5969 21.75 20.1692 21.9871 20.5912 22.409C21.0131 22.831 21.2502 23.4033 21.2502 24V25.955C19.8565 26.6905 18.3229 27.1225 16.7502 27.2225V24ZM10.7502 24C10.7502 23.4033 10.9872 22.831 11.4092 22.409C11.8311 21.9871 12.4034 21.75 13.0002 21.75C13.5969 21.75 14.1692 21.9871 14.5912 22.409C15.0131 22.831 15.2502 23.4033 15.2502 24V27.2225C13.6775 27.1225 12.1438 26.6905 10.7502 25.955V24ZM23.9552 23.955C23.578 24.3306 23.1754 24.6797 22.7502 25V22C22.7502 21.8917 22.7267 21.7846 22.6814 21.6863L16.6814 8.68626C16.6215 8.55602 16.5254 8.4457 16.4047 8.36837C16.2839 8.29104 16.1436 8.24994 16.0002 8.24994C15.8568 8.24994 15.7164 8.29104 15.5957 8.36837C15.4749 8.4457 15.3789 8.55602 15.3189 8.68626L9.31893 21.6863C9.27363 21.7846 9.25017 21.8917 9.25018 22V25C8.82496 24.6793 8.42234 24.3298 8.04518 23.9538C6.47185 22.3804 5.40041 20.3759 4.96634 18.1936C4.53226 16.0113 4.75506 13.7493 5.60655 11.6936C6.45804 9.63797 7.89998 7.88097 9.75003 6.64481C11.6001 5.40865 13.7751 4.74885 16.0002 4.74885C18.2252 4.74885 20.4003 5.40865 22.2503 6.64481C24.1004 7.88097 25.5423 9.63797 26.3938 11.6936C27.2453 13.7493 27.4681 16.0113 27.034 18.1936C26.6 20.3759 25.5285 22.3804 23.9552 23.9538V23.955Z" fill="#112D1F"/>
</svg>
