<svg width="32" height="32" viewBox="0 0 32 32" fill="none" xmlns="http://www.w3.org/2000/svg">
<path d="M29.75 12.585C29.7504 12.3551 29.7054 12.1274 29.6174 11.915C29.5294 11.7027 29.4003 11.5098 29.2375 11.3475L20.6513 2.7625C20.4887 2.59998 20.2958 2.47106 20.0835 2.38311C19.8712 2.29515 19.6436 2.24988 19.4138 2.24988C19.1839 2.24988 18.9563 2.29515 18.744 2.38311C18.5317 2.47106 18.3388 2.59998 18.1763 2.7625L14.585 6.35375L7.2775 9.095C6.98993 9.20265 6.73574 9.38406 6.54047 9.62102C6.34519 9.85799 6.2157 10.1422 6.165 10.445L3.26 27.875C3.24182 27.9826 3.24732 28.0928 3.27614 28.1981C3.30496 28.3033 3.35639 28.401 3.42685 28.4843C3.49731 28.5676 3.58509 28.6346 3.68409 28.6805C3.78308 28.7263 3.89089 28.7501 4 28.75C4.04186 28.7498 4.08365 28.7465 4.125 28.74L21.555 25.835C21.8581 25.7845 22.1425 25.6551 22.3797 25.4598C22.6169 25.2645 22.7985 25.0102 22.9063 24.7225L25.6463 17.415L29.2388 13.8225C29.4015 13.6602 29.5304 13.4673 29.6182 13.2549C29.7059 13.0425 29.7507 12.8148 29.75 12.585ZM21.5 24.1963C21.4846 24.2373 21.4588 24.2735 21.425 24.3014C21.3912 24.3292 21.3507 24.3477 21.3075 24.355L6.18625 26.875L12.795 20.265C13.473 20.6832 14.281 20.8378 15.0655 20.6995C15.85 20.5611 16.5564 20.1395 17.0505 19.5146C17.5446 18.8897 17.792 18.1051 17.7456 17.3099C17.6993 16.5146 17.3625 15.7641 16.7992 15.2008C16.236 14.6375 15.4854 14.3007 14.6901 14.2544C13.8949 14.208 13.1103 14.4554 12.4854 14.9495C11.8605 15.4436 11.4389 16.15 11.3005 16.9345C11.1622 17.719 11.3168 18.527 11.735 19.205L5.125 25.8163L7.64625 10.6913C7.65362 10.6484 7.67203 10.6083 7.69964 10.5747C7.72726 10.5412 7.76314 10.5154 7.80375 10.5L14.8113 7.875L24.125 17.1888L21.5 24.1963ZM12.75 17.5C12.75 17.1539 12.8526 16.8155 13.0449 16.5278C13.2372 16.24 13.5105 16.0157 13.8303 15.8832C14.1501 15.7508 14.5019 15.7161 14.8414 15.7836C15.1809 15.8512 15.4927 16.0178 15.7374 16.2626C15.9822 16.5073 16.1489 16.8191 16.2164 17.1586C16.2839 17.4981 16.2492 17.8499 16.1168 18.1697C15.9843 18.4895 15.76 18.7628 15.4722 18.9551C15.1845 19.1474 14.8461 19.25 14.5 19.25C14.0359 19.25 13.5908 19.0656 13.2626 18.7374C12.9344 18.4093 12.75 17.9641 12.75 17.5ZM28.1763 12.7625L25 15.9388L16.06 7L19.2375 3.8225C19.2607 3.79926 19.2883 3.78082 19.3186 3.76824C19.349 3.75566 19.3815 3.74918 19.4144 3.74918C19.4472 3.74918 19.4798 3.75566 19.5101 3.76824C19.5405 3.78082 19.568 3.79926 19.5913 3.8225L28.1763 12.4088C28.1995 12.432 28.2179 12.4595 28.2305 12.4899C28.2431 12.5202 28.2496 12.5528 28.2496 12.5856C28.2496 12.6185 28.2431 12.651 28.2305 12.6814C28.2179 12.7117 28.1995 12.7393 28.1763 12.7625Z" fill="#112D1F"/>
</svg>
