<svg width="32" height="32" viewBox="0 0 32 32" fill="none" xmlns="http://www.w3.org/2000/svg">
<path d="M19.275 4.80624C19.3004 4.71101 19.3443 4.6217 19.4042 4.54345C19.4642 4.46519 19.5389 4.39952 19.6243 4.35018C19.7096 4.30084 19.8038 4.26881 19.9015 4.2559C19.9993 4.243 20.0986 4.24949 20.1938 4.27499C22.0052 4.74752 23.658 5.69444 24.9818 7.01822C26.3056 8.342 27.2525 9.99476 27.725 11.8062C27.7505 11.9015 27.757 12.0008 27.7441 12.0985C27.7312 12.1962 27.6992 12.2904 27.6498 12.3757C27.6005 12.4611 27.5348 12.5358 27.4566 12.5958C27.3783 12.6557 27.289 12.6996 27.1938 12.725C27.1306 12.7418 27.0654 12.7502 27 12.75C26.8348 12.7501 26.6741 12.6956 26.543 12.595C26.4119 12.4944 26.3177 12.3534 26.275 12.1937C25.8693 10.6377 25.0561 9.21804 23.919 8.08099C22.782 6.94394 21.3623 6.13067 19.8063 5.72499C19.711 5.6996 19.6217 5.65569 19.5435 5.59576C19.4652 5.53583 19.3995 5.46106 19.3502 5.37574C19.3009 5.29041 19.2688 5.19619 19.2559 5.09847C19.243 5.00076 19.2495 4.90145 19.275 4.80624ZM18.8063 9.72499C20.625 10.21 21.79 11.375 22.275 13.1937C22.3177 13.3534 22.4119 13.4944 22.543 13.595C22.6741 13.6956 22.8348 13.7501 23 13.75C23.0654 13.7502 23.1306 13.7418 23.1938 13.725C23.289 13.6996 23.3783 13.6557 23.4566 13.5958C23.5348 13.5358 23.6005 13.4611 23.6498 13.3757C23.6992 13.2904 23.7312 13.1962 23.7441 13.0985C23.757 13.0008 23.7505 12.9015 23.725 12.8062C23.1 10.4675 21.5325 8.89999 19.1938 8.27499C19.0986 8.24955 18.9993 8.24311 18.9016 8.25604C18.8039 8.26896 18.7097 8.30101 18.6244 8.35034C18.4521 8.44997 18.3264 8.61396 18.275 8.80624C18.2236 8.99853 18.2507 9.20335 18.3504 9.37564C18.45 9.54794 18.614 9.67361 18.8063 9.72499ZM28.7363 21.85C28.5221 23.484 27.7202 24.9842 26.4805 26.07C25.2407 27.1558 23.648 27.753 22 27.75C12.2125 27.75 4.25001 19.7875 4.25001 9.99999C4.24686 8.35255 4.84354 6.76029 5.9286 5.52064C7.01367 4.281 8.5129 3.47874 10.1463 3.26374C10.5223 3.21805 10.9029 3.29558 11.2311 3.48469C11.5593 3.6738 11.8173 3.96427 11.9663 4.31249L14.6038 10.2C14.7202 10.4665 14.7684 10.7579 14.744 11.0477C14.7195 11.3376 14.6232 11.6167 14.4638 11.86C14.4477 11.8848 14.4302 11.9085 14.4113 11.9312L11.7775 15.0637C11.7615 15.0962 11.7532 15.1319 11.7532 15.1681C11.7532 15.2043 11.7615 15.24 11.7775 15.2725C12.735 17.2325 14.79 19.2725 16.7775 20.2287C16.8107 20.2439 16.8469 20.2511 16.8834 20.2498C16.9198 20.2485 16.9555 20.2387 16.9875 20.2212L20.0738 17.5962C20.0958 17.5771 20.1192 17.5595 20.1438 17.5437C20.3859 17.3823 20.6646 17.2838 20.9544 17.2571C21.2443 17.2305 21.5362 17.2766 21.8038 17.3912L27.7088 20.0375C28.0524 20.1898 28.3378 20.4486 28.5228 20.7757C28.7079 21.1028 28.7827 21.4808 28.7363 21.8537V21.85ZM27.25 21.665C27.2542 21.6127 27.2419 21.5605 27.2147 21.5156C27.1876 21.4707 27.147 21.4355 27.0988 21.415L21.1925 18.7687C21.1602 18.7563 21.1257 18.751 21.0911 18.7531C21.0566 18.7553 21.023 18.7649 20.9925 18.7812L17.9075 21.4062C17.885 21.425 17.8613 21.4425 17.8375 21.4587C17.5859 21.6265 17.295 21.7263 16.9934 21.7482C16.6917 21.7701 16.3895 21.7134 16.1163 21.5837C13.8213 20.475 11.5338 18.2087 10.425 15.935C10.2946 15.6633 10.2366 15.3626 10.2565 15.0619C10.2764 14.7613 10.3736 14.4708 10.5388 14.2187C10.5549 14.1937 10.5728 14.1699 10.5925 14.1475L13.225 11.015C13.2401 10.9823 13.2478 10.9467 13.2478 10.9106C13.2478 10.8746 13.2401 10.839 13.225 10.8062L10.5925 4.91374C10.5751 4.86645 10.5439 4.82551 10.5028 4.79629C10.4618 4.76707 10.4129 4.75093 10.3625 4.74999H10.3338C9.06244 4.91911 7.89613 5.54517 7.05263 6.51128C6.20913 7.47739 5.7461 8.71748 5.75001 9.99999C5.75001 18.96 13.04 26.25 22 26.25C23.2827 26.2539 24.523 25.7907 25.4891 24.9469C26.4552 24.1031 27.0812 22.9365 27.25 21.665Z" fill="#112D1F"/>
</svg>
