<svg width="32" height="32" viewBox="0 0 32 32" fill="none" xmlns="http://www.w3.org/2000/svg">
<path d="M19.47 11.47L21.94 9L19.47 6.53C19.3375 6.38782 19.2654 6.19977 19.2688 6.00547C19.2723 5.81117 19.351 5.62579 19.4884 5.48837C19.6258 5.35096 19.8112 5.27225 20.0055 5.26882C20.1998 5.26539 20.3878 5.33752 20.53 5.47L23 7.93875L25.47 5.47C25.6122 5.33752 25.8002 5.26539 25.9945 5.26882C26.1888 5.27225 26.3742 5.35096 26.5116 5.48837C26.649 5.62579 26.7278 5.81117 26.7312 6.00547C26.7346 6.19977 26.6625 6.38782 26.53 6.53L24.06 9L26.53 11.47C26.6037 11.5387 26.6628 11.6215 26.7038 11.7135C26.7448 11.8055 26.7668 11.9048 26.7686 12.0055C26.7704 12.1062 26.7519 12.2062 26.7141 12.2996C26.6764 12.393 26.6203 12.4778 26.5491 12.549C26.4778 12.6203 26.393 12.6764 26.2996 12.7141C26.2062 12.7518 26.1062 12.7704 26.0055 12.7686C25.9048 12.7668 25.8055 12.7448 25.7135 12.7038C25.6215 12.6628 25.5387 12.6037 25.47 12.53L23 10.06L20.53 12.53C20.3878 12.6625 20.1998 12.7346 20.0055 12.7312C19.8112 12.7277 19.6258 12.649 19.4884 12.5116C19.351 12.3742 19.2723 12.1888 19.2688 11.9945C19.2654 11.8002 19.3375 11.6122 19.47 11.47ZM28.7363 21.8537C28.5213 23.4871 27.719 24.9863 26.4794 26.0714C25.2397 27.1565 23.6475 27.7532 22 27.75C12.2125 27.75 4.25001 19.7875 4.25001 10C4.24686 8.35255 4.84354 6.76029 5.9286 5.52064C7.01367 4.281 8.5129 3.47875 10.1463 3.26375C10.5221 3.21796 10.9027 3.2953 11.2308 3.48418C11.559 3.67305 11.817 3.96326 11.9663 4.31125L14.6038 10.2C14.7202 10.4665 14.7684 10.7579 14.744 11.0477C14.7195 11.3376 14.6232 11.6167 14.4638 11.86C14.4477 11.8848 14.4302 11.9085 14.4113 11.9312L11.7775 15.0637C11.7615 15.0962 11.7532 15.1319 11.7532 15.1681C11.7532 15.2043 11.7615 15.24 11.7775 15.2725C12.735 17.2325 14.79 19.2725 16.7775 20.2287C16.8107 20.2439 16.8469 20.2511 16.8834 20.2498C16.9198 20.2485 16.9555 20.2387 16.9875 20.2212L20.0738 17.5962C20.0958 17.5771 20.1192 17.5595 20.1438 17.5437C20.3859 17.3823 20.6646 17.2838 20.9544 17.2571C21.2443 17.2305 21.5362 17.2766 21.8038 17.3912L27.7088 20.0375C28.0524 20.1898 28.3378 20.4486 28.5228 20.7757C28.7079 21.1028 28.7827 21.4808 28.7363 21.8537ZM27.25 21.665C27.2542 21.6127 27.2419 21.5605 27.2147 21.5156C27.1876 21.4707 27.147 21.4355 27.0988 21.415L21.1925 18.7687C21.1602 18.7563 21.1257 18.751 21.0911 18.7531C21.0566 18.7553 21.023 18.7649 20.9925 18.7812L17.9075 21.4062C17.885 21.425 17.8613 21.4425 17.8375 21.4587C17.5859 21.6265 17.295 21.7263 16.9934 21.7482C16.6917 21.7701 16.3895 21.7134 16.1163 21.5837C13.8213 20.475 11.5338 18.2087 10.425 15.935C10.2946 15.6633 10.2366 15.3626 10.2565 15.0619C10.2764 14.7613 10.3736 14.4708 10.5388 14.2187C10.5549 14.1937 10.5728 14.1699 10.5925 14.1475L13.225 11.015C13.2401 10.9823 13.2478 10.9467 13.2478 10.9106C13.2478 10.8746 13.2401 10.839 13.225 10.8062L10.5925 4.91375C10.5751 4.86645 10.5439 4.82551 10.5028 4.79629C10.4618 4.76707 10.4129 4.75094 10.3625 4.75H10.3338C9.06244 4.91911 7.89613 5.54517 7.05263 6.51128C6.20913 7.47739 5.7461 8.71748 5.75001 10C5.75001 18.96 13.04 26.25 22 26.25C23.2827 26.2539 24.523 25.7907 25.4891 24.9469C26.4552 24.1031 27.0812 22.9365 27.25 21.665Z" fill="#112D1F"/>
</svg>
