<svg width="32" height="32" viewBox="0 0 32 32" fill="none" xmlns="http://www.w3.org/2000/svg">
<path d="M19.47 12.53C19.3296 12.3894 19.2507 12.1987 19.2507 12C19.2507 11.8012 19.3296 11.6106 19.47 11.47L24.19 6.75H21C20.8011 6.75 20.6103 6.67098 20.4697 6.53033C20.329 6.38967 20.25 6.19891 20.25 6C20.25 5.80108 20.329 5.61032 20.4697 5.46967C20.6103 5.32901 20.8011 5.25 21 5.25H26C26.1989 5.25 26.3897 5.32901 26.5303 5.46967C26.671 5.61032 26.75 5.80108 26.75 6V11C26.75 11.1989 26.671 11.3897 26.5303 11.5303C26.3897 11.671 26.1989 11.75 26 11.75C25.8011 11.75 25.6103 11.671 25.4697 11.5303C25.329 11.3897 25.25 11.1989 25.25 11V7.81L20.53 12.53C20.3894 12.6704 20.1988 12.7493 20 12.7493C19.8013 12.7493 19.6106 12.6704 19.47 12.53ZM28.7363 21.8537C28.5213 23.4871 27.719 24.9863 26.4794 26.0714C25.2397 27.1565 23.6475 27.7532 22 27.75C12.2125 27.75 4.25001 19.7875 4.25001 10C4.24659 8.35247 4.84318 6.76007 5.92829 5.52037C7.01341 4.28067 8.5128 3.47849 10.1463 3.26375C10.5221 3.21796 10.9027 3.2953 11.2308 3.48418C11.559 3.67305 11.8171 3.96326 11.9663 4.31125L14.6038 10.2C14.72 10.4664 14.7681 10.7575 14.7436 11.0471C14.7192 11.3367 14.623 11.6156 14.4638 11.8587C14.4477 11.8839 14.4302 11.9081 14.4113 11.9312L11.7775 15.0562C11.7615 15.0889 11.7532 15.1248 11.7532 15.1612C11.7532 15.1976 11.7615 15.2336 11.7775 15.2662C12.735 17.2262 14.79 19.2662 16.7775 20.2225C16.8107 20.2376 16.847 20.2448 16.8834 20.2435C16.9198 20.2422 16.9555 20.2325 16.9875 20.215L20.0738 17.59C20.0958 17.5708 20.1192 17.5533 20.1438 17.5375C20.3859 17.376 20.6646 17.2775 20.9544 17.2509C21.2443 17.2243 21.5362 17.2704 21.8038 17.385L27.7088 20.0312C28.0535 20.1838 28.3397 20.4437 28.5249 20.772C28.71 21.1004 28.7841 21.4798 28.7363 21.8537ZM27.25 21.665C27.2542 21.6127 27.2419 21.5605 27.2147 21.5156C27.1876 21.4707 27.147 21.4355 27.0988 21.415L21.1925 18.7687C21.1602 18.7563 21.1257 18.751 21.0911 18.7531C21.0566 18.7553 21.023 18.7649 20.9925 18.7812L17.9075 21.4062C17.885 21.425 17.8613 21.4425 17.8375 21.4587C17.5859 21.6265 17.295 21.7263 16.9934 21.7482C16.6917 21.7701 16.3895 21.7134 16.1163 21.5837C13.8213 20.475 11.5338 18.2087 10.425 15.935C10.2946 15.6633 10.2366 15.3626 10.2565 15.0619C10.2764 14.7613 10.3736 14.4708 10.5388 14.2187C10.5549 14.1937 10.5728 14.1699 10.5925 14.1475L13.225 11.015C13.2401 10.9823 13.2478 10.9467 13.2478 10.9106C13.2478 10.8746 13.2401 10.839 13.225 10.8062L10.5925 4.91375C10.5751 4.86645 10.5439 4.82551 10.5028 4.79629C10.4618 4.76707 10.4129 4.75094 10.3625 4.75H10.3338C9.06233 4.91885 7.89587 5.54485 7.05232 6.51101C6.20877 7.47717 5.74584 8.71741 5.75001 10C5.75001 18.96 13.04 26.25 22 26.25C23.2827 26.2539 24.523 25.7907 25.4891 24.9469C26.4552 24.1031 27.0812 22.9365 27.25 21.665Z" fill="#112D1F"/>
</svg>
