<svg width="32" height="32" viewBox="0 0 32 32" fill="none" xmlns="http://www.w3.org/2000/svg">
<path d="M6.55504 4.5C6.41773 4.37256 6.23771 4.30111 6.05038 4.29972C5.86306 4.29833 5.68199 4.36709 5.54281 4.49248C5.40363 4.61786 5.31641 4.7908 5.29832 4.97725C5.28022 5.16371 5.33256 5.35019 5.44504 5.5L9.13504 9.56375C6.92049 10.441 4.90945 11.7633 3.22629 13.4487C0.820036 15.8562 0.587536 19.405 2.66129 22.0737C2.89309 22.3695 3.21395 22.5828 3.57639 22.6821C3.93883 22.7814 4.32361 22.7614 4.67379 22.625L10.7988 20.4537L10.8263 20.4425C11.097 20.3351 11.3364 20.1616 11.5227 19.9377C11.709 19.7139 11.8361 19.4469 11.8925 19.1612L12.63 15.4725C12.638 15.4317 12.656 15.3936 12.6824 15.3615C12.7088 15.3294 12.7428 15.3044 12.7813 15.2887C13.1901 15.1473 13.6076 15.0324 14.0313 14.945L25.445 27.5C25.579 27.6472 25.7659 27.7352 25.9647 27.7445C26.1635 27.7539 26.3578 27.6839 26.505 27.55C26.6522 27.4161 26.7402 27.2291 26.7496 27.0304C26.7589 26.8316 26.689 26.6372 26.555 26.49L6.55504 4.5ZM12.2863 13.875C12.002 13.9771 11.7489 14.1511 11.5518 14.38C11.3546 14.6089 11.2201 14.8849 11.1613 15.1812L10.4213 18.875C10.4133 18.9141 10.3961 18.9507 10.3711 18.9818C10.3461 19.0129 10.314 19.0376 10.2775 19.0537L4.16004 21.2212L4.13254 21.2312C4.08331 21.2511 4.02903 21.2548 3.97756 21.2418C3.9261 21.2287 3.88012 21.1997 3.84629 21.1587C2.22129 19.0675 2.40129 16.395 4.28754 14.51C5.96154 12.8326 7.98749 11.5483 10.2188 10.75L12.8863 13.685C12.6838 13.75 12.4838 13.8087 12.2863 13.875ZM29.3388 22.0762C29.107 22.372 28.7861 22.5854 28.4237 22.6846C28.0612 22.7839 27.6765 22.7639 27.3263 22.6275L26.1663 22.2162C26.0712 22.1852 25.9833 22.1354 25.9078 22.0699C25.8322 22.0043 25.7705 21.9244 25.7264 21.8346C25.6822 21.7449 25.6564 21.6472 25.6505 21.5474C25.6446 21.4476 25.6588 21.3476 25.6921 21.2533C25.7255 21.159 25.7774 21.0723 25.8447 20.9984C25.912 20.9244 25.9935 20.8647 26.0843 20.8227C26.175 20.7807 26.2733 20.7573 26.3732 20.7538C26.4732 20.7503 26.5728 20.7669 26.6663 20.8025L27.8388 21.2187L27.8663 21.2287C27.9155 21.2486 27.9698 21.2523 28.0213 21.2393C28.0727 21.2262 28.1187 21.1972 28.1525 21.1562C29.7775 19.065 29.5975 16.3925 27.7113 14.5075C24.455 11.25 19.8575 9.525 15.1038 9.77375C15.0053 9.77892 14.9067 9.76464 14.8138 9.73172C14.7208 9.69881 14.6352 9.64791 14.5619 9.58192C14.4139 9.44865 14.3249 9.26203 14.3144 9.06312C14.304 8.86421 14.373 8.6693 14.5062 8.52126C14.6395 8.37322 14.8261 8.28419 15.025 8.27375C20.205 8.005 25.215 9.89 28.775 13.4475C31.18 15.8562 31.4125 19.405 29.3388 22.0787V22.0762Z" fill="#112D1F"/>
</svg>
