<svg width="32" height="32" viewBox="0 0 32 32" fill="none" xmlns="http://www.w3.org/2000/svg">
<path d="M27.6988 20.0375L21.7938 17.3912C21.5262 17.2766 21.2343 17.2305 20.9444 17.2571C20.6546 17.2838 20.3759 17.3823 20.1338 17.5437C20.1092 17.5595 20.0858 17.5771 20.0638 17.5962L16.9775 20.2212C16.9455 20.2387 16.9098 20.2485 16.8734 20.2498C16.8369 20.2511 16.8007 20.2439 16.7675 20.2287C14.7838 19.2712 12.7288 17.2287 11.7675 15.2725C11.7515 15.24 11.7432 15.2043 11.7432 15.1681C11.7432 15.1319 11.7515 15.0962 11.7675 15.0637L14.4013 11.9312C14.4202 11.9081 14.4377 11.8839 14.4538 11.8587C14.613 11.6156 14.7092 11.3367 14.7336 11.0471C14.7581 10.7575 14.71 10.4664 14.5938 10.2L11.9663 4.31125C11.817 3.96326 11.559 3.67305 11.2308 3.48418C10.9027 3.2953 10.5221 3.21796 10.1463 3.26375C8.5129 3.47875 7.01367 4.281 5.9286 5.52064C4.84354 6.76029 4.24686 8.35255 4.25001 10C4.25001 19.7875 12.2125 27.75 22 27.75C23.6475 27.7532 25.2397 27.1565 26.4794 26.0714C27.719 24.9863 28.5213 23.4871 28.7363 21.8537C28.782 21.4797 28.7057 21.1008 28.5187 20.7736C28.3318 20.4463 28.0442 20.1882 27.6988 20.0375ZM22 26.25C13.04 26.25 5.75001 18.96 5.75001 10C5.74583 8.71741 6.20877 7.47717 7.05232 6.51101C7.89587 5.54485 9.06233 4.91885 10.3338 4.75H10.3625C10.4129 4.75094 10.4618 4.76707 10.5028 4.79629C10.5439 4.82551 10.5751 4.86645 10.5925 4.91375L13.23 10.8025C13.2451 10.8352 13.2528 10.8708 13.2528 10.9069C13.2528 10.9429 13.2451 10.9785 13.23 11.0112L10.5913 14.1437C10.5716 14.1661 10.5536 14.1899 10.5375 14.215C10.3724 14.4671 10.2752 14.7575 10.2552 15.0582C10.2353 15.3589 10.2934 15.6596 10.4238 15.9312C11.5325 18.2012 13.82 20.4712 16.115 21.58C16.3883 21.7097 16.6905 21.7663 16.9921 21.7444C17.2938 21.7225 17.5846 21.6228 17.8363 21.455C17.86 21.4387 17.8838 21.4212 17.9063 21.4025L20.9913 18.7775C21.0217 18.7611 21.0554 18.7515 21.0899 18.7494C21.1244 18.7472 21.159 18.7525 21.1913 18.765L27.0975 21.4112C27.1458 21.4318 27.1863 21.467 27.2135 21.5118C27.2406 21.5567 27.253 21.609 27.2488 21.6612C27.0808 22.9333 26.4554 24.1006 25.4894 24.9451C24.5235 25.7896 23.2831 26.2534 22 26.25ZM18.25 9C18.25 8.80108 18.329 8.61032 18.4697 8.46967C18.6103 8.32901 18.8011 8.25 19 8.25H22.25V5C22.25 4.80108 22.329 4.61032 22.4697 4.46967C22.6103 4.32901 22.8011 4.25 23 4.25C23.1989 4.25 23.3897 4.32901 23.5303 4.46967C23.671 4.61032 23.75 4.80108 23.75 5V8.25H27C27.1989 8.25 27.3897 8.32901 27.5303 8.46967C27.671 8.61032 27.75 8.80108 27.75 9C27.75 9.19891 27.671 9.38967 27.5303 9.53032C27.3897 9.67098 27.1989 9.75 27 9.75H23.75V13C23.75 13.1989 23.671 13.3897 23.5303 13.5303C23.3897 13.671 23.1989 13.75 23 13.75C22.8011 13.75 22.6103 13.671 22.4697 13.5303C22.329 13.3897 22.25 13.1989 22.25 13V9.75H19C18.8011 9.75 18.6103 9.67098 18.4697 9.53032C18.329 9.38967 18.25 9.19891 18.25 9Z" fill="#112D1F"/>
</svg>
