<svg width="32" height="32" viewBox="0 0 32 32" fill="none" xmlns="http://www.w3.org/2000/svg">
<path d="M26.75 14C26.75 16.7563 25.7875 19.2738 24.04 21.0913C22.415 22.7813 20.2138 23.75 18 23.75C15.5725 23.75 14.0563 22.8663 13.1713 22.045L11.73 28.17C11.6916 28.3349 11.5986 28.4819 11.4661 28.5872C11.3335 28.6925 11.1693 28.7499 11 28.75C10.9423 28.7501 10.8849 28.7434 10.8288 28.73C10.6352 28.6845 10.4676 28.5641 10.3628 28.3951C10.258 28.2261 10.2246 28.0224 10.27 27.8288L14.27 10.8288C14.2907 10.731 14.3306 10.6384 14.3876 10.5564C14.4445 10.4743 14.5173 10.4044 14.6016 10.3509C14.6859 10.2973 14.78 10.2611 14.8785 10.2444C14.977 10.2278 15.0778 10.2309 15.1751 10.2537C15.2723 10.2765 15.364 10.3185 15.4448 10.3773C15.5256 10.436 15.5938 10.5103 15.6455 10.5958C15.6972 10.6812 15.7313 10.7762 15.7458 10.875C15.7603 10.9738 15.755 11.0745 15.73 11.1713L13.5938 20.25C13.9438 20.7913 15.1513 22.25 18 22.25C21.5638 22.25 25.25 19.1638 25.25 14C25.2495 12.5814 24.9228 11.182 24.2951 9.90989C23.6674 8.63777 22.7555 7.52708 21.6299 6.66369C20.5044 5.80029 19.1953 5.20734 17.804 4.93069C16.4127 4.65403 14.9764 4.70107 13.6062 5.06819C12.2359 5.4353 10.9685 6.11265 9.90185 7.04785C8.83521 7.98304 7.99796 9.15104 7.45484 10.4615C6.91171 11.772 6.67727 13.1898 6.76963 14.6053C6.86199 16.0209 7.27869 17.3962 7.9875 18.625C8.0389 18.7104 8.07277 18.8051 8.08713 18.9037C8.1015 19.0023 8.09607 19.1028 8.07117 19.1993C8.04627 19.2958 8.00239 19.3863 7.9421 19.4656C7.88181 19.545 7.80632 19.6115 7.72003 19.6613C7.63374 19.7112 7.53839 19.7433 7.43954 19.7559C7.34069 19.7684 7.24033 19.7612 7.14432 19.7345C7.04831 19.7079 6.95858 19.6623 6.88036 19.6006C6.80213 19.5389 6.737 19.4622 6.68875 19.375C5.8648 17.947 5.38035 16.3486 5.27287 14.7034C5.16539 13.0582 5.43775 11.4104 6.0689 9.88726C6.70005 8.36417 7.67306 7.00665 8.9127 5.9197C10.1523 4.83275 11.6254 4.04549 13.2179 3.61881C14.8104 3.19213 16.4797 3.13746 18.0967 3.45903C19.7138 3.78059 21.2352 4.46978 22.5433 5.4733C23.8514 6.47681 24.9111 7.76775 25.6406 9.24628C26.37 10.7248 26.7496 12.3513 26.75 14Z" fill="#112D1F"/>
</svg>
