<svg width="32" height="32" viewBox="0 0 32 32" fill="none" xmlns="http://www.w3.org/2000/svg">
<path d="M28.92 14.5238L10.91 3.5075C10.6444 3.34455 10.34 3.2555 10.0284 3.24957C9.71676 3.24364 9.40921 3.32103 9.13753 3.47375C8.86729 3.62216 8.64217 3.84081 8.48595 4.1066C8.32973 4.37239 8.24822 4.67545 8.25003 4.98375V27.0163C8.24822 27.3246 8.32973 27.6276 8.48595 27.8934C8.64217 28.1592 8.86729 28.3778 9.13753 28.5263C9.40921 28.679 9.71676 28.7564 10.0284 28.7504C10.34 28.7445 10.6444 28.6555 10.91 28.4925L28.92 17.4763C29.1735 17.3222 29.3831 17.1054 29.5285 16.8469C29.674 16.5883 29.7503 16.2967 29.7503 16C29.7503 15.7033 29.674 15.4117 29.5285 15.1531C29.3831 14.8946 29.1735 14.6778 28.92 14.5238ZM28.1375 16.1963L10.125 27.2125C10.0861 27.2359 10.0416 27.2482 9.99628 27.2482C9.95092 27.2482 9.90641 27.2359 9.86753 27.2125C9.82985 27.1941 9.79813 27.1655 9.77602 27.1299C9.7539 27.0943 9.74229 27.0532 9.74253 27.0113V4.98375C9.74229 4.94184 9.7539 4.90071 9.77602 4.86511C9.79813 4.8295 9.82985 4.80087 9.86753 4.7825C9.90797 4.75995 9.95374 4.74873 10 4.75C10.0444 4.75159 10.0875 4.76497 10.125 4.78875L28.1375 15.8038C28.1718 15.8238 28.2001 15.8525 28.2199 15.8869C28.2396 15.9213 28.25 15.9603 28.25 16C28.25 16.0397 28.2396 16.0787 28.2199 16.1131C28.2001 16.1475 28.1718 16.1762 28.1375 16.1963Z" fill="#112D1F"/>
</svg>
