<svg width="32" height="32" viewBox="0 0 32 32" fill="none" xmlns="http://www.w3.org/2000/svg">
<path d="M29.5302 8.47003C29.3895 8.32958 29.1989 8.25069 29.0002 8.25069C28.8014 8.25069 28.6108 8.32958 28.4702 8.47003L24.0002 12.9388L19.0614 8.00003L23.5302 3.53003C23.6626 3.38785 23.7348 3.19981 23.7313 3.00551C23.7279 2.81121 23.6492 2.62582 23.5118 2.48841C23.3744 2.35099 23.189 2.27228 22.9947 2.26885C22.8004 2.26543 22.6123 2.33755 22.4702 2.47003L18.0002 6.93878L14.5302 3.47003C14.4615 3.39634 14.3787 3.33724 14.2867 3.29625C14.1947 3.25526 14.0954 3.23321 13.9947 3.23144C13.894 3.22966 13.7939 3.24819 13.7006 3.28591C13.6072 3.32363 13.5223 3.37977 13.4511 3.45099C13.3799 3.52221 13.3238 3.60704 13.286 3.70043C13.2483 3.79382 13.2298 3.89385 13.2316 3.99455C13.2333 4.09526 13.2554 4.19457 13.2964 4.28657C13.3374 4.37857 13.3965 4.46137 13.4702 4.53003L14.4389 5.50003L7.6414 12.2975C7.20014 12.7386 6.8501 13.2623 6.61128 13.8388C6.37246 14.4152 6.24954 15.033 6.24954 15.6569C6.24954 16.2808 6.37246 16.8986 6.61128 17.4751C6.8501 18.0515 7.20014 18.5752 7.6414 19.0163L9.78265 21.1563L3.47015 27.47C3.39647 27.5387 3.33736 27.6215 3.29637 27.7135C3.25538 27.8055 3.23334 27.9048 3.23156 28.0055C3.22979 28.1062 3.24831 28.2062 3.28603 28.2996C3.32375 28.393 3.3799 28.4778 3.45112 28.5491C3.52233 28.6203 3.60717 28.6764 3.70056 28.7142C3.79394 28.7519 3.89397 28.7704 3.99468 28.7686C4.09538 28.7668 4.19469 28.7448 4.28669 28.7038C4.37869 28.6628 4.46149 28.6037 4.53015 28.53L10.8439 22.2175L12.9852 24.3588C13.876 25.2496 15.0841 25.75 16.3439 25.75C17.6037 25.75 18.8119 25.2496 19.7027 24.3588L26.5002 17.5613L27.4702 18.53C27.6123 18.6625 27.8004 18.7346 27.9947 18.7312C28.189 18.7278 28.3744 18.6491 28.5118 18.5117C28.6492 18.3742 28.7279 18.1889 28.7313 17.9946C28.7348 17.8003 28.6626 17.6122 28.5302 17.47L25.0614 14L29.5302 9.53003C29.6706 9.3894 29.7495 9.19878 29.7495 9.00003C29.7495 8.80128 29.6706 8.61066 29.5302 8.47003ZM18.6414 23.2975C18.3396 23.5993 17.9813 23.8387 17.587 24.0021C17.1927 24.1654 16.7701 24.2495 16.3433 24.2495C15.9165 24.2495 15.4939 24.1654 15.0995 24.0021C14.7052 23.8387 14.3469 23.5993 14.0452 23.2975L8.70265 17.955C8.40086 17.6532 8.16145 17.295 7.99812 16.9006C7.83479 16.5063 7.75072 16.0837 7.75072 15.6569C7.75072 15.2301 7.83479 14.8075 7.99812 14.4132C8.16145 14.0189 8.40086 13.6606 8.70265 13.3588L15.5002 6.56128L25.4389 16.5L18.6414 23.2975Z" fill="#112D1F"/>
</svg>
