<svg width="32" height="32" viewBox="0 0 32 32" fill="none" xmlns="http://www.w3.org/2000/svg">
<path d="M18.5302 17.47C18.3895 17.3296 18.1989 17.2507 18.0002 17.2507C17.8014 17.2507 17.6108 17.3296 17.4702 17.47L15.0002 19.9388L12.0614 17L14.5302 14.53C14.6626 14.3878 14.7348 14.1998 14.7313 14.0055C14.7279 13.8112 14.6492 13.6258 14.5118 13.4884C14.3744 13.351 14.189 13.2723 13.9947 13.2688C13.8004 13.2654 13.6123 13.3375 13.4702 13.47L11.0002 15.9388L8.53015 13.47C8.38798 13.3375 8.19993 13.2654 8.00563 13.2688C7.81133 13.2723 7.62594 13.351 7.48853 13.4884C7.35112 13.6258 7.27241 13.8112 7.26898 14.0055C7.26555 14.1998 7.33767 14.3878 7.47015 14.53L8.4389 15.5L5.3489 18.5913C4.64589 19.2945 4.25095 20.2481 4.25095 21.2425C4.25095 22.2369 4.64589 23.1905 5.3489 23.8938L6.1964 24.7425L2.47015 28.47C2.39647 28.5387 2.33736 28.6215 2.29637 28.7135C2.25538 28.8055 2.23334 28.9048 2.23156 29.0055C2.22979 29.1062 2.24831 29.2062 2.28603 29.2996C2.32375 29.393 2.3799 29.4778 2.45112 29.549C2.52233 29.6203 2.60717 29.6764 2.70056 29.7141C2.79394 29.7519 2.89397 29.7704 2.99468 29.7686C3.09538 29.7668 3.19469 29.7448 3.28669 29.7038C3.37869 29.6628 3.46149 29.6037 3.53015 29.53L7.25765 25.8038L8.1064 26.6513C8.80963 27.3543 9.76329 27.7492 10.7577 27.7492C11.752 27.7492 12.7057 27.3543 13.4089 26.6513L16.5002 23.5613L17.4702 24.53C17.6123 24.6625 17.8004 24.7346 17.9947 24.7312C18.189 24.7278 18.3744 24.649 18.5118 24.5116C18.6492 24.3742 18.7279 24.1888 18.7313 23.9945C18.7348 23.8002 18.6626 23.6122 18.5302 23.47L16.0614 21L18.5302 18.53C18.6706 18.3894 18.7495 18.1988 18.7495 18C18.7495 17.8013 18.6706 17.6106 18.5302 17.47ZM12.3489 25.595C12.14 25.804 11.8919 25.9698 11.6189 26.0829C11.3458 26.1961 11.0532 26.2543 10.7577 26.2543C10.4621 26.2543 10.1695 26.1961 9.89645 26.0829C9.62342 25.9698 9.37535 25.804 9.1664 25.595L6.4089 22.8338C6.19989 22.6248 6.03409 22.3768 5.92098 22.1037C5.80786 21.8307 5.74963 21.538 5.74963 21.2425C5.74963 20.947 5.80786 20.6543 5.92098 20.3813C6.03409 20.1083 6.19989 19.8602 6.4089 19.6513L9.50015 16.5613L15.4389 22.5L12.3489 25.595ZM29.5302 2.47001C29.3895 2.32956 29.1989 2.25067 29.0002 2.25067C28.8014 2.25067 28.6108 2.32956 28.4702 2.47001L24.7427 6.19626L23.8939 5.34876C23.1907 4.64575 22.237 4.25081 21.2427 4.25081C20.2483 4.25081 19.2946 4.64575 18.5914 5.34876L15.5002 8.43876L14.5302 7.47001C14.388 7.33753 14.1999 7.26541 14.0056 7.26884C13.8113 7.27226 13.6259 7.35098 13.4885 7.48839C13.3511 7.6258 13.2724 7.81119 13.269 8.00549C13.2655 8.19979 13.3377 8.38784 13.4702 8.53001L23.4702 18.53C23.6123 18.6625 23.8004 18.7346 23.9947 18.7312C24.189 18.7278 24.3744 18.649 24.5118 18.5116C24.6492 18.3742 24.7279 18.1888 24.7313 17.9945C24.7348 17.8002 24.6626 17.6122 24.5302 17.47L23.5614 16.5L26.6514 13.4088C27.3544 12.7055 27.7494 11.7519 27.7494 10.7575C27.7494 9.76315 27.3544 8.80949 26.6514 8.10626L25.8039 7.25751L29.5302 3.53001C29.6706 3.38939 29.7495 3.19876 29.7495 3.00001C29.7495 2.80126 29.6706 2.61064 29.5302 2.47001ZM25.5914 12.345L22.5002 15.4388L16.5614 9.50001L19.6514 6.40876C19.8603 6.19975 20.1084 6.03395 20.3814 5.92083C20.6545 5.80771 20.9471 5.74949 21.2427 5.74949C21.5382 5.74949 21.8308 5.80771 22.1039 5.92083C22.3769 6.03395 22.625 6.19975 22.8339 6.40876L25.5914 9.16626C25.8004 9.3752 25.9662 9.62327 26.0793 9.8963C26.1925 10.1693 26.2507 10.462 26.2507 10.7575C26.2507 11.053 26.1925 11.3457 26.0793 11.6187C25.9662 11.8917 25.8004 12.1398 25.5914 12.3488V12.345Z" fill="#112D1F"/>
</svg>
