<svg width="32" height="32" viewBox="0 0 32 32" fill="none" xmlns="http://www.w3.org/2000/svg">
<path d="M29.5302 2.47001C29.3895 2.32956 29.1989 2.25067 29.0002 2.25067C28.8014 2.25067 28.6108 2.32956 28.4702 2.47001L21.7427 9.19626L20.8939 8.34876C20.1907 7.64575 19.237 7.25081 18.2427 7.25081C17.2483 7.25081 16.2946 7.64575 15.5914 8.34876L12.5002 11.4388L11.5302 10.47C11.388 10.3375 11.1999 10.2654 11.0056 10.2688C10.8113 10.2723 10.6259 10.351 10.4885 10.4884C10.3511 10.6258 10.2724 10.8112 10.269 11.0055C10.2655 11.1998 10.3377 11.3878 10.4702 11.53L11.4389 12.5L8.3489 15.5913C7.64589 16.2945 7.25095 17.2481 7.25095 18.2425C7.25095 19.2369 7.64589 20.1905 8.3489 20.8938L9.1964 21.7425L2.47015 28.47C2.39647 28.5387 2.33736 28.6215 2.29637 28.7135C2.25538 28.8055 2.23334 28.9048 2.23156 29.0055C2.22979 29.1062 2.24831 29.2062 2.28603 29.2996C2.32375 29.393 2.3799 29.4778 2.45112 29.549C2.52233 29.6203 2.60717 29.6764 2.70056 29.7141C2.79394 29.7519 2.89397 29.7704 2.99468 29.7686C3.09538 29.7668 3.19469 29.7448 3.28669 29.7038C3.37869 29.6628 3.46149 29.6037 3.53015 29.53L10.2577 22.8038L11.1064 23.6513C11.8096 24.3543 12.7633 24.7492 13.7577 24.7492C14.752 24.7492 15.7057 24.3543 16.4089 23.6513L19.5002 20.5613L20.4702 21.53C20.6123 21.6625 20.8004 21.7346 20.9947 21.7312C21.189 21.7278 21.3744 21.649 21.5118 21.5116C21.6492 21.3742 21.7279 21.1888 21.7313 20.9945C21.7348 20.8002 21.6626 20.6122 21.5302 20.47L20.5614 19.5L23.6514 16.4088C24.3544 15.7055 24.7494 14.7519 24.7494 13.7575C24.7494 12.7631 24.3544 11.8095 23.6514 11.1063L22.8039 10.2575L29.5302 3.53001C29.6706 3.38939 29.7495 3.19876 29.7495 3.00001C29.7495 2.80126 29.6706 2.61064 29.5302 2.47001ZM15.3489 22.595C15.14 22.804 14.8919 22.9698 14.6189 23.0829C14.3458 23.1961 14.0532 23.2543 13.7577 23.2543C13.4621 23.2543 13.1695 23.1961 12.8964 23.0829C12.6234 22.9698 12.3753 22.804 12.1664 22.595L9.4089 19.8338C9.19989 19.6248 9.03409 19.3768 8.92098 19.1037C8.80786 18.8307 8.74963 18.538 8.74963 18.2425C8.74963 17.947 8.80786 17.6543 8.92098 17.3813C9.03409 17.1083 9.19989 16.8602 9.4089 16.6513L12.5002 13.5613L18.4389 19.5L15.3489 22.595ZM22.5914 15.3525L19.5002 18.4388L13.5614 12.5L16.6514 9.40876C16.8603 9.19975 17.1084 9.03395 17.3814 8.92083C17.6545 8.80771 17.9471 8.74949 18.2427 8.74949C18.5382 8.74949 18.8308 8.80771 19.1039 8.92083C19.3769 9.03395 19.625 9.19975 19.8339 9.40876L22.5914 12.1663C22.8004 12.3752 22.9662 12.6233 23.0793 12.8963C23.1925 13.1693 23.2507 13.462 23.2507 13.7575C23.2507 14.053 23.1925 14.3457 23.0793 14.6187C22.9662 14.8917 22.8004 15.1398 22.5914 15.3488V15.3525ZM11.2889 4.23751C11.2555 4.14355 11.2411 4.04387 11.2466 3.94429C11.2522 3.84471 11.2776 3.74725 11.3212 3.65759C11.3649 3.56793 11.426 3.48788 11.501 3.42212C11.576 3.35637 11.6633 3.30623 11.7579 3.27465C11.8525 3.24306 11.9525 3.23065 12.0519 3.23816C12.1514 3.24567 12.2483 3.27293 12.3371 3.31836C12.4259 3.36379 12.5047 3.42647 12.569 3.50273C12.6333 3.579 12.6817 3.66731 12.7114 3.76251L13.7114 6.76251C13.7448 6.85647 13.7592 6.95615 13.7537 7.05573C13.7481 7.15531 13.7228 7.25278 13.6791 7.34244C13.6354 7.4321 13.5743 7.51215 13.4993 7.5779C13.4243 7.64365 13.337 7.69379 13.2424 7.72538C13.1478 7.75697 13.0478 7.76937 12.9484 7.76186C12.8489 7.75436 12.752 7.72709 12.6632 7.68166C12.5744 7.63623 12.4956 7.57355 12.4313 7.49729C12.367 7.42103 12.3186 7.33271 12.2889 7.23751L11.2889 4.23751ZM3.2889 11.7625C3.35193 11.5739 3.48727 11.418 3.66519 11.3292C3.8431 11.2404 4.04902 11.2258 4.23765 11.2888L7.23765 12.2888C7.33285 12.3185 7.42117 12.3669 7.49743 12.4312C7.5737 12.4954 7.63638 12.5743 7.6818 12.663C7.72723 12.7518 7.7545 12.8488 7.762 12.9482C7.76951 13.0477 7.75711 13.1476 7.72552 13.2422C7.69393 13.3368 7.64379 13.4242 7.57804 13.4992C7.51229 13.5741 7.43224 13.6353 7.34258 13.6789C7.25292 13.7226 7.15545 13.748 7.05587 13.7535C6.9563 13.7591 6.85661 13.7447 6.76265 13.7113L3.76265 12.7113C3.57404 12.6482 3.41818 12.5129 3.32934 12.335C3.2405 12.1571 3.22595 11.9511 3.2889 11.7625ZM28.7114 20.2375C28.6484 20.4261 28.513 20.582 28.3351 20.6708C28.1572 20.7597 27.9513 20.7742 27.7627 20.7113L24.7627 19.7113C24.5777 19.6454 24.4259 19.5097 24.3399 19.3331C24.2539 19.1566 24.2406 18.9534 24.3027 18.7671C24.3649 18.5809 24.4977 18.4264 24.6725 18.337C24.8473 18.2476 25.0502 18.2302 25.2377 18.2888L28.2377 19.2888C28.4263 19.3518 28.5821 19.4871 28.671 19.665C28.7598 19.843 28.7744 20.0489 28.7114 20.2375ZM20.7114 27.7625C20.7448 27.8565 20.7592 27.9562 20.7537 28.0557C20.7481 28.1553 20.7228 28.2528 20.6791 28.3424C20.6354 28.4321 20.5743 28.5121 20.4993 28.5779C20.4243 28.6437 20.337 28.6938 20.2424 28.7254C20.1478 28.757 20.0478 28.7694 19.9484 28.7619C19.8489 28.7544 19.752 28.7271 19.6632 28.6817C19.5744 28.6362 19.4956 28.5736 19.4313 28.4973C19.367 28.421 19.3186 28.3327 19.2889 28.2375L18.2889 25.2375C18.2555 25.1436 18.2411 25.0439 18.2466 24.9443C18.2522 24.8447 18.2776 24.7472 18.3212 24.6576C18.3649 24.5679 18.426 24.4879 18.501 24.4221C18.576 24.3564 18.6633 24.3062 18.7579 24.2746C18.8525 24.2431 18.9525 24.2307 19.0519 24.2382C19.1514 24.2457 19.2483 24.2729 19.3371 24.3184C19.4259 24.3638 19.5047 24.4265 19.569 24.5027C19.6333 24.579 19.6817 24.6673 19.7114 24.7625L20.7114 27.7625Z" fill="#112D1F"/>
</svg>
