<svg width="32" height="32" viewBox="0 0 32 32" fill="none" xmlns="http://www.w3.org/2000/svg">
<path d="M28.6537 6.34748C28.3054 5.999 27.8919 5.72256 27.4368 5.53396C26.9817 5.34535 26.4938 5.24828 26.0012 5.24828C25.5085 5.24828 25.0207 5.34535 24.5655 5.53396C24.1104 5.72256 23.6969 5.999 23.3487 6.34748C23.0672 6.62874 22.8325 6.95327 22.6537 7.30873L18.7399 6.24123C18.7891 5.48066 18.6054 4.72316 18.2132 4.06964C17.821 3.41612 17.239 2.89761 16.5448 2.58319C15.8505 2.26877 15.0769 2.17336 14.327 2.30968C13.5771 2.446 12.8866 2.80757 12.3474 3.34623C11.7614 3.93462 11.3866 4.70041 11.2815 5.52414C11.1764 6.34788 11.3468 7.18325 11.7662 7.89998L7.22867 11.9837C6.50559 11.4511 5.61569 11.1949 4.72007 11.2616C3.82446 11.3283 2.98233 11.7135 2.34617 12.3475C1.6417 13.037 1.23706 13.9762 1.21981 14.9618C1.20256 15.9474 1.57409 16.9001 2.25399 17.6139C2.93389 18.3276 3.8675 18.745 4.85277 18.7756C5.83805 18.8062 6.79576 18.4476 7.51867 17.7775L16.5937 24.4337C16.3074 25.0562 16.1972 25.7453 16.275 26.426C16.3528 27.1068 16.6156 27.7532 17.0348 28.2951C17.4541 28.837 18.0139 29.2537 18.6533 29.4999C19.2927 29.7461 19.9873 29.8124 20.6618 29.6916C21.3362 29.5709 21.9647 29.2676 22.4789 28.8148C22.9932 28.362 23.3735 27.777 23.5787 27.1232C23.7838 26.4695 23.806 25.7721 23.6427 25.1066C23.4794 24.4412 23.1369 23.8332 22.6524 23.3487C22.4361 23.1322 22.1939 22.9432 21.9312 22.7862L25.4862 12.7125C25.6564 12.7362 25.828 12.7487 25.9999 12.75C26.7413 12.7498 27.4661 12.5299 28.0825 12.118C28.699 11.7061 29.1795 11.1207 29.4634 10.4357C29.7472 9.75083 29.8217 8.99714 29.6774 8.26991C29.533 7.54268 29.1763 6.87456 28.6524 6.34998L28.6537 6.34748ZM13.4037 4.40748C13.7184 4.09288 14.1193 3.87866 14.5557 3.79191C14.9922 3.70515 15.4445 3.74975 15.8556 3.92007C16.2667 4.09039 16.6181 4.37878 16.8653 4.74877C17.1125 5.11876 17.2444 5.55375 17.2444 5.99873C17.2444 6.4437 17.1125 6.87869 16.8653 7.24868C16.6181 7.61868 16.2667 7.90707 15.8556 8.07739C15.4445 8.2477 14.9922 8.2923 14.5557 8.20555C14.1193 8.11879 13.7184 7.90457 13.4037 7.58998C13.195 7.38071 13.0296 7.13238 12.9169 6.85917C12.8042 6.58596 12.7464 6.29323 12.7469 5.99769C12.7474 5.70215 12.806 5.40961 12.9196 5.13675C13.0331 4.8639 13.1993 4.61609 13.4087 4.40748H13.4037ZM3.40367 16.5912C3.08907 16.2765 2.87486 15.8756 2.7881 15.4392C2.70134 15.0027 2.74594 14.5504 2.91626 14.1393C3.08658 13.7282 3.37497 13.3768 3.74496 13.1296C4.11496 12.8824 4.54994 12.7505 4.99492 12.7505C5.4399 12.7505 5.87488 12.8824 6.24487 13.1296C6.61487 13.3768 6.90326 13.7282 7.07358 14.1393C7.2439 14.5504 7.2885 15.0027 7.20174 15.4392C7.11498 15.8756 6.90076 16.2765 6.58617 16.5912C6.16434 17.0122 5.59274 17.2486 4.99679 17.2486C4.40085 17.2486 3.82924 17.0122 3.40742 16.5912H3.40367ZM21.5874 27.5912C21.2727 27.9058 20.8718 28.12 20.4354 28.2068C19.9989 28.2936 19.5466 28.249 19.1355 28.0786C18.7244 27.9083 18.373 27.6199 18.1258 27.2499C17.8786 26.8799 17.7467 26.445 17.7467 26C17.7467 25.555 17.8786 25.12 18.1258 24.75C18.373 24.38 18.7244 24.0916 19.1355 23.9213C19.5466 23.751 19.9989 23.7064 20.4354 23.7932C20.8718 23.8799 21.2727 24.0941 21.5874 24.4087C21.7969 24.6174 21.9631 24.8654 22.0767 25.1384C22.1902 25.4114 22.2488 25.7041 22.2492 25.9998C22.2495 26.2955 22.1916 26.5884 22.0787 26.8616C21.9658 27.1349 21.8001 27.3833 21.5912 27.5925L21.5874 27.5912ZM20.5112 22.2875C19.9679 22.212 19.4146 22.2566 18.8905 22.4181C18.3663 22.5797 17.8839 22.8542 17.4774 23.2225L8.40492 16.5675C8.65655 16.0179 8.77223 15.4158 8.74221 14.812C8.71219 14.2083 8.53733 13.6207 8.23242 13.0987L12.7699 9.01498C13.2089 9.33957 13.7135 9.56438 14.2484 9.67371C14.7834 9.78304 15.3357 9.77424 15.8669 9.64794C16.398 9.52163 16.8952 9.28087 17.3237 8.94247C17.7521 8.60406 18.1015 8.17618 18.3474 7.68873L22.2612 8.75623C22.2262 9.28836 22.3051 9.82183 22.4926 10.321C22.6801 10.8203 22.972 11.2737 23.3487 11.6512C23.5659 11.8675 23.8085 12.0568 24.0712 12.215L20.5112 22.2875ZM27.5887 10.5887C27.274 10.9033 26.8731 11.1175 26.4366 11.2043C26.0002 11.2911 25.5478 11.2465 25.1367 11.0761C24.7256 10.9058 24.3743 10.6174 24.1271 10.2474C23.8799 9.87744 23.7479 9.44245 23.7479 8.99748C23.7479 8.5525 23.8799 8.11751 24.1271 7.74752C24.3743 7.37753 24.7256 7.08914 25.1367 6.91882C25.5478 6.7485 26.0002 6.7039 26.4366 6.79066C26.8731 6.87741 27.274 7.09163 27.5887 7.40623C27.7981 7.61494 27.9644 7.8629 28.0779 8.13591C28.1915 8.40892 28.2501 8.70164 28.2504 8.99732C28.2508 9.29301 28.1929 9.58586 28.0799 9.85914C27.967 10.1324 27.8014 10.3808 27.5924 10.59L27.5887 10.5887Z" fill="#112D1F"/>
</svg>
