<svg width="45" height="45" viewBox="0 0 45 45" fill="none" xmlns="http://www.w3.org/2000/svg">
<path d="M23.125 20.375H29.125" stroke="#112D1F" stroke-width="2"/>
<path d="M10.125 16.375H34.125" stroke="#112D1F" stroke-width="2"/>
<path d="M29.125 23.375V13.375C29.125 11.718 27.782 10.375 26.125 10.375C24.468 10.375 23.125 11.718 23.125 13.375M23.125 23.375V13.375C23.125 11.718 21.782 10.375 20.125 10.375C18.468 10.375 17.125 11.718 17.125 13.375" stroke="#112D1F" stroke-width="2"/>
<mask id="mask0_9_21884" style="mask-type:alpha" maskUnits="userSpaceOnUse" x="2" y="18" width="41" height="21">
<path d="M42.018 18.2505V38.3975H2V18.2505H42.018Z" fill="black"/>
</mask>
<g mask="url(#mask0_9_21884)">
<path d="M10.1362 34.852C9.41223 34.852 8.68823 34.602 8.13623 34.102C7.58423 33.602 6.86023 33.352 6.13623 33.352C5.41223 33.352 4.68823 33.602 4.13623 34.102C3.58423 34.602 2.86023 34.852 2.13623 34.852C1.41223 34.852 0.688229 34.602 0.136229 34.102C-0.415771 33.602 -1.13977 33.352 -1.86377 33.352C-2.58777 33.352 -3.31177 33.602 -3.86377 34.102C-4.41577 34.602 -5.13977 34.852 -5.86377 34.852C-6.58777 34.852 -7.31177 34.602 -7.86377 34.102C-8.41577 33.602 -9.13977 33.352 -9.86377 33.352C-10.5878 33.352 -11.3118 33.602 -11.8638 34.102C-12.4158 34.602 -13.1398 34.852 -13.8638 34.852M58.1242 34.866C57.4002 34.866 56.6762 34.616 56.1242 34.116C55.5722 33.616 54.8482 33.366 54.1242 33.366C53.4002 33.366 52.6762 33.616 52.1242 34.116C51.5722 34.616 50.8482 34.866 50.1242 34.866C49.4002 34.866 48.6762 34.616 48.1242 34.116C47.5722 33.616 46.8482 33.366 46.1242 33.366C45.4002 33.366 44.6762 33.616 44.1242 34.116C43.5722 34.616 42.8482 34.866 42.1242 34.866C41.4002 34.866 40.6762 34.616 40.1242 34.116C39.5722 33.616 38.8482 33.366 38.1242 33.366C37.4002 33.366 36.6762 33.616 36.1242 34.116C35.5722 34.616 34.8482 34.866 34.1242 34.866M34.1252 34.875C33.4012 34.875 32.6772 34.625 32.1252 34.125C31.5732 33.625 30.8492 33.375 30.1252 33.375C29.4012 33.375 28.6772 33.625 28.1252 34.125C27.5732 34.625 26.8492 34.875 26.1252 34.875C25.4012 34.875 24.6772 34.625 24.1252 34.125C23.5732 33.625 22.8492 33.375 22.1252 33.375C21.4012 33.375 20.6772 33.625 20.1252 34.125C19.5732 34.625 18.8492 34.875 18.1252 34.875C17.4012 34.875 16.6772 34.625 16.1252 34.125C15.5732 33.625 14.8492 33.375 14.1252 33.375C13.4012 33.375 12.6772 33.625 12.1252 34.125C11.5732 34.625 10.8492 34.875 10.1252 34.875" stroke="#112D1F" stroke-width="2"/>
<path d="M10.1362 29.852C9.41223 29.852 8.68823 29.602 8.13623 29.102C7.58423 28.602 6.86023 28.352 6.13623 28.352C5.41223 28.352 4.68823 28.602 4.13623 29.102C3.58423 29.602 2.86023 29.852 2.13623 29.852C1.41223 29.852 0.688229 29.602 0.136229 29.102C-0.415771 28.602 -1.13977 28.352 -1.86377 28.352C-2.58777 28.352 -3.31177 28.602 -3.86377 29.102C-4.41577 29.602 -5.13977 29.852 -5.86377 29.852C-6.58777 29.852 -7.31177 29.602 -7.86377 29.102C-8.41577 28.602 -9.13977 28.352 -9.86377 28.352C-10.5878 28.352 -11.3118 28.602 -11.8638 29.102C-12.4158 29.602 -13.1398 29.852 -13.8638 29.852M58.1242 29.866C57.4002 29.866 56.6762 29.616 56.1242 29.116C55.5722 28.616 54.8482 28.366 54.1242 28.366C53.4002 28.366 52.6762 28.616 52.1242 29.116C51.5722 29.616 50.8482 29.866 50.1242 29.866C49.4002 29.866 48.6762 29.616 48.1242 29.116C47.5722 28.616 46.8482 28.366 46.1242 28.366C45.4002 28.366 44.6762 28.616 44.1242 29.116C43.5722 29.616 42.8482 29.866 42.1242 29.866C41.4002 29.866 40.6762 29.616 40.1242 29.116C39.5722 28.616 38.8482 28.366 38.1242 28.366C37.4002 28.366 36.6762 28.616 36.1242 29.116C35.5722 29.616 34.8482 29.866 34.1242 29.866M34.1252 29.875C33.4012 29.875 32.6772 29.625 32.1252 29.125C31.5732 28.625 30.8492 28.375 30.1252 28.375C29.4012 28.375 28.6772 28.625 28.1252 29.125C27.5732 29.625 26.8492 29.875 26.1252 29.875C25.4012 29.875 24.6772 29.625 24.1252 29.125C23.5732 28.625 22.8492 28.375 22.1252 28.375C21.4012 28.375 20.6772 28.625 20.1252 29.125C19.5732 29.625 18.8492 29.875 18.1252 29.875C17.4012 29.875 16.6772 29.625 16.1252 29.125C15.5732 28.625 14.8492 28.375 14.1252 28.375C13.4012 28.375 12.6772 28.625 12.1252 29.125C11.5732 29.625 10.8492 29.875 10.1252 29.875" stroke="#112D1F" stroke-width="2"/>
<path d="M10.1362 24.852C9.41223 24.852 8.68823 24.602 8.13623 24.102C7.58423 23.602 6.86023 23.352 6.13623 23.352C5.41223 23.352 4.68823 23.602 4.13623 24.102C3.58423 24.602 2.86023 24.852 2.13623 24.852C1.41223 24.852 0.688229 24.602 0.136229 24.102C-0.415771 23.602 -1.13977 23.352 -1.86377 23.352C-2.58777 23.352 -3.31177 23.602 -3.86377 24.102C-4.41577 24.602 -5.13977 24.852 -5.86377 24.852C-6.58777 24.852 -7.31177 24.602 -7.86377 24.102C-8.41577 23.602 -9.13977 23.352 -9.86377 23.352C-10.5878 23.352 -11.3118 23.602 -11.8638 24.102C-12.4158 24.602 -13.1398 24.852 -13.8638 24.852M58.1242 24.866C57.4002 24.866 56.6762 24.616 56.1242 24.116C55.5722 23.616 54.8482 23.366 54.1242 23.366C53.4002 23.366 52.6762 23.616 52.1242 24.116C51.5722 24.616 50.8482 24.866 50.1242 24.866C49.4002 24.866 48.6762 24.616 48.1242 24.116C47.5722 23.616 46.8482 23.366 46.1242 23.366C45.4002 23.366 44.6762 23.616 44.1242 24.116C43.5722 24.616 42.8482 24.866 42.1242 24.866C41.4002 24.866 40.6762 24.616 40.1242 24.116C39.5722 23.616 38.8482 23.366 38.1242 23.366C37.4002 23.366 36.6762 23.616 36.1242 24.116C35.5722 24.616 34.8482 24.866 34.1242 24.866M34.1252 24.875C33.4012 24.875 32.6772 24.625 32.1252 24.125C31.5732 23.625 30.8492 23.375 30.1252 23.375C29.4012 23.375 28.6772 23.625 28.1252 24.125C27.5732 24.625 26.8492 24.875 26.1252 24.875C25.4012 24.875 24.6772 24.625 24.1252 24.125C23.5732 23.625 22.8492 23.375 22.1252 23.375C21.4012 23.375 20.6772 23.625 20.1252 24.125C19.5732 24.625 18.8492 24.875 18.1252 24.875C17.4012 24.875 16.6772 24.625 16.1252 24.125C15.5732 23.625 14.8492 23.375 14.1252 23.375C13.4012 23.375 12.6772 23.625 12.1252 24.125C11.5732 24.625 10.8492 24.875 10.1252 24.875" stroke="#112D1F" stroke-width="2"/>
</g>
</svg>
