<svg width="32" height="32" viewBox="0 0 32 32" fill="none" xmlns="http://www.w3.org/2000/svg">
<path d="M15.53 17.5299L18.1663 14.8937C19.1866 15.4365 20.3219 15.7275 21.4775 15.7424C22.5731 15.7451 23.6481 15.4449 24.5838 14.8749C27.4675 13.1249 29.0113 9.05869 28.7088 3.98869C28.6981 3.80521 28.6204 3.63205 28.4904 3.50208C28.3604 3.37212 28.1873 3.29441 28.0038 3.28369C22.9338 2.98619 18.8638 4.53369 17.1175 7.40869C15.965 9.31119 15.9675 11.6224 17.1 13.8274L15 15.9387L13.17 14.1099C13.96 12.4849 13.9388 10.7849 13.0863 9.37744C11.7763 7.21494 8.75004 6.05494 4.98129 6.27619C4.79781 6.28691 4.62465 6.36462 4.49469 6.49458C4.36472 6.62455 4.28701 6.79771 4.27629 6.98119C4.05504 10.7499 5.21504 13.7749 7.37504 15.0862C8.09007 15.5229 8.91222 15.7526 9.75004 15.7499C10.5722 15.7401 11.3813 15.5434 12.1163 15.1749L13.9388 16.9999L12.6888 18.2499H7.00004C6.80113 18.2499 6.61036 18.329 6.46971 18.4696C6.32906 18.6103 6.25004 18.801 6.25004 18.9999C6.25004 19.1989 6.32906 19.3896 6.46971 19.5303C6.61036 19.6709 6.80113 19.7499 7.00004 19.7499H8.39754L10.0938 27.3749C10.1773 27.7655 10.3928 28.1154 10.704 28.3658C11.0152 28.6163 11.4031 28.7519 11.8025 28.7499H20.1988C20.598 28.7516 20.9856 28.6158 21.2965 28.3655C21.6075 28.1151 21.8228 27.7653 21.9063 27.3749L23.6025 19.7499H25C25.199 19.7499 25.3897 19.6709 25.5304 19.5303C25.671 19.3896 25.75 19.1989 25.75 18.9999C25.75 18.801 25.671 18.6103 25.5304 18.4696C25.3897 18.329 25.199 18.2499 25 18.2499H14.81L15.53 17.5299ZM18.405 8.19244C19.78 5.91494 23.06 4.65119 27.245 4.75494C27.3488 8.93869 26.085 12.2149 23.8075 13.5949C22.27 14.5249 20.4213 14.4599 18.5838 13.4162C17.5388 11.5787 17.4738 9.72994 18.405 8.19244ZM11.6975 13.6924C10.4475 14.3874 9.19754 14.4262 8.15504 13.7974C6.59754 12.8587 5.71879 10.6249 5.75004 7.74994C8.62504 7.71369 10.86 8.59744 11.8025 10.1549C12.4313 11.1924 12.3925 12.4449 11.6975 13.6974V13.6924ZM22.065 19.7499L20.44 27.0537C20.4278 27.1093 20.397 27.159 20.3527 27.1947C20.3084 27.2304 20.2532 27.2498 20.1963 27.2499H11.8025C11.7446 27.2513 11.6879 27.2325 11.6423 27.1967C11.5967 27.1609 11.565 27.1103 11.5525 27.0537L9.93504 19.7499H22.065Z" fill="#112D1F"/>
</svg>
