<svg width="32" height="32" viewBox="0 0 32 32" fill="none" xmlns="http://www.w3.org/2000/svg">
<path d="M29.75 16C29.75 16.1989 29.671 16.3897 29.5303 16.5303C29.3897 16.671 29.1989 16.75 29 16.75H25.4638L20.6712 26.335C20.609 26.4597 20.5132 26.5646 20.3946 26.6379C20.2761 26.7112 20.1394 26.75 20 26.75H19.9625C19.8171 26.7429 19.6769 26.6936 19.559 26.6081C19.4412 26.5226 19.3507 26.4047 19.2987 26.2688L11.9388 6.94625L7.6825 16.31C7.62298 16.4411 7.52698 16.5523 7.40595 16.6304C7.28492 16.7084 7.144 16.7499 7 16.75H3C2.80109 16.75 2.61032 16.671 2.46967 16.5303C2.32902 16.3897 2.25 16.1989 2.25 16C2.25 15.8011 2.32902 15.6103 2.46967 15.4697C2.61032 15.329 2.80109 15.25 3 15.25H6.5175L11.3175 4.69C11.3786 4.5552 11.4783 4.44151 11.604 4.36324C11.7296 4.28498 11.8756 4.24564 12.0235 4.25019C12.1715 4.25473 12.3148 4.30295 12.4354 4.38878C12.556 4.47461 12.6485 4.5942 12.7013 4.7325L20.0925 24.1375L24.3288 15.665C24.391 15.5403 24.4868 15.4354 24.6054 15.3621C24.7239 15.2888 24.8606 15.25 25 15.25H29C29.1989 15.25 29.3897 15.329 29.5303 15.4697C29.671 15.6103 29.75 15.8011 29.75 16Z" fill="#112D1F"/>
</svg>
