<svg width="32" height="32" viewBox="0 0 32 32" fill="none" xmlns="http://www.w3.org/2000/svg">
<path d="M29.2389 10.3488L21.6527 2.76252C21.4901 2.59981 21.2971 2.47073 21.0847 2.38266C20.8722 2.2946 20.6445 2.24927 20.4145 2.24927C20.1846 2.24927 19.9568 2.2946 19.7444 2.38266C19.5319 2.47073 19.3389 2.59981 19.1764 2.76252L12.3664 9.59627C11.1764 9.19002 8.11641 8.55377 4.90266 11.1475C4.71099 11.3016 4.55395 11.4943 4.44176 11.7131C4.32957 11.9319 4.26476 12.172 4.25155 12.4175C4.23834 12.6631 4.27703 12.9086 4.3651 13.1382C4.45316 13.3678 4.58862 13.5763 4.76266 13.75L10.9764 19.9638L5.47016 25.4638C5.39647 25.5324 5.33737 25.6152 5.29638 25.7072C5.25538 25.7992 5.23334 25.8985 5.23157 25.9992C5.22979 26.0999 5.24831 26.2 5.28603 26.2934C5.32376 26.3868 5.3799 26.4716 5.45112 26.5428C5.52234 26.614 5.60717 26.6702 5.70056 26.7079C5.79395 26.7456 5.89398 26.7641 5.99468 26.7624C6.09538 26.7606 6.1947 26.7385 6.2867 26.6975C6.37869 26.6566 6.46149 26.5975 6.53016 26.5238L12.0364 21.0175L18.2502 27.2363C18.4126 27.399 18.6055 27.5281 18.8178 27.6163C19.0301 27.7044 19.2577 27.7499 19.4877 27.75C19.5285 27.75 19.5702 27.75 19.6127 27.75C19.8621 27.7323 20.1049 27.6613 20.3246 27.5419C20.5443 27.4224 20.7359 27.2573 20.8864 27.0575C23.3514 23.7813 23.0302 21.1538 22.4439 19.645L29.2402 12.8263C29.403 12.6636 29.5321 12.4705 29.6202 12.2579C29.7083 12.0453 29.7535 11.8174 29.7534 11.5873C29.7533 11.3571 29.7078 11.1293 29.6195 10.9168C29.5312 10.7043 29.4019 10.5112 29.2389 10.3488ZM28.1777 11.7625L21.0189 18.945C20.908 19.0565 20.835 19.1999 20.8101 19.3552C20.7852 19.5104 20.8097 19.6695 20.8802 19.81C22.1227 22.295 20.6664 24.85 19.6877 26.15C19.666 26.1783 19.6386 26.2016 19.6073 26.2184C19.5759 26.2352 19.5413 26.2451 19.5058 26.2474C19.4703 26.2498 19.4347 26.2446 19.4014 26.2321C19.3681 26.2196 19.3378 26.2001 19.3127 26.175L5.82266 12.6888C5.7974 12.6637 5.77776 12.6336 5.76507 12.6004C5.75237 12.5672 5.74691 12.5317 5.74904 12.4962C5.75117 12.4607 5.76084 12.4261 5.77742 12.3946C5.79399 12.3631 5.81709 12.3356 5.84516 12.3138C7.40766 11.0525 8.90766 10.7188 10.0577 10.7188C10.7984 10.7076 11.5331 10.8529 12.2139 11.145C12.3552 11.215 12.515 11.2386 12.6705 11.2126C12.826 11.1866 12.9693 11.1122 13.0802 11L20.2377 3.82377C20.2609 3.80053 20.2884 3.78209 20.3188 3.7695C20.3491 3.75692 20.3817 3.75045 20.4145 3.75045C20.4474 3.75045 20.4799 3.75692 20.5103 3.7695C20.5406 3.78209 20.5682 3.80053 20.5914 3.82377L28.1777 11.4088C28.2009 11.432 28.2193 11.4596 28.2319 11.4899C28.2445 11.5203 28.251 11.5528 28.251 11.5856C28.251 11.6185 28.2445 11.651 28.2319 11.6814C28.2193 11.7117 28.2009 11.7393 28.1777 11.7625Z" fill="#112D1F"/>
</svg>
