<svg width="32" height="32" viewBox="0 0 32 32" fill="none" xmlns="http://www.w3.org/2000/svg">
<path d="M6.55516 4.49999C6.41785 4.37255 6.23783 4.3011 6.0505 4.29971C5.86318 4.29832 5.68211 4.36708 5.54293 4.49247C5.40375 4.61786 5.31653 4.79079 5.29844 4.97725C5.28034 5.1637 5.33268 5.35018 5.44516 5.49999L8.90891 9.31374C7.72266 9.49999 6.32516 9.99999 4.90266 11.1475C4.71099 11.3015 4.55395 11.4943 4.44176 11.7131C4.32957 11.9319 4.26476 12.1719 4.25155 12.4175C4.23834 12.663 4.27703 12.9086 4.3651 13.1382C4.45316 13.3678 4.58862 13.5763 4.76266 13.75L10.9764 19.9637L5.47016 25.4637C5.39647 25.5324 5.33737 25.6152 5.29638 25.7072C5.25538 25.7992 5.23334 25.8985 5.23157 25.9992C5.22979 26.0999 5.24831 26.2 5.28603 26.2933C5.32376 26.3867 5.3799 26.4716 5.45112 26.5428C5.52234 26.614 5.60717 26.6701 5.70056 26.7079C5.79395 26.7456 5.89398 26.7641 5.99468 26.7623C6.09538 26.7606 6.1947 26.7385 6.2867 26.6975C6.37869 26.6565 6.46149 26.5974 6.53016 26.5237L12.0364 21.0175L18.2502 27.2362C18.4126 27.399 18.6055 27.5281 18.8178 27.6162C19.0301 27.7044 19.2577 27.7498 19.4877 27.75C19.5285 27.75 19.5702 27.75 19.6127 27.75C19.8621 27.7323 20.1049 27.6613 20.3246 27.5419C20.5443 27.4224 20.7359 27.2572 20.8864 27.0575C21.5473 26.1907 22.0717 25.2279 22.4414 24.2025L25.4414 27.5087C25.5072 27.5834 25.5872 27.6441 25.6768 27.6875C25.7663 27.7309 25.8636 27.7561 25.9629 27.7615C26.0623 27.7669 26.1617 27.7525 26.2555 27.7191C26.3492 27.6857 26.4354 27.634 26.5089 27.567C26.5825 27.5 26.642 27.4191 26.6839 27.3288C26.7259 27.2386 26.7494 27.141 26.7533 27.0415C26.7571 26.9421 26.7411 26.8429 26.7063 26.7497C26.6714 26.6565 26.6183 26.5712 26.5502 26.4987L6.55516 4.49999ZM19.6864 26.1512C19.6648 26.1795 19.6374 26.2028 19.606 26.2196C19.5746 26.2364 19.5401 26.2463 19.5046 26.2487C19.4691 26.251 19.4335 26.2458 19.4002 26.2333C19.3669 26.2208 19.3366 26.2014 19.3114 26.1762L5.82266 12.6887C5.7974 12.6637 5.77776 12.6336 5.76507 12.6004C5.75237 12.5672 5.74691 12.5316 5.74904 12.4961C5.75117 12.4607 5.76084 12.426 5.77742 12.3946C5.79399 12.3631 5.81709 12.3356 5.84516 12.3137C7.49266 10.9837 9.07516 10.7012 10.1939 10.7262L21.2502 22.8887C20.9789 24.2175 20.2639 25.3837 19.6864 26.1512ZM29.2389 12.8237L23.6577 18.4212C23.5883 18.4919 23.5057 18.5482 23.4146 18.5868C23.3234 18.6253 23.2255 18.6455 23.1265 18.6461C23.0275 18.6466 22.9294 18.6276 22.8378 18.5901C22.7462 18.5525 22.6629 18.4972 22.5928 18.4274C22.5227 18.3575 22.4671 18.2744 22.4292 18.1829C22.3914 18.0915 22.372 17.9934 22.3722 17.8944C22.3724 17.7954 22.3922 17.6975 22.4305 17.6062C22.4688 17.5149 22.5247 17.4321 22.5952 17.3625L28.1764 11.7637C28.1998 11.7405 28.2184 11.7128 28.2311 11.6824C28.2438 11.6519 28.2504 11.6192 28.2504 11.5862C28.2504 11.5532 28.2438 11.5206 28.2311 11.4901C28.2184 11.4596 28.1998 11.432 28.1764 11.4087L20.5914 3.82374C20.5682 3.8005 20.5406 3.78206 20.5103 3.76947C20.4799 3.75689 20.4474 3.75042 20.4145 3.75042C20.3817 3.75042 20.3491 3.75689 20.3188 3.76947C20.2884 3.78206 20.2609 3.8005 20.2377 3.82374L15.0852 8.99249C14.9444 9.13154 14.7543 9.20933 14.5565 9.20889C14.3586 9.20845 14.1689 9.12983 14.0287 8.99016C13.8886 8.85048 13.8093 8.66107 13.8081 8.4632C13.807 8.26532 13.8841 8.07502 14.0227 7.93374L19.1764 2.76374C19.3389 2.60103 19.5319 2.47195 19.7444 2.38389C19.9568 2.29582 20.1846 2.25049 20.4145 2.25049C20.6445 2.25049 20.8722 2.29582 21.0847 2.38389C21.2971 2.47195 21.4901 2.60103 21.6527 2.76374L29.2389 10.35C29.5668 10.6781 29.7509 11.123 29.7509 11.5869C29.7509 12.0507 29.5668 12.4956 29.2389 12.8237Z" fill="#112D1F"/>
</svg>
