<svg width="32" height="32" viewBox="0 0 32 32" fill="none" xmlns="http://www.w3.org/2000/svg">
<path d="M27.4014 20.03C27.2944 19.9623 27.1721 19.9228 27.0458 19.9152C26.9194 19.9075 26.7932 19.932 26.6789 19.9862C26.314 20.1586 25.9157 20.2486 25.5121 20.2497C25.1086 20.2509 24.7098 20.1632 24.3439 19.9929C23.978 19.8226 23.6542 19.5739 23.3952 19.2644C23.1362 18.9549 22.9486 18.5922 22.8455 18.2021C22.7424 17.8119 22.7265 17.4039 22.7988 17.0069C22.8711 16.6098 23.03 16.2336 23.264 15.9049C23.498 15.5761 23.8015 15.3029 24.153 15.1046C24.5045 14.9063 24.8953 14.7878 25.2977 14.7575C25.7726 14.7231 26.2483 14.8118 26.6789 15.015C26.7932 15.0692 26.9193 15.0936 27.0456 15.0859C27.1719 15.0782 27.2941 15.0388 27.401 14.9711C27.5079 14.9035 27.596 14.81 27.657 14.6992C27.7181 14.5884 27.7501 14.464 27.7502 14.3375V8.99999C27.7502 8.53586 27.5658 8.09074 27.2376 7.76256C26.9094 7.43437 26.4643 7.24999 26.0002 7.24999H21.1852C21.2283 7.00232 21.2501 6.7514 21.2502 6.49999C21.2493 5.91957 21.1298 5.34545 20.8992 4.81282C20.6686 4.28019 20.3316 3.80028 19.9089 3.40249C19.4866 3.00211 18.9859 2.69372 18.4383 2.49685C17.8907 2.29997 17.3082 2.21889 16.7277 2.25874C16.1303 2.29723 15.5478 2.46147 15.0184 2.7407C14.4889 3.01993 14.0244 3.40785 13.6553 3.87906C13.2862 4.35026 13.0207 4.89413 12.8764 5.47505C12.732 6.05596 12.712 6.66081 12.8177 7.24999H8.00015C7.53602 7.24999 7.0909 7.43437 6.76271 7.76256C6.43453 8.09074 6.25015 8.53586 6.25015 8.99999V13.3162C5.55319 13.1913 4.83607 13.2425 4.16394 13.4652C3.4918 13.6879 2.88594 14.0749 2.4014 14.5912C1.85197 15.1765 1.47953 15.9054 1.32721 16.6936C1.17489 17.4818 1.24891 18.297 1.5407 19.0449C1.83249 19.7927 2.33012 20.4426 2.97598 20.9194C3.62185 21.3961 4.38952 21.6802 5.19015 21.7387C5.5444 21.7643 5.90045 21.7459 6.25015 21.6837V26C6.25015 26.4641 6.43453 26.9092 6.76271 27.2374C7.0909 27.5656 7.53602 27.75 8.00015 27.75H26.0002C26.4643 27.75 26.9094 27.5656 27.2376 27.2374C27.5658 26.9092 27.7502 26.4641 27.7502 26V20.6637C27.7502 20.5373 27.7182 20.4128 27.6572 20.302C27.5963 20.1912 27.5083 20.0977 27.4014 20.03ZM26.2502 26C26.2502 26.0663 26.2238 26.1299 26.1769 26.1768C26.13 26.2237 26.0665 26.25 26.0002 26.25H8.00015C7.93385 26.25 7.87026 26.2237 7.82337 26.1768C7.77649 26.1299 7.75015 26.0663 7.75015 26V20.6637C7.75015 20.4648 7.67113 20.2741 7.53048 20.1334C7.38983 19.9928 7.19906 19.9137 7.00015 19.9137C6.88898 19.9135 6.77918 19.9383 6.6789 19.9862C6.27331 20.1786 5.8268 20.2687 5.37837 20.2487C4.92994 20.2287 4.4932 20.0993 4.10631 19.8717C3.71941 19.6441 3.39411 19.3253 3.1588 18.943C2.9235 18.5607 2.78534 18.1267 2.7564 17.6787C2.72522 17.2007 2.81947 16.7228 3.02981 16.2923C3.24016 15.8619 3.5593 15.4939 3.95563 15.2247C4.35195 14.9556 4.81172 14.7947 5.28938 14.7579C5.76704 14.7211 6.24603 14.8097 6.6789 15.015C6.7932 15.0692 6.91935 15.0936 7.0456 15.0859C7.17186 15.0782 7.29413 15.0388 7.40104 14.9711C7.50794 14.9035 7.59601 14.81 7.65705 14.6992C7.71809 14.5884 7.75011 14.464 7.75015 14.3375V8.99999C7.75015 8.93369 7.77649 8.8701 7.82337 8.82322C7.87026 8.77633 7.93385 8.74999 8.00015 8.74999H13.8364C13.9629 8.74996 14.0873 8.71793 14.1981 8.65689C14.3089 8.59585 14.4024 8.50778 14.4701 8.40088C14.5377 8.29397 14.5771 8.1717 14.5848 8.04545C14.5925 7.91919 14.5681 7.79304 14.5139 7.67874C14.3149 7.24916 14.2288 6.77588 14.2639 6.30374C14.2932 5.9009 14.4108 5.50944 14.6085 5.1572C14.8061 4.80497 15.079 4.50059 15.4076 4.26572C15.7362 4.03085 16.1125 3.87125 16.5097 3.79826C16.907 3.72526 17.3154 3.74068 17.7061 3.8434C18.0967 3.94612 18.4599 4.13363 18.7699 4.3926C19.0798 4.65157 19.3289 4.97564 19.4995 5.34177C19.67 5.70791 19.7578 6.10711 19.7567 6.51102C19.7555 6.91493 19.6653 7.31361 19.4927 7.67874C19.4387 7.79247 19.4143 7.91794 19.4216 8.04359C19.4289 8.16923 19.4677 8.29102 19.5345 8.39773C19.6012 8.50444 19.6937 8.59264 19.8035 8.6542C19.9133 8.71576 20.0368 8.7487 20.1627 8.74999H26.0002C26.0665 8.74999 26.13 8.77633 26.1769 8.82322C26.2238 8.8701 26.2502 8.93369 26.2502 8.99999V13.3175C25.661 13.2119 25.0561 13.2319 24.4752 13.3762C23.8943 13.5206 23.3504 13.786 22.8792 14.1551C22.408 14.5243 22.0201 14.9888 21.7409 15.5182C21.4616 16.0477 21.2974 16.6302 21.2589 17.2275C21.2194 17.8079 21.3006 18.3902 21.4972 18.9377C21.6938 19.4852 22.0017 19.9861 22.4014 20.4087C22.8868 20.9239 23.4927 21.3102 24.1646 21.533C24.8364 21.7558 25.5531 21.808 26.2502 21.685V26Z" fill="#112D1F"/>
</svg>
