<svg width="32" height="32" viewBox="0 0 32 32" fill="none" xmlns="http://www.w3.org/2000/svg">
<path d="M12.75 14C12.75 14.1989 12.671 14.3897 12.5303 14.5303C12.3897 14.671 12.1989 14.75 12 14.75H8C7.80109 14.75 7.61032 14.671 7.46967 14.5303C7.32902 14.3897 7.25 14.1989 7.25 14C7.25 13.8011 7.32902 13.6103 7.46967 13.4697C7.61032 13.329 7.80109 13.25 8 13.25H12C12.1989 13.25 12.3897 13.329 12.5303 13.4697C12.671 13.6103 12.75 13.8011 12.75 14ZM12 17.25H8C7.80109 17.25 7.61032 17.329 7.46967 17.4697C7.32902 17.6103 7.25 17.8011 7.25 18C7.25 18.1989 7.32902 18.3897 7.46967 18.5303C7.61032 18.671 7.80109 18.75 8 18.75H12C12.1989 18.75 12.3897 18.671 12.5303 18.5303C12.671 18.3897 12.75 18.1989 12.75 18C12.75 17.8011 12.671 17.6103 12.5303 17.4697C12.3897 17.329 12.1989 17.25 12 17.25ZM12 21.25H8C7.80109 21.25 7.61032 21.329 7.46967 21.4697C7.32902 21.6103 7.25 21.8011 7.25 22C7.25 22.1989 7.32902 22.3897 7.46967 22.5303C7.61032 22.671 7.80109 22.75 8 22.75H12C12.1989 22.75 12.3897 22.671 12.5303 22.5303C12.671 22.3897 12.75 22.1989 12.75 22C12.75 21.8011 12.671 21.6103 12.5303 21.4697C12.3897 21.329 12.1989 21.25 12 21.25ZM28.75 11V25C28.75 25.4641 28.5656 25.9093 28.2374 26.2374C27.9092 26.5656 27.4641 26.75 27 26.75H5C4.53587 26.75 4.09075 26.5656 3.76256 26.2374C3.43437 25.9093 3.25 25.4641 3.25 25V10C3.24995 9.83858 3.30199 9.68145 3.39837 9.55196C3.49476 9.42247 3.63035 9.32753 3.785 9.28126L23.785 3.28126C23.9756 3.22423 24.1811 3.24527 24.3562 3.33974C24.5313 3.43422 24.6617 3.59438 24.7188 3.78501C24.7758 3.97563 24.7547 4.1811 24.6603 4.35621C24.5658 4.53132 24.4056 4.66173 24.215 4.71876L9.11 9.25001H27C27.4641 9.25001 27.9092 9.43438 28.2374 9.76257C28.5656 10.0908 28.75 10.5359 28.75 11ZM27.25 11C27.25 10.9337 27.2237 10.8701 27.1768 10.8232C27.1299 10.7763 27.0663 10.75 27 10.75H4.75V25C4.75 25.0663 4.77634 25.1299 4.82322 25.1768C4.87011 25.2237 4.9337 25.25 5 25.25H27C27.0663 25.25 27.1299 25.2237 27.1768 25.1768C27.2237 25.1299 27.25 25.0663 27.25 25V11ZM24.75 18C24.75 18.9395 24.4714 19.8578 23.9495 20.639C23.4275 21.4201 22.6857 22.0289 21.8177 22.3884C20.9498 22.7479 19.9947 22.842 19.0733 22.6587C18.1519 22.4755 17.3055 22.0231 16.6412 21.3588C15.9769 20.6945 15.5245 19.8481 15.3413 18.9267C15.158 18.0053 15.2521 17.0502 15.6116 16.1823C15.9711 15.3143 16.5799 14.5725 17.361 14.0505C18.1422 13.5286 19.0605 13.25 20 13.25C21.2598 13.25 22.468 13.7505 23.3588 14.6412C24.2496 15.532 24.75 16.7402 24.75 18ZM23.25 18C23.25 17.3572 23.0594 16.7289 22.7023 16.1944C22.3452 15.6599 21.8376 15.2434 21.2437 14.9974C20.6499 14.7514 19.9964 14.6871 19.366 14.8125C18.7355 14.9379 18.1564 15.2474 17.7019 15.7019C17.2474 16.1564 16.9379 16.7355 16.8124 17.366C16.687 17.9964 16.7514 18.6499 16.9974 19.2437C17.2434 19.8376 17.6599 20.3452 18.1944 20.7023C18.7289 21.0594 19.3572 21.25 20 21.25C20.862 21.25 21.6886 20.9076 22.2981 20.2981C22.9076 19.6886 23.25 18.862 23.25 18Z" fill="#112D1F"/>
</svg>
