<svg width="32" height="32" viewBox="0 0 32 32" fill="none" xmlns="http://www.w3.org/2000/svg">
<path d="M29.7499 9.00001V12C29.7499 12.1989 29.6709 12.3897 29.5302 12.5303C29.3896 12.671 29.1988 12.75 28.9999 12.75C28.801 12.75 28.6102 12.671 28.4696 12.5303C28.3289 12.3897 28.2499 12.1989 28.2499 12V9.75001H15.5199L9.70239 25.2638C9.64888 25.4069 9.55293 25.5302 9.42739 25.6173C9.30184 25.7044 9.15269 25.7511 8.99989 25.7511C8.8471 25.7511 8.69794 25.7044 8.5724 25.6173C8.44685 25.5302 8.3509 25.4069 8.29739 25.2638L2.29739 9.26376C2.22744 9.07745 2.23437 8.87098 2.31665 8.68977C2.39893 8.50856 2.54983 8.36746 2.73614 8.29751C2.92246 8.22756 3.12893 8.23449 3.31014 8.31677C3.49134 8.39905 3.63244 8.54995 3.70239 8.73626L8.99989 22.8638L14.2974 8.73876C14.3507 8.59538 14.4465 8.47172 14.5721 8.38436C14.6977 8.297 14.8469 8.25012 14.9999 8.25001H28.9999C29.1988 8.25001 29.3896 8.32903 29.5302 8.46968C29.6709 8.61034 29.7499 8.8011 29.7499 9.00001Z" fill="#112D1F"/>
</svg>
