<svg width="32" height="32" viewBox="0 0 32 32" fill="none" xmlns="http://www.w3.org/2000/svg">
<path d="M11.5001 16.75H5.00015C4.75812 16.7494 4.51886 16.6985 4.29762 16.6003C4.07638 16.5022 3.87801 16.359 3.71515 16.18C3.54889 15.9983 3.42234 15.784 3.34356 15.5507C3.26479 15.3174 3.23553 15.0702 3.25765 14.825C3.42479 12.988 3.98927 11.2093 4.91197 9.61214C5.83467 8.01495 7.09355 6.63743 8.6014 5.57499C8.79979 5.43469 9.02522 5.33725 9.26334 5.28886C9.50146 5.24048 9.74704 5.24221 9.98445 5.29395C10.2219 5.34569 10.4459 5.4463 10.6423 5.58938C10.8387 5.73246 11.0031 5.91486 11.1251 6.12499L14.3751 11.75C14.4746 11.9224 14.5015 12.1272 14.4499 12.3194C14.3984 12.5117 14.2725 12.6755 14.1002 12.775C13.9278 12.8744 13.7229 12.9013 13.5307 12.8498C13.3385 12.7982 13.1746 12.6724 13.0751 12.5L9.82765 6.87499C9.81044 6.84483 9.78714 6.81859 9.75923 6.79794C9.73133 6.77729 9.69942 6.76267 9.66555 6.75503C9.63169 6.74738 9.5966 6.74688 9.56253 6.75354C9.52845 6.76021 9.49614 6.7739 9.46765 6.79374C8.13618 7.7314 7.02461 8.94746 6.21 10.3576C5.3954 11.7677 4.89727 13.3381 4.75015 14.96C4.74642 14.9979 4.75085 15.0361 4.76314 15.0721C4.77543 15.1081 4.7953 15.1411 4.8214 15.1687C4.84357 15.1944 4.87103 15.2149 4.90188 15.2289C4.93274 15.243 4.96626 15.2501 5.00015 15.25H11.5001C11.6991 15.25 11.8898 15.329 12.0305 15.4697C12.1711 15.6103 12.2501 15.8011 12.2501 16C12.2501 16.1989 12.1711 16.3897 12.0305 16.5303C11.8898 16.671 11.6991 16.75 11.5001 16.75ZM28.7426 14.825C28.5755 12.988 28.011 11.2093 27.0883 9.61214C26.1656 8.01495 24.9068 6.63743 23.3989 5.57499C23.2005 5.43469 22.9751 5.33725 22.737 5.28886C22.4988 5.24048 22.2533 5.24221 22.0158 5.29395C21.7784 5.34569 21.5544 5.4463 21.358 5.58938C21.1616 5.73246 20.9972 5.91486 20.8751 6.12499L17.6251 11.75C17.5257 11.9224 17.4988 12.1272 17.5504 12.3194C17.6019 12.5117 17.7278 12.6755 17.9001 12.775C18.0725 12.8744 18.2774 12.9013 18.4696 12.8498C18.6618 12.7982 18.8257 12.6724 18.9251 12.5L22.1726 6.87499C22.1899 6.84483 22.2132 6.81859 22.2411 6.79794C22.269 6.77729 22.3009 6.76267 22.3347 6.75503C22.3686 6.74738 22.4037 6.74688 22.4378 6.75354C22.4718 6.76021 22.5042 6.7739 22.5326 6.79374C23.8641 7.7314 24.9757 8.94746 25.7903 10.3576C26.6049 11.7677 27.103 13.3381 27.2501 14.96C27.2539 14.9979 27.2494 15.0361 27.2372 15.0721C27.2249 15.1081 27.205 15.1411 27.1789 15.1687C27.1567 15.1944 27.1293 15.2149 27.0984 15.2289C27.0676 15.243 27.034 15.2501 27.0001 15.25H20.5001C20.3012 15.25 20.1105 15.329 19.9698 15.4697C19.8292 15.6103 19.7501 15.8011 19.7501 16C19.7501 16.1989 19.8292 16.3897 19.9698 16.5303C20.1105 16.671 20.3012 16.75 20.5001 16.75H27.0001C27.2422 16.7494 27.4814 16.6985 27.7027 16.6003C27.9239 16.5022 28.1223 16.359 28.2851 16.18C28.4514 15.9983 28.578 15.784 28.6567 15.5507C28.7355 15.3174 28.7648 15.0702 28.7426 14.825ZM18.9001 19.5225C18.8519 19.4353 18.7868 19.3586 18.7085 19.2969C18.6303 19.2352 18.5406 19.1896 18.4446 19.163C18.3486 19.1363 18.2482 19.1291 18.1494 19.1416C18.0505 19.1542 17.9552 19.1863 17.8689 19.2362C17.7826 19.286 17.7071 19.3525 17.6468 19.4318C17.5865 19.5112 17.5426 19.6017 17.5177 19.6982C17.4928 19.7947 17.4874 19.8952 17.5018 19.9938C17.5161 20.0924 17.55 20.1871 17.6014 20.2725L20.8289 25.8637C20.8464 25.8937 20.8575 25.9271 20.8614 25.9616C20.8653 25.9961 20.862 26.0311 20.8516 26.0642C20.8413 26.0974 20.8241 26.1281 20.8013 26.1542C20.7784 26.1804 20.7504 26.2015 20.7189 26.2162C19.239 26.8974 17.6292 27.25 16.0001 27.25C14.3711 27.25 12.7613 26.8974 11.2814 26.2162C11.2499 26.2015 11.2219 26.1804 11.199 26.1542C11.1762 26.1281 11.159 26.0974 11.1487 26.0642C11.1383 26.0311 11.135 25.9961 11.1389 25.9616C11.1428 25.9271 11.1539 25.8937 11.1714 25.8637L14.3989 20.2725C14.4503 20.1871 14.4842 20.0924 14.4985 19.9938C14.5129 19.8952 14.5075 19.7947 14.4826 19.6982C14.4577 19.6017 14.4138 19.5112 14.3535 19.4318C14.2932 19.3525 14.2177 19.286 14.1314 19.2362C14.0451 19.1863 13.9498 19.1542 13.8509 19.1416C13.7521 19.1291 13.6517 19.1363 13.5557 19.163C13.4597 19.1896 13.37 19.2352 13.2918 19.2969C13.2135 19.3586 13.1484 19.4353 13.1002 19.5225L9.87515 25.1137C9.75345 25.3242 9.67692 25.5577 9.65045 25.7993C9.62399 26.041 9.64815 26.2855 9.72142 26.5173C9.79469 26.7491 9.91544 26.9631 10.076 27.1456C10.2365 27.3281 10.4334 27.4752 10.6539 27.5775C12.3312 28.35 14.156 28.75 16.0027 28.75C17.8493 28.75 19.6741 28.35 21.3514 27.5775C21.5715 27.4748 21.7678 27.3273 21.9279 27.1446C22.0879 26.9618 22.2081 26.7478 22.2809 26.516C22.3537 26.2843 22.3774 26.0399 22.3506 25.7985C22.3238 25.5571 22.247 25.3239 22.1251 25.1137L18.9001 19.5225ZM16.0001 17.25C16.2474 17.25 16.4891 17.1767 16.6946 17.0393C16.9002 16.902 17.0604 16.7067 17.155 16.4783C17.2496 16.2499 17.2744 15.9986 17.2261 15.7561C17.1779 15.5136 17.0588 15.2909 16.884 15.1161C16.7092 14.9413 16.4865 14.8222 16.244 14.774C16.0015 14.7258 15.7502 14.7505 15.5218 14.8451C15.2934 14.9397 15.0982 15.1 14.9608 15.3055C14.8235 15.5111 14.7501 15.7528 14.7501 16C14.7501 16.3315 14.8818 16.6495 15.1163 16.8839C15.3507 17.1183 15.6686 17.25 16.0001 17.25Z" fill="#112D1F"/>
</svg>
