<svg width="32" height="32" viewBox="0 0 32 32" fill="none" xmlns="http://www.w3.org/2000/svg">
<path d="M11.75 26C11.75 26.1989 11.671 26.3897 11.5304 26.5303C11.3897 26.671 11.1989 26.75 11 26.75H5.00003C4.51786 26.7489 4.04447 26.6209 3.62733 26.3791C3.21019 26.1373 2.86397 25.79 2.62338 25.3722C2.38279 24.9543 2.2563 24.4805 2.25659 23.9984C2.25688 23.5162 2.38394 23.0426 2.62503 22.625L7.21378 14.695L4.86878 15.32C4.67649 15.3714 4.47167 15.3443 4.29938 15.2447C4.12708 15.145 4.00141 14.981 3.95003 14.7888C3.89864 14.5965 3.92574 14.3917 4.02537 14.2194C4.125 14.0471 4.28899 13.9214 4.48128 13.87L8.57753 12.7738C8.67307 12.7477 8.77282 12.7408 8.87103 12.7536C8.96924 12.7663 9.06396 12.7983 9.14972 12.8478C9.23549 12.8973 9.3106 12.9633 9.37072 13.042C9.43085 13.1207 9.47479 13.2105 9.50003 13.3063L10.6 17.4013C10.6256 17.4964 10.6321 17.5956 10.6193 17.6933C10.6065 17.7909 10.5745 17.8851 10.5253 17.9704C10.4761 18.0557 10.4106 18.1305 10.3324 18.1905C10.2543 18.2505 10.1652 18.2945 10.07 18.32C10.0064 18.3372 9.94089 18.346 9.87503 18.3463C9.71 18.3461 9.54963 18.2915 9.41878 18.1909C9.28794 18.0903 9.19391 17.9494 9.15128 17.79L8.52628 15.44L3.92253 23.375C3.81303 23.5647 3.75527 23.7798 3.75505 23.9988C3.75483 24.2177 3.81215 24.433 3.92126 24.6228C4.03038 24.8127 4.18746 24.9706 4.37679 25.0807C4.56611 25.1907 4.78103 25.2491 5.00003 25.25H11C11.1989 25.25 11.3897 25.329 11.5304 25.4697C11.671 25.6103 11.75 25.8011 11.75 26ZM29.375 22.625L26.4825 17.625C26.3787 17.4618 26.2159 17.3449 26.028 17.2989C25.8401 17.2529 25.6417 17.2812 25.4743 17.378C25.3068 17.4748 25.1832 17.6326 25.1293 17.8184C25.0754 18.0042 25.0954 18.2036 25.185 18.375L28.0775 23.375C28.187 23.5647 28.2448 23.7798 28.245 23.9988C28.2452 24.2177 28.1879 24.433 28.0788 24.6228C27.9697 24.8127 27.8126 24.9706 27.6233 25.0807C27.4339 25.1907 27.219 25.2491 27 25.25H17.81L19.53 23.53C19.6625 23.3878 19.7346 23.1998 19.7312 23.0055C19.7278 22.8112 19.6491 22.6258 19.5116 22.4884C19.3742 22.351 19.1889 22.2723 18.9945 22.2688C18.8002 22.2654 18.6122 22.3375 18.47 22.47L15.47 25.47C15.3296 25.6106 15.2507 25.8013 15.2507 26C15.2507 26.1988 15.3296 26.3894 15.47 26.53L18.47 29.53C18.6122 29.6625 18.8002 29.7346 18.9945 29.7312C19.1889 29.7278 19.3742 29.649 19.5116 29.5116C19.6491 29.3742 19.7278 29.1888 19.7312 28.9945C19.7346 28.8002 19.6625 28.6122 19.53 28.47L17.81 26.75H27C27.4822 26.7489 27.9556 26.6209 28.3727 26.3791C28.7899 26.1373 29.1361 25.79 29.3767 25.3722C29.6173 24.9543 29.7438 24.4805 29.7435 23.9984C29.7432 23.5162 29.6161 23.0426 29.375 22.625ZM17.0813 4.37501L21.6713 12.305L19.3263 11.68C19.1399 11.6435 18.9467 11.6791 18.7855 11.7795C18.6243 11.88 18.5073 12.0378 18.4579 12.2212C18.4086 12.4046 18.4307 12.5998 18.5197 12.7676C18.6087 12.9353 18.758 13.0631 18.9375 13.125L23.035 14.2238C23.2271 14.2749 23.4317 14.2477 23.6037 14.148C23.7758 14.0484 23.9012 13.8846 23.9525 13.6925L25.0513 9.59501C25.0814 9.49857 25.0917 9.39705 25.0816 9.29653C25.0715 9.19601 25.0411 9.09858 24.9924 9.01007C24.9437 8.92155 24.8777 8.84379 24.7982 8.78145C24.7187 8.7191 24.6274 8.67346 24.5299 8.64725C24.4323 8.62105 24.3304 8.61483 24.2304 8.62896C24.1304 8.64309 24.0342 8.67729 23.9477 8.7295C23.8613 8.7817 23.7862 8.85084 23.7271 8.93277C23.668 9.01469 23.626 9.10772 23.6038 9.20625L22.9725 11.5588L18.375 3.62501C18.1328 3.21002 17.7861 2.86575 17.3694 2.62649C16.9527 2.38722 16.4805 2.26132 16 2.26132C15.5195 2.26132 15.0474 2.38722 14.6307 2.62649C14.214 2.86575 13.8673 3.21002 13.625 3.62501L10.725 8.625C10.6299 8.79697 10.606 8.99942 10.6586 9.1888C10.7112 9.37818 10.836 9.53935 11.0062 9.63764C11.1764 9.73593 11.3784 9.76348 11.5687 9.71436C11.759 9.66524 11.9224 9.54339 12.0238 9.375L14.9188 4.37501C15.0287 4.18558 15.1864 4.02835 15.3761 3.91905C15.5659 3.80975 15.781 3.75222 16 3.75222C16.219 3.75222 16.4342 3.80975 16.6239 3.91905C16.8137 4.02835 16.9714 4.18558 17.0813 4.37501Z" fill="#112D1F"/>
</svg>
