<svg width="32" height="32" viewBox="0 0 32 32" fill="none" xmlns="http://www.w3.org/2000/svg">
<path d="M3.25 16C3.25265 13.6802 4.17537 11.4561 5.81574 9.81574C7.45611 8.17537 9.68017 7.25265 12 7.25H26.1887L24.47 5.53C24.3375 5.38783 24.2654 5.19978 24.2688 5.00548C24.2723 4.81118 24.351 4.62579 24.4884 4.48838C24.6258 4.35097 24.8112 4.27225 25.0055 4.26883C25.1998 4.2654 25.3878 4.33752 25.53 4.47L28.53 7.47C28.6705 7.61063 28.7493 7.80125 28.7493 8C28.7493 8.19875 28.6705 8.38937 28.53 8.53L25.53 11.53C25.3878 11.6625 25.1998 11.7346 25.0055 11.7312C24.8112 11.7277 24.6258 11.649 24.4884 11.5116C24.351 11.3742 24.2723 11.1888 24.2688 10.9945C24.2654 10.8002 24.3375 10.6122 24.47 10.47L26.1887 8.75H12C10.0779 8.75232 8.23517 9.5169 6.87603 10.876C5.5169 12.2352 4.75232 14.0779 4.75 16C4.75 16.1989 4.67098 16.3897 4.53033 16.5303C4.38968 16.671 4.19891 16.75 4 16.75C3.80109 16.75 3.61032 16.671 3.46967 16.5303C3.32902 16.3897 3.25 16.1989 3.25 16ZM28 15.25C27.8011 15.25 27.6103 15.329 27.4697 15.4697C27.329 15.6103 27.25 15.8011 27.25 16C27.2477 17.9221 26.4831 19.7648 25.124 21.124C23.7648 22.4831 21.9221 23.2477 20 23.25H5.81125L7.53 21.53C7.66248 21.3878 7.7346 21.1998 7.73117 21.0055C7.72775 20.8112 7.64903 20.6258 7.51162 20.4884C7.37421 20.351 7.18882 20.2723 6.99452 20.2688C6.80022 20.2654 6.61217 20.3375 6.47 20.47L3.47 23.47C3.32955 23.6106 3.25066 23.8012 3.25066 24C3.25066 24.1988 3.32955 24.3894 3.47 24.53L6.47 27.53C6.61217 27.6625 6.80022 27.7346 6.99452 27.7312C7.18882 27.7277 7.37421 27.649 7.51162 27.5116C7.64903 27.3742 7.72775 27.1888 7.73117 26.9945C7.7346 26.8002 7.66248 26.6122 7.53 26.47L5.81125 24.75H20C22.3198 24.7474 24.5439 23.8246 26.1843 22.1843C27.8246 20.5439 28.7474 18.3198 28.75 16C28.75 15.8011 28.671 15.6103 28.5303 15.4697C28.3897 15.329 28.1989 15.25 28 15.25ZM17 19.75C17.1989 19.75 17.3897 19.671 17.5303 19.5303C17.671 19.3897 17.75 19.1989 17.75 19V13C17.75 12.8722 17.7174 12.7465 17.6552 12.6348C17.593 12.5231 17.5033 12.4292 17.3946 12.362C17.2859 12.2947 17.1618 12.2564 17.0341 12.2506C16.9064 12.2447 16.7794 12.2717 16.665 12.3287L14.665 13.3287C14.5738 13.3708 14.492 13.4308 14.4244 13.5051C14.3568 13.5794 14.3049 13.6666 14.2716 13.7613C14.2383 13.8561 14.2244 13.9566 14.2307 14.0568C14.2371 14.1571 14.2634 14.255 14.3083 14.3449C14.3532 14.4347 14.4157 14.5147 14.492 14.5799C14.5684 14.6452 14.6571 14.6944 14.7529 14.7247C14.8486 14.7551 14.9495 14.7658 15.0495 14.7564C15.1495 14.747 15.2466 14.7176 15.335 14.67L16.25 14.2125V19C16.25 19.1989 16.329 19.3897 16.4697 19.5303C16.6103 19.671 16.8011 19.75 17 19.75Z" fill="#112D1F"/>
</svg>
