<svg width="32" height="32" viewBox="0 0 32 32" fill="none" xmlns="http://www.w3.org/2000/svg">
<path d="M27.8514 7.465C27.5771 7.31487 27.2675 7.24101 26.9548 7.25112C26.6422 7.26124 26.338 7.35495 26.0739 7.5225L15.7502 14.0988V8.98C15.7499 8.6701 15.6664 8.36597 15.5083 8.09944C15.3501 7.83291 15.1233 7.61379 14.8514 7.465C14.5771 7.31487 14.2675 7.24101 13.9548 7.25112C13.6422 7.26124 13.338 7.35495 13.0739 7.5225L2.05144 14.5437C1.80593 14.6992 1.60371 14.9143 1.46359 15.1689C1.32347 15.4235 1.25 15.7094 1.25 16C1.25 16.2906 1.32347 16.5765 1.46359 16.8311C1.60371 17.0857 1.80593 17.3008 2.05144 17.4562L13.0739 24.4775C13.338 24.6451 13.6422 24.7388 13.9548 24.7489C14.2675 24.759 14.5771 24.6851 14.8514 24.535C15.1233 24.3862 15.3501 24.1671 15.5083 23.9006C15.6664 23.634 15.7499 23.3299 15.7502 23.02V17.9013L26.0739 24.4775C26.338 24.6451 26.6422 24.7388 26.9548 24.7489C27.2675 24.759 27.5771 24.6851 27.8514 24.535C28.1233 24.3862 28.3501 24.1671 28.5083 23.9006C28.6664 23.634 28.7499 23.3299 28.7502 23.02V8.98C28.7499 8.6701 28.6664 8.36597 28.5083 8.09944C28.3501 7.83291 28.1233 7.61379 27.8514 7.465ZM14.2502 23.02C14.2507 23.0616 14.2392 23.1026 14.217 23.1378C14.1948 23.1731 14.163 23.2012 14.1252 23.2188C14.0869 23.2409 14.0433 23.2519 13.9991 23.2506C13.955 23.2493 13.912 23.2356 13.8752 23.2113L2.85644 16.1912C2.82388 16.1711 2.79701 16.1429 2.77838 16.1094C2.75975 16.076 2.74997 16.0383 2.74997 16C2.74997 15.9617 2.75975 15.924 2.77838 15.8906C2.79701 15.8571 2.82388 15.8289 2.85644 15.8088L13.8752 8.78875C13.9122 8.76375 13.9556 8.74987 14.0002 8.74875C14.044 8.74845 14.0871 8.75965 14.1252 8.78125C14.163 8.79882 14.1948 8.82693 14.217 8.86218C14.2392 8.89744 14.2507 8.93835 14.2502 8.98V23.02ZM27.2502 23.02C27.2507 23.0616 27.2392 23.1026 27.217 23.1378C27.1948 23.1731 27.163 23.2012 27.1252 23.2188C27.0869 23.2409 27.0433 23.2519 26.9991 23.2506C26.955 23.2493 26.912 23.2356 26.8752 23.2113L15.8514 16.1912C15.8189 16.1711 15.792 16.1429 15.7734 16.1094C15.7547 16.076 15.745 16.0383 15.745 16C15.745 15.9617 15.7547 15.924 15.7734 15.8906C15.792 15.8571 15.8189 15.8289 15.8514 15.8088L26.8752 8.78875C26.9122 8.76375 26.9556 8.74987 27.0002 8.74875C27.044 8.74845 27.0871 8.75965 27.1252 8.78125C27.163 8.79882 27.1948 8.82693 27.217 8.86218C27.2392 8.89744 27.2507 8.93835 27.2502 8.98V23.02Z" fill="#112D1F"/>
</svg>
