<svg width="32" height="32" viewBox="0 0 32 32" fill="none" xmlns="http://www.w3.org/2000/svg">
<path d="M29.3677 24.6537C29.1943 24.7512 28.9893 24.7758 28.7978 24.7221C28.6063 24.6684 28.4439 24.5409 28.3465 24.3675L19.5615 8.75H16.7502V10C16.7502 10.1989 16.6712 10.3897 16.5305 10.5303C16.3899 10.671 16.1991 10.75 16.0002 10.75C15.8013 10.75 15.6105 10.671 15.4699 10.5303C15.3292 10.3897 15.2502 10.1989 15.2502 10V8.75H12.439L3.65396 24.3675C3.60624 24.4544 3.54178 24.5309 3.4643 24.5927C3.38682 24.6545 3.29786 24.7004 3.20256 24.7276C3.10726 24.7548 3.0075 24.7629 2.90907 24.7513C2.81063 24.7398 2.71546 24.7088 2.62906 24.6602C2.54267 24.6117 2.46675 24.5464 2.40571 24.4684C2.34466 24.3903 2.2997 24.3009 2.27342 24.2053C2.24715 24.1097 2.24007 24.0099 2.2526 23.9116C2.26514 23.8133 2.29704 23.7184 2.34646 23.6325L10.7177 8.75H3.00021C2.80129 8.75 2.61053 8.67098 2.46988 8.53033C2.32922 8.38968 2.25021 8.19891 2.25021 8C2.25021 7.80109 2.32922 7.61032 2.46988 7.46967C2.61053 7.32902 2.80129 7.25 3.00021 7.25H29.0002C29.1991 7.25 29.3899 7.32902 29.5305 7.46967C29.6712 7.61032 29.7502 7.80109 29.7502 8C29.7502 8.19891 29.6712 8.38968 29.5305 8.53033C29.3899 8.67098 29.1991 8.75 29.0002 8.75H21.2827L29.6577 23.6325C29.7058 23.7186 29.7365 23.8133 29.7479 23.9112C29.7594 24.0092 29.7514 24.1084 29.7245 24.2033C29.6976 24.2981 29.6522 24.3867 29.591 24.464C29.5297 24.5413 29.4539 24.6058 29.3677 24.6537ZM16.0002 14.25C15.8013 14.25 15.6105 14.329 15.4699 14.4697C15.3292 14.6103 15.2502 14.8011 15.2502 15V17C15.2502 17.1989 15.3292 17.3897 15.4699 17.5303C15.6105 17.671 15.8013 17.75 16.0002 17.75C16.1991 17.75 16.3899 17.671 16.5305 17.5303C16.6712 17.3897 16.7502 17.1989 16.7502 17V15C16.7502 14.8011 16.6712 14.6103 16.5305 14.4697C16.3899 14.329 16.1991 14.25 16.0002 14.25ZM16.0002 21.25C15.8013 21.25 15.6105 21.329 15.4699 21.4697C15.3292 21.6103 15.2502 21.8011 15.2502 22V24C15.2502 24.1989 15.3292 24.3897 15.4699 24.5303C15.6105 24.671 15.8013 24.75 16.0002 24.75C16.1991 24.75 16.3899 24.671 16.5305 24.5303C16.6712 24.3897 16.7502 24.1989 16.7502 24V22C16.7502 21.8011 16.6712 21.6103 16.5305 21.4697C16.3899 21.329 16.1991 21.25 16.0002 21.25Z" fill="#112D1F"/>
</svg>
