<svg width="32" height="32" viewBox="0 0 32 32" fill="none" xmlns="http://www.w3.org/2000/svg">
<path d="M12.7288 23.1813C12.6813 23.375 11.5113 27.75 5.00009 27.75C4.80118 27.75 4.61042 27.671 4.46976 27.5303C4.32911 27.3897 4.25009 27.1989 4.25009 27C4.25009 20.4888 8.63259 19.3188 8.81884 19.2725C9.01045 19.2281 9.21183 19.2607 9.37962 19.3633C9.5474 19.466 9.66815 19.6304 9.71585 19.8212C9.76356 20.012 9.7344 20.214 9.63465 20.3835C9.53491 20.553 9.37256 20.6765 9.18259 20.7275C9.05759 20.7613 6.07759 21.6125 5.77509 26.2275C10.4426 25.9188 11.2651 22.8525 11.2751 22.82C11.3233 22.6269 11.4463 22.4609 11.617 22.3584C11.7876 22.256 11.992 22.2255 12.1851 22.2738C12.3782 22.322 12.5442 22.445 12.6467 22.6156C12.7491 22.7863 12.7796 22.9907 12.7313 23.1838L12.7288 23.1813ZM24.4201 14.6413L23.7501 15.31V22.7063C23.7506 22.936 23.7055 23.1635 23.6175 23.3757C23.5296 23.5879 23.4004 23.7805 23.2376 23.9425L18.9438 28.2363C18.7142 28.4657 18.4254 28.6267 18.1095 28.7014C17.7936 28.7761 17.4632 28.7614 17.1552 28.6591C16.8472 28.5568 16.5737 28.3708 16.3653 28.1219C16.1569 27.8731 16.0218 27.5712 15.9751 27.25L15.2926 22.3563L9.64759 16.7075L4.75634 16.025C4.43437 15.9795 4.13146 15.8451 3.88158 15.637C3.63171 15.4289 3.44475 15.1553 3.34169 14.8469C3.23863 14.5385 3.22353 14.2075 3.2981 13.891C3.37266 13.5745 3.53394 13.285 3.76384 13.055L8.05759 8.76126C8.21965 8.59858 8.41235 8.46964 8.62454 8.38189C8.83674 8.29413 9.06422 8.24931 9.29384 8.25001H16.6901L17.3588 7.58126C20.6226 4.31751 24.5551 4.17751 26.0938 4.26876C26.5196 4.29505 26.9212 4.47598 27.223 4.77753C27.5247 5.07908 27.706 5.48048 27.7326 5.90626C27.8238 7.44501 27.6826 11.375 24.4201 14.6413ZM4.96634 14.54L9.73384 15.205L15.1901 9.75001H9.29384C9.22765 9.75029 9.16426 9.77681 9.11759 9.82376L4.82509 14.115C4.79317 14.1472 4.77061 14.1875 4.75982 14.2315C4.74903 14.2756 4.75042 14.3217 4.76384 14.365C4.77655 14.4109 4.80256 14.452 4.8386 14.4832C4.87464 14.5143 4.91908 14.5341 4.96634 14.54ZM22.2501 16.81L16.7938 22.2663L17.4588 27.0363C17.4657 27.0821 17.4852 27.1252 17.5152 27.1607C17.5452 27.1961 17.5844 27.2225 17.6285 27.2369C17.6726 27.2513 17.7199 27.2531 17.765 27.2422C17.81 27.2313 17.8512 27.208 17.8838 27.175L22.1763 22.8825C22.2233 22.8358 22.2498 22.7725 22.2501 22.7063V16.81ZM26.2351 6.00001C26.2303 5.94096 26.2046 5.88555 26.1627 5.84365C26.1208 5.80175 26.0654 5.7761 26.0063 5.77126C24.6099 5.68164 23.2105 5.89182 21.9021 6.38769C20.5936 6.88357 19.4064 7.65366 18.4201 8.64626L11.0613 16L16.0001 20.9388L22.4701 14.47L23.3588 13.5813C24.351 12.5957 25.121 11.4093 25.617 10.1018C26.1131 8.7942 26.3238 7.39569 26.2351 6.00001Z" fill="#112D1F"/>
</svg>
