<svg width="32" height="32" viewBox="0 0 32 32" fill="none" xmlns="http://www.w3.org/2000/svg">
<path d="M12.1875 19.8125C13.0026 20.6232 13.6487 21.5875 14.0886 22.6496C14.5284 23.7117 14.7532 24.8504 14.75 26C14.75 26.1989 14.671 26.3897 14.5303 26.5303C14.3897 26.671 14.1989 26.75 14 26.75C13.8011 26.75 13.6103 26.671 13.4697 26.5303C13.329 26.3897 13.25 26.1989 13.25 26C13.25 24.0772 12.4862 22.2331 11.1265 20.8735C9.76689 19.5138 7.92282 18.75 6 18.75C5.80109 18.75 5.61032 18.671 5.46967 18.5303C5.32902 18.3897 5.25 18.1989 5.25 18C5.25 17.8011 5.32902 17.6103 5.46967 17.4697C5.61032 17.329 5.80109 17.25 6 17.25C7.14956 17.2468 8.28835 17.4716 9.35044 17.9114C10.4125 18.3513 11.3768 18.9974 12.1875 19.8125ZM6 11.25C5.80109 11.25 5.61032 11.329 5.46967 11.4697C5.32902 11.6103 5.25 11.8011 5.25 12C5.25 12.1989 5.32902 12.3897 5.46967 12.5303C5.61032 12.671 5.80109 12.75 6 12.75C9.51412 12.75 12.8843 14.146 15.3692 16.6308C17.854 19.1157 19.25 22.4859 19.25 26C19.25 26.1989 19.329 26.3897 19.4697 26.5303C19.6103 26.671 19.8011 26.75 20 26.75C20.1989 26.75 20.3897 26.671 20.5303 26.5303C20.671 26.3897 20.75 26.1989 20.75 26C20.75 22.0881 19.196 18.3363 16.4298 15.5702C13.6637 12.804 9.91194 11.25 6 11.25ZM20.6725 11.3275C18.7501 9.39468 16.4635 7.86233 13.945 6.81913C11.4265 5.77592 8.72603 5.24259 6 5.25C5.80109 5.25 5.61032 5.32902 5.46967 5.46967C5.32902 5.61032 5.25 5.80109 5.25 6C5.25 6.19891 5.32902 6.38968 5.46967 6.53033C5.61032 6.67098 5.80109 6.75 6 6.75C8.52891 6.7433 11.034 7.23821 13.3704 8.2061C15.7068 9.17399 17.828 10.5956 19.6113 12.3888C21.4044 14.172 22.826 16.2932 23.7939 18.6296C24.7618 20.966 25.2567 23.4711 25.25 26C25.25 26.1989 25.329 26.3897 25.4697 26.5303C25.6103 26.671 25.8011 26.75 26 26.75C26.1989 26.75 26.3897 26.671 26.5303 26.5303C26.671 26.3897 26.75 26.1989 26.75 26C26.7574 23.274 26.2241 20.5735 25.1809 18.055C24.1377 15.5365 22.6053 13.2499 20.6725 11.3275ZM6.5 24.25C6.25277 24.25 6.0111 24.3233 5.80554 24.4607C5.59998 24.598 5.43976 24.7932 5.34515 25.0216C5.25054 25.2501 5.22579 25.5014 5.27402 25.7439C5.32225 25.9863 5.4413 26.2091 5.61612 26.3839C5.79093 26.5587 6.01366 26.6777 6.25614 26.726C6.49861 26.7742 6.74995 26.7495 6.97836 26.6549C7.20676 26.5602 7.40199 26.4 7.53934 26.1945C7.67669 25.9889 7.75 25.7472 7.75 25.5C7.75 25.1685 7.6183 24.8505 7.38388 24.6161C7.14946 24.3817 6.83152 24.25 6.5 24.25Z" fill="#112D1F"/>
</svg>
