<svg width="32" height="32" viewBox="0 0 32 32" fill="none" xmlns="http://www.w3.org/2000/svg">
<path d="M29.2387 9.34875L22.6524 2.7625C22.4899 2.59998 22.297 2.47106 22.0846 2.38311C21.8723 2.29515 21.6447 2.24988 21.4149 2.24988C21.1851 2.24988 20.9575 2.29515 20.7452 2.38311C20.5328 2.47106 20.3399 2.59998 20.1774 2.7625L2.76116 20.1763C2.59864 20.3388 2.46972 20.5317 2.38176 20.744C2.29381 20.9563 2.24854 21.1839 2.24854 21.4138C2.24854 21.6436 2.29381 21.8712 2.38176 22.0835C2.46972 22.2958 2.59864 22.4888 2.76116 22.6513L9.34741 29.2375C9.50992 29.4 9.70284 29.5289 9.91517 29.6169C10.1275 29.7049 10.3551 29.7501 10.5849 29.7501C10.8147 29.7501 11.0423 29.7049 11.2546 29.6169C11.467 29.5289 11.6599 29.4 11.8224 29.2375L29.2387 11.8238C29.4012 11.6612 29.5301 11.4683 29.6181 11.256C29.706 11.0437 29.7513 10.8161 29.7513 10.5863C29.7513 10.3564 29.706 10.1288 29.6181 9.91652C29.5301 9.70419 29.4012 9.51126 29.2387 9.34875ZM28.1774 10.7625L10.7624 28.1763C10.7392 28.1995 10.7116 28.2179 10.6813 28.2305C10.6509 28.2431 10.6184 28.2496 10.5855 28.2496C10.5527 28.2496 10.5202 28.2431 10.4898 28.2305C10.4595 28.2179 10.4319 28.1995 10.4087 28.1763L3.82241 21.5913C3.79917 21.568 3.78073 21.5405 3.76815 21.5101C3.75557 21.4798 3.74909 21.4472 3.74909 21.4144C3.74909 21.3815 3.75557 21.349 3.76815 21.3186C3.78073 21.2883 3.79917 21.2607 3.82241 21.2375L7.99991 17.06L11.4699 20.53C11.5386 20.6037 11.6214 20.6628 11.7134 20.7038C11.8054 20.7448 11.9047 20.7668 12.0054 20.7686C12.1061 20.7704 12.2061 20.7518 12.2995 20.7141C12.3929 20.6764 12.4777 20.6203 12.5489 20.549C12.6202 20.4778 12.6763 20.393 12.714 20.2996C12.7518 20.2062 12.7703 20.1062 12.7685 20.0055C12.7667 19.9048 12.7447 19.8055 12.7037 19.7135C12.6627 19.6215 12.6036 19.5387 12.5299 19.47L9.05991 16L11.9999 13.06L15.4699 16.53C15.6121 16.6625 15.8001 16.7346 15.9944 16.7312C16.1887 16.7277 16.3741 16.649 16.5115 16.5116C16.6489 16.3742 16.7277 16.1888 16.7311 15.9945C16.7345 15.8002 16.6624 15.6122 16.5299 15.47L13.0599 12L15.9999 9.06125L19.4699 12.53C19.6121 12.6625 19.8001 12.7346 19.9944 12.7312C20.1887 12.7278 20.3741 12.649 20.5115 12.5116C20.6489 12.3742 20.7277 12.1888 20.7311 11.9945C20.7345 11.8002 20.6624 11.6122 20.5299 11.47L17.0612 8L21.2374 3.82375C21.2606 3.80051 21.2882 3.78207 21.3186 3.76949C21.3489 3.75691 21.3814 3.75043 21.4143 3.75043C21.4471 3.75043 21.4797 3.75691 21.51 3.76949C21.5404 3.78207 21.5679 3.80051 21.5912 3.82375L28.1774 10.4088C28.2007 10.432 28.2191 10.4595 28.2317 10.4899C28.2443 10.5202 28.2507 10.5528 28.2507 10.5856C28.2507 10.6185 28.2443 10.651 28.2317 10.6814C28.2191 10.7117 28.2007 10.7393 28.1774 10.7625Z" fill="#112D1F"/>
</svg>
