<svg width="32" height="32" viewBox="0 0 32 32" fill="none" xmlns="http://www.w3.org/2000/svg">
<path d="M21.9999 20.25C21.3319 20.2498 20.6715 20.3907 20.0618 20.6637C19.4522 20.9366 18.9071 21.3354 18.4624 21.8337L12.3499 17.905C12.6137 17.3045 12.7499 16.6558 12.7499 16C12.7499 15.3442 12.6137 14.6955 12.3499 14.095L18.4624 10.1662C19.2598 11.0558 20.3632 11.6121 21.5526 11.7245C22.7419 11.8368 23.9299 11.4968 24.8798 10.7723C25.8297 10.0479 26.4717 8.99204 26.6779 7.81533C26.8841 6.63861 26.6393 5.4274 25.9923 4.42311C25.3454 3.41881 24.3437 2.69518 23.187 2.39643C22.0304 2.09768 20.8036 2.24575 19.7512 2.81114C18.6988 3.37652 17.8981 4.31769 17.5087 5.44708C17.1192 6.57647 17.1696 7.81113 17.6499 8.905L11.5374 12.8337C10.8961 12.1166 10.0522 11.6111 9.11732 11.3841C8.18244 11.1571 7.20067 11.2194 6.30194 11.5626C5.4032 11.9058 4.62988 12.5138 4.08429 13.3062C3.5387 14.0986 3.24658 15.038 3.24658 16C3.24658 16.962 3.5387 17.9014 4.08429 18.6938C4.62988 19.4862 5.4032 20.0942 6.30194 20.4374C7.20067 20.7806 8.18244 20.8429 9.11732 20.6159C10.0522 20.3889 10.8961 19.8834 11.5374 19.1662L17.6499 23.095C17.2396 24.0323 17.1428 25.077 17.3741 26.0736C17.6053 27.0703 18.1522 27.9657 18.9334 28.6265C19.7145 29.2873 20.6882 29.6782 21.7094 29.741C22.7306 29.8039 23.7448 29.5353 24.6011 28.9753C25.4574 28.4153 26.1099 27.5937 26.4617 26.6329C26.8134 25.6721 26.8455 24.6235 26.5532 23.6429C26.2609 22.6624 25.6598 21.8025 24.8394 21.1912C24.0189 20.5798 23.023 20.2497 21.9999 20.25ZM21.9999 3.75C22.6427 3.75 23.271 3.94061 23.8055 4.29772C24.34 4.65484 24.7565 5.16242 25.0025 5.75628C25.2485 6.35014 25.3128 7.0036 25.1874 7.63404C25.062 8.26448 24.7525 8.84357 24.298 9.2981C23.8435 9.75262 23.2644 10.0621 22.6339 10.1876C22.0035 10.313 21.35 10.2486 20.7562 10.0026C20.1623 9.75662 19.6547 9.34006 19.2976 8.8056C18.9405 8.27114 18.7499 7.64279 18.7499 7C18.7499 6.13804 19.0923 5.31139 19.7018 4.7019C20.3113 4.09241 21.1379 3.75 21.9999 3.75ZM7.9999 19.25C7.35711 19.25 6.72875 19.0594 6.19429 18.7023C5.65983 18.3452 5.24327 17.8376 4.99729 17.2437C4.7513 16.6499 4.68694 15.9964 4.81234 15.366C4.93775 14.7355 5.24728 14.1564 5.7018 13.7019C6.15632 13.2474 6.73541 12.9378 7.36585 12.8124C7.99629 12.687 8.64976 12.7514 9.24362 12.9974C9.83748 13.2434 10.3451 13.6599 10.7022 14.1944C11.0593 14.7289 11.2499 15.3572 11.2499 16C11.2499 16.862 10.9075 17.6886 10.298 18.2981C9.6885 18.9076 8.86185 19.25 7.9999 19.25ZM21.9999 28.25C21.3571 28.25 20.7288 28.0594 20.1943 27.7023C19.6598 27.3452 19.2433 26.8376 18.9973 26.2437C18.7513 25.6499 18.6869 24.9964 18.8123 24.366C18.9377 23.7355 19.2473 23.1564 19.7018 22.7019C20.1563 22.2474 20.7354 21.9378 21.3659 21.8124C21.9963 21.687 22.6498 21.7514 23.2436 21.9974C23.8375 22.2434 24.3451 22.6599 24.7022 23.1944C25.0593 23.7289 25.2499 24.3572 25.2499 25C25.2499 25.4268 25.1658 25.8494 25.0025 26.2437C24.8392 26.638 24.5998 26.9963 24.298 27.2981C23.9962 27.5999 23.6379 27.8393 23.2436 28.0026C22.8493 28.1659 22.4267 28.25 21.9999 28.25Z" fill="#112D1F"/>
</svg>
