<svg width="32" height="32" viewBox="0 0 32 32" fill="none" xmlns="http://www.w3.org/2000/svg">
<path d="M28.53 13.53L22.53 19.53C22.3878 19.6625 22.1998 19.7346 22.0055 19.7312C21.8112 19.7277 21.6258 19.649 21.4884 19.5116C21.351 19.3742 21.2723 19.1888 21.2688 18.9945C21.2654 18.8002 21.3375 18.6122 21.47 18.47L26.1887 13.75H20.625C18.13 13.7479 15.7052 14.5759 13.7325 16.1035C11.7598 17.631 10.3513 19.7714 9.72875 22.1875C9.67902 22.3801 9.55481 22.5451 9.38345 22.6461C9.21209 22.7472 9.00761 22.776 8.815 22.7262C8.62239 22.6765 8.45742 22.5523 8.35638 22.381C8.25535 22.2096 8.22652 22.0051 8.27625 21.8125C8.98189 19.0744 10.5782 16.6488 12.8138 14.9176C15.0495 13.1864 17.7974 12.2479 20.625 12.25H26.1912L21.47 7.53C21.3375 7.38782 21.2654 7.19978 21.2688 7.00548C21.2723 6.81118 21.351 6.62579 21.4884 6.48838C21.6258 6.35096 21.8112 6.27225 22.0055 6.26882C22.1998 6.2654 22.3878 6.33752 22.53 6.47L28.53 12.47C28.6705 12.6106 28.7493 12.8012 28.7493 13C28.7493 13.1987 28.6705 13.3894 28.53 13.53ZM24 26.25H5C4.9337 26.25 4.87011 26.2237 4.82322 26.1768C4.77634 26.1299 4.75 26.0663 4.75 26V11C4.75 10.8011 4.67098 10.6103 4.53033 10.4697C4.38968 10.329 4.19891 10.25 4 10.25C3.80109 10.25 3.61032 10.329 3.46967 10.4697C3.32902 10.6103 3.25 10.8011 3.25 11V26C3.25 26.4641 3.43437 26.9092 3.76256 27.2374C4.09075 27.5656 4.53587 27.75 5 27.75H24C24.1989 27.75 24.3897 27.671 24.5303 27.5303C24.671 27.3897 24.75 27.1989 24.75 27C24.75 26.8011 24.671 26.6103 24.5303 26.4697C24.3897 26.329 24.1989 26.25 24 26.25Z" fill="#112D1F"/>
</svg>
