<svg width="32" height="32" viewBox="0 0 32 32" fill="none" xmlns="http://www.w3.org/2000/svg">
<path d="M29.5302 13.47L19.5302 3.47C19.4253 3.36524 19.2918 3.29392 19.1464 3.26503C19.001 3.23615 18.8503 3.251 18.7133 3.30771C18.5763 3.36442 18.4593 3.46045 18.3768 3.58366C18.2944 3.70688 18.2504 3.85176 18.2502 4V9.275C11.4402 9.72375 3.20148 16.15 2.25898 24.3575C2.22837 24.6188 2.28101 24.8832 2.40941 25.1129C2.53781 25.3425 2.73542 25.5258 2.97408 25.6367C3.21274 25.7475 3.48029 25.7801 3.7386 25.73C3.99692 25.6799 4.23283 25.5495 4.41273 25.3575C5.82023 23.8562 10.8752 19.075 18.2502 18.7662V24C18.2504 24.1482 18.2944 24.2931 18.3768 24.4163C18.4593 24.5395 18.5763 24.6356 18.7133 24.6923C18.8503 24.749 19.001 24.7638 19.1464 24.735C19.2918 24.7061 19.4253 24.6348 19.5302 24.53L29.5302 14.53C29.6707 14.3894 29.7496 14.1987 29.7496 14C29.7496 13.8012 29.6707 13.6106 29.5302 13.47ZM19.7502 22.19V18C19.7502 17.8011 19.6712 17.6103 19.5306 17.4697C19.3899 17.329 19.1991 17.25 19.0002 17.25C15.534 17.25 12.1552 18.1562 8.96023 19.9437C7.09801 20.9898 5.38266 22.2781 3.85898 23.775C4.44648 20.455 6.37898 17.275 9.35898 14.7412C12.309 12.2425 15.9115 10.75 19.0002 10.75C19.1991 10.75 19.3899 10.671 19.5306 10.5303C19.6712 10.3897 19.7502 10.1989 19.7502 10V5.81125L27.939 14L19.7502 22.19Z" fill="#112D1F"/>
</svg>
