<svg width="32" height="32" viewBox="0 0 32 32" fill="none" xmlns="http://www.w3.org/2000/svg">
<path d="M29.6836 8.83879C29.5988 8.57594 29.438 8.34412 29.2215 8.17259C29.0051 8.00106 28.7426 7.89752 28.4673 7.87504L23.6636 7.46879L21.7886 3.09379C21.6797 2.84226 21.4996 2.62806 21.2705 2.47759C21.0414 2.32712 20.7733 2.24695 20.4992 2.24695C20.2251 2.24695 19.957 2.32712 19.7279 2.47759C19.4988 2.62806 19.3187 2.84226 19.2098 3.09379L17.3348 7.46879L12.5336 7.87504C12.2595 7.89641 11.9978 7.99861 11.7818 8.16871C11.5657 8.33881 11.405 8.56916 11.3199 8.83063C11.2348 9.0921 11.2291 9.37293 11.3037 9.63761C11.3782 9.90228 11.5296 10.1389 11.7386 10.3175L15.3748 13.4225L14.2848 18.0375C14.2224 18.303 14.2396 18.5809 14.3343 18.8366C14.429 19.0923 14.5971 19.3144 14.8173 19.475C15.04 19.6391 15.3061 19.7337 15.5823 19.747C15.8585 19.7604 16.1325 19.6918 16.3698 19.55L20.4948 17.095L24.6261 19.55C24.8634 19.692 25.1375 19.7606 25.4137 19.7473C25.6899 19.7339 25.956 19.6392 26.1786 19.475C26.3989 19.3144 26.5669 19.0923 26.6614 18.8366C26.7559 18.5808 26.7728 18.3028 26.7098 18.0375L25.6248 13.4225L29.2598 10.3188C29.469 10.1417 29.6209 9.90654 29.6963 9.64309C29.7717 9.37964 29.7673 9.09973 29.6836 8.83879ZM24.6011 12.3263C24.4061 12.4913 24.2607 12.7072 24.181 12.95C24.1013 13.1927 24.0905 13.4528 24.1498 13.7013L25.1986 18.145L21.2198 15.78C21.0022 15.65 20.7534 15.5813 20.4998 15.5813C20.2463 15.5813 19.9975 15.65 19.7798 15.78L15.8023 18.145L16.8498 13.7C16.91 13.4517 16.8998 13.1915 16.8203 12.9486C16.7408 12.7057 16.5952 12.4898 16.3998 12.325L12.9136 9.34879L17.5198 8.95879C17.7732 8.93791 18.016 8.84846 18.2224 8.70004C18.4287 8.55162 18.5907 8.34982 18.6911 8.11629L20.4998 3.89629L22.3098 8.11629C22.41 8.34972 22.5718 8.55148 22.7779 8.6999C22.9841 8.84833 23.2267 8.93783 23.4798 8.95879L28.0873 9.34879L24.6011 12.3263ZM10.5298 15.53L3.52985 22.53C3.38767 22.6625 3.19963 22.7346 3.00532 22.7312C2.81102 22.7278 2.62564 22.6491 2.48822 22.5117C2.35081 22.3743 2.2721 22.1889 2.26867 21.9946C2.26524 21.8003 2.33737 21.6122 2.46985 21.47L9.46985 14.47C9.61202 14.3376 9.80007 14.2654 9.99437 14.2689C10.1887 14.2723 10.3741 14.351 10.5115 14.4884C10.6489 14.6258 10.7276 14.8112 10.731 15.0055C10.7345 15.1998 10.6623 15.3879 10.5298 15.53ZM12.5298 21.47C12.6703 21.6107 12.7492 21.8013 12.7492 22C12.7492 22.1988 12.6703 22.3894 12.5298 22.53L5.52985 29.53C5.38767 29.6625 5.19963 29.7346 5.00532 29.7312C4.81102 29.7278 4.62564 29.6491 4.48822 29.5117C4.35081 29.3743 4.2721 29.1889 4.26867 28.9946C4.26524 28.8003 4.33737 28.6122 4.46985 28.47L11.4698 21.47C11.6105 21.3296 11.8011 21.2507 11.9998 21.2507C12.1986 21.2507 12.3892 21.3296 12.5298 21.47ZM21.5298 21.47C21.6703 21.6107 21.7492 21.8013 21.7492 22C21.7492 22.1988 21.6703 22.3894 21.5298 22.53L14.5298 29.53C14.3877 29.6625 14.1996 29.7346 14.0053 29.7312C13.811 29.7278 13.6256 29.6491 13.4882 29.5117C13.3508 29.3743 13.2721 29.1889 13.2687 28.9946C13.2652 28.8003 13.3374 28.6122 13.4698 28.47L20.4698 21.47C20.5395 21.4003 20.6222 21.345 20.7133 21.3072C20.8043 21.2695 20.9019 21.2501 21.0005 21.2501C21.099 21.2501 21.1966 21.2695 21.2877 21.3072C21.3787 21.345 21.4614 21.4003 21.5311 21.47H21.5298Z" fill="#112D1F"/>
</svg>
