<svg width="32" height="32" viewBox="0 0 32 32" fill="none" xmlns="http://www.w3.org/2000/svg">
<path d="M29.53 22.47C29.6705 22.6106 29.7493 22.8012 29.7493 23C29.7493 23.1988 29.6705 23.3894 29.53 23.53L26.53 26.53C26.3878 26.6625 26.1998 26.7346 26.0055 26.7312C25.8112 26.7277 25.6258 26.649 25.4884 26.5116C25.351 26.3742 25.2723 26.1888 25.2688 25.9945C25.2654 25.8002 25.3375 25.6122 25.47 25.47L27.19 23.75H21.515C21.2364 23.7497 20.9619 23.6831 20.7141 23.5557C20.4663 23.4284 20.2524 23.2439 20.09 23.0175L10.6888 9.855C10.6656 9.82252 10.6351 9.79604 10.5996 9.77777C10.5642 9.75951 10.5249 9.74998 10.485 9.75H4C3.80109 9.75 3.61032 9.67098 3.46967 9.53033C3.32902 9.38968 3.25 9.19891 3.25 9C3.25 8.80109 3.32902 8.61032 3.46967 8.46967C3.61032 8.32902 3.80109 8.25 4 8.25H10.485C10.7636 8.25032 11.0381 8.31691 11.2859 8.44428C11.5337 8.57164 11.7476 8.75613 11.91 8.9825L21.3113 22.145C21.3344 22.1775 21.3649 22.204 21.4004 22.2222C21.4358 22.2405 21.4751 22.25 21.515 22.25H27.19L25.47 20.53C25.3375 20.3878 25.2654 20.1998 25.2688 20.0055C25.2723 19.8112 25.351 19.6258 25.4884 19.4884C25.6258 19.351 25.8112 19.2723 26.0055 19.2688C26.1998 19.2654 26.3878 19.3375 26.53 19.47L29.53 22.47ZM18.0212 13.17C18.1014 13.2272 18.1921 13.2681 18.2881 13.2903C18.3841 13.3124 18.4835 13.3155 18.5806 13.2992C18.6778 13.283 18.7708 13.2477 18.8543 13.1955C18.9379 13.1433 19.0103 13.0752 19.0675 12.995L21.3175 9.855C21.3406 9.82252 21.3712 9.79604 21.4066 9.77777C21.4421 9.75951 21.4814 9.74998 21.5212 9.75H27.1963L25.47 11.47C25.3963 11.5387 25.3372 11.6215 25.2962 11.7135C25.2552 11.8055 25.2332 11.9048 25.2314 12.0055C25.2296 12.1062 25.2482 12.2062 25.2859 12.2996C25.3236 12.393 25.3797 12.4778 25.451 12.549C25.5222 12.6203 25.607 12.6764 25.7004 12.7141C25.7938 12.7518 25.8938 12.7704 25.9945 12.7686C26.0952 12.7668 26.1945 12.7448 26.2865 12.7038C26.3785 12.6628 26.4613 12.6037 26.53 12.53L29.53 9.53C29.6705 9.38937 29.7493 9.19875 29.7493 9C29.7493 8.80125 29.6705 8.61062 29.53 8.47L26.53 5.47C26.3878 5.33752 26.1998 5.2654 26.0055 5.26882C25.8112 5.27225 25.6258 5.35096 25.4884 5.48838C25.351 5.62579 25.2723 5.81118 25.2688 6.00548C25.2654 6.19978 25.3375 6.38782 25.47 6.53L27.19 8.25H21.515C21.2364 8.25032 20.9619 8.31691 20.7141 8.44428C20.4663 8.57164 20.2524 8.75613 20.09 8.9825L17.8475 12.125C17.7322 12.2867 17.6858 12.4875 17.7183 12.6834C17.7509 12.8793 17.8598 13.0543 18.0212 13.17ZM13.9788 18.83C13.8986 18.7728 13.8079 18.7319 13.7119 18.7097C13.6159 18.6876 13.5165 18.6845 13.4194 18.7008C13.3222 18.717 13.2292 18.7523 13.1457 18.8045C13.0621 18.8567 12.9897 18.9248 12.9325 19.005L10.6888 22.145C10.6656 22.1775 10.6351 22.204 10.5996 22.2222C10.5642 22.2405 10.5249 22.25 10.485 22.25H4C3.80109 22.25 3.61032 22.329 3.46967 22.4697C3.32902 22.6103 3.25 22.8011 3.25 23C3.25 23.1989 3.32902 23.3897 3.46967 23.5303C3.61032 23.671 3.80109 23.75 4 23.75H10.485C10.7636 23.7497 11.0381 23.6831 11.2859 23.5557C11.5337 23.4284 11.7476 23.2439 11.91 23.0175L14.1525 19.875C14.2678 19.7133 14.3142 19.5125 14.2817 19.3166C14.2491 19.1207 14.1402 18.9457 13.9788 18.83Z" fill="#112D1F"/>
</svg>
