<svg width="32" height="32" viewBox="0 0 32 32" fill="none" xmlns="http://www.w3.org/2000/svg">
<path d="M26.7502 6V11C26.7502 11.1989 26.6711 11.3897 26.5305 11.5303C26.3898 11.671 26.1991 11.75 26.0002 11.75C25.8012 11.75 25.6105 11.671 25.4698 11.5303C25.3292 11.3897 25.2502 11.1989 25.2502 11V7.81L19.3589 13.7025C19.2182 13.8432 19.0273 13.9223 18.8283 13.9223C18.6293 13.9223 18.4384 13.8432 18.2977 13.7025C18.1569 13.5618 18.0779 13.3709 18.0779 13.1719C18.0779 12.9729 18.1569 12.782 18.2977 12.6412L24.1902 6.75H21.0002C20.8012 6.75 20.6105 6.67098 20.4698 6.53033C20.3292 6.38968 20.2502 6.19891 20.2502 6C20.2502 5.80109 20.3292 5.61032 20.4698 5.46967C20.6105 5.32902 20.8012 5.25 21.0002 5.25H26.0002C26.1991 5.25 26.3898 5.32902 26.5305 5.46967C26.6711 5.61032 26.7502 5.80109 26.7502 6ZM26.0002 20.25C25.8012 20.25 25.6105 20.329 25.4698 20.4697C25.3292 20.6103 25.2502 20.8011 25.2502 21V24.19L6.53015 5.47C6.38798 5.33752 6.19993 5.2654 6.00563 5.26883C5.81133 5.27225 5.62594 5.35097 5.48853 5.48838C5.35112 5.62579 5.27241 5.81118 5.26898 6.00548C5.26555 6.19978 5.33767 6.38783 5.47015 6.53L24.1902 25.25H21.0002C20.8012 25.25 20.6105 25.329 20.4698 25.4697C20.3292 25.6103 20.2502 25.8011 20.2502 26C20.2502 26.1989 20.3292 26.3897 20.4698 26.5303C20.6105 26.671 20.8012 26.75 21.0002 26.75H26.0002C26.1991 26.75 26.3898 26.671 26.5305 26.5303C26.6711 26.3897 26.7502 26.1989 26.7502 26V21C26.7502 20.8011 26.6711 20.6103 26.5305 20.4697C26.3898 20.329 26.1991 20.25 26.0002 20.25ZM12.6414 18.2975L5.47015 25.47C5.39647 25.5387 5.33736 25.6215 5.29637 25.7135C5.25538 25.8055 5.23334 25.9048 5.23156 26.0055C5.22979 26.1062 5.24831 26.2062 5.28603 26.2996C5.32375 26.393 5.3799 26.4778 5.45112 26.549C5.52233 26.6203 5.60717 26.6764 5.70056 26.7141C5.79394 26.7518 5.89397 26.7704 5.99468 26.7686C6.09538 26.7668 6.19469 26.7448 6.28669 26.7038C6.37869 26.6628 6.46149 26.6037 6.53015 26.53L13.7027 19.3587C13.8434 19.218 13.9224 19.0271 13.9224 18.8281C13.9224 18.6291 13.8434 18.4382 13.7027 18.2975C13.5619 18.1568 13.3711 18.0777 13.172 18.0777C12.973 18.0777 12.7821 18.1568 12.6414 18.2975Z" fill="#112D1F"/>
</svg>
