<svg width="32" height="32" viewBox="0 0 32 32" fill="none" xmlns="http://www.w3.org/2000/svg">
<path d="M29.0001 21.25H7.5751C7.9926 20.4325 8.41635 19.5813 8.8326 18.7138C10.7201 19.03 13.0089 17.6525 15.6614 14.6038C16.1739 16.1462 17.2076 18.3687 18.9901 18.7062C20.2501 18.945 21.5126 18.2462 22.8314 16.5812C23.5664 17.6025 25.2301 18.75 29.0001 18.75C29.199 18.75 29.3898 18.671 29.5304 18.5303C29.6711 18.3897 29.7501 18.1989 29.7501 18C29.7501 17.8011 29.6711 17.6103 29.5304 17.4697C29.3898 17.329 29.199 17.25 29.0001 17.25C23.9601 17.25 23.7576 15.1075 23.7501 14.985C23.7466 14.8079 23.6805 14.6378 23.5635 14.5048C23.4466 14.3718 23.2864 14.2844 23.1112 14.2582C22.936 14.232 22.7573 14.2687 22.6065 14.3616C22.4558 14.4546 22.3428 14.598 22.2876 14.7662C21.1301 16.5075 20.0614 17.3825 19.2701 17.2325C18.6451 17.115 17.9938 16.3413 17.4413 15.055C17.1414 14.3418 16.9051 13.6035 16.7351 12.8488C16.7038 12.6966 16.626 12.5579 16.5124 12.4518C16.3988 12.3458 16.2552 12.2776 16.1012 12.2567C15.9472 12.2359 15.7906 12.2634 15.6529 12.3354C15.5152 12.4074 15.4033 12.5204 15.3326 12.6587C13.0314 15.5212 10.9839 17.1237 9.5226 17.24C12.5001 10.73 13.4039 6.5875 12.2789 4.5975C11.9326 3.985 11.2139 3.25 9.7501 3.25H9.72385C7.84885 3.2625 6.3626 5.09 5.6376 8.2675C4.79135 12 5.2701 16.5 7.4526 18.125C6.93385 19.2063 6.4026 20.2612 5.8876 21.25H3.0001C2.80119 21.25 2.61042 21.329 2.46977 21.4697C2.32912 21.6103 2.2501 21.8011 2.2501 22C2.2501 22.1989 2.32912 22.3897 2.46977 22.5303C2.61042 22.671 2.80119 22.75 3.0001 22.75H5.0951C3.58135 25.5725 2.3751 27.5825 2.3576 27.6138C2.30333 27.6982 2.26656 27.7927 2.24947 27.8916C2.23238 27.9905 2.23533 28.0919 2.25813 28.1896C2.28093 28.2874 2.32312 28.3796 2.38221 28.4607C2.44129 28.5419 2.51607 28.6103 2.6021 28.662C2.68813 28.7138 2.78367 28.7477 2.88306 28.7618C2.98244 28.7759 3.08365 28.7699 3.18068 28.7442C3.27772 28.7185 3.3686 28.6736 3.44794 28.6121C3.52729 28.5506 3.59348 28.4738 3.6426 28.3862C3.6626 28.3538 5.0876 25.9775 6.79385 22.75H29.0001C29.199 22.75 29.3898 22.671 29.5304 22.5303C29.6711 22.3897 29.7501 22.1989 29.7501 22C29.7501 21.8011 29.6711 21.6103 29.5304 21.4697C29.3898 21.329 29.199 21.25 29.0001 21.25ZM7.1051 8.6025C7.6376 6.265 8.67385 4.75 9.7501 4.75C10.5451 4.75 10.8238 5.06375 10.9776 5.33625C11.4776 6.21125 11.7276 8.855 8.11885 16.7113C6.82885 15.4213 6.34885 11.915 7.1051 8.6025Z" fill="#112D1F"/>
</svg>
