<svg width="45" height="45" viewBox="0 0 45 45" fill="none" xmlns="http://www.w3.org/2000/svg">
<path d="M26.241 33.633L31.364 35.498C33.021 36.101 34.838 35.375 35.646 33.864L36.592 34.209C35.619 36.177 33.339 37.17 31.217 36.504L31.017 36.436L24.261 33.978L24.252 33.974L24.243 33.97L8 28.058L8.342 27.118L26.241 33.633Z" fill="#112D1F"/>
<path d="M26.241 33.633L31.364 35.498C33.021 36.101 34.838 35.375 35.646 33.864L36.592 34.209C35.619 36.177 33.339 37.17 31.217 36.504L31.017 36.436L24.261 33.978L24.252 33.974L24.243 33.97L8 28.058L8.342 27.118L26.241 33.633Z" stroke="#112D1F"/>
<path d="M24.8638 32.733L29.2688 26.781C29.6908 26.212 29.6518 25.434 29.2008 24.91L29.1898 24.897L29.1788 24.886L29.0898 24.796L29.0788 24.785L29.0678 24.774L26.3988 22.371C26.2338 22.221 26.1888 21.984 26.2808 21.787L26.3258 21.71L29.0998 17.546L30.2978 18.345V18.356L30.3018 18.388L30.3338 18.634L30.3348 18.647C30.3478 18.726 30.3608 18.801 30.3758 18.867C30.6078 19.873 31.1418 20.663 32.0178 21.196C32.8338 21.691 33.9088 21.941 35.2338 21.99V22.99C32.2708 22.883 30.4318 21.806 29.6608 19.916L29.3048 19.044L28.7818 19.828L27.6298 21.557L27.3898 21.916L27.7108 22.207L29.7368 24.031C30.6518 24.855 30.8248 26.216 30.1688 27.238L30.0688 27.382L25.6178 33.294M20.6018 31.208L23.8248 26.992L24.1148 26.613L23.7498 26.307L20.7488 23.774C20.2658 23.366 19.9948 22.788 19.9648 22.19L21.0828 22.61C21.1298 22.705 21.1888 22.796 21.2598 22.878L21.2728 22.893L21.2868 22.906L21.3658 22.983L21.3798 22.998L21.3938 23.009L25.1238 26.158C25.3088 26.313 25.3528 26.575 25.2388 26.781L25.1898 26.854L21.3148 31.759M17.6748 16.692L18.0578 16.835L18.2738 16.49L19.1508 15.089C19.3118 14.832 19.4898 14.586 19.6848 14.354C21.5838 12.092 24.6968 11.449 27.2718 12.578L28.1048 12.944L27.9678 12.046C27.8488 11.269 27.9908 10.449 28.4268 9.72199C29.4228 8.06499 31.5728 7.52899 33.2298 8.52399C34.8868 9.51999 35.4228 11.669 34.4278 13.326C33.9678 14.09 33.2648 14.615 32.4758 14.863L32.3148 14.914L32.2178 15.052L31.7528 15.709L30.9088 15.147L31.6678 14.013C32.4278 13.939 33.1458 13.517 33.5698 12.811C34.2808 11.628 33.8988 10.093 32.7148 9.38199C31.5318 8.66999 29.9958 9.05299 29.2848 10.237C28.8628 10.938 28.8258 11.763 29.1108 12.466L28.0628 14.21C25.7388 12.381 22.3658 12.717 20.4508 14.998C20.3408 15.129 20.2368 15.264 20.1398 15.404L20.1328 15.414L20.0048 15.61L19.9988 15.619L19.3378 16.677L19.0128 17.194L19.5858 17.41" fill="#112D1F"/>
<path d="M24.8638 32.733L29.2688 26.781C29.6908 26.212 29.6518 25.434 29.2008 24.91L29.1898 24.897L29.1788 24.886L29.0898 24.796L29.0788 24.785L29.0678 24.774L26.3988 22.371C26.2338 22.221 26.1888 21.984 26.2808 21.787L26.3258 21.71L29.0998 17.546L30.2978 18.345V18.356L30.3018 18.388L30.3338 18.634L30.3348 18.647C30.3478 18.726 30.3608 18.801 30.3758 18.867C30.6078 19.873 31.1418 20.663 32.0178 21.196C32.8338 21.691 33.9088 21.941 35.2338 21.99V22.99C32.2708 22.883 30.4318 21.806 29.6608 19.916L29.3048 19.044L28.7818 19.828L27.6298 21.557L27.3898 21.916L27.7108 22.207L29.7368 24.031C30.6518 24.855 30.8248 26.216 30.1688 27.238L30.0688 27.382L25.6178 33.294M20.6018 31.208L23.8248 26.992L24.1148 26.613L23.7498 26.307L20.7488 23.774C20.2658 23.366 19.9948 22.788 19.9648 22.19L21.0828 22.61C21.1298 22.705 21.1888 22.796 21.2598 22.878L21.2728 22.893L21.2868 22.906L21.3658 22.983L21.3798 22.998L21.3938 23.009L25.1238 26.158C25.3088 26.313 25.3528 26.575 25.2388 26.781L25.1898 26.854L21.3148 31.759M17.6748 16.692L18.0578 16.835L18.2738 16.49L19.1508 15.089C19.3118 14.832 19.4898 14.586 19.6848 14.354C21.5838 12.092 24.6968 11.449 27.2718 12.578L28.1048 12.944L27.9678 12.046C27.8488 11.269 27.9908 10.449 28.4268 9.72199C29.4228 8.06499 31.5728 7.52899 33.2298 8.52399C34.8868 9.51999 35.4228 11.669 34.4278 13.326C33.9678 14.09 33.2648 14.615 32.4758 14.863L32.3148 14.914L32.2178 15.052L31.7528 15.709L30.9088 15.147L31.6678 14.013C32.4278 13.939 33.1458 13.517 33.5698 12.811C34.2808 11.628 33.8988 10.093 32.7148 9.38199C31.5318 8.66999 29.9958 9.05299 29.2848 10.237C28.8628 10.938 28.8258 11.763 29.1108 12.466L28.0628 14.21C25.7388 12.381 22.3658 12.717 20.4508 14.998C20.3408 15.129 20.2368 15.264 20.1398 15.404L20.1328 15.414L20.0048 15.61L19.9988 15.619L19.3378 16.677L19.0128 17.194L19.5858 17.41" stroke="#112D1F"/>
<path d="M8.60791 14.061L24.6139 20.065" stroke="#112D1F" stroke-width="2"/>
</svg>
