<svg width="32" height="32" viewBox="0 0 32 32" fill="none" xmlns="http://www.w3.org/2000/svg">
<path d="M7.74985 13.325V5C7.74985 4.80109 7.67084 4.61032 7.53018 4.46967C7.38953 4.32902 7.19877 4.25 6.99985 4.25C6.80094 4.25 6.61018 4.32902 6.46952 4.46967C6.32887 4.61032 6.24985 4.80109 6.24985 5V13.325C5.40214 13.4971 4.64 13.957 4.09257 14.6268C3.54514 15.2966 3.24609 16.135 3.24609 17C3.24609 17.865 3.54514 18.7034 4.09257 19.3732C4.64 20.043 5.40214 20.5029 6.24985 20.675V27C6.24985 27.1989 6.32887 27.3897 6.46952 27.5303C6.61018 27.671 6.80094 27.75 6.99985 27.75C7.19877 27.75 7.38953 27.671 7.53018 27.5303C7.67084 27.3897 7.74985 27.1989 7.74985 27V20.675C8.59757 20.5029 9.35971 20.043 9.90714 19.3732C10.4546 18.7034 10.7536 17.865 10.7536 17C10.7536 16.135 10.4546 15.2966 9.90714 14.6268C9.35971 13.957 8.59757 13.4971 7.74985 13.325ZM6.99985 19.25C6.55485 19.25 6.11983 19.118 5.74982 18.8708C5.37981 18.6236 5.09142 18.2722 4.92112 17.861C4.75083 17.4499 4.70627 16.9975 4.79309 16.561C4.8799 16.1246 5.09419 15.7237 5.40886 15.409C5.72353 15.0943 6.12444 14.88 6.5609 14.7932C6.99736 14.7064 7.44976 14.751 7.86089 14.9213C8.27202 15.0916 8.62343 15.38 8.87066 15.75C9.11789 16.12 9.24985 16.555 9.24985 17C9.24985 17.5967 9.0128 18.169 8.59084 18.591C8.16889 19.0129 7.59659 19.25 6.99985 19.25ZM16.7499 7.325V5C16.7499 4.80109 16.6708 4.61032 16.5302 4.46967C16.3895 4.32902 16.1988 4.25 15.9999 4.25C15.8009 4.25 15.6102 4.32902 15.4695 4.46967C15.3289 4.61032 15.2499 4.80109 15.2499 5V7.325C14.4021 7.49714 13.64 7.95705 13.0926 8.62681C12.5451 9.29657 12.2461 10.135 12.2461 11C12.2461 11.865 12.5451 12.7034 13.0926 13.3732C13.64 14.043 14.4021 14.5029 15.2499 14.675V27C15.2499 27.1989 15.3289 27.3897 15.4695 27.5303C15.6102 27.671 15.8009 27.75 15.9999 27.75C16.1988 27.75 16.3895 27.671 16.5302 27.5303C16.6708 27.3897 16.7499 27.1989 16.7499 27V14.675C17.5976 14.5029 18.3597 14.043 18.9071 13.3732C19.4546 12.7034 19.7536 11.865 19.7536 11C19.7536 10.135 19.4546 9.29657 18.9071 8.62681C18.3597 7.95705 17.5976 7.49714 16.7499 7.325ZM15.9999 13.25C15.5548 13.25 15.1198 13.118 14.7498 12.8708C14.3798 12.6236 14.0914 12.2722 13.9211 11.861C13.7508 11.4499 13.7063 10.9975 13.7931 10.561C13.8799 10.1246 14.0942 9.72368 14.4089 9.40901C14.7235 9.09434 15.1244 8.88005 15.5609 8.79323C15.9974 8.70642 16.4498 8.75097 16.8609 8.92127C17.272 9.09157 17.6234 9.37996 17.8707 9.74997C18.1179 10.12 18.2499 10.555 18.2499 11C18.2499 11.5967 18.0128 12.169 17.5908 12.591C17.1689 13.0129 16.5966 13.25 15.9999 13.25ZM28.7499 21C28.7489 20.1358 28.4499 19.2984 27.9034 18.629C27.3569 17.9595 26.5963 17.499 25.7499 17.325V5C25.7499 4.80109 25.6708 4.61032 25.5302 4.46967C25.3895 4.32902 25.1988 4.25 24.9999 4.25C24.8009 4.25 24.6102 4.32902 24.4695 4.46967C24.3289 4.61032 24.2499 4.80109 24.2499 5V17.325C23.4021 17.4971 22.64 17.957 22.0926 18.6268C21.5451 19.2966 21.2461 20.135 21.2461 21C21.2461 21.865 21.5451 22.7034 22.0926 23.3732C22.64 24.043 23.4021 24.5029 24.2499 24.675V27C24.2499 27.1989 24.3289 27.3897 24.4695 27.5303C24.6102 27.671 24.8009 27.75 24.9999 27.75C25.1988 27.75 25.3895 27.671 25.5302 27.5303C25.6708 27.3897 25.7499 27.1989 25.7499 27V24.675C26.5963 24.501 27.3569 24.0405 27.9034 23.371C28.4499 22.7016 28.7489 21.8642 28.7499 21ZM24.9999 23.25C24.5548 23.25 24.1198 23.118 23.7498 22.8708C23.3798 22.6236 23.0914 22.2722 22.9211 21.861C22.7508 21.4499 22.7063 20.9975 22.7931 20.561C22.8799 20.1246 23.0942 19.7237 23.4089 19.409C23.7235 19.0943 24.1244 18.8801 24.5609 18.7932C24.9974 18.7064 25.4498 18.751 25.8609 18.9213C26.272 19.0916 26.6234 19.38 26.8707 19.75C27.1179 20.12 27.2499 20.555 27.2499 21C27.2499 21.5967 27.0128 22.169 26.5908 22.591C26.1689 23.0129 25.5966 23.25 24.9999 23.25Z" fill="#112D1F"/>
</svg>
