<svg width="32" height="32" viewBox="0 0 32 32" fill="none" xmlns="http://www.w3.org/2000/svg">
<path d="M26.9999 19.2499C25.8727 19.2499 24.7917 18.8021 23.9947 18.0051C23.1977 17.2081 22.7499 16.1271 22.7499 14.9999V11.9624C22.7497 11.5246 22.5854 11.1028 22.2894 10.7802C21.9934 10.4577 21.5873 10.2577 21.1512 10.2199C18.0199 9.96989 15.9012 7.89739 15.7587 4.94739C15.738 4.51339 15.5567 4.10258 15.2499 3.79489L14.2212 2.76614C13.8995 2.44096 13.4628 2.2555 13.0054 2.24989C12.5481 2.24427 12.1069 2.41896 11.7774 2.73614C11.7731 2.74103 11.7686 2.74563 11.7637 2.74989L3.76366 10.7649C3.60013 10.9281 3.47052 11.122 3.38232 11.3355C3.29412 11.5491 3.24907 11.7779 3.24976 12.009C3.25046 12.24 3.29689 12.4686 3.38638 12.6816C3.47587 12.8945 3.60665 13.0877 3.77116 13.2499L17.1762 26.2374C17.3384 26.4002 17.5313 26.5293 17.7437 26.6173C17.9561 26.7053 18.1838 26.7503 18.4137 26.7499H29.9999C30.464 26.7499 30.9092 26.5655 31.2374 26.2373C31.5655 25.9091 31.7499 25.464 31.7499 24.9999V23.9999C31.7499 22.7401 31.2495 21.5319 30.3587 20.6411C29.4679 19.7503 28.2597 19.2499 26.9999 19.2499ZM30.2499 24.9999C30.2499 25.0662 30.2236 25.1298 30.1767 25.1767C30.1298 25.2236 30.0662 25.2499 29.9999 25.2499H18.4137C18.379 25.2494 18.3447 25.2419 18.3129 25.228C18.2812 25.214 18.2525 25.1938 18.2287 25.1686L4.82366 12.1786C4.80012 12.1552 4.78147 12.1274 4.76881 12.0967C4.75615 12.066 4.74972 12.0331 4.74991 11.9999C4.74989 11.9669 4.75639 11.9342 4.76905 11.9038C4.78171 11.8733 4.80027 11.8456 4.82366 11.8224L12.8149 3.82239C12.8625 3.77923 12.9249 3.75606 12.9892 3.75769C13.0534 3.75932 13.1146 3.78562 13.1599 3.83114L14.1874 4.85864C14.2315 4.90303 14.2574 4.96235 14.2599 5.02489C14.3512 6.88739 15.0612 8.50739 16.3137 9.70989C17.5237 10.8724 19.1549 11.5661 21.0312 11.7174C21.0919 11.725 21.1477 11.7547 21.1881 11.8008C21.2284 11.8469 21.2504 11.9062 21.2499 11.9674V14.2499H18.9999C18.801 14.2499 18.6102 14.3289 18.4696 14.4696C18.3289 14.6102 18.2499 14.801 18.2499 14.9999C18.2499 15.1988 18.3289 15.3896 18.4696 15.5302C18.6102 15.6709 18.801 15.7499 18.9999 15.7499H21.2999C21.4177 16.6474 21.7467 17.5042 22.2599 18.2499H19.9999C19.801 18.2499 19.6102 18.3289 19.4696 18.4696C19.3289 18.6102 19.2499 18.801 19.2499 18.9999C19.2499 19.1988 19.3289 19.3896 19.4696 19.5302C19.6102 19.6709 19.801 19.7499 19.9999 19.7499H23.7637C24.7168 20.4022 25.845 20.7508 26.9999 20.7499C27.8619 20.7499 28.6885 21.0923 29.298 21.7018C29.9075 22.3113 30.2499 23.1379 30.2499 23.9999V24.9999ZM7.99991 22.7499H3.99991C3.801 22.7499 3.61024 22.6709 3.46958 22.5302C3.32893 22.3896 3.24991 22.1988 3.24991 21.9999C3.24991 21.801 3.32893 21.6102 3.46958 21.4696C3.61024 21.3289 3.801 21.2499 3.99991 21.2499H7.99991C8.19883 21.2499 8.38959 21.3289 8.53024 21.4696C8.6709 21.6102 8.74991 21.801 8.74991 21.9999C8.74991 22.1988 8.6709 22.3896 8.53024 22.5302C8.38959 22.6709 8.19883 22.7499 7.99991 22.7499ZM12.7499 25.9999C12.7499 26.1988 12.6709 26.3896 12.5302 26.5302C12.3896 26.6709 12.1988 26.7499 11.9999 26.7499H5.99991C5.801 26.7499 5.61024 26.6709 5.46958 26.5302C5.32893 26.3896 5.24991 26.1988 5.24991 25.9999C5.24991 25.801 5.32893 25.6102 5.46958 25.4696C5.61024 25.3289 5.801 25.2499 5.99991 25.2499H11.9999C12.1988 25.2499 12.3896 25.3289 12.5302 25.4696C12.6709 25.6102 12.7499 25.801 12.7499 25.9999Z" fill="#112D1F"/>
</svg>
