<svg width="32" height="32" viewBox="0 0 32 32" fill="none" xmlns="http://www.w3.org/2000/svg">
<path d="M22.48 6.42375C20.5795 4.84894 18.5201 3.47652 16.335 2.32875C16.231 2.27681 16.1163 2.24977 16 2.24977C15.8837 2.24977 15.769 2.27681 15.665 2.32875C13.4799 3.47652 11.4205 4.84894 9.52 6.42375C5.36 9.89125 3.25 13.4487 3.25 17C3.24995 18.1167 3.52693 19.2159 4.05613 20.1992C4.58533 21.1825 5.35022 22.0192 6.28225 22.6342C7.21429 23.2493 8.28434 23.6235 9.39654 23.7233C10.5087 23.8231 11.6283 23.6455 12.655 23.2062L11.28 27.785C11.2465 27.8971 11.2396 28.0155 11.26 28.1307C11.2804 28.2459 11.3274 28.3547 11.3974 28.4485C11.4674 28.5423 11.5583 28.6184 11.6629 28.6707C11.7676 28.7231 11.883 28.7502 12 28.75H20C20.1169 28.75 20.2322 28.7227 20.3367 28.6703C20.4411 28.6179 20.5319 28.5417 20.6017 28.448C20.6715 28.3543 20.7185 28.2455 20.7388 28.1304C20.7591 28.0153 20.7523 27.897 20.7188 27.785L19.3438 23.2062C20.3705 23.6457 21.4902 23.8236 22.6026 23.7239C23.7149 23.6242 24.7852 23.2501 25.7174 22.635C26.6496 22.0199 27.4146 21.1832 27.9439 20.1997C28.4732 19.2162 28.7501 18.1168 28.75 17C28.75 13.4487 26.64 9.89125 22.48 6.42375ZM22 22.25C20.7316 22.2501 19.5061 21.7909 18.55 20.9575C18.4275 20.8508 18.2736 20.7868 18.1115 20.775C17.9495 20.7633 17.788 20.8046 17.6514 20.8925C17.5148 20.9805 17.4104 21.1104 17.3541 21.2628C17.2977 21.4152 17.2923 21.5818 17.3388 21.7375L18.9925 27.25H13.0075L14.6613 21.7375C14.7077 21.5818 14.7023 21.4152 14.6459 21.2628C14.5896 21.1104 14.4852 20.9805 14.3486 20.8925C14.212 20.8046 14.0505 20.7633 13.8885 20.775C13.7264 20.7868 13.5725 20.8508 13.45 20.9575C12.6903 21.6198 11.7561 22.0494 10.7589 22.1951C9.76165 22.3408 8.74356 22.1963 7.82619 21.779C6.90882 21.3617 6.13095 20.6892 5.58547 19.8418C5.03999 18.9943 4.74996 18.0078 4.75 17C4.75 10.2837 14.0963 4.875 16 3.8475C17.905 4.875 27.25 10.275 27.25 17C27.25 18.3924 26.6969 19.7277 25.7123 20.7123C24.7277 21.6969 23.3924 22.25 22 22.25Z" fill="#112D1F"/>
</svg>
