<svg width="32" height="32" viewBox="0 0 32 32" fill="none" xmlns="http://www.w3.org/2000/svg">
<path d="M19.33 3.32626C19.2039 3.2645 19.063 3.23937 18.9234 3.25374C18.7837 3.2681 18.6509 3.32138 18.54 3.40751L9.7425 10.25H4C3.53587 10.25 3.09075 10.4344 2.76256 10.7626C2.43437 11.0908 2.25 11.5359 2.25 12V20C2.25 20.4641 2.43437 20.9093 2.76256 21.2374C3.09075 21.5656 3.53587 21.75 4 21.75H9.7425L18.54 28.5925C18.6509 28.6786 18.7837 28.7318 18.9233 28.7462C19.0629 28.7606 19.2038 28.7354 19.3298 28.6737C19.4559 28.612 19.5621 28.5161 19.6364 28.397C19.7107 28.2779 19.75 28.1404 19.75 28V4.00001C19.75 3.85965 19.7107 3.72211 19.6365 3.603C19.5622 3.48389 19.456 3.38801 19.33 3.32626ZM18.25 26.4663L10.46 20.4075C10.3284 20.3054 10.1666 20.25 10 20.25H4C3.9337 20.25 3.87011 20.2237 3.82322 20.1768C3.77634 20.1299 3.75 20.0663 3.75 20V12C3.75 11.9337 3.77634 11.8701 3.82322 11.8232C3.87011 11.7763 3.9337 11.75 4 11.75H10C10.1666 11.75 10.3284 11.6946 10.46 11.5925L18.25 5.53376V26.4663Z" fill="#112D1F"/>
</svg>
