<svg width="32" height="32" viewBox="0 0 32 32" fill="none" xmlns="http://www.w3.org/2000/svg">
<path d="M19.33 3.32626C19.2039 3.2645 19.063 3.23937 18.9234 3.25374C18.7837 3.2681 18.6509 3.32138 18.54 3.40751L9.7425 10.25H4C3.53587 10.25 3.09075 10.4344 2.76256 10.7626C2.43437 11.0908 2.25 11.5359 2.25 12V20C2.25 20.4641 2.43437 20.9093 2.76256 21.2374C3.09075 21.5656 3.53587 21.75 4 21.75H9.7425L18.54 28.5925C18.6509 28.6786 18.7837 28.7318 18.9233 28.7462C19.0629 28.7606 19.2038 28.7354 19.3298 28.6737C19.4559 28.612 19.5621 28.5161 19.6364 28.397C19.7107 28.2779 19.75 28.1404 19.75 28V4.00001C19.75 3.85965 19.7107 3.72211 19.6365 3.603C19.5622 3.48389 19.456 3.38801 19.33 3.32626ZM3.75 20V12C3.75 11.9337 3.77634 11.8701 3.82322 11.8232C3.87011 11.7763 3.9337 11.75 4 11.75H9.25V20.25H4C3.9337 20.25 3.87011 20.2237 3.82322 20.1768C3.77634 20.1299 3.75 20.0663 3.75 20ZM18.25 26.4663L10.75 20.6325V11.3675L18.25 5.53376V26.4663ZM30.53 18.4663C30.6037 18.5349 30.6628 18.6177 30.7038 18.7097C30.7448 18.8017 30.7668 18.901 30.7686 19.0017C30.7704 19.1024 30.7518 19.2025 30.7141 19.2959C30.6764 19.3892 30.6203 19.4741 30.549 19.5453C30.4778 19.6165 30.393 19.6727 30.2996 19.7104C30.2062 19.7481 30.1062 19.7666 30.0055 19.7648C29.9048 19.7631 29.8055 19.741 29.7135 19.7C29.6215 19.659 29.5387 19.5999 29.47 19.5263L27 17.06L24.53 19.53C24.3878 19.6625 24.1998 19.7346 24.0055 19.7312C23.8112 19.7278 23.6258 19.649 23.4884 19.5116C23.351 19.3742 23.2723 19.1888 23.2688 18.9945C23.2654 18.8002 23.3375 18.6122 23.47 18.47L25.94 16L23.47 13.53C23.3375 13.3878 23.2654 13.1998 23.2688 13.0055C23.2723 12.8112 23.351 12.6258 23.4884 12.4884C23.6258 12.351 23.8112 12.2723 24.0055 12.2688C24.1998 12.2654 24.3878 12.3375 24.53 12.47L27 14.94L29.47 12.47C29.6122 12.3375 29.8002 12.2654 29.9945 12.2688C30.1888 12.2723 30.3742 12.351 30.5116 12.4884C30.649 12.6258 30.7277 12.8112 30.7312 13.0055C30.7346 13.1998 30.6625 13.3878 30.53 13.53L28.06 16L30.53 18.4663Z" fill="#112D1F"/>
</svg>
