<svg width="32" height="32" viewBox="0 0 32 32" fill="none" xmlns="http://www.w3.org/2000/svg">
<path d="M19.33 3.32625C19.2039 3.26449 19.063 3.23937 18.9234 3.25373C18.7837 3.26809 18.6509 3.32137 18.54 3.4075L9.7425 10.25H4C3.53587 10.25 3.09075 10.4344 2.76256 10.7626C2.43437 11.0908 2.25 11.5359 2.25 12V20C2.25 20.4641 2.43437 20.9092 2.76256 21.2374C3.09075 21.5656 3.53587 21.75 4 21.75H9.7425L18.54 28.5925C18.6509 28.6786 18.7837 28.7318 18.9233 28.7462C19.0629 28.7606 19.2038 28.7354 19.3298 28.6737C19.4559 28.612 19.5621 28.5161 19.6364 28.397C19.7107 28.2779 19.75 28.1404 19.75 28V4C19.75 3.85965 19.7107 3.7221 19.6365 3.60299C19.5622 3.48389 19.456 3.388 19.33 3.32625ZM18.25 26.4662L10.46 20.4075C10.3284 20.3054 10.1666 20.25 10 20.25H4C3.9337 20.25 3.87011 20.2237 3.82322 20.1768C3.77634 20.1299 3.75 20.0663 3.75 20V12C3.75 11.9337 3.77634 11.8701 3.82322 11.8232C3.87011 11.7763 3.9337 11.75 4 11.75H10C10.1666 11.75 10.3284 11.6946 10.46 11.5925L18.25 5.53375V26.4662ZM24.75 13V19C24.75 19.1989 24.671 19.3897 24.5303 19.5303C24.3897 19.671 24.1989 19.75 24 19.75C23.8011 19.75 23.6103 19.671 23.4697 19.5303C23.329 19.3897 23.25 19.1989 23.25 19V13C23.25 12.8011 23.329 12.6103 23.4697 12.4697C23.6103 12.329 23.8011 12.25 24 12.25C24.1989 12.25 24.3897 12.329 24.5303 12.4697C24.671 12.6103 24.75 12.8011 24.75 13ZM28.75 11V21C28.75 21.1989 28.671 21.3897 28.5303 21.5303C28.3897 21.671 28.1989 21.75 28 21.75C27.8011 21.75 27.6103 21.671 27.4697 21.5303C27.329 21.3897 27.25 21.1989 27.25 21V11C27.25 10.8011 27.329 10.6103 27.4697 10.4697C27.6103 10.329 27.8011 10.25 28 10.25C28.1989 10.25 28.3897 10.329 28.5303 10.4697C28.671 10.6103 28.75 10.8011 28.75 11Z" fill="#112D1F"/>
</svg>
