<svg width="32" height="32" viewBox="0 0 32 32" fill="none" xmlns="http://www.w3.org/2000/svg">
<path d="M6.555 4.49999C6.4177 4.37255 6.23767 4.30111 6.05035 4.29972C5.86302 4.29832 5.68195 4.36709 5.54277 4.49247C5.40359 4.61786 5.31638 4.7908 5.29828 4.97725C5.28019 5.16371 5.33253 5.35019 5.445 5.49999L9.75 10.2425L9.74 10.25H4C3.53587 10.25 3.09075 10.4344 2.76256 10.7626C2.43437 11.0907 2.25 11.5359 2.25 12V20C2.25 20.4641 2.43437 20.9092 2.76256 21.2374C3.09075 21.5656 3.53587 21.75 4 21.75H9.7425L18.54 28.5925C18.6509 28.6786 18.7837 28.7318 18.9233 28.7462C19.0629 28.7605 19.2038 28.7354 19.3298 28.6737C19.4559 28.612 19.5621 28.5161 19.6364 28.397C19.7107 28.2779 19.75 28.1404 19.75 28V21.24L25.445 27.5C25.5789 27.6472 25.7659 27.7352 25.9646 27.7445C26.1634 27.7539 26.3578 27.6839 26.505 27.55C26.6522 27.4161 26.7402 27.2291 26.7495 27.0303C26.7589 26.8316 26.6889 26.6372 26.555 26.49L6.555 4.49999ZM3.75 20V12C3.75 11.9337 3.77634 11.8701 3.82322 11.8232C3.87011 11.7763 3.9337 11.75 4 11.75H9.25V20.25H4C3.9337 20.25 3.87011 20.2237 3.82322 20.1768C3.77634 20.1299 3.75 20.0663 3.75 20ZM18.25 26.4662L10.75 20.6337V11.3662L10.7638 11.3562L18.25 19.59V26.4662ZM23.4375 18.15C23.9602 17.5565 24.2486 16.7928 24.2486 16.0019C24.2486 15.211 23.9602 14.4472 23.4375 13.8537C23.3691 13.7804 23.3161 13.6941 23.2817 13.5999C23.2472 13.5058 23.232 13.4056 23.2369 13.3055C23.2418 13.2053 23.2667 13.1072 23.3102 13.0168C23.3537 12.9265 23.4149 12.8458 23.4902 12.7795C23.5654 12.7132 23.6532 12.6627 23.7483 12.6309C23.8434 12.5991 23.9439 12.5867 24.0439 12.5944C24.1438 12.6022 24.2413 12.6299 24.3303 12.6759C24.4194 12.722 24.4984 12.7854 24.5625 12.8625C25.3267 13.73 25.7484 14.8464 25.7484 16.0025C25.7484 17.1586 25.3267 18.275 24.5625 19.1425C24.4309 19.2917 24.2454 19.3825 24.0468 19.3949C23.8483 19.4073 23.6529 19.3404 23.5037 19.2087C23.3546 19.0771 23.2638 18.8916 23.2514 18.6931C23.2389 18.4945 23.3059 18.2992 23.4375 18.15ZM13.4263 8.33499C13.3658 8.25719 13.3213 8.16825 13.2953 8.07324C13.2692 7.97824 13.2622 7.87903 13.2745 7.7813C13.2868 7.68356 13.3182 7.5892 13.367 7.50362C13.4158 7.41803 13.4809 7.34289 13.5588 7.28249L18.54 3.4075C18.6509 3.32141 18.7837 3.26815 18.9233 3.2538C19.0629 3.23944 19.2038 3.26455 19.3298 3.32628C19.4559 3.38801 19.5621 3.48388 19.6364 3.60298C19.7107 3.72208 19.75 3.85963 19.75 3.99999V13.3537C19.75 13.5527 19.671 13.7434 19.5303 13.8841C19.3897 14.0247 19.1989 14.1037 19 14.1037C18.8011 14.1037 18.6103 14.0247 18.4697 13.8841C18.329 13.7434 18.25 13.5527 18.25 13.3537V5.53375L14.4788 8.46625C14.3218 8.58841 14.1227 8.64321 13.9253 8.6186C13.7279 8.59398 13.5484 8.49197 13.4263 8.33499ZM30.75 16C30.7517 18.3985 29.8677 20.7133 28.2675 22.5C28.2026 22.576 28.1231 22.6382 28.0338 22.6831C27.9445 22.728 27.8471 22.7545 27.7474 22.7612C27.6477 22.7679 27.5476 22.7546 27.4531 22.722C27.3586 22.6895 27.2716 22.6384 27.1971 22.5718C27.1226 22.5051 27.0622 22.4243 27.0194 22.3339C26.9766 22.2436 26.9523 22.1456 26.948 22.0458C26.9436 21.9459 26.9592 21.8462 26.9939 21.7525C27.0286 21.6588 27.0817 21.5729 27.15 21.5C28.5029 19.9874 29.2508 18.0293 29.2508 16C29.2508 13.9707 28.5029 12.0126 27.15 10.5C27.0817 10.4271 27.0286 10.3412 26.9939 10.2475C26.9592 10.1538 26.9436 10.054 26.948 9.9542C26.9523 9.85435 26.9766 9.75638 27.0194 9.66606C27.0622 9.57573 27.1226 9.49487 27.1971 9.42822C27.2716 9.36158 27.3586 9.31049 27.4531 9.27796C27.5476 9.24543 27.6477 9.23212 27.7474 9.2388C27.8471 9.24549 27.9445 9.27204 28.0338 9.31689C28.1231 9.36175 28.2026 9.424 28.2675 9.49999C29.8677 11.2867 30.7517 13.6014 30.75 16Z" fill="#112D1F"/>
</svg>
