<svg width="32" height="32" viewBox="0 0 32 32" fill="none" xmlns="http://www.w3.org/2000/svg">
<path d="M19.33 3.32625C19.2039 3.26449 19.063 3.23937 18.9234 3.25373C18.7837 3.26809 18.6509 3.32137 18.54 3.4075L9.7425 10.25H4C3.53587 10.25 3.09075 10.4344 2.76256 10.7626C2.43437 11.0908 2.25 11.5359 2.25 12V20C2.25 20.4641 2.43437 20.9092 2.76256 21.2374C3.09075 21.5656 3.53587 21.75 4 21.75H9.7425L18.54 28.5925C18.6509 28.6786 18.7837 28.7318 18.9233 28.7462C19.0629 28.7606 19.2038 28.7354 19.3298 28.6737C19.4559 28.612 19.5621 28.5161 19.6364 28.397C19.7107 28.2779 19.75 28.1404 19.75 28V4C19.75 3.85965 19.7107 3.7221 19.6365 3.60299C19.5622 3.48389 19.456 3.388 19.33 3.32625ZM3.75 20V12C3.75 11.9337 3.77634 11.8701 3.82322 11.8232C3.87011 11.7763 3.9337 11.75 4 11.75H9.25V20.25H4C3.9337 20.25 3.87011 20.2237 3.82322 20.1768C3.77634 20.1299 3.75 20.0663 3.75 20ZM18.25 26.4662L10.75 20.6338V11.3663L18.25 5.53375V26.4662ZM25.75 16C25.7509 17.1573 25.3285 18.275 24.5625 19.1425C24.4973 19.2164 24.4183 19.2767 24.3298 19.32C24.2413 19.3633 24.1452 19.3887 24.0468 19.3949C23.9485 19.4011 23.85 19.3878 23.7568 19.3558C23.6636 19.3239 23.5776 19.2739 23.5037 19.2087C23.4299 19.1436 23.3696 19.0645 23.3263 18.976C23.283 18.8876 23.2575 18.7914 23.2514 18.6931C23.2452 18.5948 23.2585 18.4962 23.2904 18.403C23.3224 18.3098 23.3723 18.2239 23.4375 18.15C23.9602 17.5565 24.2486 16.7928 24.2486 16.0019C24.2486 15.211 23.9602 14.4472 23.4375 13.8538C23.3126 13.7037 23.2512 13.5108 23.2663 13.3162C23.2813 13.1215 23.3717 12.9404 23.5182 12.8113C23.6647 12.6822 23.8557 12.6154 24.0507 12.6249C24.2457 12.6345 24.4293 12.7197 24.5625 12.8625C25.3268 13.7291 25.7489 14.8445 25.75 16Z" fill="#112D1F"/>
</svg>
