<svg width="32" height="32" viewBox="0 0 32 32" fill="none" xmlns="http://www.w3.org/2000/svg">
<path d="M23.25 19V13C23.25 12.8011 23.329 12.6103 23.4697 12.4697C23.6103 12.329 23.8011 12.25 24 12.25C24.1989 12.25 24.3897 12.329 24.5303 12.4697C24.671 12.6103 24.75 12.8011 24.75 13V19C24.75 19.1989 24.671 19.3897 24.5303 19.5303C24.3897 19.671 24.1989 19.75 24 19.75C23.8011 19.75 23.6103 19.671 23.4697 19.5303C23.329 19.3897 23.25 19.1989 23.25 19ZM28 10.25C27.8011 10.25 27.6103 10.329 27.4697 10.4697C27.329 10.6103 27.25 10.8011 27.25 11V21C27.25 21.1989 27.329 21.3897 27.4697 21.5303C27.6103 21.671 27.8011 21.75 28 21.75C28.1989 21.75 28.3897 21.671 28.5303 21.5303C28.671 21.3897 28.75 21.1989 28.75 21V11C28.75 10.8011 28.671 10.6103 28.5303 10.4697C28.3897 10.329 28.1989 10.25 28 10.25ZM26.555 26.5C26.6889 26.6472 26.7589 26.8416 26.7495 27.0403C26.7402 27.2391 26.6522 27.4261 26.505 27.56C26.3578 27.6939 26.1634 27.7639 25.9646 27.7545C25.7659 27.7452 25.5789 27.6572 25.445 27.51L19.75 21.24V28C19.75 28.1404 19.7107 28.2779 19.6364 28.397C19.5621 28.5161 19.4559 28.612 19.3298 28.6737C19.2038 28.7354 19.0629 28.7605 18.9233 28.7462C18.7837 28.7318 18.6509 28.6786 18.54 28.5925L9.7425 21.75H4C3.53587 21.75 3.09075 21.5656 2.76256 21.2374C2.43437 20.9092 2.25 20.4641 2.25 20V12C2.25 11.5359 2.43437 11.0907 2.76256 10.7626C3.09075 10.4344 3.53587 10.25 4 10.25H9.75875L5.445 5.49999C5.33253 5.35019 5.28019 5.16371 5.29828 4.97725C5.31638 4.7908 5.40359 4.61786 5.54277 4.49247C5.68195 4.36709 5.86302 4.29832 6.05035 4.29972C6.23767 4.30111 6.4177 4.37255 6.555 4.49999L26.555 26.5ZM18.25 19.59L11.125 11.75H4C3.9337 11.75 3.87011 11.7763 3.82322 11.8232C3.77634 11.8701 3.75 11.9337 3.75 12V20C3.75 20.0663 3.77634 20.1299 3.82322 20.1768C3.87011 20.2237 3.9337 20.25 4 20.25H10C10.1666 20.25 10.3284 20.3054 10.46 20.4075L18.25 26.4662V19.59ZM14.4788 8.46499L18.25 5.53375V13.3537C18.25 13.5527 18.329 13.7434 18.4697 13.8841C18.6103 14.0247 18.8011 14.1037 19 14.1037C19.1989 14.1037 19.3897 14.0247 19.5303 13.8841C19.671 13.7434 19.75 13.5527 19.75 13.3537V3.99999C19.75 3.85963 19.7107 3.72208 19.6364 3.60298C19.5621 3.48388 19.4559 3.38801 19.3298 3.32628C19.2038 3.26455 19.0629 3.23944 18.9233 3.2538C18.7837 3.26815 18.6509 3.32141 18.54 3.4075L13.5588 7.28249C13.4774 7.34159 13.4088 7.41644 13.357 7.50257C13.3052 7.58871 13.2712 7.68439 13.2571 7.78392C13.243 7.88345 13.249 7.9848 13.2749 8.08195C13.3007 8.1791 13.3458 8.27007 13.4075 8.34944C13.4692 8.42881 13.5462 8.49497 13.634 8.54399C13.7217 8.59301 13.8184 8.62388 13.9184 8.63478C14.0183 8.64568 14.1194 8.63637 14.2157 8.60742C14.3119 8.57847 14.4014 8.53046 14.4788 8.46625V8.46499Z" fill="#112D1F"/>
</svg>
