<svg width="32" height="32" viewBox="0 0 32 32" fill="none" xmlns="http://www.w3.org/2000/svg">
<path d="M13.7498 6V26C13.7498 26.1989 13.6708 26.3897 13.5302 26.5303C13.3895 26.671 13.1987 26.75 12.9998 26.75C12.8009 26.75 12.6102 26.671 12.4695 26.5303C12.3288 26.3897 12.2498 26.1989 12.2498 26V16.75H4.81108L7.52983 19.47C7.60352 19.5387 7.66262 19.6215 7.70361 19.7135C7.7446 19.8055 7.76664 19.9048 7.76842 20.0055C7.7702 20.1062 7.75167 20.2062 7.71395 20.2996C7.67623 20.393 7.62009 20.4778 7.54887 20.549C7.47765 20.6203 7.39281 20.6764 7.29943 20.7141C7.20604 20.7518 7.10601 20.7704 7.00531 20.7686C6.9046 20.7668 6.80529 20.7448 6.71329 20.7038C6.62129 20.6628 6.53849 20.6037 6.46983 20.53L2.46983 16.53C2.32938 16.3894 2.25049 16.1988 2.25049 16C2.25049 15.8012 2.32938 15.6106 2.46983 15.47L6.46983 11.47C6.612 11.3375 6.80005 11.2654 6.99435 11.2688C7.18865 11.2723 7.37404 11.351 7.51145 11.4884C7.64886 11.6258 7.72758 11.8112 7.731 12.0055C7.73443 12.1998 7.66231 12.3878 7.52983 12.53L4.81108 15.25H12.2498V6C12.2498 5.80109 12.3288 5.61032 12.4695 5.46967C12.6102 5.32902 12.8009 5.25 12.9998 5.25C13.1987 5.25 13.3895 5.32902 13.5302 5.46967C13.6708 5.61032 13.7498 5.80109 13.7498 6ZM29.5298 15.47L25.5298 11.47C25.3877 11.3375 25.1996 11.2654 25.0053 11.2688C24.811 11.2723 24.6256 11.351 24.4882 11.4884C24.3508 11.6258 24.2721 11.8112 24.2687 12.0055C24.2652 12.1998 24.3373 12.3878 24.4698 12.53L27.1886 15.25H19.7498V6C19.7498 5.80109 19.6708 5.61032 19.5302 5.46967C19.3895 5.32902 19.1987 5.25 18.9998 5.25C18.8009 5.25 18.6101 5.32902 18.4695 5.46967C18.3288 5.61032 18.2498 5.80109 18.2498 6V26C18.2498 26.1989 18.3288 26.3897 18.4695 26.5303C18.6101 26.671 18.8009 26.75 18.9998 26.75C19.1987 26.75 19.3895 26.671 19.5302 26.5303C19.6708 26.3897 19.7498 26.1989 19.7498 26V16.75H27.1886L24.4698 19.47C24.3961 19.5387 24.337 19.6215 24.296 19.7135C24.2551 19.8055 24.233 19.9048 24.2312 20.0055C24.2295 20.1062 24.248 20.2062 24.2857 20.2996C24.3234 20.393 24.3796 20.4778 24.4508 20.549C24.522 20.6203 24.6068 20.6764 24.7002 20.7141C24.7936 20.7518 24.8936 20.7704 24.9944 20.7686C25.0951 20.7668 25.1944 20.7448 25.2864 20.7038C25.3784 20.6628 25.4612 20.6037 25.5298 20.53L29.5298 16.53C29.6703 16.3894 29.7492 16.1988 29.7492 16C29.7492 15.8012 29.6703 15.6106 29.5298 15.47Z" fill="#112D1F"/>
</svg>
