<svg width="32" height="32" viewBox="0 0 32 32" fill="none" xmlns="http://www.w3.org/2000/svg">
<path d="M26.75 19C26.75 19.1989 26.671 19.3897 26.5303 19.5303C26.3897 19.671 26.1989 19.75 26 19.75H16.75V27.1888L19.47 24.47C19.6122 24.3375 19.8002 24.2654 19.9945 24.2688C20.1888 24.2723 20.3742 24.351 20.5116 24.4884C20.649 24.6258 20.7277 24.8112 20.7312 25.0055C20.7346 25.1998 20.6625 25.3878 20.53 25.53L16.53 29.53C16.3894 29.6705 16.1988 29.7494 16 29.7494C15.8012 29.7494 15.6106 29.6705 15.47 29.53L11.47 25.53C11.3375 25.3878 11.2654 25.1998 11.2688 25.0055C11.2723 24.8112 11.351 24.6258 11.4884 24.4884C11.6258 24.351 11.8112 24.2723 12.0055 24.2688C12.1998 24.2654 12.3878 24.3375 12.53 24.47L15.25 27.1888V19.75H6C5.80109 19.75 5.61032 19.671 5.46967 19.5303C5.32902 19.3897 5.25 19.1989 5.25 19C5.25 18.8011 5.32902 18.6103 5.46967 18.4697C5.61032 18.329 5.80109 18.25 6 18.25H26C26.1989 18.25 26.3897 18.329 26.5303 18.4697C26.671 18.6103 26.75 18.8011 26.75 19ZM6 13.75H26C26.1989 13.75 26.3897 13.671 26.5303 13.5303C26.671 13.3897 26.75 13.1989 26.75 13C26.75 12.8011 26.671 12.6103 26.5303 12.4697C26.3897 12.329 26.1989 12.25 26 12.25H16.75V4.81126L19.47 7.53001C19.6122 7.66249 19.8002 7.73461 19.9945 7.73119C20.1888 7.72776 20.3742 7.64905 20.5116 7.51163C20.649 7.37422 20.7277 7.18884 20.7312 6.99453C20.7346 6.80023 20.6625 6.61219 20.53 6.47001L16.53 2.47001C16.3894 2.32956 16.1988 2.25067 16 2.25067C15.8012 2.25067 15.6106 2.32956 15.47 2.47001L11.47 6.47001C11.3375 6.61219 11.2654 6.80023 11.2688 6.99453C11.2723 7.18884 11.351 7.37422 11.4884 7.51163C11.6258 7.64905 11.8112 7.72776 12.0055 7.73119C12.1998 7.73461 12.3878 7.66249 12.53 7.53001L15.25 4.81126V12.25H6C5.80109 12.25 5.61032 12.329 5.46967 12.4697C5.32902 12.6103 5.25 12.8011 5.25 13C5.25 13.1989 5.32902 13.3897 5.46967 13.5303C5.61032 13.671 5.80109 13.75 6 13.75Z" fill="#112D1F"/>
</svg>
