<svg width="32" height="32" viewBox="0 0 32 32" fill="none" xmlns="http://www.w3.org/2000/svg">
<path d="M28.6475 21.625C28.7475 21.7968 28.7752 22.0012 28.7246 22.1934C28.674 22.3855 28.5491 22.5498 28.3775 22.65L16.3775 29.65C16.2635 29.7158 16.1342 29.7505 16.0025 29.7505C15.8708 29.7505 15.7415 29.7158 15.6275 29.65L3.6275 22.65C3.46992 22.5437 3.35855 22.3816 3.31591 22.1964C3.27326 22.0112 3.30252 21.8167 3.39777 21.6523C3.49302 21.4878 3.64715 21.3656 3.82902 21.3104C4.01089 21.2553 4.20692 21.2712 4.3775 21.355L16.0025 28.1337L27.6275 21.355C27.7988 21.2566 28.002 21.2297 28.193 21.2803C28.384 21.3309 28.5473 21.4547 28.6475 21.625ZM27.625 15.3525L16 22.1312L4.375 15.3525C4.20442 15.2687 4.00839 15.2528 3.82652 15.308C3.64465 15.3631 3.49052 15.4853 3.39527 15.6498C3.30002 15.8142 3.27076 16.0087 3.31341 16.1939C3.35605 16.3791 3.46742 16.5412 3.625 16.6475L15.625 23.6475C15.739 23.7133 15.8683 23.748 16 23.748C16.1317 23.748 16.261 23.7133 16.375 23.6475L28.375 16.6475C28.5326 16.5412 28.6439 16.3791 28.6866 16.1939C28.7292 16.0087 28.7 15.8142 28.6047 15.6498C28.5095 15.4853 28.3553 15.3631 28.1735 15.308C27.9916 15.2528 27.7956 15.2687 27.625 15.3525ZM3.25 10C3.25035 9.86869 3.28518 9.73977 3.35098 9.62614C3.41679 9.51251 3.51128 9.41815 3.625 9.3525L15.625 2.35249C15.739 2.28667 15.8683 2.25201 16 2.25201C16.1317 2.25201 16.261 2.28667 16.375 2.35249L28.375 9.3525C28.4881 9.41859 28.5819 9.51314 28.647 9.62674C28.7122 9.74034 28.7465 9.86902 28.7465 10C28.7465 10.131 28.7122 10.2597 28.647 10.3733C28.5819 10.4869 28.4881 10.5814 28.375 10.6475L16.375 17.6475C16.261 17.7133 16.1317 17.748 16 17.748C15.8683 17.748 15.739 17.7133 15.625 17.6475L3.625 10.6475C3.51128 10.5818 3.41679 10.4875 3.35098 10.3739C3.28518 10.2602 3.25035 10.1313 3.25 10ZM5.48875 10L16 16.1312L26.5112 10L16 3.87499L5.48875 10Z" fill="#112D1F"/>
</svg>
