<svg width="32" height="32" viewBox="0 0 32 32" fill="none" xmlns="http://www.w3.org/2000/svg">
<path d="M1.6251 13.6513L15.6251 21.6513C15.7391 21.7171 15.8684 21.7518 16.0001 21.7518C16.1317 21.7518 16.2611 21.7171 16.3751 21.6513L30.3751 13.6513C30.4899 13.5857 30.5854 13.4909 30.6518 13.3765C30.7181 13.2622 30.7531 13.1323 30.7531 13C30.7531 12.8678 30.7181 12.7379 30.6518 12.6235C30.5854 12.5091 30.4899 12.4144 30.3751 12.3488L16.3751 4.34877C16.2611 4.28295 16.1317 4.24829 16.0001 4.24829C15.8684 4.24829 15.7391 4.28295 15.6251 4.34877L1.6251 12.3488C1.51027 12.4144 1.41482 12.5091 1.34843 12.6235C1.28205 12.7379 1.24708 12.8678 1.24708 13C1.24708 13.1323 1.28205 13.2622 1.34843 13.3765C1.41482 13.4909 1.51027 13.5857 1.6251 13.6513ZM16.0001 5.86377L28.4888 13L16.0001 20.1363L3.51135 13L16.0001 5.86377ZM30.6513 17.625C30.7003 17.7105 30.7319 17.8049 30.7444 17.9026C30.7569 18.0003 30.75 18.0996 30.7241 18.1947C30.6982 18.2897 30.6538 18.3788 30.5935 18.4567C30.5332 18.5346 30.4581 18.5999 30.3726 18.6488L16.3726 26.6488C16.2586 26.7146 16.1292 26.7493 15.9976 26.7493C15.8659 26.7493 15.7366 26.7146 15.6226 26.6488L1.6226 18.6488C1.44987 18.5493 1.32373 18.3853 1.27193 18.1929C1.22012 18.0004 1.24689 17.7952 1.34635 17.6225C1.4458 17.4498 1.6098 17.3237 1.80226 17.2719C1.99472 17.22 2.19987 17.2468 2.3726 17.3463L15.9976 25.1338L29.6226 17.3463C29.7083 17.2965 29.8031 17.2643 29.9013 17.2514C29.9996 17.2385 30.0994 17.2452 30.1951 17.2711C30.2908 17.297 30.3803 17.3417 30.4586 17.4024C30.537 17.4631 30.6025 17.5388 30.6513 17.625Z" fill="#112D1F"/>
</svg>
