<svg width="32" height="32" viewBox="0 0 32 32" fill="none" xmlns="http://www.w3.org/2000/svg">
<path d="M29.149 14.1075L28.5002 14.6788C28.4278 14.7521 28.3411 14.8097 28.2454 14.8481C28.1498 14.8864 28.0473 14.9046 27.9443 14.9016C27.8413 14.8985 27.74 14.8743 27.6468 14.8304C27.5536 14.7864 27.4704 14.7238 27.4025 14.6463C27.3345 14.5688 27.2833 14.4782 27.252 14.38C27.2206 14.2818 27.2098 14.1783 27.2203 14.0757C27.2308 13.9732 27.2622 13.874 27.3128 13.7842C27.3633 13.6944 27.4318 13.6159 27.514 13.5538L28.169 12.9825C28.2075 12.9497 28.2352 12.906 28.2484 12.8571C28.2616 12.8082 28.2596 12.7565 28.2427 12.7087C28.2301 12.6612 28.2027 12.6189 28.1645 12.5879C28.1263 12.5569 28.0793 12.5388 28.0302 12.5363L26.9427 12.4425C26.7438 12.4259 26.5596 12.331 26.4307 12.1786C26.3017 12.0263 26.2386 11.8289 26.2552 11.63C26.2718 11.4311 26.3667 11.2469 26.5191 11.118C26.6714 10.989 26.8688 10.9259 27.0677 10.9425L28.1552 11.0375C28.4979 11.064 28.8248 11.1925 29.0939 11.4063C29.363 11.6202 29.562 11.9097 29.6652 12.2375C29.7732 12.5654 29.7818 12.9178 29.6899 13.2506C29.598 13.5833 29.4098 13.8815 29.149 14.1075ZM21.969 19.6162L22.3265 21.1675C22.3646 21.3326 22.4575 21.4799 22.59 21.5855C22.7226 21.691 22.887 21.7486 23.0565 21.7488C23.1137 21.7488 23.1708 21.7421 23.2265 21.7288C23.42 21.6838 23.5877 21.5639 23.693 21.3954C23.7982 21.227 23.8323 21.0236 23.7877 20.83L23.4302 19.2787C23.4199 19.2337 23.4219 19.1868 23.436 19.1428C23.45 19.0988 23.4757 19.0594 23.5102 19.0287L24.494 18.1712C24.5761 18.1091 24.6446 18.0306 24.6951 17.9408C24.7457 17.851 24.7771 17.7518 24.7876 17.6493C24.7981 17.5467 24.7873 17.4432 24.7559 17.345C24.7246 17.2468 24.6734 17.1562 24.6054 17.0787C24.5375 17.0012 24.4543 16.9386 24.3611 16.8946C24.2679 16.8507 24.1666 16.8265 24.0636 16.8234C23.9606 16.8204 23.8581 16.8386 23.7625 16.8769C23.6668 16.9153 23.5801 16.9729 23.5077 17.0462L22.524 17.9037C22.285 18.1121 22.1071 18.3815 22.0094 18.6832C21.9116 18.9848 21.8976 19.3073 21.969 19.6162ZM21.9365 12L20.5902 11.8837C20.2725 11.8571 19.9681 11.7441 19.7099 11.5571C19.4518 11.3701 19.2496 11.1161 19.1252 10.8225L16.7502 5.15V23.25C16.8027 23.275 16.854 23.3012 16.904 23.3312L18.3902 24.2337C18.4744 24.2849 18.5477 24.3521 18.606 24.4316C18.6642 24.511 18.7062 24.6012 18.7296 24.6969C18.753 24.7926 18.7573 24.892 18.7423 24.9893C18.7273 25.0867 18.6932 25.1802 18.6421 25.2644C18.5909 25.3486 18.5237 25.4219 18.4443 25.4801C18.3648 25.5384 18.2746 25.5804 18.1789 25.6038C18.0832 25.6271 17.9839 25.6315 17.8865 25.6164C17.7891 25.6014 17.6957 25.5674 17.6115 25.5163L16.1252 24.6125C16.0877 24.5893 16.0444 24.5769 16.0002 24.5769C15.956 24.5769 15.9128 24.5893 15.8752 24.6125L9.48645 28.4875C9.19203 28.6658 8.85156 28.7533 8.50765 28.7391C8.16373 28.7249 7.83164 28.6096 7.55294 28.4076C7.27423 28.2056 7.06128 27.9259 6.94073 27.6035C6.82018 27.2811 6.79739 26.9303 6.8752 26.595L8.5652 19.2787C8.57551 19.2337 8.57352 19.1868 8.55945 19.1428C8.54537 19.0988 8.51973 19.0594 8.4852 19.0287L2.85145 14.1075C2.59003 13.8808 2.4017 13.5816 2.31026 13.2479C2.21881 12.9142 2.22836 12.5608 2.3377 12.2325C2.44094 11.9047 2.6399 11.6152 2.90899 11.4013C3.17809 11.1875 3.50501 11.059 3.8477 11.0325L11.2802 10.39C11.3251 10.3856 11.3681 10.3691 11.4044 10.3422C11.4407 10.3154 11.4691 10.2792 11.4865 10.2375L14.3902 3.3175C14.5247 3.00182 14.749 2.73264 15.0353 2.54343C15.3215 2.35423 15.6571 2.25336 16.0002 2.25336C16.3433 2.25336 16.6789 2.35423 16.9651 2.54343C17.2514 2.73264 17.4757 3.00182 17.6102 3.3175L20.514 10.2375C20.5313 10.2792 20.5597 10.3154 20.596 10.3422C20.6323 10.3691 20.6753 10.3856 20.7202 10.39L22.0652 10.5063C22.2641 10.5228 22.4483 10.6177 22.5772 10.7701C22.7062 10.9225 22.7693 11.1198 22.7527 11.3188C22.7361 11.5177 22.6412 11.7018 22.4888 11.8308C22.3365 11.9597 22.1391 12.0228 21.9402 12.0063L21.9365 12ZM15.0965 23.325C15.1465 23.295 15.1977 23.2687 15.2502 23.2437V5.15L12.8752 10.8225C12.752 11.1163 12.5508 11.3709 12.2936 11.5588C12.0363 11.7467 11.7326 11.8608 11.4152 11.8888L3.98145 12.5312C3.93234 12.5338 3.88531 12.5519 3.84713 12.5829C3.80895 12.6139 3.78158 12.6562 3.76895 12.7037C3.75208 12.7515 3.7501 12.8032 3.76327 12.8521C3.77644 12.901 3.80414 12.9447 3.8427 12.9775L9.48145 17.8962C9.72171 18.1053 9.90037 18.376 9.99817 18.6791C10.096 18.9822 10.1092 19.3062 10.0365 19.6162L8.3427 26.9325C8.32896 26.9815 8.33099 27.0336 8.34848 27.0814C8.36598 27.1291 8.39807 27.1702 8.4402 27.1987C8.47779 27.2288 8.524 27.2462 8.57211 27.2482C8.62022 27.2502 8.66772 27.2368 8.7077 27.21L15.0965 23.325ZM24.7115 24.825C24.6909 24.7274 24.6511 24.6349 24.5944 24.5529C24.5376 24.4709 24.4651 24.4011 24.3811 24.3474C24.297 24.2938 24.2031 24.2574 24.1049 24.2405C24.0066 24.2236 23.9059 24.2264 23.8088 24.2488C23.7116 24.2713 23.6199 24.3129 23.539 24.3712C23.4581 24.4295 23.3897 24.5033 23.3377 24.5884C23.2857 24.6735 23.2511 24.7681 23.2361 24.8666C23.2211 24.9652 23.2259 25.0658 23.2502 25.1625L23.659 26.9275C23.6714 26.9767 23.6687 27.0285 23.6511 27.076C23.6334 27.1236 23.6017 27.1646 23.5602 27.1938C23.5226 27.2238 23.4764 27.2412 23.4283 27.2432C23.3802 27.2452 23.3327 27.2318 23.2927 27.205L21.889 26.3525C21.8048 26.2979 21.7105 26.2607 21.6117 26.2432C21.5129 26.2257 21.4116 26.2282 21.3137 26.2505C21.2159 26.2728 21.1235 26.3146 21.0421 26.3733C20.9607 26.432 20.8919 26.5064 20.8398 26.5921C20.7877 26.6779 20.7533 26.7732 20.7387 26.8725C20.7241 26.9718 20.7296 27.073 20.7548 27.1701C20.78 27.2672 20.8244 27.3583 20.8855 27.438C20.9465 27.5176 21.023 27.5842 21.1102 27.6338L22.514 28.4862C22.8083 28.6644 23.1486 28.7519 23.4923 28.7377C23.8361 28.7235 24.168 28.6083 24.4467 28.4065C24.7253 28.2047 24.9383 27.9252 25.059 27.603C25.1797 27.2808 25.2027 26.9302 25.1252 26.595L24.7115 24.825Z" fill="#112D1F"/>
</svg>
