<svg width="32" height="32" viewBox="0 0 32 32" fill="none" xmlns="http://www.w3.org/2000/svg">
<path d="M24.8635 16L28.651 9.375C28.7169 9.26086 28.7516 9.13137 28.7515 8.99957C28.7514 8.86777 28.7166 8.73832 28.6506 8.62425C28.5846 8.51018 28.4896 8.41553 28.3754 8.34983C28.2611 8.28413 28.1316 8.2497 27.9998 8.25H20.436L16.651 1.625C16.5854 1.51017 16.4907 1.41472 16.3763 1.34834C16.2619 1.28195 16.132 1.24699 15.9998 1.24699C15.8675 1.24699 15.7376 1.28195 15.6233 1.34834C15.5089 1.41472 15.4141 1.51017 15.3485 1.625L11.5623 8.25H3.99978C3.86798 8.2497 3.73843 8.28413 3.62417 8.34983C3.50992 8.41553 3.41499 8.51018 3.34896 8.62425C3.28293 8.73832 3.24812 8.86777 3.24805 8.99957C3.24797 9.13137 3.28263 9.26086 3.34853 9.375L7.13353 16L3.34853 22.625C3.28263 22.7391 3.24797 22.8686 3.24805 23.0004C3.24812 23.1322 3.28293 23.2617 3.34896 23.3758C3.41499 23.4898 3.50992 23.5845 3.62417 23.6502C3.73843 23.7159 3.86798 23.7503 3.99978 23.75H11.5623L15.3485 30.375C15.4141 30.4898 15.5089 30.5853 15.6233 30.6517C15.7376 30.718 15.8675 30.753 15.9998 30.753C16.132 30.753 16.2619 30.718 16.3763 30.6517C16.4907 30.5853 16.5854 30.4898 16.651 30.375L20.436 23.75H27.9998C28.1316 23.7503 28.2611 23.7159 28.3754 23.6502C28.4896 23.5845 28.5846 23.4898 28.6506 23.3758C28.7166 23.2617 28.7514 23.1322 28.7515 23.0004C28.7516 22.8686 28.7169 22.7391 28.651 22.625L24.8635 16ZM26.7073 9.75L23.9998 14.4888L21.2923 9.75H26.7073ZM23.136 16L19.566 22.25H12.4323L8.86228 16L12.4323 9.75H19.566L23.136 16ZM15.9998 3.51125L18.7085 8.25H13.2898L15.9998 3.51125ZM5.29228 9.75H10.7048L7.99978 14.4888L5.29228 9.75ZM5.29228 22.24L7.99978 17.5112L10.7048 22.25L5.29228 22.24ZM15.9998 28.4888L13.2898 23.75H18.7085L15.9998 28.4888ZM21.2923 22.25L23.9998 17.5112L26.7073 22.25H21.2923Z" fill="#112D1F"/>
</svg>
