<svg width="32" height="32" viewBox="0 0 32 32" fill="none" xmlns="http://www.w3.org/2000/svg">
<path d="M19.3412 25.1325C17.6571 24.2743 16.2431 22.967 15.2555 21.3553C14.268 19.7436 13.7453 17.8902 13.7453 16C13.7453 14.1098 14.268 12.2564 15.2555 10.6447C16.2431 9.03299 17.6571 7.72575 19.3412 6.8675C19.4644 6.80468 19.5678 6.70904 19.6401 6.59113C19.7123 6.47322 19.7505 6.33764 19.7505 6.19938C19.7505 6.06111 19.7123 5.92553 19.6401 5.80762C19.5678 5.68972 19.4644 5.59407 19.3412 5.53125C17.6887 4.68364 15.8572 4.24429 14 4.25C10.8837 4.25 7.89505 5.48794 5.6915 7.6915C3.48794 9.89505 2.25 12.8837 2.25 16C2.25 19.1163 3.48794 22.105 5.6915 24.3085C7.89505 26.5121 10.8837 27.75 14 27.75C15.8572 27.7557 17.6887 27.3164 19.3412 26.4688C19.4644 26.4059 19.5678 26.3103 19.6401 26.1924C19.7123 26.0745 19.7505 25.9389 19.7505 25.8006C19.7505 25.6624 19.7123 25.5268 19.6401 25.4089C19.5678 25.291 19.4644 25.1953 19.3412 25.1325ZM14 26.25C12.5113 26.2481 11.0409 25.9219 9.69108 25.2941C8.34122 24.6664 7.14431 23.7522 6.18357 22.615C5.22283 21.4778 4.52132 20.145 4.12783 18.7093C3.73434 17.2736 3.65831 15.7693 3.90503 14.3013C4.15176 12.8332 4.71531 11.4364 5.55649 10.2082C6.39768 8.97995 7.49631 7.94968 8.77599 7.18904C10.0557 6.42839 11.4857 5.95561 12.9666 5.80359C14.4475 5.65157 15.9437 5.82396 17.3512 6.30875C15.7771 7.38796 14.4895 8.83439 13.5998 10.523C12.7101 12.2115 12.2452 14.0914 12.2452 16C12.2452 17.9086 12.7101 19.7885 13.5998 21.477C14.4895 23.1656 15.7771 24.612 17.3512 25.6913C16.2734 26.064 15.1405 26.2529 14 26.25ZM31.2975 15.3113L27.8463 13.8225L27.5462 9.9475C27.5348 9.7984 27.4791 9.65612 27.3862 9.53894C27.2932 9.42176 27.1674 9.33503 27.0249 9.28988C26.8823 9.24474 26.7295 9.24324 26.5861 9.28558C26.4427 9.32792 26.3152 9.41217 26.22 9.5275L23.7962 12.4588L20.18 11.5638C20.0367 11.5283 19.886 11.536 19.747 11.5858C19.608 11.6355 19.4868 11.7253 19.3986 11.8437C19.3103 11.9621 19.259 12.1039 19.2511 12.2513C19.2431 12.3988 19.2788 12.5453 19.3538 12.6725L21.3125 16L19.3538 19.3275C19.2788 19.4547 19.2431 19.6012 19.2511 19.7487C19.259 19.8961 19.3103 20.0379 19.3986 20.1563C19.4868 20.2747 19.608 20.3645 19.747 20.4143C19.886 20.464 20.0367 20.4717 20.18 20.4363L23.7962 19.5413L26.22 22.4775C26.3152 22.5928 26.4427 22.6771 26.5861 22.7194C26.7295 22.7618 26.8823 22.7603 27.0249 22.7151C27.1674 22.67 27.2932 22.5832 27.3862 22.4661C27.4791 22.3489 27.5348 22.2066 27.5462 22.0575L27.8463 18.1825L31.2975 16.6938C31.4313 16.6354 31.5452 16.5393 31.6252 16.4172C31.7052 16.295 31.7478 16.1522 31.7478 16.0063C31.7478 15.8603 31.7052 15.7175 31.6252 15.5953C31.5452 15.4732 31.4313 15.3771 31.2975 15.3188V15.3113ZM26.8363 16.98C26.7115 17.0336 26.6037 17.12 26.5242 17.2301C26.4447 17.3402 26.3966 17.4697 26.385 17.605L26.1938 20.0838L24.6525 18.2163C24.5821 18.131 24.4937 18.0623 24.3936 18.0152C24.2936 17.9681 24.1843 17.9437 24.0737 17.9438C24.0131 17.9438 23.9526 17.9514 23.8937 17.9663L21.5513 18.545L22.83 16.375C22.8977 16.2598 22.9334 16.1286 22.9334 15.995C22.9334 15.8614 22.8977 15.7302 22.83 15.615L21.5513 13.4438L23.8937 14.0225C24.0309 14.0566 24.1749 14.0512 24.3092 14.0069C24.4434 13.9627 24.5624 13.8814 24.6525 13.7725L26.1938 11.905L26.385 14.3838C26.3966 14.519 26.4447 14.6486 26.5242 14.7587C26.6037 14.8687 26.7115 14.9552 26.8363 15.0088L29.1075 16L26.8363 16.98Z" fill="#112D1F"/>
</svg>
