<svg width="32" height="32" viewBox="0 0 32 32" fill="none" xmlns="http://www.w3.org/2000/svg">
<path d="M29.6627 12.2375C29.5595 11.9096 29.3605 11.6202 29.0914 11.4063C28.8223 11.1925 28.4954 11.064 28.1527 11.0375L20.7202 10.395C20.6753 10.3906 20.6323 10.3741 20.596 10.3472C20.5597 10.3204 20.5313 10.2842 20.514 10.2425L17.6102 3.3225C17.4757 3.00682 17.2514 2.73763 16.9651 2.54843C16.6789 2.35923 16.3433 2.25835 16.0002 2.25835C15.6571 2.25835 15.3215 2.35923 15.0353 2.54843C14.749 2.73763 14.5247 3.00682 14.3902 3.3225L11.4865 10.2425C11.4691 10.2842 11.4407 10.3204 11.4044 10.3472C11.3681 10.3741 11.3251 10.3906 11.2802 10.395L3.8477 11.0375C3.50501 11.064 3.17809 11.1925 2.90899 11.4063C2.6399 11.6202 2.44094 11.9096 2.3377 12.2375C2.22836 12.5658 2.21881 12.9192 2.31026 13.2529C2.4017 13.5866 2.59003 13.8858 2.85145 14.1125L8.4902 19.0312C8.52473 19.0619 8.55037 19.1013 8.56445 19.1453C8.57852 19.1893 8.58051 19.2362 8.5702 19.2812L6.8752 26.595C6.79619 26.9317 6.81873 27.2843 6.93998 27.6082C7.06123 27.9322 7.27575 28.2129 7.55645 28.415C7.8328 28.6189 8.16392 28.7353 8.50706 28.7491C8.8502 28.7629 9.18961 28.6735 9.48145 28.4925L15.8702 24.6175C15.9078 24.5943 15.951 24.5819 15.9952 24.5819C16.0394 24.5819 16.0827 24.5943 16.1202 24.6175L22.509 28.4925C22.8038 28.673 23.1456 28.7622 23.4911 28.7487C23.8365 28.7352 24.1703 28.6196 24.4502 28.4166C24.73 28.2136 24.9435 27.9323 25.0637 27.6081C25.1838 27.2839 25.2052 26.9314 25.1252 26.595L23.4352 19.2787C23.4249 19.2337 23.4269 19.1868 23.441 19.1428C23.455 19.0988 23.4807 19.0594 23.5152 19.0287L29.154 14.11C29.414 13.8829 29.6011 13.5839 29.6916 13.2507C29.7821 12.9175 29.7721 12.565 29.6627 12.2375ZM28.1627 12.9775L22.524 17.8962C22.2837 18.1053 22.105 18.376 22.0072 18.6791C21.9094 18.9821 21.8962 19.3062 21.969 19.6162L23.659 26.9325C23.6714 26.9817 23.6687 27.0335 23.6511 27.081C23.6334 27.1286 23.6017 27.1696 23.5602 27.1987C23.5226 27.2288 23.4764 27.2462 23.4283 27.2482C23.3802 27.2502 23.3327 27.2368 23.2927 27.21L16.904 23.335C16.6316 23.1694 16.3189 23.0819 16.0002 23.0819C15.6815 23.0819 15.3688 23.1694 15.0965 23.335L8.7077 27.21C8.66772 27.2368 8.62022 27.2502 8.57211 27.2482C8.524 27.2462 8.47779 27.2288 8.4402 27.1987C8.39868 27.1696 8.36699 27.1286 8.34935 27.081C8.33172 27.0335 8.32896 26.9817 8.34145 26.9325L10.0315 19.6162C10.1042 19.3062 10.091 18.9821 9.99318 18.6791C9.89537 18.376 9.71671 18.1053 9.47645 17.8962L3.8377 12.9775C3.79914 12.9447 3.77144 12.901 3.75827 12.8521C3.7451 12.8032 3.74708 12.7515 3.76395 12.7037C3.77658 12.6562 3.80395 12.6139 3.84213 12.5829C3.88031 12.5519 3.92734 12.5338 3.97645 12.5312L11.4102 11.8887C11.7284 11.8616 12.0332 11.7479 12.2914 11.56C12.5497 11.372 12.7516 11.117 12.8752 10.8225L15.779 3.9025C15.7991 3.85955 15.8311 3.82323 15.8712 3.7978C15.9113 3.77236 15.9577 3.75885 16.0052 3.75885C16.0527 3.75885 16.0991 3.77236 16.1392 3.7978C16.1793 3.82323 16.2113 3.85955 16.2315 3.9025L19.1252 10.8225C19.2484 11.1163 19.4496 11.3709 19.7069 11.5588C19.9641 11.7467 20.2678 11.8608 20.5852 11.8887L28.019 12.5312C28.0681 12.5338 28.1151 12.5519 28.1533 12.5829C28.1915 12.6139 28.2188 12.6562 28.2315 12.7037C28.2489 12.751 28.2517 12.8024 28.2394 12.8513C28.2271 12.9001 28.2004 12.9441 28.1627 12.9775Z" fill="#112D1F"/>
</svg>
