<svg width="32" height="32" viewBox="0 0 32 32" fill="none" xmlns="http://www.w3.org/2000/svg">
<path d="M21.6137 10.385C21.3174 8.61911 20.5406 6.96891 19.3685 5.61536C18.1963 4.2618 16.674 3.25718 14.9686 2.71165C13.2632 2.16612 11.4404 2.10075 9.70031 2.52272C7.96019 2.94469 6.36987 3.8377 5.10376 5.10382C3.83764 6.36993 2.94463 7.96025 2.52266 9.70038C2.10069 11.4405 2.16605 13.2632 2.71158 14.9686C3.25712 16.6741 4.26174 18.1963 5.61529 19.3685C6.96885 20.5407 8.61905 21.3175 10.3849 21.6137C10.6812 23.3796 11.458 25.0298 12.6301 26.3834C13.8023 27.7369 15.3246 28.7416 17.03 29.2871C18.7354 29.8326 20.5582 29.898 22.2983 29.476C24.0384 29.054 25.6287 28.161 26.8948 26.8949C28.161 25.6288 29.054 24.0385 29.4759 22.2984C29.8979 20.5582 29.8326 18.7355 29.287 17.0301C28.7415 15.3246 27.7369 13.8024 26.3833 12.6302C25.0298 11.458 23.3796 10.6812 21.6137 10.385ZM28.2499 20C28.2495 20.3722 28.2236 20.7439 28.1724 21.1125L21.4524 14.3912C21.6503 13.6096 21.7502 12.8063 21.7499 12C21.7499 11.9787 21.7499 11.9575 21.7499 11.9362C23.5935 12.3317 25.2453 13.3485 26.4286 14.8165C27.6119 16.2845 28.2549 18.1145 28.2499 20ZM18.3387 19.3987L25.2762 26.3362C24.5436 26.9461 23.7109 27.4245 22.8149 27.75L15.9649 20.8987C16.8245 20.5161 17.6241 20.0109 18.3387 19.3987ZM19.3987 18.3387C20.0109 17.6238 20.5162 16.8238 20.8987 15.9637L27.7499 22.815C27.4229 23.7113 26.9429 24.544 26.3312 25.2762L19.3987 18.3387ZM3.74993 12C3.74993 10.3683 4.23378 8.77324 5.1403 7.41653C6.04682 6.05983 7.3353 5.00241 8.84279 4.37798C10.3503 3.75356 12.0091 3.59018 13.6094 3.90851C15.2098 4.22684 16.6798 5.01257 17.8336 6.16636C18.9873 7.32014 19.7731 8.79015 20.0914 10.3905C20.4097 11.9908 20.2464 13.6496 19.6219 15.1571C18.9975 16.6646 17.9401 17.9531 16.5834 18.8596C15.2267 19.7661 13.6316 20.25 11.9999 20.25C9.8127 20.2473 7.71582 19.3773 6.16922 17.8307C4.62262 16.2841 3.75257 14.1872 3.74993 12ZM11.9362 21.75H11.9999C12.8063 21.7503 13.6095 21.6504 14.3912 21.4525L21.1124 28.1725C19.0548 28.4568 16.9658 27.953 15.264 26.7619C13.5623 25.5708 12.3736 23.7806 11.9362 21.75Z" fill="#112D1F"/>
</svg>
