<svg width="32" height="32" viewBox="0 0 32 32" fill="none" xmlns="http://www.w3.org/2000/svg">
<path d="M30 19.25H24.66C24.7195 18.836 24.7495 18.4182 24.75 18C24.75 15.6793 23.8281 13.4537 22.1872 11.8128C20.5462 10.1719 18.3206 9.24998 16 9.24998C13.6794 9.24998 11.4538 10.1719 9.81282 11.8128C8.17187 13.4537 7.25 15.6793 7.25 18C7.25047 18.4182 7.28054 18.836 7.34 19.25H2C1.80109 19.25 1.61032 19.329 1.46967 19.4696C1.32902 19.6103 1.25 19.8011 1.25 20C1.25 20.1989 1.32902 20.3897 1.46967 20.5303C1.61032 20.671 1.80109 20.75 2 20.75H30C30.1989 20.75 30.3897 20.671 30.5303 20.5303C30.671 20.3897 30.75 20.1989 30.75 20C30.75 19.8011 30.671 19.6103 30.5303 19.4696C30.3897 19.329 30.1989 19.25 30 19.25ZM8.75 18C8.74986 16.9949 8.95869 16.0008 9.36323 15.0808C9.76777 14.1607 10.3592 13.3349 11.0999 12.6556C11.8407 11.9763 12.7146 11.4584 13.6661 11.1349C14.6177 10.8113 15.6261 10.6892 16.6274 10.7762C17.6286 10.8631 18.6009 11.1573 19.4824 11.6401C20.3639 12.1228 21.1355 12.7836 21.748 13.5804C22.3605 14.3773 22.8007 15.2928 23.0405 16.2688C23.2804 17.2448 23.3147 18.26 23.1413 19.25H8.85875C8.78683 18.8372 8.75045 18.419 8.75 18ZM26.75 25C26.75 25.1989 26.671 25.3897 26.5303 25.5303C26.3897 25.671 26.1989 25.75 26 25.75H6C5.80109 25.75 5.61032 25.671 5.46967 25.5303C5.32902 25.3897 5.25 25.1989 5.25 25C5.25 24.8011 5.32902 24.6103 5.46967 24.4696C5.61032 24.329 5.80109 24.25 6 24.25H26C26.1989 24.25 26.3897 24.329 26.5303 24.4696C26.671 24.6103 26.75 24.8011 26.75 25ZM9.32875 5.33623C9.23974 5.1582 9.22509 4.95211 9.28803 4.76328C9.35097 4.57445 9.48635 4.41837 9.66438 4.32935C9.8424 4.24034 10.0485 4.22569 10.2373 4.28863C10.4261 4.35158 10.5822 4.48695 10.6713 4.66498L11.6713 6.66498C11.7601 6.843 11.7746 7.04903 11.7115 7.23774C11.6485 7.42645 11.513 7.58238 11.335 7.67123C11.157 7.76008 10.9509 7.77456 10.7622 7.7115C10.5735 7.64845 10.4176 7.51301 10.3287 7.33498L9.32875 5.33623ZM2.32875 11.665C2.37272 11.5768 2.43364 11.4982 2.50801 11.4335C2.58239 11.3689 2.66876 11.3196 2.76221 11.2884C2.85565 11.2571 2.95434 11.2446 3.05262 11.2516C3.1509 11.2585 3.24686 11.2847 3.335 11.3287L5.335 12.3287C5.51303 12.4176 5.64847 12.5735 5.71153 12.7622C5.77459 12.9509 5.7601 13.157 5.67125 13.335C5.5824 13.513 5.42647 13.6484 5.23776 13.7115C5.04906 13.7746 4.84303 13.7601 4.665 13.6712L2.665 12.6712C2.57683 12.6273 2.49819 12.5663 2.43357 12.492C2.36895 12.4176 2.31962 12.3312 2.28839 12.2378C2.25717 12.1443 2.24466 12.0456 2.25158 11.9474C2.25851 11.8491 2.28473 11.7531 2.32875 11.665ZM26.3288 13.335C26.2847 13.2468 26.2585 13.1509 26.2516 13.0526C26.2447 12.9543 26.2572 12.8556 26.2884 12.7622C26.3196 12.6687 26.369 12.5824 26.4336 12.508C26.4982 12.4336 26.5768 12.3727 26.665 12.3287L28.665 11.3287C28.843 11.2399 29.0491 11.2254 29.2378 11.2885C29.4265 11.3515 29.5824 11.487 29.6712 11.665C29.7601 11.843 29.7746 12.049 29.7115 12.2377C29.6485 12.4265 29.513 12.5824 29.335 12.6712L27.335 13.6712C27.2469 13.7152 27.1509 13.7415 27.0526 13.7484C26.9543 13.7553 26.8557 13.7428 26.7622 13.7116C26.6688 13.6804 26.5824 13.631 26.508 13.5664C26.4336 13.5018 26.3727 13.4231 26.3288 13.335ZM20.3288 6.66498L21.3288 4.66498C21.4178 4.48695 21.5739 4.35158 21.7627 4.28863C21.9515 4.22569 22.1576 4.24034 22.3356 4.32935C22.5137 4.41837 22.649 4.57445 22.712 4.76328C22.7749 4.95211 22.7603 5.1582 22.6712 5.33623L21.6712 7.33623C21.5824 7.51425 21.4265 7.6497 21.2378 7.71275C21.0491 7.77581 20.843 7.76133 20.665 7.67248C20.487 7.58363 20.3515 7.4277 20.2885 7.23899C20.2254 7.05028 20.2399 6.84426 20.3288 6.66623V6.66498Z" fill="#112D1F"/>
</svg>
