<svg width="32" height="32" viewBox="0 0 32 32" fill="none" xmlns="http://www.w3.org/2000/svg">
<path d="M9.75005 22.5C9.75005 22.7472 9.67674 22.9889 9.53939 23.1944C9.40204 23.4 9.20681 23.5602 8.9784 23.6548C8.75 23.7494 8.49866 23.7742 8.25619 23.726C8.01371 23.6777 7.79098 23.5587 7.61617 23.3839C7.44135 23.209 7.3223 22.9863 7.27407 22.7438C7.22584 22.5014 7.25059 22.25 7.3452 22.0216C7.43981 21.7932 7.60003 21.598 7.80559 21.4606C8.01115 21.3233 8.25282 21.25 8.50005 21.25C8.83157 21.25 9.14951 21.3817 9.38393 21.6161C9.61835 21.8505 9.75005 22.1685 9.75005 22.5ZM28.75 19.5237V26C28.75 26.4641 28.5657 26.9092 28.2375 27.2374C27.9093 27.5656 27.4642 27.75 27 27.75H8.50005C8.18247 27.7502 7.86546 27.723 7.55255 27.6687C6.18765 27.4194 4.97694 26.64 4.18502 25.5007C3.3931 24.3614 3.08437 22.9549 3.3263 21.5887L6.4513 3.69747C6.49023 3.47077 6.57366 3.25402 6.69678 3.05972C6.8199 2.86542 6.98027 2.69742 7.16864 2.5654C7.35701 2.43339 7.56965 2.33998 7.79431 2.29057C8.01896 2.24115 8.25117 2.2367 8.47755 2.27747L15.3113 3.49247C15.7669 3.57471 16.1713 3.83411 16.436 4.21388C16.7008 4.59364 16.8042 5.06283 16.7238 5.51872L15.1401 14.5737L24.015 11.355C24.4496 11.198 24.9286 11.2193 25.3475 11.4141C25.7664 11.6089 26.0913 11.9615 26.2513 12.395L28.6376 18.9225C28.7063 19.1158 28.7443 19.3186 28.75 19.5237ZM12.1163 23.1487L15.2501 5.25997C15.2618 5.19539 15.2477 5.12877 15.2107 5.07451C15.1738 5.02025 15.117 4.9827 15.0526 4.96997L8.21505 3.74997H8.17255C8.12449 3.75023 8.07772 3.76552 8.0388 3.79372C8.01184 3.81271 7.98891 3.83685 7.97132 3.86473C7.95373 3.89262 7.94183 3.92372 7.9363 3.95622L4.8113 21.8475C4.6377 22.8226 4.85691 23.8268 5.42108 24.6408C5.98525 25.4549 6.84856 26.0127 7.82255 26.1925C8.29858 26.2775 8.78674 26.2673 9.25878 26.1623C9.73083 26.0574 10.1774 25.8599 10.5726 25.5812C10.9777 25.2986 11.3226 24.9382 11.5872 24.521C11.8518 24.1038 12.0308 23.6382 12.1138 23.1512L12.1163 23.1487ZM13.1476 24.795L27.0888 19.75C27.1495 19.7278 27.1992 19.683 27.2276 19.625C27.2411 19.5966 27.2487 19.5659 27.25 19.5345C27.2513 19.5031 27.2462 19.4718 27.2351 19.4425L24.8488 12.9162C24.8255 12.8555 24.7794 12.8062 24.7204 12.7789C24.6613 12.7516 24.5939 12.7484 24.5325 12.77L14.8413 16.2812L13.5913 23.415C13.5083 23.8942 13.3589 24.3595 13.1476 24.7975V24.795ZM27.25 21.2837L13.5438 26.25H27C27.0664 26.25 27.1299 26.2236 27.1768 26.1768C27.2237 26.1299 27.25 26.0663 27.25 26V21.2837Z" fill="#112D1F"/>
</svg>
