<svg width="32" height="32" viewBox="0 0 32 32" fill="none" xmlns="http://www.w3.org/2000/svg">
<path d="M27.0001 4.25H19.0001C18.8852 4.24989 18.7717 4.27621 18.6685 4.32693C18.5654 4.37765 18.4753 4.45141 18.4051 4.5425L10.2314 15.1675L8.82513 13.7625C8.66262 13.6 8.4697 13.4711 8.25736 13.3831C8.04503 13.2951 7.81745 13.2499 7.58763 13.2499C7.3578 13.2499 7.13022 13.2951 6.91789 13.3831C6.70556 13.4711 6.51263 13.6 6.35013 13.7625L4.76263 15.35C4.59992 15.5125 4.47084 15.7055 4.38277 15.918C4.2947 16.1304 4.24937 16.3581 4.24937 16.5881C4.24937 16.8181 4.2947 17.0458 4.38277 17.2583C4.47084 17.4707 4.59992 17.6637 4.76263 17.8263L7.43888 20.5L3.76263 24.1775C3.6001 24.34 3.47118 24.5329 3.38323 24.7453C3.29527 24.9576 3.25 25.1852 3.25 25.415C3.25 25.6448 3.29527 25.8724 3.38323 26.0847C3.47118 26.2971 3.6001 26.49 3.76263 26.6525L5.34888 28.2388C5.51138 28.4013 5.70431 28.5302 5.91664 28.6181C6.12897 28.7061 6.35655 28.7514 6.58638 28.7514C6.8162 28.7514 7.04378 28.7061 7.25611 28.6181C7.46844 28.5302 7.66137 28.4013 7.82388 28.2388L11.5001 24.5625L14.1751 27.2375C14.3376 27.4 14.5306 27.5289 14.7429 27.6169C14.9552 27.7049 15.1828 27.7501 15.4126 27.7501C15.6425 27.7501 15.87 27.7049 16.0824 27.6169C16.2947 27.5289 16.4876 27.4 16.6501 27.2375L18.2376 25.6513C18.4003 25.4887 18.5294 25.2957 18.6175 25.0833C18.7055 24.8708 18.7509 24.6431 18.7509 24.4131C18.7509 24.1831 18.7055 23.9554 18.6175 23.743C18.5294 23.5305 18.4003 23.3375 18.2376 23.175L16.8314 21.7687L27.4564 13.595C27.5477 13.525 27.6217 13.4349 27.6726 13.3318C27.7236 13.2286 27.7501 13.1151 27.7501 13V5C27.7501 4.80109 27.6711 4.61032 27.5305 4.46967C27.3898 4.32902 27.199 4.25 27.0001 4.25ZM6.76263 27.1775C6.73941 27.2007 6.71184 27.2192 6.68149 27.2318C6.65114 27.2443 6.61861 27.2508 6.58575 27.2508C6.5529 27.2508 6.52037 27.2443 6.49002 27.2318C6.45967 27.2192 6.43209 27.2007 6.40888 27.1775L4.82388 25.5912C4.77731 25.5444 4.75118 25.481 4.75118 25.415C4.75118 25.349 4.77731 25.2856 4.82388 25.2388L8.50013 21.5625L10.4389 23.5L6.76263 27.1775ZM17.1764 24.59L15.5901 26.1775C15.5669 26.2009 15.5392 26.2195 15.5088 26.2322C15.4783 26.2449 15.4456 26.2514 15.4126 26.2514C15.3796 26.2514 15.3469 26.2449 15.3165 26.2322C15.286 26.2195 15.2584 26.2009 15.2351 26.1775L5.82388 16.765C5.80063 16.7418 5.78219 16.7142 5.76961 16.6839C5.75703 16.6535 5.75055 16.621 5.75055 16.5881C5.75055 16.5553 5.75703 16.5227 5.76961 16.4924C5.78219 16.462 5.80063 16.4345 5.82388 16.4112L7.41013 14.8237C7.43337 14.8003 7.46102 14.7817 7.49148 14.769C7.52195 14.7563 7.55462 14.7498 7.58763 14.7498C7.62063 14.7498 7.65331 14.7563 7.68377 14.769C7.71424 14.7817 7.74189 14.8003 7.76513 14.8237L17.1764 24.2362C17.1996 24.2595 17.2181 24.287 17.2306 24.3174C17.2432 24.3477 17.2497 24.3803 17.2497 24.4131C17.2497 24.446 17.2432 24.4785 17.2306 24.5089C17.2181 24.5392 17.1996 24.5668 17.1764 24.59ZM26.2501 12.6313L15.7614 20.7L14.0614 19L20.5301 12.53C20.6626 12.3878 20.7347 12.1998 20.7313 12.0055C20.7279 11.8112 20.6492 11.6258 20.5117 11.4884C20.3743 11.351 20.1889 11.2723 19.9946 11.2688C19.8003 11.2654 19.6123 11.3375 19.4701 11.47L13.0001 17.9387L11.3001 16.2388L19.3751 5.75H26.2501V12.6313Z" fill="#112D1F"/>
</svg>
