<svg width="32" height="32" viewBox="0 0 32 32" fill="none" xmlns="http://www.w3.org/2000/svg">
<path d="M29.5302 8.47L23.5302 2.47C23.388 2.33752 23.1999 2.2654 23.0056 2.26882C22.8113 2.27225 22.6259 2.35096 22.4885 2.48838C22.3511 2.62579 22.2724 2.81118 22.269 3.00548C22.2656 3.19978 22.3377 3.38782 22.4702 3.53L24.9389 6L21.0002 9.93875L16.5302 5.47C16.4615 5.39631 16.3787 5.33721 16.2867 5.29622C16.1947 5.25523 16.0954 5.23318 15.9947 5.23141C15.894 5.22963 15.7939 5.24816 15.7006 5.28588C15.6072 5.3236 15.5223 5.37974 15.4511 5.45096C15.3799 5.52218 15.3238 5.60701 15.286 5.7004C15.2483 5.79379 15.2298 5.89382 15.2316 5.99452C15.2333 6.09522 15.2554 6.19454 15.2964 6.28654C15.3374 6.37854 15.3965 6.46134 15.4702 6.53L16.4389 7.5L5.76265 18.1762C5.59982 18.3385 5.47071 18.5314 5.38275 18.7438C5.29479 18.9562 5.24973 19.1839 5.25015 19.4137V25.6887L2.47015 28.47C2.39647 28.5387 2.33736 28.6215 2.29637 28.7135C2.25538 28.8055 2.23334 28.9048 2.23156 29.0055C2.22979 29.1062 2.24831 29.2062 2.28603 29.2996C2.32375 29.393 2.3799 29.4778 2.45112 29.549C2.52233 29.6203 2.60717 29.6764 2.70056 29.7141C2.79394 29.7518 2.89397 29.7704 2.99468 29.7686C3.09538 29.7668 3.19469 29.7448 3.28669 29.7038C3.37869 29.6628 3.46149 29.6037 3.53015 29.53L6.3114 26.75H12.5864C12.8163 26.7504 13.044 26.7054 13.2564 26.6174C13.4688 26.5294 13.6616 26.4003 13.8239 26.2375L24.5002 15.5612L25.4702 16.53C25.6123 16.6625 25.8004 16.7346 25.9947 16.7312C26.189 16.7277 26.3744 16.649 26.5118 16.5116C26.6492 16.3742 26.7279 16.1888 26.7313 15.9945C26.7348 15.8002 26.6626 15.6122 26.5302 15.47L22.0614 11L26.0002 7.06125L28.4702 9.53C28.6123 9.66248 28.8004 9.7346 28.9947 9.73117C29.189 9.72775 29.3744 9.64903 29.5118 9.51162C29.6492 9.37421 29.7279 9.18882 29.7313 8.99452C29.7348 8.80022 29.6626 8.61217 29.5302 8.47ZM12.7627 25.1763C12.716 25.2232 12.6526 25.2497 12.5864 25.25H6.75015V19.4137C6.75043 19.3476 6.77696 19.2842 6.8239 19.2375L9.25015 16.8112L11.9702 19.53C12.0388 19.6037 12.1216 19.6628 12.2136 19.7038C12.3056 19.7448 12.4049 19.7668 12.5056 19.7686C12.6063 19.7704 12.7064 19.7518 12.7998 19.7141C12.8931 19.6764 12.978 19.6203 13.0492 19.549C13.1204 19.4778 13.1766 19.393 13.2143 19.2996C13.252 19.2062 13.2705 19.1062 13.2687 19.0055C13.267 18.9048 13.2449 18.8055 13.2039 18.7135C13.1629 18.6215 13.1038 18.5387 13.0302 18.47L10.3114 15.75L12.2502 13.8112L14.9702 16.53C15.1123 16.6625 15.3004 16.7346 15.4947 16.7312C15.689 16.7277 15.8744 16.649 16.0118 16.5116C16.1492 16.3742 16.2279 16.1888 16.2313 15.9945C16.2348 15.8002 16.1626 15.6122 16.0302 15.47L13.3114 12.75L17.5002 8.56125L23.4389 14.5L12.7627 25.1763Z" fill="#112D1F"/>
</svg>
