<svg width="32" height="32" viewBox="0 0 32 32" fill="none" xmlns="http://www.w3.org/2000/svg">
<path d="M31.7187 20.785L28.9325 11.5C28.8264 11.138 28.6056 10.8203 28.3032 10.5949C28.0009 10.3694 27.6334 10.2483 27.2562 10.25H26C25.801 10.25 25.6103 10.329 25.4696 10.4697C25.329 10.6103 25.25 10.8011 25.25 11C25.25 11.1989 25.329 11.3897 25.4696 11.5303C25.6103 11.671 25.801 11.75 26 11.75H27.2562C27.3106 11.749 27.3639 11.7658 27.4079 11.7979C27.4519 11.8299 27.4842 11.8754 27.5 11.9275L30 20.25H25.5575L22.9325 11.5C22.8264 11.138 22.6056 10.8203 22.3032 10.5949C22.0009 10.3694 21.6334 10.2483 21.2562 10.25H20C19.801 10.25 19.6103 10.329 19.4696 10.4697C19.329 10.6103 19.25 10.8011 19.25 11C19.25 11.1989 19.329 11.3897 19.4696 11.5303C19.6103 11.671 19.801 11.75 20 11.75H21.2562C21.3106 11.749 21.3639 11.7658 21.4079 11.7979C21.4519 11.8299 21.4842 11.8754 21.5 11.9275L24 20.25H19.5575L16.9325 11.5C16.8264 11.138 16.6056 10.8203 16.3032 10.5949C16.0009 10.3694 15.6334 10.2483 15.2562 10.25H4.74996C4.37172 10.247 4.00281 10.3674 3.69919 10.593C3.39556 10.8186 3.17377 11.137 3.06746 11.5L0.28496 20.775V20.7812V20.8C0.279625 20.8159 0.275447 20.8322 0.27246 20.8487C0.27198 20.8508 0.27198 20.8529 0.27246 20.855C0.25117 20.963 0.253918 21.0744 0.280508 21.1812C0.307098 21.288 0.356878 21.3877 0.426315 21.4731C0.495752 21.5585 0.583142 21.6276 0.682282 21.6755C0.781423 21.7233 0.889882 21.7488 0.99996 21.75H31C31.1169 21.75 31.2321 21.7227 31.3366 21.6703C31.4411 21.6179 31.5319 21.5417 31.6017 21.448C31.6715 21.3543 31.7185 21.2455 31.7388 21.1304C31.7591 21.0153 31.7522 20.897 31.7187 20.785ZM4.49996 11.9275C4.51601 11.8743 4.54929 11.8281 4.59455 11.7959C4.63982 11.7638 4.6945 11.7476 4.74996 11.75H15.2625C15.316 11.7505 15.3679 11.7681 15.4107 11.8002C15.4534 11.8324 15.4847 11.8775 15.5 11.9287L18 20.25H2.00746L4.49996 11.9275Z" fill="#112D1F"/>
</svg>
