<svg width="32" height="32" viewBox="0 0 32 32" fill="none" xmlns="http://www.w3.org/2000/svg">
<path d="M27.5077 10.5C28.8735 13.3538 29.1302 16.6134 28.2279 19.6458C27.3256 22.6782 25.3287 25.2672 22.6249 26.9101C19.9211 28.553 16.7032 29.1326 13.5961 28.5364C10.4889 27.9402 7.7142 26.2107 5.81052 23.6837C3.90684 21.1567 3.01006 18.0124 3.29428 14.8614C3.57851 11.7104 5.02345 8.77736 7.34859 6.63178C9.67374 4.48621 12.7132 3.28115 15.8769 3.25057C19.0405 3.21998 22.1027 4.36604 24.4689 6.46626L27.4689 3.46626C27.61 3.32758 27.8002 3.25028 27.9981 3.2512C28.1959 3.25212 28.3854 3.33118 28.5252 3.47117C28.6651 3.61116 28.7439 3.80073 28.7446 3.99858C28.7453 4.19644 28.6678 4.38655 28.5289 4.52751L16.5289 16.5275C16.4594 16.598 16.3767 16.6541 16.2854 16.6925C16.1942 16.7309 16.0962 16.7508 15.9972 16.7512C15.8982 16.7515 15.8001 16.7323 15.7086 16.6945C15.6171 16.6568 15.5339 16.6013 15.464 16.5312C15.394 16.4612 15.3386 16.378 15.3009 16.2864C15.2633 16.1948 15.2442 16.0967 15.2446 15.9977C15.2451 15.8987 15.2651 15.8008 15.3036 15.7096C15.3421 15.6183 15.3983 15.5357 15.4689 15.4663L19.1427 11.7913C18.1855 11.0755 17.0127 10.7078 15.8183 10.7489C14.6238 10.79 13.4791 11.2374 12.5733 12.0172C11.6676 12.797 11.055 13.8625 10.8369 15.0376C10.6188 16.2128 10.8081 17.4271 11.3737 18.48C11.9392 19.533 12.8471 20.3614 13.9473 20.8284C15.0475 21.2954 16.274 21.3731 17.4243 21.0485C18.5746 20.724 19.5797 20.0167 20.2735 19.0435C20.9674 18.0703 21.3084 16.8895 21.2402 15.6963C21.2289 15.4973 21.2971 15.3021 21.4298 15.1535C21.5625 15.0049 21.7488 14.915 21.9477 14.9038C22.1466 14.8925 22.3418 14.9607 22.4904 15.0934C22.6391 15.2261 22.7289 15.4123 22.7402 15.6113C22.8302 17.1548 22.3875 18.6824 21.4862 19.9387C20.585 21.1951 19.2797 22.1039 17.7888 22.5132C16.2978 22.9226 14.7114 22.8077 13.295 22.1877C11.8786 21.5678 10.718 20.4803 10.0072 19.1072C9.29637 17.7341 9.07851 16.1587 9.39002 14.6442C9.70152 13.1298 10.5235 11.7682 11.7185 10.7871C12.9135 9.80598 14.4092 9.2649 15.9553 9.25428C17.5014 9.24367 19.0043 9.76417 20.2127 10.7288L23.4052 7.53501C21.3076 5.70595 18.606 4.72022 15.8233 4.76865C13.0407 4.81707 10.375 5.89621 8.34236 7.79715C6.30968 9.69808 5.0546 12.2856 4.82011 15.0587C4.58561 17.8319 5.38838 20.5934 7.07299 22.8087C8.7576 25.0239 11.2042 26.5354 13.9392 27.0504C16.6742 27.5653 19.503 27.0473 21.8779 25.5964C24.2528 24.1455 26.005 21.8651 26.7952 19.1966C27.5853 16.5281 27.3573 13.6613 26.1552 11.1513C26.1124 11.0625 26.0875 10.9661 26.082 10.8677C26.0765 10.7693 26.0904 10.6707 26.123 10.5777C26.1555 10.4847 26.2061 10.399 26.2718 10.3255C26.3375 10.252 26.417 10.1921 26.5058 10.1494C26.5946 10.1066 26.691 10.0818 26.7894 10.0762C26.8878 10.0707 26.9863 10.0846 27.0793 10.1172C27.1724 10.1498 27.2581 10.2003 27.3316 10.266C27.4051 10.3317 27.4649 10.4112 27.5077 10.5Z" fill="#112D1F"/>
</svg>
