<svg width="32" height="32" viewBox="0 0 32 32" fill="none" xmlns="http://www.w3.org/2000/svg">
<path d="M29.4462 3.46246C29.3256 3.3583 29.1788 3.28904 29.0218 3.26217C28.8647 3.23529 28.7033 3.25182 28.5549 3.30996L3.22243 13.2237C2.91431 13.3443 2.65362 13.5616 2.47951 13.8429C2.3054 14.1243 2.22727 14.4545 2.25686 14.7841C2.28645 15.1136 2.42215 15.4247 2.64359 15.6705C2.86503 15.9163 3.16026 16.0837 3.48493 16.1475L10.2499 17.4762V25C10.2501 25.3488 10.3544 25.6896 10.5496 25.9786C10.7448 26.2677 11.022 26.4918 11.3455 26.6223C11.669 26.7527 12.024 26.7835 12.3652 26.7107C12.7063 26.6379 13.0179 26.4649 13.2599 26.2137L16.5899 22.76L21.7874 27.3162C22.1047 27.597 22.5137 27.7521 22.9374 27.7525C23.1225 27.752 23.3063 27.7229 23.4824 27.6662C23.7712 27.5748 24.0309 27.4094 24.2358 27.1863C24.4406 26.9633 24.5834 26.6904 24.6499 26.395L29.7274 4.32121C29.7631 4.16603 29.7558 4.00405 29.7062 3.85272C29.6567 3.7014 29.5668 3.56646 29.4462 3.46246ZM3.75618 14.6712C3.75139 14.6583 3.75139 14.6441 3.75618 14.6312C3.76183 14.6269 3.76816 14.6235 3.77493 14.6212L23.7387 6.80621L10.8262 16.0562L3.77493 14.6762L3.75618 14.6712ZM12.1799 25.1712C12.1455 25.207 12.1012 25.2316 12.0526 25.2421C12.0041 25.2526 11.9535 25.2484 11.9074 25.23C11.8613 25.2116 11.8217 25.1799 11.7936 25.139C11.7656 25.098 11.7504 25.0496 11.7499 25V18.5137L15.4612 21.7637L12.1799 25.1712ZM23.1887 26.0562C23.1795 26.0985 23.159 26.1375 23.1296 26.1692C23.1001 26.2008 23.0627 26.224 23.0212 26.2362C22.9789 26.2511 22.9333 26.2543 22.8893 26.2455C22.8453 26.2367 22.8045 26.2162 22.7712 26.1862L12.2049 16.9175L27.8749 5.68746L23.1887 26.0562Z" fill="#112D1F"/>
</svg>
