<svg width="32" height="32" viewBox="0 0 32 32" fill="none" xmlns="http://www.w3.org/2000/svg">
<path d="M27 8.25H17.81L22.53 3.53C22.6625 3.38783 22.7346 3.19978 22.7312 3.00548C22.7277 2.81118 22.649 2.62579 22.5116 2.48838C22.3742 2.35097 22.1888 2.27225 21.9945 2.26883C21.8002 2.2654 21.6122 2.33752 21.47 2.47L16 7.93875L10.53 2.47C10.4613 2.39631 10.3785 2.33721 10.2865 2.29622C10.1945 2.25523 10.0952 2.23319 9.99452 2.23141C9.89382 2.22963 9.79379 2.24816 9.7004 2.28588C9.60701 2.3236 9.52218 2.37974 9.45096 2.45096C9.37974 2.52218 9.3236 2.60702 9.28588 2.7004C9.24816 2.79379 9.22963 2.89382 9.23141 2.99452C9.23318 3.09523 9.25523 3.19454 9.29622 3.28654C9.33721 3.37854 9.39631 3.46134 9.47 3.53L14.19 8.25H5C4.53587 8.25 4.09075 8.43437 3.76256 8.76256C3.43437 9.09075 3.25 9.53587 3.25 10V25C3.25 25.4641 3.43437 25.9093 3.76256 26.2374C4.09075 26.5656 4.53587 26.75 5 26.75H27C27.4641 26.75 27.9092 26.5656 28.2374 26.2374C28.5656 25.9093 28.75 25.4641 28.75 25V10C28.75 9.53587 28.5656 9.09075 28.2374 8.76256C27.9092 8.43437 27.4641 8.25 27 8.25ZM27.25 25C27.25 25.0663 27.2237 25.1299 27.1768 25.1768C27.1299 25.2237 27.0663 25.25 27 25.25H5C4.9337 25.25 4.87011 25.2237 4.82322 25.1768C4.77634 25.1299 4.75 25.0663 4.75 25V10C4.75 9.9337 4.77634 9.87011 4.82322 9.82322C4.87011 9.77634 4.9337 9.75 5 9.75H27C27.0663 9.75 27.1299 9.77634 27.1768 9.82322C27.2237 9.87011 27.25 9.9337 27.25 10V25Z" fill="#112D1F"/>
</svg>
