<svg width="32" height="32" viewBox="0 0 32 32" fill="none" xmlns="http://www.w3.org/2000/svg">
<path d="M27 8.25H17.81L22.53 3.53C22.6625 3.38783 22.7346 3.19978 22.7312 3.00548C22.7277 2.81118 22.649 2.62579 22.5116 2.48838C22.3742 2.35097 22.1888 2.27225 21.9945 2.26883C21.8002 2.2654 21.6122 2.33752 21.47 2.47L16 7.93875L10.53 2.47C10.4613 2.39631 10.3785 2.33721 10.2865 2.29622C10.1945 2.25523 10.0952 2.23319 9.99452 2.23141C9.89382 2.22963 9.79379 2.24816 9.7004 2.28588C9.60701 2.3236 9.52218 2.37974 9.45096 2.45096C9.37974 2.52218 9.3236 2.60702 9.28588 2.7004C9.24816 2.79379 9.22963 2.89382 9.23141 2.99452C9.23318 3.09523 9.25523 3.19454 9.29622 3.28654C9.33721 3.37854 9.39631 3.46134 9.47 3.53L14.19 8.25H5C4.53587 8.25 4.09075 8.43437 3.76256 8.76256C3.43437 9.09075 3.25 9.53587 3.25 10V25C3.25 25.4641 3.43437 25.9093 3.76256 26.2374C4.09075 26.5656 4.53587 26.75 5 26.75H27C27.4641 26.75 27.9092 26.5656 28.2374 26.2374C28.5656 25.9093 28.75 25.4641 28.75 25V10C28.75 9.53587 28.5656 9.09075 28.2374 8.76256C27.9092 8.43437 27.4641 8.25 27 8.25ZM4.75 25V10C4.75 9.9337 4.77634 9.87011 4.82322 9.82322C4.87011 9.77634 4.9337 9.75 5 9.75H18.25V25.25H5C4.9337 25.25 4.87011 25.2237 4.82322 25.1768C4.77634 25.1299 4.75 25.0663 4.75 25ZM27.25 25C27.25 25.0663 27.2237 25.1299 27.1768 25.1768C27.1299 25.2237 27.0663 25.25 27 25.25H19.75V9.75H27C27.0663 9.75 27.1299 9.77634 27.1768 9.82322C27.2237 9.87011 27.25 9.9337 27.25 10V25ZM24.75 14.5C24.75 14.7472 24.6767 14.9889 24.5393 15.1945C24.402 15.4 24.2068 15.5602 23.9784 15.6549C23.7499 15.7495 23.4986 15.7742 23.2561 15.726C23.0137 15.6778 22.7909 15.5587 22.6161 15.3839C22.4413 15.2091 22.3223 14.9863 22.274 14.7439C22.2258 14.5014 22.2505 14.2501 22.3451 14.0216C22.4398 13.7932 22.6 13.598 22.8055 13.4607C23.0111 13.3233 23.2528 13.25 23.5 13.25C23.8315 13.25 24.1495 13.3817 24.3839 13.6161C24.6183 13.8505 24.75 14.1685 24.75 14.5ZM24.75 20.5C24.75 20.7472 24.6767 20.9889 24.5393 21.1945C24.402 21.4 24.2068 21.5602 23.9784 21.6549C23.7499 21.7495 23.4986 21.7742 23.2561 21.726C23.0137 21.6778 22.7909 21.5587 22.6161 21.3839C22.4413 21.2091 22.3223 20.9863 22.274 20.7439C22.2258 20.5014 22.2505 20.2501 22.3451 20.0216C22.4398 19.7932 22.6 19.598 22.8055 19.4607C23.0111 19.3233 23.2528 19.25 23.5 19.25C23.8315 19.25 24.1495 19.3817 24.3839 19.6161C24.6183 19.8505 24.75 20.1685 24.75 20.5Z" fill="#112D1F"/>
</svg>
