<svg width="32" height="32" viewBox="0 0 32 32" fill="none" xmlns="http://www.w3.org/2000/svg">
<path d="M29.5299 10.97L22.0299 3.47001C21.8893 3.32956 21.6987 3.25067 21.4999 3.25067C21.3012 3.25067 21.1106 3.32956 20.9699 3.47001L4.81619 19.625C4.30102 20.1171 3.88939 20.7071 3.60549 21.3605C3.32158 22.0139 3.17112 22.7174 3.16295 23.4298C3.15478 24.1421 3.28906 24.8489 3.5579 25.5087C3.82675 26.1684 4.22473 26.7677 4.72848 27.2715C5.23222 27.7752 5.83156 28.1732 6.49129 28.442C7.15101 28.7109 7.85781 28.8452 8.57017 28.837C9.28252 28.8288 9.98606 28.6784 10.6394 28.3945C11.2928 28.1106 11.8829 27.6989 12.3749 27.1838L26.4049 13.155L29.2374 12.2113C29.3586 12.1707 29.4673 12.0999 29.5534 12.0055C29.6395 11.9112 29.7 11.7964 29.7293 11.6721C29.7586 11.5478 29.7557 11.418 29.7208 11.2952C29.6859 11.1723 29.6202 11.0604 29.5299 10.97ZM11.3162 26.125C10.9589 26.4823 10.5348 26.7657 10.068 26.9591C9.60115 27.1524 9.10083 27.2519 8.59556 27.2519C8.09029 27.2519 7.58997 27.1524 7.12317 26.9591C6.65636 26.7657 6.23221 26.4823 5.87494 26.125C5.51766 25.7677 5.23425 25.3436 5.04089 24.8768C4.84754 24.41 4.74802 23.9097 4.74802 23.4044C4.74802 22.8991 4.84754 22.3988 5.04089 21.932C5.23425 21.4652 5.51766 21.041 5.87494 20.6838L9.51619 17.0438C10.6212 16.6513 12.3712 16.4738 14.6512 17.6688C16.1862 18.47 17.5424 18.7513 18.6849 18.7575L11.3162 26.125ZM25.7624 11.7888C25.6522 11.8257 25.5521 11.8877 25.4699 11.97L20.4824 16.9563C19.3774 17.3488 17.6274 17.5263 15.3474 16.3313C13.8124 15.5338 12.4562 15.25 11.3137 15.25L21.4999 5.06126L27.6112 11.1725L25.7624 11.7888Z" fill="#112D1F"/>
</svg>
