<svg width="32" height="32" viewBox="0 0 32 32" fill="none" xmlns="http://www.w3.org/2000/svg">
<path d="M10.6789 6.68131C10.6183 6.55246 10.5223 6.44351 10.4021 6.3672C10.2819 6.29089 10.1425 6.25037 10.0001 6.25037C9.85776 6.25037 9.71833 6.29089 9.59814 6.3672C9.47794 6.44351 9.38195 6.55246 9.32139 6.68131L1.32138 23.6813C1.23668 23.8613 1.22696 24.0676 1.29435 24.2548C1.36175 24.442 1.50074 24.5947 1.68076 24.6794C1.86078 24.7641 2.06707 24.7739 2.25425 24.7065C2.44144 24.6391 2.59418 24.5001 2.67888 24.3201L4.82889 19.7501H15.1714L17.3214 24.3188C17.3633 24.4079 17.4224 24.4879 17.4953 24.5542C17.5681 24.6205 17.6533 24.6718 17.746 24.7052C17.8387 24.7386 17.9371 24.7534 18.0355 24.7487C18.1339 24.7441 18.2304 24.7201 18.3195 24.6782C18.4086 24.6362 18.4886 24.5772 18.5549 24.5043C18.6212 24.4314 18.6725 24.3462 18.7059 24.2535C18.7393 24.1609 18.7541 24.0625 18.7494 23.9641C18.7448 23.8657 18.7208 23.7692 18.6789 23.6801L10.6789 6.68131ZM5.53513 18.2501L10.0001 8.76131L14.4651 18.2501H5.53513ZM25.0001 12.2501C23.4739 12.2501 22.2864 12.6601 21.4714 13.4676C21.4015 13.537 21.3459 13.6195 21.3079 13.7104C21.2698 13.8013 21.2501 13.8989 21.2497 13.9974C21.2494 14.096 21.2684 14.1936 21.3058 14.2848C21.3432 14.376 21.3982 14.4589 21.4676 14.5288C21.6079 14.67 21.7985 14.7498 21.9975 14.7505C22.096 14.7508 22.1937 14.7318 22.2849 14.6944C22.376 14.657 22.459 14.602 22.5289 14.5326C23.0514 14.0138 23.8839 13.7501 25.0001 13.7501C26.7926 13.7501 28.2501 14.9838 28.2501 16.5001V17.4051C27.3361 16.6502 26.1855 16.2413 25.0001 16.2501C22.3814 16.2501 20.2501 18.1563 20.2501 20.5001C20.2501 22.8438 22.3814 24.7501 25.0001 24.7501C26.1855 24.7588 27.3361 24.3499 28.2501 23.5951V24.0001C28.2501 24.199 28.3292 24.3897 28.4698 24.5304C28.6105 24.671 28.8012 24.7501 29.0001 24.7501C29.199 24.7501 29.3898 24.671 29.5305 24.5304C29.6711 24.3897 29.7501 24.199 29.7501 24.0001V16.5001C29.7501 14.1563 27.6251 12.2501 25.0001 12.2501ZM25.0001 23.2501C23.2076 23.2501 21.7501 22.0163 21.7501 20.5001C21.7501 18.9838 23.2076 17.7501 25.0001 17.7501C26.7926 17.7501 28.2501 18.9838 28.2501 20.5001C28.2501 22.0163 26.7926 23.2501 25.0001 23.2501Z" fill="#112D1F"/>
</svg>
