<svg width="32" height="32" viewBox="0 0 32 32" fill="none" xmlns="http://www.w3.org/2000/svg">
<path d="M27.7498 16C27.7498 16.1989 27.6708 16.3896 27.5302 16.5303C27.3895 16.671 27.1987 16.75 26.9998 16.75H13.9998C13.8009 16.75 13.6102 16.671 13.4695 16.5303C13.3288 16.3896 13.2498 16.1989 13.2498 16C13.2498 15.8011 13.3288 15.6103 13.4695 15.4696C13.6102 15.329 13.8009 15.25 13.9998 15.25H26.9998C27.1987 15.25 27.3895 15.329 27.5302 15.4696C27.6708 15.6103 27.7498 15.8011 27.7498 16ZM13.9998 8.74997H26.9998C27.1987 8.74997 27.3895 8.67095 27.5302 8.5303C27.6708 8.38965 27.7498 8.19888 27.7498 7.99997C27.7498 7.80106 27.6708 7.61029 27.5302 7.46964C27.3895 7.32899 27.1987 7.24997 26.9998 7.24997H13.9998C13.8009 7.24997 13.6102 7.32899 13.4695 7.46964C13.3288 7.61029 13.2498 7.80106 13.2498 7.99997C13.2498 8.19888 13.3288 8.38965 13.4695 8.5303C13.6102 8.67095 13.8009 8.74997 13.9998 8.74997ZM26.9998 23.25H4.99983C4.80092 23.25 4.61015 23.329 4.4695 23.4696C4.32885 23.6103 4.24983 23.8011 4.24983 24C4.24983 24.1989 4.32885 24.3896 4.4695 24.5303C4.61015 24.671 4.80092 24.75 4.99983 24.75H26.9998C27.1987 24.75 27.3895 24.671 27.5302 24.5303C27.6708 24.3896 27.7498 24.1989 27.7498 24C27.7498 23.8011 27.6708 23.6103 27.5302 23.4696C27.3895 23.329 27.1987 23.25 26.9998 23.25ZM8.99983 17.75C9.14807 17.7498 9.29294 17.7058 9.41616 17.6234C9.53938 17.5409 9.6354 17.4239 9.69212 17.2869C9.74883 17.1499 9.76368 16.9992 9.73479 16.8538C9.70591 16.7084 9.63458 16.5749 9.52983 16.47L5.06108 12L9.52983 7.52997C9.66231 7.38779 9.73443 7.19975 9.731 7.00545C9.72758 6.81114 9.64886 6.62576 9.51145 6.48835C9.37404 6.35093 9.18865 6.27222 8.99435 6.26879C8.80005 6.26537 8.612 6.33749 8.46983 6.46997L3.46983 11.47C3.32938 11.6106 3.25049 11.8012 3.25049 12C3.25049 12.1987 3.32938 12.3893 3.46983 12.53L8.46983 17.53C8.61035 17.6707 8.80098 17.7498 8.99983 17.75Z" fill="#112D1F"/>
</svg>
