<svg width="32" height="32" viewBox="0 0 32 32" fill="none" xmlns="http://www.w3.org/2000/svg">
<path d="M31.5301 11.47L26.5301 6.46995C26.3894 6.3295 26.1988 6.25061 26.0001 6.25061C25.8013 6.25061 25.6107 6.3295 25.4701 6.46995L21.0001 10.9399L16.5301 6.46995C16.3894 6.3295 16.1988 6.25061 16.0001 6.25061C15.8013 6.25061 15.6107 6.3295 15.4701 6.46995L11.0001 10.9399L6.53007 6.46995C6.38945 6.3295 6.19882 6.25061 6.00007 6.25061C5.80132 6.25061 5.6107 6.3295 5.47007 6.46995L0.470072 11.47C0.329622 11.6106 0.250732 11.8012 0.250732 12C0.250732 12.1987 0.329622 12.3893 0.470072 12.53L5.47007 17.53C5.6107 17.6704 5.80132 17.7493 6.00007 17.7493C6.19882 17.7493 6.38945 17.6704 6.53007 17.53L11.0001 13.06L14.9401 17L10.4701 21.4699C10.3296 21.6106 10.2507 21.8012 10.2507 22C10.2507 22.1987 10.3296 22.3893 10.4701 22.53L15.4701 27.53C15.6107 27.6704 15.8013 27.7493 16.0001 27.7493C16.1988 27.7493 16.3894 27.6704 16.5301 27.53L21.5301 22.53C21.6705 22.3893 21.7494 22.1987 21.7494 22C21.7494 21.8012 21.6705 21.6106 21.5301 21.4699L17.0601 17L21.0001 13.06L25.4701 17.53C25.6107 17.6704 25.8013 17.7493 26.0001 17.7493C26.1988 17.7493 26.3894 17.6704 26.5301 17.53L31.5301 12.53C31.6705 12.3893 31.7494 12.1987 31.7494 12C31.7494 11.8012 31.6705 11.6106 31.5301 11.47ZM6.00007 15.9387L2.06132 12L6.00007 8.0612L9.93882 12L6.00007 15.9387ZM16.0001 25.9387L12.0613 22L16.0001 18.0612L19.9388 22L16.0001 25.9387ZM16.0001 15.9387L12.0613 12L16.0001 8.0612L19.9388 12L16.0001 15.9387ZM26.0001 15.9387L22.0613 12L26.0001 8.0612L29.9388 12L26.0001 15.9387Z" fill="#112D1F"/>
</svg>
