<svg width="32" height="32" viewBox="0 0 32 32" fill="none" xmlns="http://www.w3.org/2000/svg">
<path d="M29.6311 26.5963L16.8898 6.68751L19.6311 2.40501C19.695 2.32283 19.7411 2.22824 19.7664 2.12726C19.7918 2.02629 19.7958 1.92114 19.7783 1.81852C19.7608 1.71589 19.7221 1.61803 19.6648 1.53117C19.6074 1.44431 19.5325 1.37035 19.445 1.31399C19.3574 1.25764 19.2591 1.22012 19.1563 1.20384C19.0535 1.18756 18.9484 1.19286 18.8477 1.21941C18.7471 1.24596 18.653 1.29318 18.5716 1.35806C18.4902 1.42294 18.4232 1.50406 18.3748 1.59626L15.9998 5.29626L13.6248 1.59626C13.5784 1.50072 13.5123 1.41613 13.4307 1.34808C13.3492 1.28002 13.2541 1.23007 13.1518 1.20151C13.0495 1.17295 12.9423 1.16645 12.8373 1.18243C12.7323 1.1984 12.6319 1.2365 12.5427 1.29419C12.4536 1.35189 12.3777 1.42786 12.3201 1.51709C12.2625 1.60632 12.2245 1.70676 12.2086 1.81178C12.1927 1.91679 12.1993 2.02398 12.228 2.12625C12.2566 2.22852 12.3067 2.32354 12.3748 2.40501L15.1098 6.68751L2.37481 26.5963C2.30271 26.7091 2.26215 26.8392 2.25732 26.973C2.2525 27.1069 2.28359 27.2395 2.34738 27.3573C2.41116 27.475 2.50531 27.5735 2.62004 27.6426C2.73477 27.7117 2.8659 27.7488 2.99981 27.75H28.9998C29.1342 27.7499 29.2662 27.7136 29.3818 27.645C29.4974 27.5764 29.5924 27.4779 29.657 27.36C29.7215 27.2421 29.7531 27.1089 29.7486 26.9746C29.744 26.8402 29.7034 26.7096 29.6311 26.5963ZM10.3298 26.25L15.9998 17.3913L21.6698 26.25H10.3298ZM23.4548 26.25L16.6361 15.5963C16.5682 15.4905 16.4748 15.4034 16.3645 15.3431C16.2542 15.2829 16.1305 15.2513 16.0048 15.2513C15.8791 15.2513 15.7554 15.2829 15.6451 15.3431C15.5348 15.4034 15.4414 15.4905 15.3736 15.5963L8.54981 26.25H4.37481L15.9998 8.07876L27.6248 26.25H23.4548Z" fill="#112D1F"/>
</svg>
