<svg width="32" height="32" viewBox="0 0 32 32" fill="none" xmlns="http://www.w3.org/2000/svg">
<path d="M30.2174 14.7138L17.2861 1.7825C16.9449 1.44161 16.4822 1.25012 15.9999 1.25012C15.5175 1.25012 15.0549 1.44161 14.7136 1.7825L1.78238 14.7138C1.44148 15.055 1.25 15.5176 1.25 16C1.25 16.4824 1.44148 16.945 1.78238 17.2863L14.7136 30.2175C15.0549 30.5584 15.5175 30.7499 15.9999 30.7499C16.4822 30.7499 16.9449 30.5584 17.2861 30.2175L30.2174 17.2863C30.5583 16.945 30.7498 16.4824 30.7498 16C30.7498 15.5176 30.5583 15.055 30.2174 14.7138ZM29.1561 16.2263L16.2261 29.1563C16.1661 29.2163 16.0847 29.25 15.9999 29.25C15.915 29.25 15.8336 29.2163 15.7736 29.1563L2.84363 16.2263C2.78363 16.1662 2.74993 16.0849 2.74993 16C2.74993 15.9151 2.78363 15.8338 2.84363 15.7738L15.7736 2.84375C15.8336 2.78376 15.915 2.75005 15.9999 2.75005C16.0847 2.75005 16.1661 2.78376 16.2261 2.84375L29.1561 15.7738C29.2161 15.8338 29.2498 15.9151 29.2498 16C29.2498 16.0849 29.2161 16.1662 29.1561 16.2263ZM21.5311 14.4763C21.6716 14.6169 21.7505 14.8075 21.7505 15.0063C21.7505 15.205 21.6716 15.3956 21.5311 15.5363L18.5311 18.5363C18.389 18.6687 18.2009 18.7409 18.0066 18.7374C17.8123 18.734 17.6269 18.6553 17.4895 18.5179C17.3521 18.3805 17.2734 18.1951 17.27 18.0008C17.2665 17.8065 17.3387 17.6184 17.4711 17.4763L19.1886 15.75H13.9999C13.4031 15.75 12.8308 15.9871 12.4089 16.409C11.9869 16.831 11.7499 17.4033 11.7499 18V19C11.7499 19.1989 11.6709 19.3897 11.5302 19.5303C11.3896 19.671 11.1988 19.75 10.9999 19.75C10.801 19.75 10.6102 19.671 10.4696 19.5303C10.3289 19.3897 10.2499 19.1989 10.2499 19V18C10.2499 17.0054 10.645 16.0516 11.3482 15.3484C12.0515 14.6451 13.0053 14.25 13.9999 14.25H19.1886L17.4699 12.53C17.3374 12.3878 17.2653 12.1998 17.2687 12.0055C17.2721 11.8112 17.3508 11.6258 17.4883 11.4884C17.6257 11.351 17.8111 11.2723 18.0054 11.2688C18.1997 11.2654 18.3877 11.3375 18.5299 11.47L21.5311 14.4763Z" fill="#112D1F"/>
</svg>
