<svg width="32" height="32" viewBox="0 0 32 32" fill="none" xmlns="http://www.w3.org/2000/svg">
<path d="M24.6575 8.0512C24.602 8.02615 24.5576 7.9817 24.5325 7.9262C23.8284 6.2441 22.6427 4.80767 21.1246 3.79742C19.6064 2.78716 17.8236 2.24817 16 2.24817C14.1765 2.24817 12.3936 2.78716 10.8755 3.79742C9.35736 4.80767 8.17171 6.2441 7.46753 7.9262C7.44248 7.9817 7.39803 8.02615 7.34253 8.0512C5.82875 8.75189 4.54586 9.86926 3.644 11.2725C2.74214 12.6758 2.25862 14.3069 2.25003 15.975C2.23753 20.6925 6.06128 24.625 10.775 24.75C12.3386 24.7934 13.8848 24.4133 15.25 23.65V29C15.25 29.1989 15.329 29.3896 15.4697 29.5303C15.6104 29.6709 15.8011 29.75 16 29.75C16.1989 29.75 16.3897 29.6709 16.5304 29.5303C16.671 29.3896 16.75 29.1989 16.75 29V23.6475C18.049 24.3726 19.5124 24.7522 21 24.75H21.2263C25.9388 24.625 29.7625 20.695 29.75 15.9775C29.7416 14.309 29.2582 12.6775 28.3563 11.2738C27.4545 9.87013 26.1715 8.75232 24.6575 8.0512ZM21.1875 23.25C19.6913 23.2919 18.2193 22.8663 16.9763 22.0325C16.9039 21.9855 16.8283 21.9438 16.75 21.9075V16.47L22.335 13.6775C22.5131 13.5886 22.6485 13.4327 22.7116 13.244C22.7746 13.0553 22.7601 12.8492 22.6713 12.6712C22.5824 12.4932 22.4265 12.3577 22.2378 12.2947C22.0491 12.2316 21.8431 12.2461 21.665 12.335L16.75 14.7862V11C16.75 10.801 16.671 10.6103 16.5304 10.4696C16.3897 10.329 16.1989 10.25 16 10.25C15.8011 10.25 15.6104 10.329 15.4697 10.4696C15.329 10.6103 15.25 10.801 15.25 11V17.7862L10.335 15.3287C10.157 15.2399 9.95097 15.2254 9.76227 15.2884C9.57356 15.3515 9.41763 15.4869 9.32878 15.665C9.23993 15.843 9.22545 16.049 9.2885 16.2377C9.35156 16.4264 9.487 16.5824 9.66503 16.6712L15.25 19.4637V21.9012C15.1718 21.9375 15.0962 21.9793 15.0238 22.0262C13.7818 22.8628 12.3095 23.2906 10.8125 23.25C9.17492 23.2086 7.59957 22.6139 6.34319 21.5627C5.08681 20.5115 4.22345 19.0658 3.8938 17.4612C3.56415 15.8566 3.78764 14.1876 4.52785 12.7263C5.26805 11.2649 6.48135 10.0973 7.97003 9.4137C8.36779 9.23015 8.68225 8.9041 8.85128 8.49995C9.4413 7.09069 10.4347 5.88725 11.7066 5.04087C12.9785 4.19449 14.4722 3.74292 16 3.74292C17.5278 3.74292 19.0215 4.19449 20.2935 5.04087C21.5654 5.88725 22.5588 7.09069 23.1488 8.49995C23.3183 8.90316 23.6327 9.22826 24.03 9.4112C25.5201 10.094 26.7348 11.2616 27.476 12.7235C28.2173 14.1854 28.4413 15.8553 28.1115 17.4608C27.7817 19.0664 26.9176 20.5128 25.6602 21.5642C24.4027 22.6155 22.8261 23.2098 21.1875 23.25Z" fill="#112D1F"/>
</svg>
