<svg width="32" height="32" viewBox="0 0 32 32" fill="none" xmlns="http://www.w3.org/2000/svg">
<path d="M28.5926 23.5401L22.5339 15.7501H26.0001C26.1403 15.7502 26.2777 15.711 26.3967 15.6371C26.5157 15.5631 26.6116 15.4573 26.6736 15.3316C26.7355 15.2058 26.761 15.0653 26.7472 14.9258C26.7333 14.7864 26.6806 14.6536 26.5951 14.5426L16.5951 1.54255C16.5251 1.45129 16.435 1.37736 16.3318 1.32649C16.2287 1.27561 16.1152 1.24915 16.0001 1.24915C15.8851 1.24915 15.7716 1.27561 15.6684 1.32649C15.5653 1.37736 15.4752 1.45129 15.4051 1.54255L5.40513 14.5426C5.31964 14.6536 5.26698 14.7864 5.25311 14.9258C5.23925 15.0653 5.26473 15.2058 5.32667 15.3316C5.38862 15.4573 5.48455 15.5631 5.60358 15.6371C5.72261 15.711 5.85999 15.7502 6.00013 15.7501H9.46638L3.40763 23.5401C3.32154 23.6509 3.26829 23.7837 3.25393 23.9233C3.23958 24.063 3.26469 24.2038 3.32642 24.3299C3.38815 24.4559 3.48401 24.5622 3.60311 24.6364C3.72221 24.7107 3.85977 24.7501 4.00013 24.7501H15.2501V30.0001C15.2501 30.199 15.3292 30.3897 15.4698 30.5304C15.6105 30.671 15.8012 30.7501 16.0001 30.7501C16.199 30.7501 16.3898 30.671 16.5305 30.5304C16.6711 30.3897 16.7501 30.199 16.7501 30.0001V24.7501H28.0001C28.1405 24.7501 28.278 24.7107 28.3972 24.6364C28.5163 24.5622 28.6121 24.4559 28.6738 24.3299C28.7356 24.2038 28.7607 24.063 28.7463 23.9233C28.732 23.7837 28.6787 23.6509 28.5926 23.5401ZM5.53388 23.2501L11.5926 15.4601C11.6787 15.3492 11.732 15.2164 11.7463 15.0768C11.7607 14.9371 11.7356 14.7963 11.6738 14.6702C11.6121 14.5442 11.5163 14.438 11.3972 14.3637C11.2781 14.2894 11.1405 14.25 11.0001 14.2501H7.52388L16.0001 3.23005L24.4764 14.2501H21.0001C20.8598 14.25 20.7222 14.2894 20.6031 14.3637C20.484 14.438 20.3881 14.5442 20.3264 14.6702C20.2647 14.7963 20.2396 14.9371 20.2539 15.0768C20.2683 15.2164 20.3215 15.3492 20.4076 15.4601L26.4664 23.2501H5.53388Z" fill="#112D1F"/>
</svg>
