<svg width="32" height="32" viewBox="0 0 32 32" fill="none" xmlns="http://www.w3.org/2000/svg">
<path d="M29.5436 6.82626C28.7849 6.01333 27.8672 5.36513 26.8473 4.92195C25.8275 4.47876 24.7274 4.25006 23.6155 4.25006C22.5035 4.25006 21.4035 4.47876 20.3836 4.92195C19.3638 5.36513 18.4461 6.01333 17.6874 6.82626C16.9797 7.57024 16.4085 8.43299 15.9999 9.37501C15.591 8.43388 15.0198 7.572 14.3124 6.82876C13.5537 6.01583 12.6359 5.36763 11.6161 4.92445C10.5963 4.48126 9.4962 4.25256 8.38424 4.25256C7.27229 4.25256 6.17221 4.48126 5.15239 4.92445C4.13257 5.36763 3.2148 6.01583 2.45612 6.82876C2.37307 6.91656 2.31246 7.02312 2.27947 7.13939C2.24647 7.25565 2.24206 7.37817 2.26661 7.49651C2.29117 7.61484 2.34395 7.72549 2.42047 7.81904C2.497 7.91258 2.59499 7.98624 2.70612 8.03376L10.4349 11.3963C10.2036 11.4388 9.97237 11.4888 9.74237 11.55C8.63331 11.8405 7.59279 12.3478 6.68095 13.0427C5.76911 13.7377 5.00401 14.6064 4.42987 15.5988C3.85187 16.5849 3.47673 17.6767 3.32647 18.8098C3.17621 19.943 3.25386 21.0948 3.55487 22.1975C3.58686 22.3163 3.64762 22.4255 3.73176 22.5153C3.81591 22.6051 3.92086 22.6728 4.03737 22.7125C4.11511 22.7387 4.19657 22.7522 4.27862 22.7525C4.44304 22.7525 4.6029 22.6985 4.73362 22.5988L15.2499 14.58V28C15.2499 28.1989 15.3289 28.3897 15.4695 28.5303C15.6102 28.671 15.801 28.75 15.9999 28.75C16.1988 28.75 16.3895 28.671 16.5302 28.5303C16.6709 28.3897 16.7499 28.1989 16.7499 28V14.58L27.2711 22.5963C27.4018 22.696 27.5617 22.75 27.7261 22.75C27.8082 22.7497 27.8896 22.7362 27.9674 22.71C28.0839 22.6703 28.1888 22.6026 28.273 22.5128C28.3571 22.423 28.4179 22.3138 28.4499 22.195C28.7509 21.0923 28.8285 19.9405 28.6783 18.8073C28.528 17.6742 28.1529 16.5824 27.5749 15.5963C27.0007 14.6039 26.2356 13.7352 25.3238 13.0402C24.4119 12.3453 23.3714 11.838 22.2624 11.5475C22.0324 11.4863 21.8011 11.4363 21.5699 11.3938L29.2986 8.03126C29.4097 7.98374 29.5077 7.91008 29.5843 7.81653C29.6608 7.72299 29.7136 7.61234 29.7381 7.49401C29.7627 7.37567 29.7583 7.25315 29.7253 7.13689C29.6923 7.02062 29.6317 6.91406 29.5486 6.82626H29.5436ZM8.38487 5.75001C9.29319 5.75215 10.1914 5.9405 11.0241 6.30341C11.8568 6.66632 12.6062 7.19609 13.2261 7.86001C14.2601 8.95 14.935 10.3308 15.1599 11.8163L4.36612 7.12501C5.51665 6.23461 6.93004 5.75102 8.38487 5.75001ZM4.78612 20.6663C4.63075 19.1647 4.95828 17.6527 5.72112 16.35C6.19786 15.5287 6.83241 14.8099 7.58822 14.2349C8.34402 13.66 9.20613 13.2403 10.1249 13C10.7413 12.835 11.3767 12.7509 12.0149 12.75C12.8873 12.7496 13.7526 12.9076 14.5686 13.2163L4.78612 20.6663ZM26.2786 16.35C27.0415 17.6527 27.369 19.1647 27.2136 20.6663L17.4336 13.215C19.0409 12.6105 20.8101 12.5935 22.4286 13.1672C24.0472 13.7409 25.4108 14.8682 26.2786 16.35ZM16.8399 11.8163C17.0647 10.3308 17.7397 8.95 18.7736 7.86001C19.3935 7.19609 20.143 6.66632 20.9756 6.30341C21.8083 5.9405 22.7065 5.75215 23.6149 5.75001C25.0697 5.75102 26.4831 6.23461 27.6336 7.12501L16.8399 11.8163Z" fill="#112D1F"/>
</svg>
