<svg width="32" height="32" viewBox="0 0 32 32" fill="none" xmlns="http://www.w3.org/2000/svg">
<path d="M29.7498 17V25C29.7498 25.1989 29.6708 25.3896 29.5302 25.5303C29.3895 25.671 29.1988 25.75 28.9998 25.75H20.9998C20.8009 25.75 20.6102 25.671 20.4695 25.5303C20.3289 25.3896 20.2498 25.1989 20.2498 25C20.2498 24.8011 20.3289 24.6103 20.4695 24.4696C20.6102 24.329 20.8009 24.25 20.9998 24.25H27.1898L16.9998 14.0612L12.5298 18.53C12.3892 18.6704 12.1986 18.7493 11.9998 18.7493C11.8011 18.7493 11.6105 18.6704 11.4698 18.53L2.46985 9.52997C2.33737 9.38779 2.26524 9.19975 2.26867 9.00545C2.2721 8.81115 2.35081 8.62576 2.48822 8.48835C2.62564 8.35093 2.81102 8.27222 3.00532 8.26879C3.19963 8.26537 3.38767 8.33749 3.52985 8.46997L11.9998 16.9387L16.4698 12.47C16.6105 12.3295 16.8011 12.2506 16.9998 12.2506C17.1986 12.2506 17.3892 12.3295 17.5298 12.47L28.2498 23.19V17C28.2498 16.8011 28.3289 16.6103 28.4695 16.4696C28.6102 16.329 28.8009 16.25 28.9998 16.25C29.1988 16.25 29.3895 16.329 29.5302 16.4696C29.6708 16.6103 29.7498 16.8011 29.7498 17Z" fill="#112D1F"/>
</svg>
