<svg width="32" height="32" viewBox="0 0 32 32" fill="none" xmlns="http://www.w3.org/2000/svg">
<path d="M29.384 23.6362L18.4515 4.65249C18.2004 4.22555 17.8421 3.87159 17.4122 3.62566C16.9823 3.37973 16.4955 3.25037 16.0002 3.25037C15.5049 3.25037 15.0182 3.37973 14.5883 3.62566C14.1583 3.87159 13.8001 4.22555 13.549 4.65249L2.61648 23.6362C2.37584 24.0482 2.24902 24.5167 2.24902 24.9937C2.24902 25.4708 2.37584 25.9393 2.61648 26.3512C2.86422 26.7812 3.222 27.1374 3.65303 27.3832C4.08407 27.6291 4.5728 27.7556 5.06898 27.75H26.9315C27.4272 27.7552 27.9154 27.6284 28.346 27.3826C28.7766 27.1368 29.1339 26.7808 29.3815 26.3512C29.6225 25.9395 29.7497 25.4711 29.7502 24.9941C29.7506 24.517 29.6242 24.0484 29.384 23.6362ZM28.0827 25.6C27.9659 25.8009 27.7977 25.967 27.5953 26.0812C27.393 26.1955 27.1638 26.2537 26.9315 26.25H5.06898C4.83664 26.2537 4.6075 26.1955 4.40515 26.0812C4.2028 25.967 4.03455 25.8009 3.91773 25.6C3.80819 25.4163 3.75037 25.2064 3.75037 24.9925C3.75037 24.7786 3.80819 24.5687 3.91773 24.385L14.849 5.40124C14.9685 5.20272 15.1373 5.03847 15.339 4.92446C15.5407 4.81044 15.7685 4.75052 16.0002 4.75052C16.2319 4.75052 16.4597 4.81044 16.6614 4.92446C16.8632 5.03847 17.032 5.20272 17.1515 5.40124L28.084 24.385C28.1933 24.5688 28.2509 24.7788 28.2507 24.9927C28.2505 25.2065 28.1925 25.4164 28.0827 25.6Z" fill="#112D1F"/>
</svg>
