<svg width="24" height="24" viewBox="0 0 24 24" fill="none" xmlns="http://www.w3.org/2000/svg">
<path d="M10.5932 16.8115H13.7564V17.8659H10.5932V16.8115ZM8.48443 17.8659V18.9203H15.8652V17.8659H14.8108V16.8115L15.3816 16.8094L15.4962 16.8066C16.8992 16.7468 16.8226 16.1697 15.4048 16.1697L8.7888 16.1746C7.38575 16.2344 7.46166 16.8115 8.87948 16.8115H9.53883V17.8659H8.48443Z" fill="#112D1F"/>
<path d="M6.9026 6.26747H17.4466L17.5394 6.27029C18.3696 6.31808 19.0282 7.00696 19.0282 7.84907V14.1755L19.0254 14.2683C18.9776 15.0984 18.2887 15.7571 17.4466 15.7571H6.9026L6.80981 15.7543C5.97965 15.7065 5.321 15.0176 5.321 14.1755V7.84907L5.32381 7.75629C5.37161 6.92612 6.06049 6.26747 6.9026 6.26747ZM14.8106 16.8115H17.4466L17.5612 16.8094C18.9642 16.7496 20.0826 15.5933 20.0826 14.1755V7.84907L20.0805 7.7345C20.0207 6.33144 18.8644 5.21307 17.4466 5.21307H6.9026L6.78802 5.21518C5.38497 5.27493 4.2666 6.43126 4.2666 7.84907V14.1755L4.26871 14.2901C4.32846 15.6931 5.48478 16.8115 6.9026 16.8115H9.5386H14.8106Z" fill="#112D1F"/>
</svg>
