<svg width="32" height="32" viewBox="0 0 32 32" fill="none" xmlns="http://www.w3.org/2000/svg">
<path d="M21.6139 10.3863C21.3179 8.62025 20.5413 6.96982 19.3692 5.61604C18.1971 4.26225 16.6748 3.2574 14.9693 2.71169C13.2638 2.16599 11.441 2.10052 9.70068 2.52245C7.96042 2.94438 6.36996 3.83743 5.10376 5.10363C3.83755 6.36984 2.94451 7.9603 2.52257 9.70056C2.10064 11.4408 2.16611 13.2637 2.71182 14.9692C3.25752 16.6747 4.26237 18.197 5.61616 19.3691C6.96995 20.5412 8.62038 21.3178 10.3864 21.6138C10.6824 23.3799 11.4591 25.0303 12.6312 26.3841C13.8032 27.7379 15.3255 28.7427 17.031 29.2884C18.7366 29.8341 20.5594 29.8996 22.2997 29.4777C24.0399 29.0557 25.6304 28.1627 26.8966 26.8965C28.1628 25.6303 29.0559 24.0398 29.4778 22.2996C29.8997 20.5593 29.8342 18.7364 29.2885 17.0309C28.7428 15.3254 27.738 13.8031 26.3842 12.631C25.0304 11.4589 23.38 10.6823 21.6139 10.3863ZM28.2502 20.0001C28.2497 20.3722 28.2238 20.7439 28.1727 21.1126L21.4527 14.3913C21.6505 13.6096 21.7505 12.8064 21.7502 12.0001C21.7502 11.9788 21.7502 11.9588 21.7502 11.9388C23.5901 12.3405 25.2376 13.3588 26.4197 14.8248C27.6018 16.2909 28.2477 18.1168 28.2502 20.0001ZM5.66393 6.72381L12.6014 13.6613C11.9892 14.3763 11.484 15.1763 11.1014 16.0363L4.25018 9.18506C4.5757 8.28913 5.05403 7.45639 5.66393 6.72381ZM16.7789 18.7238L13.2789 15.2238C13.8136 14.4741 14.4692 13.8185 15.2189 13.2838L18.7189 16.7838C18.1838 17.5317 17.5282 18.1856 16.7789 18.7188V18.7238ZM20.2502 12.0001C20.2516 13.1862 19.9957 14.3586 19.5002 15.4363L16.5639 12.5001C17.6416 12.0045 18.814 11.7487 20.0002 11.7501C20.0814 11.7501 20.1627 11.7501 20.2439 11.7501C20.2502 11.8376 20.2502 11.9188 20.2502 12.0001ZM13.6614 12.6013L6.72393 5.66381C7.45651 5.05391 8.28925 4.57558 9.18518 4.25006L16.0352 11.1013C15.1756 11.4839 14.376 11.9892 13.6614 12.6013ZM11.7502 20.0001C11.7488 18.8139 12.0047 17.6415 12.5002 16.5638L15.4364 19.5001C14.3587 19.9956 13.1864 20.2515 12.0002 20.2501C11.9189 20.2501 11.8377 20.2501 11.7502 20.2438C11.7502 20.1626 11.7502 20.0813 11.7502 20.0001ZM18.3389 19.3988L25.2764 26.3363C24.5438 26.9462 23.7111 27.4245 22.8152 27.7501L15.9652 20.8988C16.8248 20.5162 17.6243 20.0109 18.3389 19.3988ZM19.3989 18.3388C20.0111 17.6238 20.5164 16.8238 20.8989 15.9638L27.7502 22.8151C27.4231 23.7113 26.9431 24.5441 26.3314 25.2763L19.3989 18.3388ZM20.0614 10.2513H20.0002C19.1938 10.251 18.3906 10.3509 17.6089 10.5488L10.8877 3.82756C11.2563 3.7764 11.628 3.7505 12.0002 3.75006C13.8835 3.75258 15.7094 4.3984 17.1754 5.58052C18.6415 6.76264 19.6597 8.41013 20.0614 10.2501V10.2513ZM3.75018 12.0001C3.75062 11.6279 3.77652 11.2562 3.82768 10.8876L10.5477 17.6088C10.3498 18.3905 10.2499 19.1937 10.2502 20.0001C10.2502 20.0213 10.2502 20.0413 10.2502 20.0613C8.41025 19.6596 6.76276 18.6413 5.58064 17.1753C4.39852 15.7092 3.75271 13.8833 3.75018 12.0001ZM11.9389 21.7501H12.0002C12.8065 21.7504 13.6098 21.6504 14.3914 21.4526L21.1127 28.1726C20.744 28.2237 20.3723 28.2496 20.0002 28.2501C18.1169 28.2475 16.291 27.6017 14.8249 26.4196C13.3589 25.2375 12.3407 23.59 11.9389 21.7501Z" fill="#112D1F"/>
</svg>
