<svg width="32" height="32" viewBox="0 0 32 32" fill="none" xmlns="http://www.w3.org/2000/svg">
<path d="M27.75 19V26C27.75 26.4641 27.5656 26.9092 27.2374 27.2374C26.9092 27.5656 26.4641 27.75 26 27.75H6C5.53587 27.75 5.09075 27.5656 4.76256 27.2374C4.43437 26.9092 4.25 26.4641 4.25 26V19C4.25 18.801 4.32902 18.6103 4.46967 18.4696C4.61032 18.329 4.80109 18.25 5 18.25C5.19891 18.25 5.38968 18.329 5.53033 18.4696C5.67098 18.6103 5.75 18.801 5.75 19V26C5.75 26.0663 5.77634 26.1298 5.82322 26.1767C5.87011 26.2236 5.9337 26.25 6 26.25H26C26.0663 26.25 26.1299 26.2236 26.1768 26.1767C26.2237 26.1298 26.25 26.0663 26.25 26V19C26.25 18.801 26.329 18.6103 26.4697 18.4696C26.6103 18.329 26.8011 18.25 27 18.25C27.1989 18.25 27.3897 18.329 27.5303 18.4696C27.671 18.6103 27.75 18.801 27.75 19ZM11.53 10.53L15.25 6.8112V19C15.25 19.1989 15.329 19.3896 15.4697 19.5303C15.6103 19.6709 15.8011 19.75 16 19.75C16.1989 19.75 16.3897 19.6709 16.5303 19.5303C16.671 19.3896 16.75 19.1989 16.75 19V6.8112L20.47 10.53C20.6122 10.6624 20.8002 10.7346 20.9945 10.7311C21.1888 10.7277 21.3742 10.649 21.5116 10.5116C21.649 10.3742 21.7277 10.1888 21.7312 9.99447C21.7346 9.80017 21.6625 9.61213 21.53 9.46995L16.53 4.46995C16.3894 4.3295 16.1988 4.25061 16 4.25061C15.8012 4.25061 15.6106 4.3295 15.47 4.46995L10.47 9.46995C10.3375 9.61213 10.2654 9.80017 10.2688 9.99447C10.2723 10.1888 10.351 10.3742 10.4884 10.5116C10.6258 10.649 10.8112 10.7277 11.0055 10.7311C11.1998 10.7346 11.3878 10.6624 11.53 10.53Z" fill="#112D1F"/>
</svg>
