<svg width="32" height="32" viewBox="0 0 32 32" fill="none" xmlns="http://www.w3.org/2000/svg">
<path d="M17.3748 19.7813C18.9997 18.9167 20.2888 17.5337 21.0372 15.8521C21.7855 14.1705 21.95 12.2869 21.5044 10.501C21.0589 8.71519 20.029 7.1296 18.5786 5.99651C17.1281 4.86343 15.3404 4.24792 13.4998 4.24792C11.6592 4.24792 9.87144 4.86343 8.42097 5.99651C6.97049 7.1296 5.94058 8.71519 5.49508 10.501C5.04957 12.2869 5.21406 14.1705 5.96237 15.8521C6.71068 17.5337 7.99984 18.9167 9.62476 19.7813C6.87476 20.56 4.38976 22.1763 2.42351 24.5175C2.30252 24.6705 2.24586 24.8645 2.26555 25.0585C2.28525 25.2526 2.37975 25.4313 2.529 25.5568C2.67826 25.6823 2.87055 25.7448 3.06507 25.7309C3.2596 25.717 3.44108 25.6279 3.57101 25.4825C6.13726 22.43 9.66351 20.75 13.4998 20.75C17.336 20.75 20.8623 22.43 23.426 25.4825C23.4883 25.5612 23.5657 25.6267 23.6538 25.6749C23.7418 25.7231 23.8386 25.7532 23.9385 25.7634C24.0384 25.7735 24.1392 25.7635 24.2352 25.7339C24.3311 25.7043 24.4201 25.6558 24.4969 25.5912C24.5738 25.5266 24.6368 25.4472 24.6824 25.3578C24.728 25.2684 24.7552 25.1707 24.7623 25.0706C24.7695 24.9704 24.7564 24.8699 24.724 24.7749C24.6916 24.6799 24.6404 24.5924 24.5735 24.5175C22.6073 22.1763 20.1248 20.56 17.3748 19.7813ZM6.74976 12.5C6.74976 11.165 7.14564 9.85994 7.88734 8.7499C8.62904 7.63987 9.68325 6.77471 10.9166 6.26382C12.1501 5.75292 13.5072 5.61925 14.8166 5.8797C16.126 6.14015 17.3287 6.78303 18.2727 7.72703C19.2167 8.67104 19.8596 9.87377 20.1201 11.1831C20.3805 12.4925 20.2468 13.8497 19.7359 15.0831C19.2251 16.3165 18.3599 17.3707 17.2499 18.1124C16.1398 18.8541 14.8348 19.25 13.4998 19.25C11.7102 19.248 9.99442 18.5362 8.72898 17.2708C7.46354 16.0053 6.75175 14.2896 6.74976 12.5ZM30.406 18.1L29.666 17.6738C29.7778 17.2315 29.7778 16.7685 29.666 16.3263L30.406 15.9C30.4914 15.8508 30.5662 15.7852 30.6262 15.707C30.6862 15.6289 30.7303 15.5396 30.7558 15.4445C30.7813 15.3493 30.7879 15.25 30.775 15.1523C30.7622 15.0546 30.7303 14.9604 30.681 14.875C30.6318 14.7896 30.5662 14.7148 30.488 14.6548C30.4099 14.5948 30.3206 14.5508 30.2255 14.5252C30.1303 14.4997 30.031 14.4931 29.9333 14.506C29.8356 14.5188 29.7414 14.5508 29.656 14.6L28.9148 15.0288C28.5882 14.7111 28.1879 14.4796 27.7498 14.355V13.5C27.7498 13.3011 27.6707 13.1103 27.5301 12.9697C27.3894 12.829 27.1987 12.75 26.9998 12.75C26.8008 12.75 26.6101 12.829 26.4694 12.9697C26.3288 13.1103 26.2498 13.3011 26.2498 13.5V14.355C25.8116 14.4796 25.4113 14.7111 25.0848 15.0288L24.3435 14.6C24.1711 14.5005 23.9663 14.4736 23.7741 14.5252C23.5818 14.5768 23.418 14.7026 23.3185 14.875C23.2191 15.0474 23.1922 15.2522 23.2437 15.4445C23.2953 15.6367 23.4211 15.8005 23.5935 15.9L24.3335 16.3263C24.2218 16.7685 24.2218 17.2315 24.3335 17.6738L23.5935 18.1C23.4211 18.1995 23.2953 18.3633 23.2437 18.5555C23.1922 18.7478 23.2191 18.9526 23.3185 19.125C23.418 19.2974 23.5818 19.4232 23.7741 19.4748C23.9663 19.5264 24.1711 19.4995 24.3435 19.4L25.0848 18.9713C25.4113 19.2889 25.8116 19.5204 26.2498 19.645V20.5C26.2498 20.6989 26.3288 20.8897 26.4694 21.0303C26.6101 21.171 26.8008 21.25 26.9998 21.25C27.1987 21.25 27.3894 21.171 27.5301 21.0303C27.6707 20.8897 27.7498 20.6989 27.7498 20.5V19.645C28.1879 19.5204 28.5882 19.2889 28.9148 18.9713L29.656 19.4C29.7414 19.4492 29.8356 19.4812 29.9333 19.494C30.031 19.5069 30.1303 19.5003 30.2255 19.4748C30.3206 19.4493 30.4099 19.4052 30.488 19.3452C30.5662 19.2852 30.6318 19.2104 30.681 19.125C30.7303 19.0396 30.7622 18.9454 30.775 18.8477C30.7879 18.75 30.7813 18.6507 30.7558 18.5555C30.7303 18.4604 30.6862 18.3712 30.6262 18.293C30.5662 18.2148 30.4914 18.1493 30.406 18.1ZM26.9998 18.25C26.7525 18.25 26.5109 18.1767 26.3053 18.0393C26.0997 17.902 25.9395 17.7068 25.8449 17.4784C25.7503 17.2499 25.7255 16.9986 25.7738 16.7561C25.822 16.5137 25.9411 16.2909 26.1159 16.1161C26.2907 15.9413 26.5134 15.8223 26.7559 15.774C26.9984 15.7258 27.2497 15.7505 27.4781 15.8452C27.7065 15.9398 27.9017 16.1 28.0391 16.3055C28.1765 16.5111 28.2498 16.7528 28.2498 17C28.2498 17.3315 28.1181 17.6495 27.8836 17.8839C27.6492 18.1183 27.3313 18.25 26.9998 18.25Z" fill="#112D1F"/>
</svg>
