<svg width="32" height="32" viewBox="0 0 32 32" fill="none" xmlns="http://www.w3.org/2000/svg">
<path d="M31.3538 9.33875C31.234 9.27472 31.0992 9.24439 30.9636 9.25099C30.828 9.2576 30.6967 9.30089 30.5837 9.37625L25.75 12.5987V9C25.75 8.53587 25.5656 8.09075 25.2374 7.76256C24.9092 7.43437 24.4641 7.25 24 7.25H14.1325C13.9336 7.25 13.7428 7.32902 13.6022 7.46967C13.4615 7.61032 13.3825 7.80108 13.3825 8C13.3825 8.19891 13.4615 8.38967 13.6022 8.53033C13.7428 8.67098 13.9336 8.75 14.1325 8.75H24C24.0663 8.75 24.1299 8.77634 24.1768 8.82322C24.2237 8.8701 24.25 8.93369 24.25 9V19.9537C24.25 20.1527 24.329 20.3434 24.4697 20.4841C24.6103 20.6247 24.8011 20.7037 25 20.7037C25.1989 20.7037 25.3897 20.6247 25.5303 20.4841C25.671 20.3434 25.75 20.1527 25.75 19.9537V19.4012L30.5837 22.625C30.6968 22.7004 30.8282 22.7437 30.9639 22.7502C31.0996 22.7568 31.2345 22.7263 31.3543 22.6622C31.474 22.598 31.5741 22.5025 31.6438 22.3859C31.7135 22.2692 31.7502 22.1359 31.75 22V10C31.75 9.86423 31.7131 9.73102 31.6433 9.61457C31.5735 9.49811 31.4735 9.40278 31.3538 9.33875ZM30.25 20.5987L25.75 17.5987V14.4012L30.25 11.4012V20.5987ZM6.555 4.5C6.4177 4.37256 6.23767 4.30111 6.05035 4.29972C5.86302 4.29833 5.68195 4.36709 5.54277 4.49248C5.40359 4.61786 5.31638 4.7908 5.29828 4.97725C5.28019 5.16371 5.33253 5.35019 5.445 5.5L7.03125 7.25H4C3.53587 7.25 3.09075 7.43437 2.76256 7.76256C2.43437 8.09075 2.25 8.53587 2.25 9V23C2.25 23.4641 2.43437 23.9092 2.76256 24.2374C3.09075 24.5656 3.53587 24.75 4 24.75H22.9412L25.4412 27.5C25.5752 27.6472 25.7621 27.7352 25.9609 27.7445C26.1597 27.7539 26.3541 27.6839 26.5012 27.55C26.6484 27.4161 26.7364 27.2291 26.7458 27.0304C26.7552 26.8316 26.6852 26.6372 26.5513 26.49L6.555 4.5ZM4 23.25C3.9337 23.25 3.87011 23.2237 3.82322 23.1768C3.77634 23.1299 3.75 23.0663 3.75 23V9C3.75 8.93369 3.77634 8.8701 3.82322 8.82322C3.87011 8.77634 3.9337 8.75 4 8.75H8.395L21.5775 23.25H4Z" fill="#112D1F"/>
</svg>
