<svg width="32" height="32" viewBox="0 0 32 32" fill="none" xmlns="http://www.w3.org/2000/svg">
<path d="M25.0001 9.25C23.6047 9.25132 22.2441 9.68502 21.1054 10.4914C19.9667 11.2978 19.1059 12.4373 18.6414 13.753C18.1769 15.0687 18.1316 16.4961 18.5117 17.8387C18.8918 19.1812 19.6786 20.373 20.7638 21.25H11.2363C12.475 20.249 13.3198 18.8423 13.6215 17.2785C13.9231 15.7148 13.6622 14.0948 12.8847 12.7048C12.1073 11.3149 10.8634 10.2447 9.37307 9.68329C7.88273 9.1219 6.24189 9.10554 4.74065 9.63711C3.23941 10.1687 1.97447 11.2139 1.16947 12.5881C0.364475 13.9622 0.0712666 15.5767 0.341689 17.1462C0.612111 18.7156 1.42875 20.1389 2.64721 21.1644C3.86568 22.1899 5.40749 22.7515 7.00006 22.75H25.0001C26.7903 22.75 28.5072 22.0388 29.773 20.773C31.0389 19.5071 31.7501 17.7902 31.7501 16C31.7501 14.2098 31.0389 12.4929 29.773 11.227C28.5072 9.96116 26.7903 9.25 25.0001 9.25ZM1.75006 16C1.75006 14.9616 2.05797 13.9466 2.63485 13.0833C3.21172 12.2199 4.03166 11.547 4.99097 11.1496C5.95028 10.7523 7.00588 10.6483 8.02428 10.8509C9.04269 11.0534 9.97815 11.5535 10.7124 12.2877C11.4466 13.0219 11.9466 13.9574 12.1492 14.9758C12.3518 15.9942 12.2478 17.0498 11.8504 18.0091C11.4531 18.9684 10.7802 19.7883 9.9168 20.3652C9.05345 20.9421 8.03841 21.25 7.00006 21.25C5.60767 21.25 4.27232 20.6969 3.28775 19.7123C2.30318 18.7277 1.75006 17.3924 1.75006 16ZM25.0001 21.25C23.9617 21.25 22.9467 20.9421 22.0833 20.3652C21.22 19.7883 20.5471 18.9684 20.1497 18.0091C19.7523 17.0498 19.6484 15.9942 19.8509 14.9758C20.0535 13.9574 20.5535 13.0219 21.2878 12.2877C22.022 11.5535 22.9574 11.0534 23.9758 10.8509C24.9942 10.6483 26.0498 10.7523 27.0091 11.1496C27.9685 11.547 28.7884 12.2199 29.3653 13.0833C29.9422 13.9466 30.2501 14.9616 30.2501 16C30.2501 17.3924 29.6969 18.7277 28.7124 19.7123C27.7278 20.6969 26.3924 21.25 25.0001 21.25Z" fill="#112D1F"/>
</svg>
