<svg width="32" height="32" viewBox="0 0 32 32" fill="none" xmlns="http://www.w3.org/2000/svg">
<path d="M29.6785 16.3188C26.9798 22.0713 24.6248 24.75 22.2498 24.75C19.271 24.75 17.3498 20.655 15.316 16.3188C13.6573 12.7713 11.771 8.75 9.74978 8.75C8.60228 8.75 6.62478 10.0625 3.68353 16.3188C3.5967 16.495 3.44417 16.6301 3.25873 16.6951C3.0733 16.7601 2.86978 16.7497 2.69194 16.6662C2.51409 16.5826 2.37612 16.4327 2.30769 16.2485C2.23927 16.0643 2.24585 15.8606 2.32603 15.6812C5.01978 9.92875 7.37478 7.25 9.74978 7.25C12.7285 7.25 14.6498 11.345 16.6835 15.6812C18.3423 19.2287 20.2285 23.25 22.2498 23.25C23.3973 23.25 25.381 21.9375 28.316 15.6812C28.4029 15.505 28.5554 15.3699 28.7408 15.3049C28.9263 15.2399 29.1298 15.2503 29.3076 15.3338C29.4855 15.4174 29.6234 15.5673 29.6919 15.7515C29.7603 15.9357 29.7537 16.1394 29.6735 16.3188H29.6785Z" fill="#112D1F"/>
</svg>
