<svg width="24" height="24" viewBox="0 0 24 24" fill="none" xmlns="http://www.w3.org/2000/svg">
<path d="M10.8733 16.0785C10.8733 15.4848 11.3549 15.0032 11.9486 15.0032C12.5423 15.0032 13.0238 15.4848 13.0238 16.0785C13.0238 16.6722 12.5423 17.153 11.9486 17.153C11.3549 17.153 10.8733 16.6722 10.8733 16.0785ZM14.0983 16.0785C14.0983 14.8911 13.136 13.9288 11.9486 13.9288C10.7612 13.9288 9.79883 14.8911 9.79883 16.0785C9.79883 17.2659 10.7612 18.2282 11.9486 18.2282C13.136 18.2282 14.0983 17.2659 14.0983 16.0785Z" fill="#112D1F"/>
<path d="M16.2713 13.9056C15.4757 12.3249 13.8389 11.2414 11.9486 11.2414C10.0584 11.2414 8.42156 12.3256 7.62598 13.9056L8.43951 14.7191C8.98461 13.3134 10.35 12.3159 11.9486 12.3159C13.5473 12.3159 14.9126 13.3134 15.4577 14.7191L16.2713 13.9056Z" fill="#112D1F"/>
<path d="M18.235 11.942C16.8891 9.90071 14.5763 8.55405 11.9488 8.55405C9.32126 8.55405 7.00852 9.90146 5.6626 11.942L6.44174 12.7204C7.57455 10.8668 9.61736 9.62929 11.9488 9.62929C14.281 9.62929 16.3238 10.8668 17.4566 12.7212L18.235 11.942Z" fill="#112D1F"/>
<path d="M20.1641 10.0129C18.3045 7.49825 15.3165 5.8667 11.9487 5.8667C8.58095 5.8667 5.59301 7.49825 3.7334 10.0129L4.50356 10.7816C6.15979 8.4576 8.87706 6.94194 11.9487 6.94194C15.0204 6.94194 17.7384 8.4576 19.3947 10.7823L20.1641 10.0129Z" fill="#112D1F"/>
</svg>
