<svg width="32" height="32" viewBox="0 0 32 32" fill="none" xmlns="http://www.w3.org/2000/svg">
<path d="M27 17.25H17C16.8011 17.25 16.6103 17.329 16.4697 17.4696C16.329 17.6103 16.25 17.8011 16.25 18V25.1812C16.2498 25.3571 16.3114 25.5274 16.4241 25.6624C16.5367 25.7975 16.6932 25.8886 16.8662 25.92L26.8662 27.7375C26.9103 27.746 26.9551 27.7502 27 27.75C27.1989 27.75 27.3897 27.671 27.5303 27.5303C27.671 27.3896 27.75 27.1989 27.75 27V18C27.75 17.8011 27.671 17.6103 27.5303 17.4696C27.3897 17.329 27.1989 17.25 27 17.25ZM26.25 26.1012L17.75 24.5562V18.75H26.25V26.1012ZM13 17.25H5C4.80109 17.25 4.61032 17.329 4.46967 17.4696C4.32902 17.6103 4.25 17.8011 4.25 18V23C4.25011 23.1756 4.31186 23.3456 4.42447 23.4804C4.53709 23.6152 4.69343 23.7061 4.86625 23.7375L12.8663 25.1925C12.9104 25.2004 12.9551 25.2046 13 25.205C13.1989 25.205 13.3897 25.126 13.5303 24.9853C13.671 24.8446 13.75 24.6539 13.75 24.455V18C13.75 17.8011 13.671 17.6103 13.5303 17.4696C13.3897 17.329 13.1989 17.25 13 17.25ZM12.25 23.5562L5.75 22.375V18.75H12.25V23.5562ZM27.48 4.42372C27.3957 4.35361 27.2971 4.30284 27.191 4.27498C27.085 4.24712 26.9741 4.24285 26.8662 4.26247L16.8662 6.07997C16.6932 6.11133 16.5367 6.20249 16.4241 6.33752C16.3114 6.47255 16.2498 6.64287 16.25 6.81872V14C16.25 14.1989 16.329 14.3896 16.4697 14.5303C16.6103 14.671 16.8011 14.75 17 14.75H27C27.1989 14.75 27.3897 14.671 27.5303 14.5303C27.671 14.3896 27.75 14.1989 27.75 14V4.99997C27.75 4.89 27.7258 4.78137 27.6791 4.68179C27.6325 4.5822 27.5645 4.4941 27.48 4.42372ZM26.25 13.25H17.75V7.44372L26.25 5.89872V13.25ZM13.48 6.96997C13.3958 6.89965 13.2972 6.84865 13.1912 6.82057C13.0851 6.79249 12.9742 6.78802 12.8663 6.80747L4.86625 8.26247C4.69343 8.29379 4.53709 8.38477 4.42447 8.51954C4.31186 8.65431 4.25011 8.82434 4.25 8.99997V14C4.25 14.1989 4.32902 14.3896 4.46967 14.5303C4.61032 14.671 4.80109 14.75 5 14.75H13C13.1989 14.75 13.3897 14.671 13.5303 14.5303C13.671 14.3896 13.75 14.1989 13.75 14V7.54497C13.7498 7.43521 13.7255 7.32682 13.6789 7.22747C13.6322 7.12812 13.5643 7.04022 13.48 6.96997ZM12.25 13.25H5.75V9.62497L12.25 8.44247V13.25Z" fill="#112D1F"/>
</svg>
