<svg width="32" height="32" viewBox="0 0 32 32" fill="none" xmlns="http://www.w3.org/2000/svg">
<path d="M28.1137 8.71882C28.0682 8.60638 27.9961 8.50664 27.9036 8.42818C27.8111 8.34971 27.7009 8.29485 27.5825 8.2683C27.4642 8.24175 27.3412 8.24431 27.224 8.27575C27.1068 8.30719 26.9991 8.36658 26.9099 8.44882L21.7762 13.1863L19.3374 12.6626L18.8137 10.2238L23.5512 5.09007C23.6334 5.00091 23.6928 4.89313 23.7242 4.77597C23.7557 4.65882 23.7582 4.53579 23.7317 4.41743C23.7051 4.29907 23.6503 4.18891 23.5718 4.09641C23.4933 4.00391 23.3936 3.93182 23.2812 3.88632C21.6531 3.22636 19.8642 3.07171 18.147 3.4425C16.4299 3.81329 14.8641 4.69236 13.6535 5.9653C12.4429 7.23823 11.6434 8.8461 11.3592 10.5797C11.075 12.3132 11.3191 14.0922 12.0599 15.6851L4.38615 22.3101C4.3724 22.3213 4.3599 22.3338 4.34615 22.3476C3.99774 22.6958 3.72133 23.1093 3.53271 23.5644C3.34409 24.0194 3.24694 24.5072 3.24683 24.9998C3.24659 25.9947 3.64158 26.9489 4.3449 27.6526C5.04822 28.3562 6.00226 28.7517 6.99714 28.7519C7.99202 28.7521 8.94625 28.3571 9.6499 27.6538C9.66365 27.6401 9.67615 27.6276 9.6874 27.6138L16.3124 19.9401C17.9053 20.6808 19.6843 20.925 21.4178 20.6408C23.1514 20.3565 24.7592 19.5571 26.0322 18.3465C27.3051 17.1358 28.1842 15.5701 28.555 13.8529C28.9258 12.1358 28.7711 10.3468 28.1112 8.71882H28.1137ZM19.9999 19.2501C18.7758 19.2495 17.5717 18.9391 16.4999 18.3476C16.3492 18.2641 16.1744 18.2351 16.0048 18.2654C15.8352 18.2956 15.6812 18.3834 15.5687 18.5138L8.57115 26.6101C8.14628 27.0171 7.57887 27.2415 6.99051 27.2352C6.40216 27.2289 5.83968 26.9924 5.42363 26.5763C5.00757 26.1603 4.77105 25.5978 4.76475 25.0095C4.75844 24.4211 4.98286 23.8537 5.3899 23.4288L13.4849 16.4363C13.6163 16.3234 13.7046 16.1684 13.7347 15.9977C13.7648 15.827 13.7348 15.6512 13.6499 15.5001C12.9711 14.2722 12.6632 12.8738 12.7634 11.4743C12.8637 10.0749 13.3678 8.73464 14.2147 7.61607C15.0616 6.4975 16.2149 5.64869 17.5346 5.17259C18.8544 4.69649 20.2839 4.61354 21.6499 4.93382L17.4474 9.49132C17.366 9.57973 17.3071 9.6864 17.2755 9.80235C17.244 9.91829 17.2408 10.0401 17.2662 10.1576L17.9724 13.4513C18.0027 13.5927 18.0732 13.7223 18.1754 13.8245C18.2777 13.9268 18.4073 13.9973 18.5487 14.0276L21.8424 14.7338C21.9599 14.7592 22.0817 14.756 22.1976 14.7244C22.3136 14.6929 22.4202 14.6339 22.5087 14.5526L27.0612 10.3501C27.3083 11.4138 27.3122 12.5195 27.0726 13.5849C26.833 14.6503 26.3561 15.6479 25.6774 16.5034C24.9986 17.3588 24.1356 18.0501 23.1526 18.5257C22.1696 19.0013 21.0919 19.2489 19.9999 19.2501Z" fill="#112D1F"/>
</svg>
