<svg width="32" height="32" viewBox="0 0 32 32" fill="none" xmlns="http://www.w3.org/2000/svg">
<path d="M25.5298 24.47C25.6035 24.5386 25.6626 24.6214 25.7036 24.7134C25.7446 24.8054 25.7667 24.9047 25.7684 25.0054C25.7702 25.1061 25.7517 25.2062 25.714 25.2996C25.6762 25.393 25.6201 25.4778 25.5489 25.549C25.4777 25.6202 25.3928 25.6764 25.2994 25.7141C25.2061 25.7518 25.106 25.7703 25.0053 25.7686C24.9046 25.7668 24.8053 25.7447 24.7133 25.7038C24.6213 25.6628 24.5385 25.6037 24.4698 25.53L15.9998 17.0612L7.52985 25.53C7.38767 25.6625 7.19963 25.7346 7.00532 25.7311C6.81102 25.7277 6.62564 25.649 6.48822 25.5116C6.35081 25.3742 6.2721 25.1888 6.26867 24.9945C6.26524 24.8002 6.33737 24.6121 6.46985 24.47L14.9386 16L6.46985 7.52997C6.33737 7.38779 6.26524 7.19975 6.26867 7.00545C6.2721 6.81114 6.35081 6.62576 6.48822 6.48835C6.62564 6.35093 6.81102 6.27222 7.00532 6.26879C7.19963 6.26537 7.38767 6.33749 7.52985 6.46997L15.9998 14.9387L24.4698 6.46997C24.612 6.33749 24.8001 6.26537 24.9944 6.26879C25.1887 6.27222 25.3741 6.35093 25.5115 6.48835C25.6489 6.62576 25.7276 6.81114 25.731 7.00545C25.7344 7.19975 25.6623 7.38779 25.5298 7.52997L17.0611 16L25.5298 24.47Z" fill="#112D1F"/>
</svg>
